<svg width="153" height="49" viewBox="0 0 153 49" fill="none" xmlns="http://www.w3.org/2000/svg">
<mask id="path-1-inside-1_172_666" fill="white">
<path d="M0 8C0 3.58172 3.58172 0 8 0H145C149.418 0 153 3.58172 153 8V41C153 45.4183 149.418 49 145 49H8C3.58172 49 0 45.4183 0 41V8Z"/>
</mask>
<path d="M0 8C0 3.58172 3.58172 0 8 0H145C149.418 0 153 3.58172 153 8V41C153 45.4183 149.418 49 145 49H8C3.58172 49 0 45.4183 0 41V8Z" fill="#192729"/>
<path d="M8 1H145V-1H8V1ZM152 8V41H154V8H152ZM145 48H8V50H145V48ZM1 41V8H-1V41H1ZM8 48C4.13401 48 1 44.866 1 41H-1C-1 45.9706 3.02944 50 8 50V48ZM152 41C152 44.866 148.866 48 145 48V50C149.971 50 154 45.9706 154 41H152ZM145 1C148.866 1 152 4.13401 152 8H154C154 3.02944 149.971 -1 145 -1V1ZM8 -1C3.02944 -1 -1 3.02944 -1 8H1C1 4.13401 4.13401 1 8 1V-1Z" fill="#192729" mask="url(#path-1-inside-1_172_666)"/>
<path d="M24.212 20.082C25.2093 20.082 25.7887 20.8007 25.95 22.238C25.95 23.426 25.6713 24.174 25.114 24.482H24.982C24.5567 24.4527 24.344 24.2987 24.344 24.02L24.432 22.37V21.556L24.3 21.402H24.08C23.6107 21.402 23.0607 22.7073 22.43 25.318L22.298 26.968V27.452C22.298 28.9773 22.98 29.872 24.344 30.136H25.268C26.7933 30.136 28.6413 29.1533 30.812 27.188H30.9C31.296 27.188 31.5233 27.4373 31.582 27.936C31.2447 28.816 30.8487 29.256 30.394 29.256C28.2967 30.752 26.412 31.5 24.74 31.5C23.068 31.5 21.8873 30.5833 21.198 28.75L21 27.188V26.902C21 24.6287 21.638 22.5387 22.914 20.632C23.3247 20.2653 23.7573 20.082 24.212 20.082ZM35.322 22.832C36.246 22.832 36.796 23.4773 36.972 24.768V24.966C36.972 26.3887 36.2387 27.694 34.772 28.882C35.6227 29.718 37.1113 30.136 39.238 30.136C39.5607 30.2387 39.722 30.466 39.722 30.818C39.722 31.214 39.4653 31.412 38.952 31.412C37.5147 31.412 36.004 31.0453 34.42 30.312V30.95C34.42 32.4607 34.0973 33.216 33.452 33.216C32.9973 33.216 32.77 32.3433 32.77 30.598V28.882L32.704 28.266L32.858 27.562L32.704 25.45V25.362C32.704 24.966 32.9093 24.6947 33.32 24.548C33.892 23.404 34.5593 22.832 35.322 22.832ZM34.222 27.65C34.6473 27.65 35.124 26.8873 35.652 25.362V24.416L35.388 24.13H35.19C34.5447 24.57 34.222 25.7433 34.222 27.65ZM42.4332 23.602C43.0198 23.6167 44.0098 24.6433 45.4032 26.682L45.4472 27.056C45.4472 27.4667 44.4425 27.782 42.4332 28.002L42.3672 28.068V28.156C42.6752 29.476 42.9978 30.136 43.3352 30.136H43.5992C44.0685 30.136 44.7798 29.63 45.7332 28.618H45.8652C46.1585 28.618 46.3858 28.8307 46.5472 29.256C46.5472 29.608 45.9312 30.2167 44.6992 31.082C44.3765 31.2727 43.9878 31.412 43.5332 31.5C42.3452 31.5 41.5165 30.3853 41.0472 28.156C40.3725 28.0533 40.0352 27.7747 40.0352 27.32C40.0352 26.9973 40.2845 26.7847 40.7832 26.682V26.77L41.0032 26.682V26.132C41.0032 24.4453 41.4798 23.602 42.4332 23.602ZM42.5652 25.186H42.3672L42.2792 26V26.682H42.3672C43.1885 26.6527 43.5992 26.5647 43.5992 26.418C43.2178 25.846 42.8732 25.4353 42.5652 25.186ZM51.5066 23.008C52.1519 23.008 52.4746 23.2647 52.4746 23.778L52.2766 24.196L52.1446 28.222C52.1446 30.0407 52.5113 31.17 53.2446 31.61L53.2886 31.94C53.2446 32.3653 53.0466 32.578 52.6946 32.578H52.5626C51.4626 31.83 50.9126 30.686 50.9126 29.146H50.7586C50.1719 30.7887 49.4606 31.61 48.6246 31.61C47.8473 31.39 47.4586 30.8107 47.4586 29.872C47.4586 27.804 48.2873 25.7433 49.9446 23.69C50.5019 23.2353 51.0226 23.008 51.5066 23.008ZM48.8446 28.992L48.7566 29.608V30.026H48.9766C50.0766 27.2833 50.6266 25.6113 50.6266 25.01H50.5386C49.6879 25.9633 49.1233 27.2907 48.8446 28.992ZM56.4124 18.146C56.8231 18.234 57.0284 18.4393 57.0284 18.762L56.8964 19.73V20.016C56.8964 20.6613 56.9698 21.3433 57.1164 22.062H57.1604C58.8618 21.5487 59.9178 21.292 60.3284 21.292C60.7538 21.4093 60.9664 21.622 60.9664 21.93C60.9664 22.4287 60.4604 22.678 59.4484 22.678L57.1604 23.492C57.1604 25.472 57.3731 28.1633 57.7984 31.566C57.7104 31.962 57.4978 32.16 57.1604 32.16H57.1164C56.6031 32.16 56.3464 31.5 56.3464 30.18C56.1558 29.1973 55.9944 27.0633 55.8624 23.778H55.4664C54.0878 23.69 53.3984 23.3673 53.3984 22.81C53.3984 22.6487 53.5524 22.4507 53.8604 22.216H54.0804L55.0924 22.48H55.7964L55.5984 19.73C55.5984 18.674 55.8698 18.146 56.4124 18.146ZM63.6168 23.602C64.2034 23.6167 65.1934 24.6433 66.5868 26.682L66.6308 27.056C66.6308 27.4667 65.6261 27.782 63.6168 28.002L63.5508 28.068V28.156C63.8588 29.476 64.1814 30.136 64.5188 30.136H64.7828C65.2521 30.136 65.9634 29.63 66.9168 28.618H67.0488C67.3421 28.618 67.5694 28.8307 67.7308 29.256C67.7308 29.608 67.1148 30.2167 65.8828 31.082C65.5601 31.2727 65.1714 31.412 64.7168 31.5C63.5288 31.5 62.7001 30.3853 62.2308 28.156C61.5561 28.0533 61.2188 27.7747 61.2188 27.32C61.2188 26.9973 61.4681 26.7847 61.9668 26.682V26.77L62.1868 26.682V26.132C62.1868 24.4453 62.6634 23.602 63.6168 23.602ZM63.7488 25.186H63.5508L63.4628 26V26.682H63.5508C64.3721 26.6527 64.7828 26.5647 64.7828 26.418C64.4014 25.846 64.0568 25.4353 63.7488 25.186ZM81.4452 18.432L81.9952 18.256C82.4938 18.256 82.7432 18.916 82.7432 20.236L83.4252 25.318L83.5132 25.406L86.0432 24.482C86.3805 24.482 86.5638 24.7387 86.5932 25.252C86.5932 25.6333 85.6618 26.0953 83.7992 26.638L83.7112 26.682V26.77C83.7112 27.078 84.1952 28.684 85.1632 31.588V31.632C85.1632 31.9107 84.9358 32.1453 84.4812 32.336C84.0558 32.336 83.7772 31.83 83.6452 30.818C83.3078 30.0847 82.8972 28.8747 82.4132 27.188H82.3252C80.4038 27.584 79.4432 27.9213 79.4432 28.2C78.3872 30.488 77.5878 31.632 77.0452 31.632C76.7372 31.632 76.5538 31.434 76.4952 31.038C76.4952 30.686 76.8838 29.9967 77.6612 28.97L78.0132 28.2H77.4632L77.0452 28.288C76.5025 28.156 76.2312 27.8773 76.2312 27.452C76.4512 26.9387 76.7738 26.682 77.1992 26.682L77.7492 26.902C78.5705 26.902 78.9812 26.6013 78.9812 26C79.7292 24.24 80.5505 21.7173 81.4452 18.432ZM81.6432 22.436L80.3452 26.352C81.5478 26.1173 82.1492 25.89 82.1492 25.67C81.9292 23.514 81.7605 22.436 81.6432 22.436ZM89.4901 24.042L90.3921 23.91C90.7588 23.91 90.9641 24.1373 91.0081 24.592C91.0081 24.988 90.5315 25.2447 89.5781 25.362C88.9768 25.8313 88.6761 26.4327 88.6761 27.166V27.892C88.9695 29.5053 89.4681 30.312 90.1721 30.312H90.3921C90.8028 30.312 91.4188 29.9233 92.2401 29.146H92.3721C92.6655 29.146 92.9001 29.3513 93.0761 29.762C92.8708 30.3927 92.2108 30.9647 91.0961 31.478C90.8908 31.566 90.6341 31.61 90.3261 31.61C88.8155 31.61 87.8328 30.422 87.3781 28.046V27.562C87.3781 25.846 88.0821 24.6727 89.4901 24.042ZM96.4296 24.042L97.3316 23.91C97.6982 23.91 97.9036 24.1373 97.9476 24.592C97.9476 24.988 97.4709 25.2447 96.5176 25.362C95.9162 25.8313 95.6156 26.4327 95.6156 27.166V27.892C95.9089 29.5053 96.4076 30.312 97.1116 30.312H97.3316C97.7422 30.312 98.3582 29.9233 99.1796 29.146H99.3116C99.6049 29.146 99.8396 29.3513 100.016 29.762C99.8102 30.3927 99.1502 30.9647 98.0356 31.478C97.8302 31.566 97.5736 31.61 97.2656 31.61C95.7549 31.61 94.7722 30.422 94.3176 28.046V27.562C94.3176 25.846 95.0216 24.6727 96.4296 24.042ZM104.645 23.206C105.73 23.206 106.552 24.0127 107.109 25.626L107.197 26.088C107.197 27.6573 106.464 29.2633 104.997 30.906C104.41 31.4487 103.816 31.72 103.215 31.72C102.335 31.72 101.712 31.214 101.345 30.202C101.213 29.7327 101.147 29.322 101.147 28.97V28.706C101.147 26.3887 101.99 24.6287 103.677 23.426C103.97 23.2793 104.293 23.206 104.645 23.206ZM102.445 28.926C102.445 29.9233 102.702 30.422 103.215 30.422C104.286 30.422 105.173 29.0507 105.877 26.308V25.89C105.628 24.9807 105.166 24.526 104.491 24.526C104.227 24.526 104.095 24.7093 104.095 25.076C104.095 25.3253 103.802 25.5233 103.215 25.67C102.702 26.5353 102.445 27.6207 102.445 28.926ZM109.052 24.878L109.448 24.658C109.8 24.658 110.057 24.8707 110.218 25.296C109.983 26.3813 109.866 27.496 109.866 28.64C109.866 29.212 110.035 29.8353 110.372 30.51H110.504C110.929 30.51 111.435 28.8307 112.022 25.472C112.227 25.296 112.425 25.208 112.616 25.208C113.071 25.208 113.298 26.0147 113.298 27.628C113.489 29.4027 113.701 30.29 113.936 30.29L114.266 30.158C114.691 30.3193 114.904 30.5467 114.904 30.84C114.64 31.3973 114.273 31.676 113.804 31.676C113.276 31.676 112.77 31.148 112.286 30.092C111.699 31.324 111.105 31.94 110.504 31.94C109.609 31.94 108.986 31.0087 108.634 29.146L108.568 28.442V28.222C108.568 27.0487 108.729 25.934 109.052 24.878ZM118.229 24.086C119.476 24.1887 120.099 24.7973 120.099 25.912L120.143 26.198L120.099 29.63C120.099 30.026 120.327 30.5613 120.781 31.236V31.28C120.664 31.7053 120.451 31.918 120.143 31.918C119.234 31.5367 118.779 30.73 118.779 29.498V29.212L118.713 29.168L118.779 29.08V29.036L118.845 26C118.845 25.5747 118.662 25.362 118.295 25.362H118.031C117.298 25.6553 116.931 27.2613 116.931 30.18C116.931 31.192 116.675 31.698 116.161 31.698C115.765 31.698 115.56 31.4487 115.545 30.95V28.75C115.545 25.9047 115.795 24.482 116.293 24.482L116.513 24.416L116.975 24.482C117.371 24.218 117.789 24.086 118.229 24.086ZM124.067 18.146C124.477 18.234 124.683 18.4393 124.683 18.762L124.551 19.73V20.016C124.551 20.6613 124.624 21.3433 124.771 22.062H124.815C126.516 21.5487 127.572 21.292 127.983 21.292C128.408 21.4093 128.621 21.622 128.621 21.93C128.621 22.4287 128.115 22.678 127.103 22.678L124.815 23.492C124.815 25.472 125.027 28.1633 125.453 31.566C125.365 31.962 125.152 32.16 124.815 32.16H124.771C124.257 32.16 124.001 31.5 124.001 30.18C123.81 29.1973 123.649 27.0633 123.517 23.778H123.121C121.742 23.69 121.053 23.3673 121.053 22.81C121.053 22.6487 121.207 22.4507 121.515 22.216H121.735L122.747 22.48H123.451L123.253 19.73C123.253 18.674 123.524 18.146 124.067 18.146ZM129.863 16.562C130.259 16.7233 130.457 16.958 130.457 17.266C130.574 21.4313 130.743 24.438 130.963 26.286C130.816 26.6527 130.604 26.836 130.325 26.836C129.782 26.836 129.511 25.9633 129.511 24.218C129.379 23.5727 129.269 21.2333 129.181 17.2C129.181 16.8333 129.408 16.6207 129.863 16.562ZM129.995 31.698C130.127 31.2433 130.362 31.016 130.699 31.016C131.051 31.016 131.293 31.2433 131.425 31.698C131.264 32.1233 131.036 32.336 130.743 32.336H130.677C130.384 32.336 130.156 32.1233 129.995 31.698Z" fill="#F5F5F5"/>
</svg>
