<svg width="102" height="48" viewBox="0 0 102 48" fill="none" xmlns="http://www.w3.org/2000/svg">
<path d="M15.456 0.584H15.936C16.832 0.584 17.344 1.112 17.472 2.168C17.472 3.096 16.208 3.56 13.68 3.56C9.616 5.096 6.88 7.336 5.472 10.28L5.136 11.672V11.96C5.136 13.368 6.08 14.072 7.968 14.072L13.248 13.784C16.8 13.784 19.2 15.512 20.448 18.968L20.736 20.648C20.736 23.976 18.048 27.016 12.672 29.768C11.072 30.216 9.664 30.52 8.448 30.68C5.184 30.68 2.88 28.84 1.536 25.16C1.152 23.912 0.96 22.648 0.96 21.368C0.96 20.984 1.264 20.584 1.872 20.168H2.448C3.44 20.168 3.936 21.432 3.936 23.96C4.768 26.456 6.08 27.704 7.872 27.704H9.168C11.76 27.704 14.32 26.2 16.848 23.192C17.52 22.232 17.856 21.192 17.856 20.072C17.856 18.504 16.624 17.4 14.16 16.76H13.968L7.68 16.904C4.192 16.488 2.448 15.048 2.448 12.584L2.256 11.96C2.256 8.664 4.72 5.464 9.648 2.36C11.792 1.176 13.728 0.584 15.456 0.584ZM23.3318 3.992C24.5478 4.248 25.1558 4.792 25.1558 5.624C24.8358 6.52 24.3238 6.968 23.6198 6.968C22.4358 6.744 21.8438 6.152 21.8438 5.192C22.1638 4.392 22.6598 3.992 23.3318 3.992ZM25.1558 10.712C25.6678 10.712 26.0998 11.176 26.4518 12.104L26.0198 15.512V17.768C26.0198 20.392 26.4678 23.832 27.3638 28.088C27.0438 28.696 26.4998 29 25.7318 29C24.4198 29 23.5558 25.16 23.1398 17.48V15.8C23.1398 12.408 23.8118 10.712 25.1558 10.712ZM37.5619 10.568C39.0339 10.568 39.7699 11.272 39.7699 12.68C39.9619 12.68 40.0579 12.92 40.0579 13.4H40.2499L40.0579 14.792L40.2499 24.488L39.9619 32.168C42.8419 32.168 44.7779 34.28 45.7699 38.504C45.7699 39.368 45.1779 39.864 43.9939 39.992C43.4499 39.992 42.8419 38.792 42.1699 36.392C41.5299 35.464 40.7939 35 39.9619 35H39.7699C38.7459 41.816 37.8499 45.224 37.0819 45.224C36.1539 46.92 34.8099 47.768 33.0499 47.768C30.4579 47.16 29.1619 45.864 29.1619 43.88V43.592C29.1619 40.584 31.3059 37.32 35.5939 33.8L37.0819 32.888L37.2739 27.704V26.504H37.0819C35.9939 27.88 34.9539 28.568 33.9619 28.568H33.6739C31.4659 28.568 30.2019 26.872 29.8819 23.48V22.424C29.8819 18.328 31.3859 14.776 34.3939 11.768C35.3219 10.968 36.3779 10.568 37.5619 10.568ZM32.7619 21.8V24.104C32.8899 25.16 33.1299 25.688 33.4819 25.688H33.9619C34.8579 25.688 35.9619 22.392 37.2739 15.8V13.4C35.3539 13.4 33.8499 16.2 32.7619 21.8ZM31.9939 43.688C32.1219 44.488 32.5699 44.888 33.3379 44.888C34.8739 44.888 35.9779 42.152 36.6499 36.68H36.3619C33.4499 39.208 31.9939 41.544 31.9939 43.688ZM49.0114 12.824C51.7314 13.048 53.0914 14.376 53.0914 16.808L53.1874 17.432L53.0914 24.92C53.0914 25.784 53.5874 26.952 54.5794 28.424V28.52C54.3234 29.448 53.8594 29.912 53.1874 29.912C51.2034 29.08 50.2114 27.32 50.2114 24.632V24.008L50.0674 23.912L50.2114 23.72V23.624L50.3554 17C50.3554 16.072 49.9554 15.608 49.1554 15.608H48.5794C46.9794 16.248 46.1794 19.752 46.1794 26.12C46.1794 28.328 45.6194 29.432 44.4994 29.432C43.6354 29.432 43.1874 28.888 43.1554 27.8V23C43.1554 16.792 43.6994 13.688 44.7874 13.688L45.2674 13.544L46.2754 13.688C47.1394 13.112 48.0514 12.824 49.0114 12.824ZM76.0976 14.552L76.9616 14.072C77.7296 14.072 78.2896 14.536 78.6416 15.464C78.1296 17.832 77.8736 20.264 77.8736 22.76C77.8736 24.008 78.2416 25.368 78.9776 26.84H79.2656C80.1936 26.84 81.2976 23.176 82.5776 15.848C83.0256 15.464 83.4576 15.272 83.8736 15.272C84.8656 15.272 85.3616 17.032 85.3616 20.552C85.7776 24.424 86.2416 26.36 86.7536 26.36L87.4736 26.072C88.4016 26.424 88.8656 26.92 88.8656 27.56C88.2896 28.776 87.4896 29.384 86.4656 29.384C85.3136 29.384 84.2096 28.232 83.1536 25.928C81.8736 28.616 80.5776 29.96 79.2656 29.96C77.3136 29.96 75.9536 27.928 75.1856 23.864L75.0416 22.328V21.848C75.0416 19.288 75.3936 16.856 76.0976 14.552ZM95.7848 14.744C99.1768 14.744 101.177 16.872 101.785 21.128C101.785 24.904 100.025 27.608 96.5048 29.24C96.1208 29.432 95.5928 29.528 94.9208 29.528H94.5848L93.5288 29.432V29.528L93.7208 42.344C93.4968 43.336 92.9848 43.832 92.1848 43.832C91.2888 43.544 90.8408 43.08 90.8408 42.44L90.4088 16.328C90.4088 15.496 90.9048 15.064 91.8968 15.032L92.9048 15.464C93.8008 14.984 94.7608 14.744 95.7848 14.744ZM93.3848 19.832L93.2408 21.32L93.3848 26.408L94.7288 26.744C96.8728 26.744 98.2648 25.176 98.9048 22.04V21.32C98.6808 18.792 97.7848 17.528 96.2168 17.528H95.4968C94.0888 17.528 93.3848 18.296 93.3848 19.832Z" fill="#192729"/>
</svg>
