<svg width="440" height="956" viewBox="0 0 440 956" fill="none" xmlns="http://www.w3.org/2000/svg">
<path d="M74.0998 249.155C75.2457 243.048 76.5509 242.558 79.2655 243.524C85.6005 243.524 84.6655 261.099 81.2772 267.349C80.0311 269.647 76.9496 269.732 75.59 267.89C73.9197 265.63 73.9012 263.856 73.9012 259.877C73.9012 256.743 73.5397 252.141 74.0998 249.155Z" fill="#192729" fill-opacity="0.3"/>
<path d="M69.4895 840.146C70.6355 834.039 71.9407 833.55 74.6554 834.515C80.9903 834.515 80.0553 852.09 76.6671 858.341C75.4209 860.639 72.3394 860.721 70.9797 858.882C69.3095 856.622 69.2909 854.848 69.2909 850.869C69.2909 847.735 68.9294 843.133 69.4895 840.146Z" fill="#192729" fill-opacity="0.3"/>
<path d="M296.164 249.155C297.31 243.048 298.615 242.558 301.33 243.524C307.665 243.524 306.729 261.099 303.341 267.349C302.095 269.647 299.013 269.732 297.654 267.89C295.984 265.63 295.965 263.856 295.965 259.877C295.965 256.743 295.603 252.141 296.164 249.155Z" fill="#E29000" fill-opacity="0.3"/>
<path d="M291.554 840.146C292.699 834.039 294.004 833.55 296.719 834.515C303.054 834.515 302.12 852.09 298.731 858.341C297.485 860.639 294.403 860.721 293.044 858.882C291.373 856.622 291.355 854.848 291.355 850.869C291.355 847.735 290.993 843.133 291.554 840.146Z" fill="#8AD1D7" fill-opacity="0.3"/>
<path d="M74.0998 543.649C75.2457 537.542 76.5509 537.052 79.2655 538.018C85.6005 538.018 84.6655 555.593 81.2772 561.843C80.0311 564.141 76.9496 564.224 75.59 562.384C73.9197 560.124 73.9012 558.35 73.9012 554.371C73.9012 551.237 73.5397 546.635 74.0998 543.649Z" fill="#E29000" fill-opacity="0.3"/>
<path d="M296.164 543.649C297.31 537.542 298.615 537.052 301.33 538.018C307.665 538.018 306.729 555.593 303.341 561.843C302.095 564.141 299.013 564.224 297.654 562.384C295.984 560.124 295.965 558.35 295.965 554.371C295.965 551.237 295.603 546.635 296.164 543.649Z" fill="#8AD1D7" fill-opacity="0.3"/>
<path d="M186.59 96.9002C187.736 90.7933 189.041 90.3024 191.756 91.2688C198.091 91.2688 197.155 108.843 193.767 115.094C192.521 117.393 189.439 117.476 188.08 115.635C186.41 113.375 186.391 111.601 186.391 107.622C186.391 104.488 186.029 99.8858 186.59 96.9002Z" fill="#8AD1D7" fill-opacity="0.3"/>
<path d="M181.98 687.892C183.125 681.785 184.43 681.293 187.145 682.261C193.48 682.261 192.545 699.834 189.157 706.086C187.911 708.384 184.829 708.467 183.469 706.627C181.799 704.367 181.781 702.593 181.781 698.612C181.781 695.478 181.419 690.876 181.98 687.892Z" fill="#E29000" fill-opacity="0.3"/>
<path d="M408.504 96.9002C409.651 90.7933 410.956 90.3024 413.67 91.2688C420.005 91.2688 419.07 108.843 415.682 115.094C414.436 117.393 411.354 117.476 409.995 115.635C408.324 113.375 408.306 111.601 408.306 107.622C408.306 104.488 407.944 99.8858 408.504 96.9002Z" fill="#192729" fill-opacity="0.3"/>
<path d="M403.894 687.892C405.04 681.785 406.345 681.293 409.06 682.261C415.395 682.261 414.46 699.834 411.072 706.086C409.826 708.384 406.744 708.467 405.384 706.627C403.714 704.367 403.696 702.593 403.696 698.612C403.696 695.478 403.334 690.876 403.894 687.892Z" fill="#192729" fill-opacity="0.3"/>
<path d="M186.59 391.394C187.736 385.287 189.041 384.796 191.756 385.763C198.091 385.763 197.155 403.336 193.767 409.587C192.521 411.887 189.439 411.969 188.08 410.13C186.41 407.87 186.391 406.094 186.391 402.115C186.391 398.981 186.029 394.379 186.59 391.394Z" fill="#192729" fill-opacity="0.3"/>
<path d="M408.504 391.394C409.651 385.287 410.956 384.796 413.67 385.763C420.005 385.763 419.07 403.336 415.682 409.587C414.436 411.887 411.354 411.969 409.995 410.13C408.324 407.87 408.306 406.094 408.306 402.115C408.306 398.981 407.944 394.379 408.504 391.394Z" fill="#192729" fill-opacity="0.3"/>
<path d="M131.267 175.031C132.413 168.924 133.718 168.433 136.433 169.4C142.768 169.4 141.832 186.974 138.444 193.225C137.198 195.523 134.116 195.607 132.757 193.766C131.087 191.506 131.068 189.732 131.068 185.752C131.068 182.619 130.706 178.017 131.267 175.031Z" fill="#192729" fill-opacity="0.3"/>
<path d="M126.657 766.022C127.802 759.915 129.107 759.425 131.822 760.391C138.157 760.391 137.222 777.966 133.834 784.216C132.588 786.515 129.506 786.599 128.146 784.757C126.476 782.497 126.458 780.723 126.458 776.744C126.458 773.61 126.096 769.008 126.657 766.022Z" fill="#E29000" fill-opacity="0.3"/>
<path d="M353.331 175.031C354.476 168.924 355.782 168.433 358.496 169.4C364.831 169.4 363.897 186.974 360.508 193.225C359.262 195.523 356.181 195.607 354.821 193.766C353.151 191.506 353.132 189.732 353.132 185.752C353.132 182.619 352.771 178.017 353.331 175.031Z" fill="#8AD1D7" fill-opacity="0.3"/>
<path d="M348.72 766.022C349.867 759.915 351.172 759.425 353.887 760.391C360.221 760.391 359.286 777.966 355.898 784.216C354.652 786.515 351.571 786.599 350.211 784.757C348.541 782.497 348.522 780.723 348.522 776.744C348.522 773.61 348.161 769.008 348.72 766.022Z" fill="#8AD1D7" fill-opacity="0.3"/>
<path d="M131.267 469.524C132.413 463.417 133.718 462.928 136.433 463.893C142.768 463.893 141.832 481.468 138.444 487.719C137.198 490.017 134.116 490.101 132.757 488.26C131.087 486 131.068 484.226 131.068 480.247C131.068 477.113 130.706 472.511 131.267 469.524Z" fill="#192729" fill-opacity="0.3"/>
<path d="M353.331 469.524C354.476 463.417 355.782 462.928 358.496 463.893C364.831 463.893 363.897 481.468 360.508 487.719C359.262 490.017 356.181 490.101 354.821 488.26C353.151 486 353.132 484.226 353.132 480.247C353.132 477.113 352.771 472.511 353.331 469.524Z" fill="#8AD1D7" fill-opacity="0.3"/>
<path d="M243.756 22.776C244.902 16.6689 246.207 16.1782 248.922 17.1445C255.257 17.1445 254.323 34.7189 250.934 40.9698C249.688 43.2688 246.607 43.3514 245.246 41.5113C243.576 39.2511 243.558 37.4766 243.558 33.4973C243.558 30.3636 243.197 25.7614 243.756 22.776Z" fill="#E29000" fill-opacity="0.3"/>
<path d="M239.146 613.767C240.292 607.66 241.598 607.169 244.312 608.136C250.647 608.136 249.712 625.71 246.323 631.962C245.077 634.26 241.996 634.342 240.637 632.503C238.967 630.243 238.947 628.469 238.947 624.488C238.947 621.354 238.586 616.752 239.146 613.767Z" fill="#E29000" fill-opacity="0.3"/>
<path d="M243.756 317.27C244.902 311.163 246.207 310.671 248.922 311.639C255.257 311.639 254.323 329.212 250.934 335.462C249.688 337.762 246.607 337.845 245.246 336.005C243.576 333.745 243.558 331.969 243.558 327.99C243.558 324.856 243.197 320.254 243.756 317.27Z" fill="#E29000" fill-opacity="0.3"/>
<path d="M239.146 908.261C240.292 902.154 241.598 901.663 244.312 902.63C250.647 902.63 249.712 920.204 246.323 926.454C245.077 928.754 241.996 928.836 240.637 926.997C238.967 924.735 238.947 922.961 238.947 918.982C238.947 915.848 238.586 911.246 239.146 908.261Z" fill="#E29000" fill-opacity="0.3"/>
<path d="M100.644 222.358C100.184 217.289 101.042 211.593 103.706 211.083C106.025 213.081 109.334 211.918 110.441 218.088C111.727 225.257 112.37 235.046 109.983 241.625C108.632 245.35 106.561 245.738 104.519 244.526C102.752 243.476 103.02 239.212 103.02 236.178C103.02 234.157 102.993 232.075 102.613 230.186C102.062 227.432 100.917 225.366 100.644 222.358Z" fill="#E29000" fill-opacity="0.3"/>
<path d="M96.0335 813.35C95.5733 808.281 96.4321 802.585 99.0959 802.074C101.415 804.073 104.724 802.91 105.831 809.08C107.117 816.248 107.759 826.038 105.373 832.615C104.022 836.341 101.951 836.729 99.909 835.517C98.142 834.468 98.4095 830.204 98.4095 827.169C98.4095 825.148 98.3822 823.066 98.0029 821.177C97.4512 818.424 96.3072 816.357 96.0335 813.35Z" fill="#E29000" fill-opacity="0.3"/>
<path d="M322.708 222.358C322.247 217.289 323.107 211.593 325.771 211.083C328.09 213.081 331.398 211.918 332.505 218.088C333.791 225.257 334.434 235.046 332.048 241.625C330.696 245.35 328.625 245.738 326.584 244.526C324.817 243.476 325.084 239.212 325.084 236.178C325.084 234.157 325.056 232.075 324.678 230.186C324.125 227.432 322.981 225.366 322.708 222.358Z" fill="#192729" fill-opacity="0.3"/>
<path d="M318.098 813.35C317.637 808.281 318.497 802.585 321.16 802.074C323.479 804.073 326.788 802.91 327.895 809.08C329.181 816.248 329.824 826.038 327.437 832.615C326.086 836.341 324.014 836.729 321.974 835.517C320.206 834.468 320.474 830.204 320.474 827.169C320.474 825.148 320.446 823.066 320.067 821.177C319.515 818.424 318.371 816.357 318.098 813.35Z" fill="#E29000" fill-opacity="0.3"/>
<path d="M100.644 516.852C100.184 511.783 101.042 506.087 103.706 505.577C106.025 507.575 109.334 506.412 110.441 512.582C111.727 519.75 112.37 529.54 109.983 536.117C108.632 539.844 106.561 540.232 104.519 539.02C102.752 537.97 103.02 533.706 103.02 530.672C103.02 528.651 102.993 526.569 102.613 524.68C102.062 521.926 100.917 519.859 100.644 516.852Z" fill="#E29000" fill-opacity="0.3"/>
<path d="M322.708 516.852C322.247 511.783 323.107 506.087 325.771 505.577C328.09 507.575 331.398 506.412 332.505 512.582C333.791 519.75 334.434 529.54 332.048 536.117C330.696 539.844 328.625 540.232 326.584 539.02C324.817 537.97 325.084 533.706 325.084 530.672C325.084 528.651 325.056 526.569 324.678 524.68C324.125 521.926 322.981 519.859 322.708 516.852Z" fill="#192729" fill-opacity="0.3"/>
<path d="M213.133 70.1033C212.673 65.0333 213.532 59.3382 216.196 58.8282C218.515 60.8259 221.823 59.6626 222.931 65.8342C224.217 73.0015 224.859 82.7908 222.474 89.3692C221.122 93.094 219.05 93.4827 217.01 92.2701C215.243 91.2204 215.51 86.9574 215.51 83.9232C215.51 81.9013 215.482 79.8195 215.104 77.9301C214.551 75.1768 213.407 73.1105 213.133 70.1033Z" fill="#192729" fill-opacity="0.3"/>
<path d="M208.523 661.095C208.063 656.024 208.922 650.331 211.585 649.82C213.905 651.818 217.213 650.654 218.321 656.826C219.607 663.994 220.25 673.783 217.863 680.36C216.512 684.085 214.44 684.475 212.399 683.261C210.632 682.211 210.9 677.949 210.9 674.915C210.9 672.892 210.872 670.812 210.493 668.921C209.941 666.168 208.797 664.103 208.523 661.095Z" fill="#192729" fill-opacity="0.3"/>
<path d="M213.133 364.597C212.673 359.527 213.532 353.831 216.196 353.322C218.515 355.32 221.823 354.156 222.931 360.328C224.217 367.496 224.859 377.283 222.474 383.863C221.122 387.587 219.05 387.975 217.01 386.763C215.243 385.713 215.51 381.452 215.51 378.417C215.51 376.394 215.482 374.312 215.104 372.423C214.551 369.67 213.407 367.603 213.133 364.597Z" fill="#192729" fill-opacity="0.3"/>
<path d="M157.81 148.234C157.35 143.164 158.21 137.469 160.874 136.959C163.192 138.957 166.501 137.793 167.608 143.965C168.894 151.132 169.537 160.922 167.151 167.5C165.799 171.225 163.728 171.613 161.687 170.401C159.92 169.351 160.187 165.088 160.187 162.054C160.187 160.032 160.159 157.95 159.781 156.061C159.228 153.308 158.084 151.241 157.81 148.234Z" fill="#192729" fill-opacity="0.3"/>
<path d="M153.2 739.225C152.74 734.156 153.6 728.46 156.263 727.95C158.582 729.948 161.891 728.785 162.998 734.956C164.284 742.124 164.927 751.913 162.54 758.492C161.189 762.217 159.117 762.605 157.076 761.393C155.309 760.343 155.577 756.079 155.577 753.045C155.577 751.024 155.549 748.942 155.17 747.053C154.618 744.299 153.474 742.233 153.2 739.225Z" fill="#192729" fill-opacity="0.3"/>
<path d="M379.725 148.234C379.265 143.164 380.124 137.469 382.788 136.959C385.106 138.957 388.415 137.793 389.522 143.965C390.809 151.132 391.451 160.922 389.066 167.5C387.714 171.225 385.642 171.613 383.601 170.401C381.835 169.351 382.101 165.088 382.101 162.054C382.101 160.032 382.074 157.95 381.695 156.061C381.143 153.308 379.999 151.241 379.725 148.234Z" fill="#192729" fill-opacity="0.3"/>
<path d="M375.115 739.225C374.655 734.156 375.514 728.46 378.177 727.95C380.496 729.948 383.805 728.785 384.912 734.956C386.199 742.124 386.841 751.913 384.455 758.492C383.104 762.217 381.032 762.605 378.99 761.393C377.224 760.343 377.492 756.079 377.492 753.045C377.492 751.024 377.464 748.942 377.084 747.053C376.533 744.299 375.389 742.233 375.115 739.225Z" fill="#E29000" fill-opacity="0.3"/>
<path d="M157.81 442.727C157.35 437.659 158.21 431.963 160.874 431.452C163.192 433.45 166.501 432.288 167.608 438.458C168.894 445.626 169.537 455.415 167.151 461.995C165.799 465.719 163.728 466.107 161.687 464.895C159.92 463.845 160.187 459.582 160.187 456.547C160.187 454.526 160.159 452.444 159.781 450.555C159.228 447.802 158.084 445.735 157.81 442.727Z" fill="#E29000" fill-opacity="0.3"/>
<path d="M379.725 442.727C379.265 437.659 380.124 431.963 382.788 431.452C385.106 433.45 388.415 432.288 389.522 438.458C390.809 445.626 391.451 455.415 389.066 461.995C387.714 465.719 385.642 466.107 383.601 464.895C381.835 463.845 382.101 459.582 382.101 456.547C382.101 454.526 382.074 452.444 381.695 450.555C381.143 447.802 379.999 445.735 379.725 442.727Z" fill="#E29000" fill-opacity="0.3"/>
<path d="M128.268 250.451C127.446 261.061 133.123 261.516 136.291 261.051C138.486 260.732 140.774 257.061 141.071 251.904C141.437 245.539 137.635 241.77 135.803 239.91C132.873 236.931 128.85 242.927 128.268 250.451Z" fill="#8AD1D7" fill-opacity="0.3"/>
<path d="M123.658 841.443C122.836 852.052 128.513 852.507 131.681 852.043C133.876 851.723 136.164 848.052 136.461 842.896C136.827 836.531 133.024 832.762 131.193 830.902C128.263 827.923 124.239 833.919 123.658 841.443Z" fill="#8AD1D7" fill-opacity="0.3"/>
<path d="M350.331 250.451C349.51 261.061 355.187 261.516 358.355 261.051C360.55 260.732 362.839 257.061 363.135 251.904C363.502 245.539 359.698 241.77 357.867 239.91C354.937 236.931 350.914 242.927 350.331 250.451Z" fill="#E29000" fill-opacity="0.3"/>
<path d="M345.721 841.443C344.9 852.052 350.577 852.507 353.745 852.043C355.94 851.723 358.229 848.052 358.525 842.896C358.891 836.531 355.088 832.762 353.257 830.902C350.326 827.923 346.304 833.919 345.721 841.443Z" fill="#8AD1D7" fill-opacity="0.3"/>
<path d="M128.268 544.945C127.446 555.554 133.123 556.008 136.291 555.545C138.486 555.226 140.774 551.555 141.071 546.398C141.437 540.033 137.635 536.264 135.803 534.404C132.873 531.425 128.85 537.421 128.268 544.945Z" fill="#E29000" fill-opacity="0.3"/>
<path d="M350.331 544.945C349.51 555.554 355.187 556.008 358.355 555.545C360.55 555.226 362.839 551.555 363.135 546.398C363.502 540.033 359.698 536.264 357.867 534.404C354.937 531.425 350.914 537.421 350.331 544.945Z" fill="#8AD1D7" fill-opacity="0.3"/>
<path d="M240.757 98.1953C239.936 108.807 245.613 109.26 248.781 108.797C250.976 108.476 253.265 104.805 253.561 99.6494C253.928 93.2832 250.124 89.5153 248.293 87.6547C245.362 84.6766 241.34 90.673 240.757 98.1953Z" fill="#E29000" fill-opacity="0.3"/>
<path d="M236.147 689.186C235.325 699.798 241.003 700.251 244.171 699.788C246.366 699.467 248.655 695.796 248.951 690.641C249.317 684.274 245.514 680.508 243.683 678.645C240.752 675.668 236.73 681.664 236.147 689.186Z" fill="#8AD1D7" fill-opacity="0.3"/>
<path d="M240.757 392.688C239.936 403.3 245.613 403.753 248.781 403.291C250.976 402.969 253.265 399.298 253.561 394.144C253.928 387.777 250.124 384.008 248.293 382.148C245.362 379.171 241.34 385.167 240.757 392.688Z" fill="#E29000" fill-opacity="0.3"/>
<path d="M185.434 176.326C184.613 186.937 190.29 187.391 193.458 186.928C195.653 186.607 197.942 182.936 198.238 177.78C198.605 171.414 194.801 167.646 192.97 165.786C190.04 162.807 186.017 168.804 185.434 176.326Z" fill="#8AD1D7" fill-opacity="0.3"/>
<path d="M180.824 767.318C180.003 777.93 185.68 778.383 188.848 777.92C191.043 777.599 193.332 773.928 193.628 768.771C193.994 762.406 190.191 758.638 188.36 756.777C185.429 753.798 181.407 759.796 180.824 767.318Z" fill="#192729" fill-opacity="0.3"/>
<path d="M407.349 176.326C406.527 186.937 412.204 187.391 415.372 186.928C417.568 186.607 419.856 182.936 420.152 177.78C420.519 171.414 416.716 167.646 414.885 165.786C411.954 162.807 407.932 168.804 407.349 176.326Z" fill="#E29000" fill-opacity="0.3"/>
<path d="M402.739 767.318C401.917 777.93 407.595 778.383 410.763 777.92C412.958 777.599 415.246 773.928 415.542 768.771C415.909 762.406 412.106 758.638 410.274 756.777C407.344 753.798 403.322 759.796 402.739 767.318Z" fill="#192729" fill-opacity="0.3"/>
<path d="M185.434 470.82C184.613 481.43 190.29 481.885 193.458 481.421C195.653 481.101 197.942 477.43 198.238 472.274C198.605 465.909 194.801 462.14 192.97 460.28C190.04 457.301 186.017 463.297 185.434 470.82Z" fill="#192729" fill-opacity="0.3"/>
<path d="M407.349 470.82C406.527 481.43 412.204 481.885 415.372 481.421C417.568 481.101 419.856 477.43 420.152 472.274C420.519 465.909 416.716 462.14 414.885 460.28C411.954 457.301 407.932 463.297 407.349 470.82Z" fill="#192729" fill-opacity="0.3"/>
<path d="M18.5438 24.0711C17.7223 34.6821 23.3994 35.1354 26.5675 34.6725C28.7624 34.3517 31.051 30.6811 31.3475 25.525C31.7136 19.159 27.9107 15.3909 26.0797 13.5302C23.1491 10.5522 19.1262 16.5487 18.5438 24.0711Z" fill="#192729" fill-opacity="0.3"/>
<path d="M13.9336 615.062C13.1121 625.673 18.7892 626.126 21.9573 625.664C24.1522 625.342 26.4408 621.671 26.7372 616.517C27.1034 610.15 23.3005 606.383 21.4695 604.521C18.5389 601.544 14.516 607.54 13.9336 615.062Z" fill="#192729" fill-opacity="0.3"/>
<path d="M18.5438 331.613C17.7223 343.189 23.3994 343.684 26.5675 343.179C28.7624 342.829 31.051 338.826 31.3475 333.2C31.7136 326.256 27.9107 322.145 26.0797 320.115C23.1491 316.866 19.1262 323.407 18.5438 331.613Z" fill="#192729" fill-opacity="0.3"/>
<path d="M13.9336 922.605C13.1121 934.18 18.7892 934.675 21.9573 934.171C24.1522 933.821 26.4408 929.817 26.7372 924.192C27.1034 917.248 23.3005 913.137 21.4695 911.106C18.5389 907.858 14.516 914.399 13.9336 922.605Z" fill="#E29000" fill-opacity="0.3"/>
<path d="M158.731 216.897C159.926 212.467 161.685 212.557 163.499 213.888C164.62 214.825 165.915 214.341 166.639 214.825C168.297 215.932 169.118 219.297 169.444 223.182C169.554 224.501 170.003 234.442 169.261 234.883C167.981 235.646 165.976 234.348 164.62 234.348C162.828 234.348 157.62 229.893 157.693 224.853C157.734 222.077 158.103 219.23 158.731 216.897Z" fill="#E29000" fill-opacity="0.3"/>
<path d="M154.121 807.889C155.316 803.459 157.075 803.549 158.888 804.879C160.01 805.816 161.305 805.333 162.029 805.816C163.687 806.923 164.507 810.288 164.834 814.174C164.944 815.493 165.392 825.433 164.651 825.875C163.37 826.638 161.366 825.34 160.01 825.34C158.218 825.34 153.01 820.885 153.083 815.845C153.124 813.069 153.492 810.222 154.121 807.889Z" fill="#E29000" fill-opacity="0.3"/>
<path d="M380.646 216.897C381.84 212.467 383.599 212.557 385.413 213.888C386.535 214.825 387.83 214.341 388.554 214.825C390.212 215.932 391.032 219.297 391.358 223.182C391.469 224.501 391.918 234.442 391.176 234.883C389.895 235.646 387.89 234.348 386.535 234.348C384.743 234.348 379.535 229.893 379.608 224.853C379.648 222.077 380.017 219.23 380.646 216.897Z" fill="#8AD1D7" fill-opacity="0.3"/>
<path d="M376.035 807.889C377.23 803.459 378.989 803.549 380.802 804.879C381.924 805.816 383.22 805.333 383.944 805.816C385.602 806.923 386.422 810.288 386.748 814.174C386.859 815.493 387.307 825.433 386.566 825.875C385.284 826.638 383.281 825.34 381.924 825.34C380.133 825.34 374.925 820.885 374.998 815.845C375.038 813.069 375.407 810.222 376.035 807.889Z" fill="#E29000" fill-opacity="0.3"/>
<path d="M158.731 511.391C159.926 506.961 161.685 507.051 163.499 508.382C164.62 509.319 165.915 508.835 166.639 509.319C168.297 510.426 169.118 513.791 169.444 517.676C169.554 518.995 170.003 528.934 169.261 529.377C167.981 530.14 165.976 528.842 164.62 528.842C162.828 528.842 157.62 524.387 157.693 519.347C157.734 516.571 158.103 513.724 158.731 511.391Z" fill="#8AD1D7" fill-opacity="0.3"/>
<path d="M380.646 511.391C381.84 506.961 383.599 507.051 385.413 508.382C386.535 509.319 387.83 508.835 388.554 509.319C390.212 510.426 391.032 513.791 391.358 517.676C391.469 518.995 391.918 528.934 391.176 529.377C389.895 530.14 387.89 528.842 386.535 528.842C384.743 528.842 379.535 524.387 379.608 519.347C379.648 516.571 380.017 513.724 380.646 511.391Z" fill="#8AD1D7" fill-opacity="0.3"/>
<path d="M215.898 142.773C217.092 138.344 218.852 138.434 220.665 139.765C221.787 140.701 223.082 140.217 223.806 140.701C225.465 141.808 226.285 145.173 226.611 149.058C226.721 150.377 227.17 160.317 226.428 160.759C225.147 161.523 223.142 160.224 221.787 160.224C219.995 160.224 214.788 155.769 214.861 150.73C214.9 147.954 215.269 145.105 215.898 142.773Z" fill="#192729" fill-opacity="0.3"/>
<path d="M211.288 733.764C212.482 729.334 214.241 729.426 216.055 730.757C217.177 731.692 218.471 731.208 219.196 731.692C220.854 732.799 221.675 736.164 222 740.049C222.111 741.368 222.56 751.309 221.818 751.751C220.537 752.513 218.532 751.215 217.177 751.215C215.384 751.215 210.177 746.76 210.25 741.722C210.29 738.946 210.659 736.097 211.288 733.764Z" fill="#E29000" fill-opacity="0.3"/>
<path d="M215.898 437.267C217.092 432.837 218.852 432.928 220.665 434.257C221.787 435.194 223.082 434.71 223.806 435.194C225.465 436.301 226.285 439.666 226.611 443.552C226.721 444.871 227.17 454.811 226.428 455.253C225.147 456.016 223.142 454.718 221.787 454.718C219.995 454.718 214.788 450.263 214.861 445.223C214.9 442.446 215.269 439.599 215.898 437.267Z" fill="#8AD1D7" fill-opacity="0.3"/>
<path d="M44.3971 585.516C45.5916 581.085 47.3507 581.177 49.1645 582.508C50.2863 583.443 51.5811 582.959 52.3053 583.443C53.9636 584.55 54.7838 587.915 55.1097 591.8C55.2203 593.12 55.6692 603.06 54.9274 603.502C53.6464 604.265 51.6417 602.966 50.2863 602.966C48.4942 602.966 43.2867 598.511 43.3595 593.473C43.3997 590.697 43.7685 587.848 44.3971 585.516Z" fill="#E29000" fill-opacity="0.3"/>
<path d="M266.461 585.516C267.656 581.085 269.415 581.177 271.228 582.508C272.35 583.443 273.646 582.959 274.37 583.443C276.028 584.55 276.848 587.915 277.174 591.8C277.284 593.12 277.733 603.06 276.991 603.502C275.71 604.265 273.706 602.966 272.35 602.966C270.559 602.966 265.351 598.511 265.424 593.473C265.463 590.697 265.832 587.848 266.461 585.516Z" fill="#192729" fill-opacity="0.3"/>
<path d="M49.0074 285.012C50.2018 280.582 51.9609 280.672 53.7748 282.003C54.8965 282.94 56.1913 282.456 56.9156 282.94C58.5738 284.047 59.3939 287.412 59.7199 291.297C59.8306 292.616 60.2794 302.555 59.5376 302.996C58.2566 303.761 56.252 302.463 54.8965 302.463C53.1044 302.463 47.8969 298.008 47.9698 292.968C48.0099 290.192 48.3787 287.343 49.0074 285.012Z" fill="#192729" fill-opacity="0.3"/>
<path d="M44.3971 876.004C45.5916 871.574 47.3507 871.664 49.1645 872.994C50.2863 873.931 51.5811 873.448 52.3053 873.931C53.9636 875.038 54.7838 878.403 55.1097 882.289C55.2203 883.608 55.6692 893.546 54.9274 893.988C53.6464 894.753 51.6417 893.455 50.2863 893.455C48.4942 893.455 43.2867 888.998 43.3595 883.96C43.3997 881.184 43.7685 878.335 44.3971 876.004Z" fill="#E29000" fill-opacity="0.3"/>
<path d="M271.072 285.012C272.266 280.582 274.025 280.672 275.839 282.003C276.961 282.94 278.255 282.456 278.979 282.94C280.638 284.047 281.458 287.412 281.784 291.297C281.895 292.616 282.344 302.555 281.602 302.996C280.32 303.761 278.316 302.463 276.961 302.463C275.168 302.463 269.961 298.008 270.034 292.968C270.074 290.192 270.442 287.343 271.072 285.012Z" fill="#8AD1D7" fill-opacity="0.3"/>
<path d="M266.461 876.004C267.656 871.574 269.415 871.664 271.228 872.994C272.35 873.931 273.646 873.448 274.37 873.931C276.028 875.038 276.848 878.403 277.174 882.289C277.284 883.608 277.733 893.546 276.991 893.988C275.71 894.753 273.706 893.455 272.35 893.455C270.559 893.455 265.351 888.998 265.424 883.96C265.463 881.184 265.832 878.335 266.461 876.004Z" fill="#E29000" fill-opacity="0.3"/>
<path d="M187.383 261.42C185.155 259.254 186.751 245.227 188.161 245.227C189.57 245.227 193.385 244.487 194.26 247.334C195.127 250.158 196.316 257.85 194.686 260.449C192.467 263.99 189.849 263.816 187.383 261.42Z" fill="#192729" fill-opacity="0.3"/>
<path d="M182.772 852.41C180.544 850.244 182.141 836.219 183.55 836.219C184.96 836.219 188.775 835.477 189.65 838.326C190.516 841.15 191.705 848.84 190.076 851.44C187.857 854.981 185.238 854.807 182.772 852.41Z" fill="#8AD1D7" fill-opacity="0.3"/>
<path d="M409.298 261.42C407.069 259.254 408.666 245.227 410.076 245.227C411.485 245.227 415.299 244.487 416.174 247.334C417.042 250.158 418.23 257.85 416.601 260.449C414.381 263.99 411.763 263.816 409.298 261.42Z" fill="#E29000" fill-opacity="0.3"/>
<path d="M404.687 852.41C402.459 850.244 404.056 836.219 405.465 836.219C406.875 836.219 410.689 835.477 411.564 838.326C412.431 841.15 413.619 848.84 411.99 851.44C409.771 854.981 407.153 854.807 404.687 852.41Z" fill="#8AD1D7" fill-opacity="0.3"/>
<path d="M187.383 555.912C185.155 553.746 186.751 539.721 188.161 539.721C189.57 539.721 193.385 538.979 194.26 541.828C195.127 544.652 196.316 552.342 194.686 554.943C192.467 558.484 189.849 558.31 187.383 555.912Z" fill="#192729" fill-opacity="0.3"/>
<path d="M409.298 555.912C407.069 553.746 408.666 539.721 410.076 539.721C411.485 539.721 415.299 538.979 416.174 541.828C417.042 544.652 418.23 552.342 416.601 554.943C414.381 558.484 411.763 558.31 409.298 555.912Z" fill="#192729" fill-opacity="0.3"/>
<path d="M20.4924 107.161C18.2638 104.994 19.8606 90.9689 21.2704 90.9689C22.6801 90.9689 26.4943 90.2278 27.3691 93.0759C28.2364 95.9 29.4247 103.591 27.7957 106.19C25.5765 109.732 22.9577 109.557 20.4924 107.161Z" fill="#8AD1D7" fill-opacity="0.3"/>
<path d="M15.882 698.152C13.6535 695.985 15.2502 681.961 16.66 681.961C18.0698 681.961 21.884 681.219 22.7587 684.068C23.626 686.892 24.8144 694.582 23.1854 697.182C20.9661 700.723 18.3473 700.549 15.882 698.152Z" fill="#E29000" fill-opacity="0.3"/>
<path d="M20.4924 415.678C18.2638 413.512 19.8606 399.486 21.2704 399.486C22.6801 399.486 26.4943 398.746 27.3691 401.593C28.2364 404.417 29.4247 412.109 27.7957 414.707C25.5765 418.248 22.9577 418.074 20.4924 415.678Z" fill="#E29000" fill-opacity="0.3"/>
<path d="M244.55 187.295C242.321 185.128 243.918 171.103 245.328 171.103C246.738 171.103 250.552 170.362 251.427 173.21C252.294 176.034 253.482 183.725 251.853 186.324C249.634 189.866 247.015 189.691 244.55 187.295Z" fill="#8AD1D7" fill-opacity="0.3"/>
<path d="M239.94 778.287C237.711 776.119 239.308 762.095 240.718 762.095C242.128 762.095 245.942 761.353 246.816 764.202C247.684 767.026 248.872 774.716 247.243 777.316C245.024 780.857 242.405 780.683 239.94 778.287Z" fill="#8AD1D7" fill-opacity="0.3"/>
<path d="M244.55 481.79C242.321 479.621 243.918 465.597 245.328 465.597C246.738 465.597 250.552 464.855 251.427 467.704C252.294 470.528 253.482 478.218 251.853 480.818C249.634 484.359 247.015 484.185 244.55 481.79Z" fill="#192729" fill-opacity="0.3"/>
<path d="M77.6592 35.0397C75.4307 32.8732 77.0275 18.8478 78.4372 18.8478C79.847 18.8478 83.6612 18.1068 84.536 20.9549C85.4032 23.7789 86.5916 31.4699 84.9626 34.0691C82.7433 37.6105 80.1245 37.4363 77.6592 35.0397Z" fill="#192729" fill-opacity="0.3"/>
<path d="M73.049 626.031C70.8205 623.865 72.4172 609.84 73.827 609.84C75.2368 609.84 79.0509 609.098 79.9257 611.947C80.793 614.771 81.9813 622.461 80.3523 625.061C78.1331 628.603 75.5143 628.428 73.049 626.031Z" fill="#E29000" fill-opacity="0.3"/>
<path d="M299.724 35.0397C297.495 32.8732 299.092 18.8478 300.501 18.8478C301.911 18.8478 305.725 18.1068 306.6 20.9549C307.468 23.7789 308.656 31.4699 307.027 34.0691C304.807 37.6105 302.188 37.4363 299.724 35.0397Z" fill="#8AD1D7" fill-opacity="0.3"/>
<path d="M295.113 626.031C292.884 623.865 294.481 609.84 295.891 609.84C297.301 609.84 301.115 609.098 301.99 611.947C302.857 614.771 304.045 622.461 302.416 625.061C300.197 628.603 297.578 628.428 295.113 626.031Z" fill="#E29000" fill-opacity="0.3"/>
<path d="M77.6592 329.533C75.4307 327.367 77.0275 313.342 78.4372 313.342C79.847 313.342 83.6612 312.601 84.536 315.449C85.4032 318.273 86.5916 325.963 84.9626 328.564C82.7433 332.105 80.1245 331.931 77.6592 329.533Z" fill="#8AD1D7" fill-opacity="0.3"/>
<path d="M73.049 927.536C70.8205 925.37 72.4172 911.345 73.827 911.345C75.2368 911.345 79.0509 910.603 79.9257 913.452C80.793 916.276 81.9813 923.966 80.3523 926.567C78.1331 930.108 75.5143 929.934 73.049 927.536Z" fill="#192729" fill-opacity="0.3"/>
<path d="M299.724 329.533C297.495 327.367 299.092 313.342 300.501 313.342C301.911 313.342 305.725 312.601 306.6 315.449C307.468 318.273 308.656 325.963 307.027 328.564C304.807 332.105 302.188 331.931 299.724 329.533Z" fill="#192729" fill-opacity="0.3"/>
<path d="M295.113 920.525C292.884 918.359 294.481 904.334 295.891 904.334C297.301 904.334 301.115 903.592 301.99 906.441C302.857 909.265 304.045 916.955 302.416 919.555C300.197 923.096 297.578 922.922 295.113 920.525Z" fill="#192729" fill-opacity="0.3"/>
<path d="M219.051 213.159C216.385 212.706 213.78 214.306 212.543 219.473C210.909 226.302 214.08 229.859 216.432 231.91C218.351 233.583 221.938 233.247 223.983 232.534C225.531 231.994 226.677 234.235 227.769 231.91C228.437 230.486 229.004 222.637 228.432 220.719C227.669 218.167 226.318 217.134 225.178 215.572C224.442 214.563 223.322 214.425 222.483 214.217C221.346 213.936 220.18 213.352 219.051 213.159Z" fill="#8AD1D7" fill-opacity="0.3"/>
<path d="M214.441 804.151C211.775 803.698 209.17 805.298 207.933 810.464C206.298 817.294 209.47 820.85 211.822 822.902C213.741 824.575 217.327 824.238 219.373 823.525C220.92 822.986 222.067 825.227 223.158 822.902C223.826 821.478 224.394 813.629 223.822 811.711C223.06 809.159 221.708 808.126 220.568 806.564C219.832 805.554 218.712 805.417 217.873 805.208C216.735 804.927 215.569 804.344 214.441 804.151Z" fill="#E29000" fill-opacity="0.3"/>
<path d="M219.051 507.653C216.385 507.2 213.78 508.8 212.543 513.967C210.909 520.796 214.08 524.353 216.432 526.404C218.351 528.077 221.938 527.741 223.983 527.028C225.531 526.488 226.677 528.729 227.769 526.404C228.437 524.98 229.004 517.131 228.432 515.213C227.669 512.661 226.318 511.628 225.178 510.066C224.442 509.057 223.322 508.919 222.483 508.711C221.346 508.43 220.18 507.846 219.051 507.653Z" fill="#E29000" fill-opacity="0.3"/>
<path d="M52.1605 60.905C49.4944 60.4504 46.8893 62.0511 45.6526 67.2185C44.0183 74.0464 47.1893 77.6035 49.5421 79.6555C51.4603 81.3283 55.0468 80.9921 57.0924 80.2786C58.6402 79.7386 59.787 81.9803 60.8776 79.6555C61.546 78.2306 62.1135 70.3819 61.5412 68.4647C60.7789 65.9112 59.4276 64.8793 58.2872 63.3167C57.5515 62.3085 56.4316 62.1693 55.5925 61.9618C54.4548 61.6806 53.2887 61.0974 52.1605 60.905Z" fill="#192729" fill-opacity="0.3"/>
<path d="M47.5503 651.896C44.8842 651.441 42.2791 653.042 41.0424 658.21C39.4081 665.038 42.5791 668.596 44.9319 670.647C46.8501 672.32 50.4365 671.984 52.4821 671.271C54.0299 670.73 55.1767 672.972 56.2674 670.647C56.9358 669.223 57.5033 661.374 56.9309 659.456C56.1687 656.902 54.8174 655.871 53.677 654.307C52.9413 653.3 51.8214 653.16 50.9822 652.954C49.8446 652.673 48.6784 652.089 47.5503 651.896Z" fill="#E29000" fill-opacity="0.3"/>
<path d="M274.225 60.905C271.558 60.4504 268.954 62.0511 267.716 67.2185C266.082 74.0464 269.254 77.6035 271.606 79.6555C273.524 81.3283 277.111 80.9921 279.156 80.2786C280.704 79.7386 281.851 81.9803 282.942 79.6555C283.61 78.2306 284.178 70.3819 283.606 68.4647C282.843 65.9112 281.492 64.8793 280.351 63.3167C279.616 62.3085 278.495 62.1693 277.657 61.9618C276.519 61.6806 275.353 61.0974 274.225 60.905Z" fill="#192729" fill-opacity="0.3"/>
<path d="M269.614 651.896C266.948 651.441 264.343 653.042 263.107 658.21C261.472 665.038 264.643 668.596 266.996 670.647C268.914 672.32 272.501 671.984 274.546 671.271C276.094 670.73 277.24 672.972 278.332 670.647C279 669.223 279.567 661.374 278.995 659.456C278.233 656.902 276.881 655.871 275.741 654.307C275.005 653.3 273.885 653.16 273.046 652.954C271.909 652.673 270.743 652.089 269.614 651.896Z" fill="#8AD1D7" fill-opacity="0.3"/>
<path d="M52.1605 355.399C49.4944 354.944 46.8893 356.544 45.6526 361.712C44.0183 368.54 47.1893 372.098 49.5421 374.15C51.4603 375.823 55.0468 375.486 57.0924 374.773C58.6402 374.232 59.787 376.475 60.8776 374.15C61.546 372.725 62.1135 364.876 61.5412 362.959C60.7789 360.404 59.4276 359.374 58.2872 357.81C57.5515 356.802 56.4316 356.663 55.5925 356.456C54.4548 356.175 53.2887 355.592 52.1605 355.399Z" fill="#192729" fill-opacity="0.3"/>
<path d="M274.225 355.399C271.558 354.944 268.954 356.544 267.716 361.712C266.082 368.54 269.254 372.098 271.606 374.15C273.524 375.823 277.111 375.486 279.156 374.773C280.704 374.232 281.851 376.475 282.942 374.15C283.61 372.725 284.178 364.876 283.606 362.959C282.843 360.404 281.492 359.374 280.351 357.81C279.616 356.802 278.495 356.663 277.657 356.456C276.519 356.175 275.353 355.592 274.225 355.399Z" fill="#E29000" fill-opacity="0.3"/>
<path d="M104.717 583.783C102.051 583.328 99.4462 584.929 98.2089 590.095C96.5747 596.925 99.7463 600.481 102.099 602.532C104.017 604.205 107.604 603.869 109.649 603.156C111.197 602.617 112.343 604.857 113.435 602.532C114.103 601.108 114.67 593.259 114.098 591.341C113.335 588.789 111.984 587.757 110.844 586.194C110.108 585.185 108.988 585.047 108.149 584.839C107.012 584.558 105.846 583.975 104.717 583.783Z" fill="#8AD1D7" fill-opacity="0.3"/>
<path d="M326.781 583.783C324.115 583.328 321.51 584.929 320.273 590.095C318.639 596.925 321.81 600.481 324.163 602.532C326.081 604.205 329.667 603.869 331.713 603.156C333.261 602.617 334.408 604.857 335.498 602.532C336.167 601.108 336.735 593.259 336.162 591.341C335.4 588.789 334.049 587.757 332.908 586.194C332.173 585.185 331.052 585.047 330.213 584.839C329.076 584.558 327.909 583.975 326.781 583.783Z" fill="#E29000" fill-opacity="0.3"/>
<path d="M109.328 281.274C106.661 280.819 104.057 282.421 102.819 287.588C101.185 294.415 104.357 297.974 106.709 300.025C108.627 301.698 112.214 301.362 114.259 300.649C115.807 300.107 116.954 302.35 118.045 300.025C118.713 298.601 119.281 290.752 118.709 288.834C117.946 286.28 116.595 285.249 115.454 283.685C114.719 282.678 113.598 282.538 112.76 282.332C111.622 282.051 110.456 281.467 109.328 281.274Z" fill="#E29000" fill-opacity="0.3"/>
<path d="M104.717 872.266C102.051 871.811 99.4462 873.411 98.2089 878.579C96.5747 885.407 99.7463 888.965 102.099 891.017C104.017 892.69 107.604 892.353 109.649 891.64C111.197 891.099 112.343 893.342 113.435 891.017C114.103 889.592 114.67 881.744 114.098 879.826C113.335 877.271 111.984 876.241 110.844 874.677C110.108 873.669 108.988 873.53 108.149 873.323C107.012 873.042 105.846 872.459 104.717 872.266Z" fill="#E29000" fill-opacity="0.3"/>
<path d="M331.391 281.274C328.726 280.819 326.12 282.421 324.884 287.588C323.25 294.415 326.42 297.974 328.773 300.025C330.692 301.698 334.278 301.362 336.324 300.649C337.871 300.107 339.018 302.35 340.109 300.025C340.777 298.601 341.344 290.752 340.772 288.834C340.01 286.28 338.658 285.249 337.518 283.685C336.782 282.678 335.663 282.538 334.823 282.332C333.685 282.051 332.519 281.467 331.391 281.274Z" fill="#8AD1D7" fill-opacity="0.3"/>
<path d="M325.421 874.27C322.755 873.815 320.15 875.415 318.913 880.583C317.279 887.411 320.45 890.967 322.802 893.019C324.721 894.692 328.307 894.357 330.353 893.642C331.901 893.103 333.047 895.344 334.139 893.019C334.807 891.594 335.374 883.746 334.802 881.83C334.039 879.275 332.688 878.243 331.548 876.681C330.812 875.673 329.692 875.534 328.853 875.327C327.716 875.044 326.55 874.461 325.421 874.27Z" fill="#E29000" fill-opacity="0.3"/>
<path d="M249.085 243.243C251.636 240.763 254.227 239.639 257.382 244.631C258.96 249.967 257.944 253.281 256.856 255.862C255.232 259.717 254.559 261.81 252.182 260.992C250.138 260.288 245.287 255.977 245.287 249.967C245.287 247.004 248.199 244.105 249.085 243.243Z" fill="#192729" fill-opacity="0.3"/>
<path d="M244.475 834.234C247.026 831.754 249.616 830.63 252.772 835.622C254.35 840.961 253.334 844.272 252.246 846.854C250.621 850.708 249.948 852.802 247.572 851.983C245.528 851.28 240.677 846.968 240.677 840.961C240.677 837.995 243.588 835.097 244.475 834.234Z" fill="#192729" fill-opacity="0.3"/>
<path d="M249.085 537.737C251.636 535.257 254.227 534.133 257.382 539.123C258.96 544.461 257.944 547.775 256.856 550.354C255.232 554.21 254.559 556.304 252.182 555.486C250.138 554.782 245.287 550.469 245.287 544.461C245.287 541.498 248.199 538.599 249.085 537.737Z" fill="#8AD1D7" fill-opacity="0.3"/>
<path d="M82.1946 90.9883C84.745 88.5078 87.3364 87.3832 90.4913 92.3749C92.0692 97.713 91.0528 101.026 89.966 103.606C88.3406 107.462 87.6678 109.555 85.2914 108.736C83.2477 108.032 78.3966 103.721 78.3966 97.7132C78.3966 94.7482 81.3084 91.85 82.1946 90.9883Z" fill="#8AD1D7" fill-opacity="0.3"/>
<path d="M77.5844 681.98C80.1348 679.5 82.7262 678.374 85.8814 683.366C87.4591 688.704 86.4426 692.018 85.3557 694.597C83.7307 698.454 83.0575 700.547 80.6812 699.727C78.6375 699.023 73.7864 694.712 73.7864 688.704C73.7864 685.739 76.6982 682.842 77.5844 681.98Z" fill="#E29000" fill-opacity="0.3"/>
<path d="M304.259 90.9883C306.809 88.5078 309.4 87.3832 312.556 92.3749C314.134 97.713 313.117 101.026 312.03 103.606C310.405 107.462 309.732 109.555 307.356 108.736C305.312 108.032 300.461 103.721 300.461 97.7132C300.461 94.7482 303.372 91.85 304.259 90.9883Z" fill="#E29000" fill-opacity="0.3"/>
<path d="M299.648 681.98C302.199 679.5 304.79 678.374 307.945 683.366C309.523 688.704 308.507 692.018 307.419 694.597C305.795 698.454 305.122 700.547 302.746 699.727C300.701 699.023 295.851 694.712 295.851 688.704C295.851 685.739 298.762 682.842 299.648 681.98Z" fill="#192729" fill-opacity="0.3"/>
<path d="M82.1946 385.482C84.745 383.002 87.3364 381.876 90.4913 386.868C92.0692 392.207 91.0528 395.52 89.966 398.099C88.3406 401.956 87.6678 404.048 85.2914 403.229C83.2477 402.526 78.3966 398.214 78.3966 392.207C78.3966 389.241 81.3084 386.344 82.1946 385.482Z" fill="#E29000" fill-opacity="0.3"/>
<path d="M304.259 385.482C306.809 383.002 309.4 381.876 312.556 386.868C314.134 392.207 313.117 395.52 312.03 398.099C310.405 401.956 309.732 404.048 307.356 403.229C305.312 402.526 300.461 398.214 300.461 392.207C300.461 389.241 303.372 386.344 304.259 385.482Z" fill="#8AD1D7" fill-opacity="0.3"/>
<path d="M26.8717 167.116C29.4221 164.635 32.0136 163.511 35.1688 168.502C36.7465 173.841 35.73 177.154 34.6429 179.734C33.0181 183.589 32.3448 185.682 29.9685 184.864C27.9247 184.16 23.0737 179.848 23.0737 173.841C23.0737 170.876 25.9856 167.978 26.8717 167.116Z" fill="#192729" fill-opacity="0.3"/>
<path d="M22.2615 758.108C24.8119 755.626 27.4033 754.502 30.5586 759.494C32.1362 764.833 31.1197 768.146 30.0327 770.725C28.4079 774.582 27.7346 776.674 25.3583 775.855C23.3145 775.152 18.4635 770.84 18.4635 764.833C18.4635 761.867 21.3753 758.968 22.2615 758.108Z" fill="#8AD1D7" fill-opacity="0.3"/>
<path d="M26.8717 475.633C29.4221 473.153 32.0136 472.029 35.1688 477.019C36.7465 482.358 35.73 485.671 34.6429 488.25C33.0181 492.107 32.3448 494.2 29.9685 493.38C27.9247 492.677 23.0737 488.365 23.0737 482.358C23.0737 479.394 25.9856 476.495 26.8717 475.633Z" fill="#E29000" fill-opacity="0.3"/>
<path d="M139.361 16.8641C141.912 14.3837 144.503 13.2591 147.659 18.2507C149.237 23.5889 148.22 26.9022 147.133 29.4819C145.508 33.3376 144.835 35.4307 142.459 34.6122C140.415 33.9082 135.564 29.5964 135.564 23.5889C135.564 20.6242 138.475 17.726 139.361 16.8641Z" fill="#192729" fill-opacity="0.3"/>
<path d="M134.751 607.855C137.302 605.376 139.893 604.251 143.048 609.242C144.626 614.58 143.61 617.893 142.522 620.473C140.898 624.329 140.224 626.423 137.848 625.603C135.804 624.899 130.954 620.587 130.954 614.58C130.954 611.616 133.865 608.718 134.751 607.855Z" fill="#192729" fill-opacity="0.3"/>
<path d="M361.426 16.8641C363.976 14.3837 366.568 13.2591 369.722 18.2507C371.3 23.5889 370.284 26.9022 369.197 29.4819C367.572 33.3376 366.898 35.4307 364.522 34.6122C362.479 33.9082 357.628 29.5964 357.628 23.5889C357.628 20.6242 360.539 17.726 361.426 16.8641Z" fill="#192729" fill-opacity="0.3"/>
<path d="M356.815 607.855C359.366 605.376 361.957 604.251 365.113 609.242C366.69 614.58 365.673 617.893 364.587 620.473C362.962 624.329 362.288 626.423 359.912 625.603C357.869 624.899 353.017 620.587 353.017 614.58C353.017 611.616 355.929 608.718 356.815 607.855Z" fill="#192729" fill-opacity="0.3"/>
<path d="M139.361 311.358C141.912 308.878 144.503 307.752 147.659 312.744C149.237 318.082 148.22 321.396 147.133 323.975C145.508 327.831 144.835 329.925 142.459 329.105C140.415 328.401 135.564 324.09 135.564 318.082C135.564 315.117 138.475 312.22 139.361 311.358Z" fill="#192729" fill-opacity="0.3"/>
<path d="M133.368 912.366C135.919 909.886 138.51 908.76 141.665 913.752C143.243 919.091 142.226 922.404 141.14 924.983C139.514 928.84 138.841 930.932 136.465 930.113C134.421 929.41 129.57 925.098 129.57 919.091C129.57 916.125 132.482 913.228 133.368 912.366Z" fill="#8AD1D7" fill-opacity="0.3"/>
<path d="M361.426 311.358C363.976 308.878 366.568 307.752 369.722 312.744C371.3 318.082 370.284 321.396 369.197 323.975C367.572 327.831 366.898 329.925 364.522 329.105C362.479 328.401 357.628 324.09 357.628 318.082C357.628 315.117 360.539 312.22 361.426 311.358Z" fill="#E29000" fill-opacity="0.3"/>
<path d="M356.815 902.349C359.366 899.869 361.957 898.743 365.113 903.735C366.69 909.074 365.673 912.387 364.587 914.967C362.962 918.823 362.288 920.915 359.912 920.096C357.869 919.393 353.017 915.081 353.017 909.074C353.017 906.108 355.929 903.212 356.815 902.349Z" fill="#192729" fill-opacity="0.3"/>
<path d="M109.053 82.8326C106.937 79.2229 108.191 67.9894 109.236 64.333C110.028 58.9309 113.673 60.9756 115.283 62.6109C116.123 63.465 117.894 64.8311 118.019 67.3886C118.188 70.8453 117.507 74.1273 116.98 77.2773C116.254 81.6166 115.624 84.163 113.414 84.7215C111.963 85.088 110.265 84.9006 109.053 82.8326Z" fill="#E29000" fill-opacity="0.3"/>
<path d="M104.443 673.823C102.326 670.215 103.581 658.98 104.626 655.325C105.418 649.923 109.063 651.967 110.672 653.602C111.513 654.457 113.283 655.822 113.408 658.38C113.577 661.837 112.897 665.118 112.37 668.269C111.644 672.607 111.014 675.154 108.803 675.712C107.353 676.079 105.655 675.892 104.443 673.823Z" fill="#192729" fill-opacity="0.3"/>
<path d="M331.117 82.8326C329 79.2229 330.255 67.9894 331.3 64.333C332.092 58.9309 335.737 60.9756 337.346 62.6109C338.187 63.465 339.957 64.8311 340.082 67.3886C340.251 70.8453 339.571 74.1273 339.044 77.2773C338.318 81.6166 337.689 84.163 335.477 84.7215C334.027 85.088 332.329 84.9006 331.117 82.8326Z" fill="#E29000" fill-opacity="0.3"/>
<path d="M326.506 673.823C324.39 670.215 325.645 658.98 326.69 655.325C327.481 649.923 331.126 651.967 332.736 653.602C333.576 654.457 335.347 655.822 335.472 658.38C335.641 661.837 334.961 665.118 334.434 668.269C333.707 672.607 333.078 675.154 330.868 675.712C329.417 676.079 327.719 675.892 326.506 673.823Z" fill="#E29000" fill-opacity="0.3"/>
<path d="M109.053 377.326C106.937 373.718 108.191 362.483 109.236 358.827C110.028 353.426 113.673 355.469 115.283 357.104C116.123 357.959 117.894 359.324 118.019 361.882C118.188 365.339 117.507 368.62 116.98 371.771C116.254 376.11 115.624 378.656 113.414 379.215C111.963 379.582 110.265 379.394 109.053 377.326Z" fill="#8AD1D7" fill-opacity="0.3"/>
<path d="M331.117 377.326C329 373.718 330.255 362.483 331.3 358.827C332.092 353.426 335.737 355.469 337.346 357.104C338.187 357.959 339.957 359.324 340.082 361.882C340.251 365.339 339.571 368.62 339.044 371.771C338.318 376.11 337.689 378.656 335.477 379.215C334.027 379.582 332.329 379.394 331.117 377.326Z" fill="#8AD1D7" fill-opacity="0.3"/>
<path d="M53.73 160.964C51.6136 157.354 52.8682 146.12 53.9132 142.464C54.7051 137.062 58.3499 139.107 59.9594 140.742C60.7999 141.596 62.5705 142.962 62.6955 145.52C62.8643 148.977 62.1843 152.258 61.6572 155.408C60.9311 159.748 60.3014 162.294 58.0906 162.853C56.6403 163.219 54.9425 163.032 53.73 160.964Z" fill="#8AD1D7" fill-opacity="0.3"/>
<path d="M49.1198 751.955C47.0034 748.345 48.2579 737.112 49.303 733.457C50.0948 728.053 53.7397 730.097 55.3491 731.734C56.1897 732.587 57.9603 733.954 58.0852 736.512C58.2541 739.969 57.574 743.25 57.047 746.399C56.3208 750.739 55.6912 753.286 53.4804 753.844C52.03 754.211 50.3323 754.024 49.1198 751.955Z" fill="#192729" fill-opacity="0.3"/>
<path d="M275.794 160.964C273.677 157.354 274.932 146.12 275.978 142.464C276.769 137.062 280.414 139.107 282.023 140.742C282.864 141.596 284.634 142.962 284.759 145.52C284.928 148.977 284.249 152.258 283.722 155.408C282.996 159.748 282.366 162.294 280.155 162.853C278.705 163.219 277.006 163.032 275.794 160.964Z" fill="#E29000" fill-opacity="0.3"/>
<path d="M271.183 751.955C269.067 748.345 270.322 737.112 271.367 733.457C272.158 728.053 275.803 730.097 277.413 731.734C278.253 732.587 280.024 733.954 280.149 736.512C280.318 739.969 279.638 743.25 279.111 746.399C278.384 750.739 277.755 753.286 275.545 753.844C274.094 754.211 272.396 754.024 271.183 751.955Z" fill="#192729" fill-opacity="0.3"/>
<path d="M53.73 455.458C51.6136 451.848 52.8682 440.615 53.9132 436.957C54.7051 431.556 58.3499 433.6 59.9594 435.236C60.7999 436.089 62.5705 437.456 62.6955 440.012C62.8643 443.469 62.1843 446.752 61.6572 449.901C60.9311 454.241 60.3014 456.788 58.0906 457.347C56.6403 457.712 54.9425 457.526 53.73 455.458Z" fill="#192729" fill-opacity="0.3"/>
<path d="M267.621 443.437C265.505 439.827 266.76 428.594 267.805 424.938C268.596 419.535 272.241 421.581 273.851 423.215C274.691 424.07 276.462 425.435 276.587 427.994C276.756 431.45 276.076 434.731 275.549 437.882C274.822 442.221 274.193 444.768 271.982 445.326C270.531 445.693 268.834 445.506 267.621 443.437Z" fill="#8AD1D7" fill-opacity="0.3"/>
<path d="M161.609 603.706C159.493 600.097 160.748 588.864 161.793 585.208C162.584 579.805 166.229 581.85 167.839 583.485C168.679 584.34 170.45 585.705 170.575 588.263C170.744 591.72 170.064 595.001 169.537 598.152C168.81 602.49 168.181 605.037 165.971 605.595C164.52 605.963 162.822 605.775 161.609 603.706Z" fill="#8AD1D7" fill-opacity="0.3"/>
<path d="M383.524 603.706C381.408 600.097 382.663 588.864 383.707 585.208C384.499 579.805 388.144 581.85 389.754 583.485C390.594 584.34 392.365 585.705 392.49 588.263C392.659 591.72 391.978 595.001 391.451 598.152C390.725 602.49 390.096 605.037 387.885 605.595C386.434 605.963 384.737 605.775 383.524 603.706Z" fill="#8AD1D7" fill-opacity="0.3"/>
<path d="M166.22 303.203C164.103 299.593 165.358 288.358 166.403 284.703C167.195 279.301 170.84 281.345 172.449 282.98C173.29 283.835 175.06 285.2 175.185 287.758C175.354 291.215 174.674 294.496 174.147 297.647C173.421 301.987 172.792 304.532 170.58 305.09C169.13 305.457 167.432 305.27 166.22 303.203Z" fill="#8AD1D7" fill-opacity="0.3"/>
<path d="M161.609 894.193C159.493 890.585 160.748 879.35 161.793 875.694C162.584 870.293 166.229 872.337 167.839 873.971C168.679 874.826 170.45 876.191 170.575 878.75C170.744 882.206 170.064 885.487 169.537 888.638C168.81 892.977 168.181 895.523 165.971 896.082C164.52 896.449 162.822 896.262 161.609 894.193Z" fill="#192729" fill-opacity="0.3"/>
<path d="M388.135 303.203C386.018 299.593 387.273 288.358 388.318 284.703C389.11 279.301 392.755 281.345 394.364 282.98C395.204 283.835 396.975 285.2 397.1 287.758C397.269 291.215 396.589 294.496 396.062 297.647C395.336 301.987 394.706 304.532 392.495 305.09C391.045 305.457 389.347 305.27 388.135 303.203Z" fill="#192729" fill-opacity="0.3"/>
<path d="M383.524 894.193C381.408 890.585 382.663 879.35 383.707 875.694C384.499 870.293 388.144 872.337 389.754 873.971C390.594 874.826 392.365 876.191 392.49 878.75C392.659 882.206 391.978 885.487 391.451 888.638C390.725 892.977 390.096 895.523 387.885 896.082C386.434 896.449 384.737 896.262 383.524 894.193Z" fill="#192729" fill-opacity="0.3"/>
<path d="M23.6611 262.447C20.6497 258.42 22.9557 246.9 23.6611 241.87C23.6611 241.87 28.6742 240.212 29.6037 241.87C30.2298 242.987 30.1197 247.26 30.2374 248.77C30.558 252.885 30.4323 257.202 30.3915 261.347C30.3287 267.726 25.3503 264.705 23.6611 262.447Z" fill="#E29000" fill-opacity="0.3"/>
<path d="M19.0509 853.438C16.0395 849.412 18.3454 837.892 19.0509 832.861C19.0509 832.861 24.0639 831.204 24.9935 832.861C25.6196 833.978 25.5095 838.251 25.6272 839.762C25.9477 843.876 25.8221 848.194 25.7812 852.339C25.7185 858.717 20.7401 855.696 19.0509 853.438Z" fill="#8AD1D7" fill-opacity="0.3"/>
<path d="M23.6611 569.187C20.6497 565.497 22.9557 554.937 23.6611 550.325C23.6611 550.325 28.6742 548.807 29.6037 550.325C30.2298 551.35 30.1197 555.266 30.2374 556.65C30.558 560.423 30.4323 564.38 30.3915 568.18C30.3287 574.026 25.3503 571.258 23.6611 569.187Z" fill="#192729" fill-opacity="0.3"/>
<path d="M136.151 110.419C133.14 106.728 135.445 96.169 136.151 91.5572C136.151 91.5572 141.164 90.0381 142.094 91.5572C142.719 92.5801 142.609 96.4975 142.727 97.8817C143.048 101.654 142.922 105.611 142.881 109.411C142.819 115.258 137.84 112.489 136.151 110.419Z" fill="#192729" fill-opacity="0.3"/>
<path d="M131.541 701.41C128.529 697.719 130.835 687.159 131.541 682.548C131.541 682.548 136.554 681.03 137.483 682.548C138.109 683.572 137.999 687.488 138.117 688.873C138.437 692.645 138.312 696.603 138.271 700.402C138.208 706.249 133.23 703.48 131.541 701.41Z" fill="#192729" fill-opacity="0.3"/>
<path d="M358.215 110.419C355.203 106.728 357.51 96.169 358.215 91.5572C358.215 91.5572 363.228 90.0381 364.157 91.5572C364.784 92.5801 364.674 96.4975 364.791 97.8817C365.112 101.654 364.986 105.611 364.946 109.411C364.882 115.258 359.904 112.489 358.215 110.419Z" fill="#8AD1D7" fill-opacity="0.3"/>
<path d="M353.605 701.41C350.594 697.719 352.899 687.159 353.605 682.548C353.605 682.548 358.618 681.03 359.548 682.548C360.173 683.572 360.063 687.488 360.181 688.873C360.502 692.645 360.376 696.603 360.335 700.402C360.272 706.249 355.294 703.48 353.605 701.41Z" fill="#192729" fill-opacity="0.3"/>
<path d="M136.151 404.912C133.14 401.222 135.445 390.662 136.151 386.05C136.151 386.05 141.164 384.532 142.094 386.05C142.719 387.075 142.609 390.991 142.727 392.375C143.048 396.147 142.922 400.105 142.881 403.904C142.819 409.751 137.84 406.983 136.151 404.912Z" fill="#192729" fill-opacity="0.3"/>
<path d="M358.215 404.912C355.203 401.222 357.51 390.662 358.215 386.05C358.215 386.05 363.228 384.532 364.157 386.05C364.784 387.075 364.674 390.991 364.791 392.375C365.112 396.147 364.986 400.105 364.946 403.904C364.882 409.751 359.904 406.983 358.215 404.912Z" fill="#E29000" fill-opacity="0.3"/>
<path d="M80.828 188.55C77.8166 184.859 80.1225 174.3 80.828 169.688C80.828 169.688 85.841 168.169 86.7706 169.688C87.3967 170.711 87.2866 174.628 87.4043 176.013C87.7248 179.784 87.5992 183.742 87.5583 187.542C87.4956 193.389 82.5172 190.62 80.828 188.55Z" fill="#192729" fill-opacity="0.3"/>
<path d="M76.218 779.542C73.2064 775.851 75.5124 765.291 76.218 760.68C76.218 760.68 81.2309 759.16 82.1605 760.68C82.7866 761.703 82.6765 765.62 82.7941 767.005C83.1147 770.775 82.989 774.733 82.9483 778.534C82.8855 784.381 77.907 781.612 76.218 779.542Z" fill="#192729" fill-opacity="0.3"/>
<path d="M302.892 188.55C299.88 184.859 302.187 174.3 302.892 169.688C302.892 169.688 307.905 168.169 308.835 169.688C309.461 170.711 309.351 174.628 309.469 176.013C309.789 179.784 309.663 183.742 309.623 187.542C309.559 193.389 304.581 190.62 302.892 188.55Z" fill="#E29000" fill-opacity="0.3"/>
<path d="M298.282 779.542C295.271 775.851 297.576 765.291 298.282 760.68C298.282 760.68 303.295 759.16 304.225 760.68C304.85 761.703 304.74 765.62 304.858 767.005C305.179 770.775 305.053 774.733 305.012 778.534C304.95 784.381 299.971 781.612 298.282 779.542Z" fill="#8AD1D7" fill-opacity="0.3"/>
<path d="M80.828 483.044C77.8166 479.352 80.1225 468.794 80.828 464.182C80.828 464.182 85.841 462.662 86.7706 464.182C87.3967 465.205 87.2866 469.123 87.4043 470.507C87.7248 474.277 87.5992 478.235 87.5583 482.036C87.4956 487.883 82.5172 485.113 80.828 483.044Z" fill="#E29000" fill-opacity="0.3"/>
<path d="M302.892 466.016C299.88 462.324 302.187 451.765 302.892 447.154C302.892 447.154 307.905 445.634 308.835 447.154C309.461 448.177 309.351 452.094 309.469 453.479C309.789 457.249 309.663 461.207 309.623 465.008C309.559 470.853 304.581 468.084 302.892 466.016Z" fill="#E29000" fill-opacity="0.3"/>
<path d="M193.318 36.2946C190.306 32.6038 192.613 22.0446 193.318 17.433C193.318 17.433 198.331 15.9139 199.26 17.4329C199.887 18.456 199.777 22.3731 199.894 23.7574C200.215 27.5292 200.089 31.4867 200.048 35.2871C199.985 41.1333 195.007 38.3647 193.318 36.2946Z" fill="#192729" fill-opacity="0.3"/>
<path d="M188.708 627.285C185.696 623.595 188.002 613.037 188.708 608.425C188.708 608.425 193.721 606.905 194.651 608.425C195.276 609.448 195.166 613.364 195.284 614.748C195.605 618.52 195.479 622.478 195.438 626.279C195.375 632.124 190.397 629.356 188.708 627.285Z" fill="#8AD1D7" fill-opacity="0.3"/>
<path d="M415.232 36.2946C412.221 32.6038 414.527 22.0446 415.232 17.433C415.232 17.433 420.246 15.9139 421.175 17.4329C421.802 18.456 421.691 22.3731 421.809 23.7574C422.129 27.5292 422.004 31.4867 421.963 35.2871C421.9 41.1333 416.922 38.3647 415.232 36.2946Z" fill="#E29000" fill-opacity="0.3"/>
<path d="M410.622 627.285C407.611 623.595 409.917 613.037 410.622 608.425C410.622 608.425 415.635 606.905 416.565 608.425C417.191 609.448 417.081 613.364 417.198 614.748C417.519 618.52 417.394 622.478 417.352 626.279C417.29 632.124 412.312 629.356 410.622 627.285Z" fill="#E29000" fill-opacity="0.3"/>
<path d="M193.318 330.787C190.306 327.097 192.613 316.537 193.318 311.926C193.318 311.926 198.331 310.407 199.26 311.926C199.887 312.95 199.777 316.866 199.894 318.25C200.215 322.023 200.089 325.981 200.048 329.78C199.985 335.627 195.007 332.858 193.318 330.787Z" fill="#8AD1D7" fill-opacity="0.3"/>
<path d="M191.474 923.783C188.463 920.093 190.768 909.533 191.474 904.921C191.474 904.921 196.486 903.403 197.417 904.921C198.042 905.944 197.932 909.862 198.05 911.246C198.37 915.018 198.245 918.976 198.204 922.775C198.142 928.622 193.163 925.853 191.474 923.783Z" fill="#E29000" fill-opacity="0.3"/>
<path d="M415.232 330.787C412.221 327.097 414.527 316.537 415.232 311.926C415.232 311.926 420.246 310.407 421.175 311.926C421.802 312.95 421.691 316.866 421.809 318.25C422.129 322.023 422.004 325.981 421.963 329.78C421.9 335.627 416.922 332.858 415.232 330.787Z" fill="#8AD1D7" fill-opacity="0.3"/>
<path d="M406.012 921.779C403 918.089 405.307 907.529 406.012 902.917C406.012 902.917 411.025 901.399 411.954 902.917C412.581 903.94 412.471 907.858 412.588 909.242C412.909 913.014 412.783 916.972 412.742 920.771C412.68 926.618 407.701 923.85 406.012 921.779Z" fill="#8AD1D7" fill-opacity="0.3"/>
<path d="M54.5001 220.782C56.8058 219.878 57.7413 222.702 58.2457 226.392C58.5155 228.744 59.4088 230.476 59.628 231.92C60.1299 235.224 59.3302 238.627 58.0645 241.581C57.6349 242.583 54.1852 249.531 53.6121 248.642C52.6224 247.107 52.0008 243.138 51.2541 241.006C50.2668 238.187 49.0548 227.197 50.9692 224.148C52.0239 222.467 53.2865 221.257 54.5001 220.782Z" fill="#E29000" fill-opacity="0.3"/>
<path d="M49.8898 811.774C52.1955 810.87 53.131 813.694 53.6354 817.384C53.9052 819.736 54.7985 821.468 55.0177 822.911C55.5196 826.215 54.7199 829.619 53.4542 832.573C53.0245 833.575 49.5749 840.523 49.0018 839.634C48.0121 838.098 47.3905 834.129 46.6437 831.997C45.6564 829.179 44.4445 818.189 46.3588 815.139C47.4136 813.459 48.6762 812.248 49.8898 811.774Z" fill="#8AD1D7" fill-opacity="0.3"/>
<path d="M276.564 220.782C278.87 219.878 279.806 222.702 280.31 226.392C280.58 228.744 281.473 230.476 281.692 231.92C282.194 235.224 281.394 238.627 280.129 241.581C279.699 242.583 276.25 249.531 275.676 248.642C274.687 247.107 274.065 243.138 273.318 241.006C272.331 238.187 271.119 227.197 273.033 224.148C274.088 222.467 275.35 221.257 276.564 220.782Z" fill="#8AD1D7" fill-opacity="0.3"/>
<path d="M272.289 797.446C274.595 796.543 275.531 799.367 276.035 803.055C276.304 805.407 277.198 807.141 277.417 808.583C277.919 811.887 277.119 815.292 275.854 818.244C275.424 819.246 271.975 826.196 271.401 825.307C270.412 823.772 269.789 819.803 269.043 817.671C268.056 814.85 266.844 803.862 268.758 800.811C269.813 799.13 271.075 797.922 272.289 797.446Z" fill="#E29000" fill-opacity="0.3"/>
<path d="M54.5001 515.276C56.8058 514.372 57.7413 517.196 58.2457 520.884C58.5155 523.238 59.4088 524.97 59.628 526.414C60.1299 529.718 59.3302 533.121 58.0645 536.075C57.6349 537.077 54.1852 544.025 53.6121 543.136C52.6224 541.601 52.0008 537.631 51.2541 535.5C50.2668 532.681 49.0548 521.691 50.9692 518.641C52.0239 516.961 53.2865 515.751 54.5001 515.276Z" fill="#192729" fill-opacity="0.3"/>
<path d="M278.295 487.568C280.6 486.663 281.536 489.487 282.04 493.176C282.31 495.529 283.203 497.261 283.423 498.705C283.924 502.009 283.125 505.412 281.859 508.366C281.429 509.368 277.98 516.316 277.407 515.427C276.417 513.892 275.796 509.923 275.048 507.791C274.061 504.973 272.849 493.982 274.764 490.933C275.818 489.252 277.081 488.042 278.295 487.568Z" fill="#8AD1D7" fill-opacity="0.3"/>
<path d="M166.99 68.5269C169.295 67.6235 170.232 70.4473 170.736 74.1363C171.005 76.4887 171.898 78.2219 172.118 79.6649C172.62 82.9686 171.82 86.3722 170.555 89.3252C170.125 90.3277 166.676 97.2767 166.102 96.3876C165.113 94.8521 164.49 90.8831 163.744 88.7511C162.757 85.932 161.544 74.9424 163.459 71.892C164.513 70.2116 165.776 69.0024 166.99 68.5269Z" fill="#8AD1D7" fill-opacity="0.3"/>
<path d="M162.379 659.518C164.685 658.615 165.621 661.439 166.126 665.127C166.395 667.479 167.288 669.213 167.508 670.657C168.01 673.961 167.21 677.364 165.944 680.316C165.515 681.318 162.065 688.268 161.491 687.379C160.502 685.844 159.88 681.875 159.134 679.743C158.147 676.923 156.934 665.934 158.849 662.883C159.903 661.202 161.166 659.994 162.379 659.518Z" fill="#8AD1D7" fill-opacity="0.3"/>
<path d="M388.905 68.5269C391.21 67.6235 392.146 70.4473 392.65 74.1363C392.92 76.4887 393.813 78.2219 394.032 79.6649C394.534 82.9686 393.735 86.3722 392.469 89.3252C392.039 90.3277 388.59 97.2767 388.017 96.3876C387.027 94.8521 386.405 90.8831 385.658 88.7511C384.671 85.932 383.459 74.9424 385.374 71.892C386.428 70.2116 387.691 69.0024 388.905 68.5269Z" fill="#192729" fill-opacity="0.3"/>
<path d="M384.294 659.518C386.6 658.615 387.535 661.439 388.04 665.127C388.31 667.479 389.203 669.213 389.422 670.657C389.924 673.961 389.125 677.364 387.859 680.316C387.429 681.318 383.979 688.268 383.406 687.379C382.416 685.844 381.795 681.875 381.048 679.743C380.061 676.923 378.849 665.934 380.764 662.883C381.818 661.202 383.081 659.994 384.294 659.518Z" fill="#8AD1D7" fill-opacity="0.3"/>
<path d="M166.99 363.02C169.295 362.118 170.232 364.942 170.736 368.63C171.005 370.982 171.898 372.716 172.118 374.159C172.62 377.461 171.82 380.867 170.555 383.819C170.125 384.821 166.676 391.771 166.102 390.882C165.113 389.346 164.49 385.377 163.744 383.245C162.757 380.425 161.544 369.437 163.459 366.385C164.513 364.704 165.776 363.496 166.99 363.02Z" fill="#E29000" fill-opacity="0.3"/>
<path d="M388.905 363.02C391.21 362.118 392.146 364.942 392.65 368.63C392.92 370.982 393.813 372.716 394.032 374.159C394.534 377.461 393.735 380.867 392.469 383.819C392.039 384.821 388.59 391.771 388.017 390.882C387.027 389.346 386.405 385.377 385.658 383.245C384.671 380.425 383.459 369.437 385.374 366.385C386.428 364.704 387.691 363.496 388.905 363.02Z" fill="#E29000" fill-opacity="0.3"/>
<path d="M109.721 134.976C112.027 134.072 112.962 136.896 113.466 140.585C113.737 142.938 114.63 144.671 114.849 146.114C115.35 149.417 114.551 152.821 113.285 155.774C112.856 156.777 109.406 163.725 108.833 162.836C107.843 161.301 107.222 157.332 106.475 155.2C105.487 152.381 104.276 141.391 106.19 138.341C107.245 136.661 108.508 135.451 109.721 134.976Z" fill="#192729" fill-opacity="0.3"/>
<path d="M105.111 725.967C107.416 725.065 108.352 727.887 108.856 731.577C109.126 733.929 110.019 735.663 110.239 737.105C110.74 740.409 109.941 743.812 108.675 746.766C108.245 747.768 104.796 754.718 104.223 753.827C103.233 752.292 102.612 748.324 101.864 746.191C100.877 743.372 99.6653 732.382 101.58 729.332C102.634 727.652 103.897 726.443 105.111 725.967Z" fill="#8AD1D7" fill-opacity="0.3"/>
<path d="M331.785 134.976C334.091 134.072 335.027 136.896 335.531 140.585C335.8 142.938 336.694 144.671 336.913 146.114C337.415 149.417 336.615 152.821 335.35 155.774C334.92 156.777 331.471 163.725 330.897 162.836C329.908 161.301 329.285 157.332 328.539 155.2C327.552 152.381 326.34 141.391 328.254 138.341C329.309 136.661 330.571 135.451 331.785 134.976Z" fill="#E29000" fill-opacity="0.3"/>
<path d="M327.174 725.967C329.481 725.065 330.416 727.887 330.92 731.577C331.19 733.929 332.084 735.663 332.303 737.105C332.805 740.409 332.005 743.812 330.739 746.766C330.31 747.768 326.86 754.718 326.286 753.827C325.297 752.292 324.675 748.324 323.929 746.191C322.942 743.372 321.73 732.382 323.644 729.332C324.699 727.652 325.961 726.443 327.174 725.967Z" fill="#192729" fill-opacity="0.3"/>
<path d="M111.667 441.152C113.973 440.248 114.909 443.072 115.413 446.762C115.682 449.114 116.576 450.846 116.795 452.289C117.297 455.593 116.497 458.997 115.232 461.951C114.802 462.953 111.353 469.901 110.779 469.012C109.79 467.476 109.168 463.507 108.421 461.375C107.434 458.557 106.222 447.567 108.136 444.517C109.19 442.836 110.453 441.628 111.667 441.152Z" fill="#8AD1D7" fill-opacity="0.3"/>
<path d="M335.474 423.642C337.779 422.739 338.715 425.563 339.219 429.252C339.489 431.603 340.382 433.338 340.601 434.779C341.103 438.083 340.303 441.486 339.038 444.441C338.608 445.442 335.159 452.393 334.585 451.503C333.596 449.968 332.974 445.999 332.227 443.867C331.24 441.047 330.028 430.058 331.942 427.007C332.997 425.326 334.259 424.118 335.474 423.642Z" fill="#8AD1D7" fill-opacity="0.3"/>
<path d="M5.25232 0C5.60057 5.37188 5.32619 10.9824 3.77993 15.2449C2.8023 17.9398 1.44749 18.8884 0 18.7476V0H5.25232Z" fill="#E29000" fill-opacity="0.3"/>
<path d="M219.547 579.722C221.852 578.818 222.788 581.642 223.292 585.332C223.562 587.684 224.455 589.418 224.675 590.86C225.176 594.164 224.377 597.567 223.111 600.521C222.681 601.523 219.232 608.471 218.659 607.582C217.669 606.047 217.048 602.079 216.3 599.945C215.313 597.127 214.101 586.137 216.015 583.087C217.07 581.407 218.333 580.198 219.547 579.722Z" fill="#8AD1D7" fill-opacity="0.3"/>
<path d="M224.157 288.895C226.463 287.993 227.398 290.817 227.902 294.505C228.173 296.859 229.066 298.591 229.285 300.035C229.786 303.339 228.987 306.742 227.721 309.694C227.292 310.696 223.842 317.646 223.269 316.757C222.279 315.222 221.658 311.252 220.911 309.121C219.923 306.302 218.712 295.312 220.626 292.261C221.681 290.58 222.944 289.372 224.157 288.895Z" fill="#8AD1D7" fill-opacity="0.3"/>
<path d="M219.547 879.887C221.852 878.985 222.788 881.809 223.292 885.497C223.562 887.849 224.455 889.583 224.675 891.027C225.176 894.329 224.377 897.734 223.111 900.686C222.681 901.688 219.232 908.638 218.659 907.749C217.669 906.214 217.048 902.244 216.3 900.112C215.313 897.292 214.101 886.304 216.015 883.252C217.07 881.572 218.333 880.363 219.547 879.887Z" fill="#192729" fill-opacity="0.3"/>
<path d="M59.6438 0C59.6717 0.266967 59.6971 0.537096 59.7199 0.809791C59.8306 2.12874 60.2795 12.0684 59.5376 12.5105C58.7358 12.9884 57.6506 12.6586 56.6186 12.3449C56.0016 12.1574 55.4036 11.9756 54.8965 11.9756C53.1044 11.9756 47.8969 7.52041 47.9698 2.48132C47.9817 1.65544 48.0227 0.823166 48.091 0H59.6438Z" fill="#8AD1D7" fill-opacity="0.3"/>
<path d="M0 89.6959V69.5553C0.0425567 69.5851 0.0851503 69.6157 0.127774 69.6471C0.784425 70.1951 1.50042 70.2564 2.12653 70.3103C2.56998 70.3484 2.96835 70.3826 3.26862 70.583C4.92688 71.69 5.74701 75.0552 6.07295 78.9407C6.18359 80.2596 6.63245 90.1994 5.89067 90.6414C5.0889 91.1194 4.00369 90.7896 2.97159 90.4758C2.35462 90.2883 1.75664 90.1066 1.2495 90.1066C0.926825 90.1066 0.493398 89.9621 0 89.6959Z" fill="#192729" fill-opacity="0.3"/>
<path d="M0 160.834V140.991C0.119029 141.003 0.238297 141.019 0.357687 141.039C0.993722 141.148 1.64186 141.381 2.29016 141.613C2.79172 141.793 3.29338 141.973 3.78963 142.096C3.89151 142.121 3.99754 142.146 4.10651 142.17C4.89505 142.35 5.83797 142.565 6.48433 143.451C6.78111 143.858 7.09218 144.228 7.40341 144.599C8.28817 145.654 9.17444 146.71 9.73835 148.599C10.3106 150.516 9.7431 158.365 9.07482 159.79C8.41268 161.201 7.72982 160.93 6.94914 160.619C6.44388 160.418 5.89764 160.201 5.28951 160.413C3.90154 160.897 1.80426 161.207 0 160.834Z" fill="#E29000" fill-opacity="0.3"/>
<path d="M0 232.935V215.66C0.0888237 215.255 0.178299 214.893 0.266288 214.586C1.05813 209.182 4.703 211.228 6.31247 212.863C6.4142 212.966 6.52954 213.077 6.65394 213.198C7.55746 214.066 8.93869 215.392 9.04851 217.641C9.19565 220.65 8.69867 223.53 8.21971 226.304C8.14879 226.713 8.07827 227.123 8.01029 227.53C7.28417 231.868 6.65452 234.415 4.44365 234.973C2.99338 235.34 1.29554 235.153 0.0830636 233.084C0.0547764 233.036 0.0270914 232.987 0 232.935Z" fill="#E29000" fill-opacity="0.3"/>
<path d="M0 319.25V286.527C1.76092 287.234 3.49461 288.073 4.23739 292.213C5.52326 299.381 6.16631 309.17 3.77993 315.748C2.8023 318.444 1.44749 319.392 0 319.25Z" fill="#8AD1D7" fill-opacity="0.3"/>
<path d="M0 390.199V370.06C0.0425567 370.089 0.0851503 370.119 0.127774 370.15C0.784425 370.699 1.50042 370.76 2.12653 370.813C2.56998 370.851 2.96835 370.886 3.26862 371.087C4.92688 372.194 5.74701 375.559 6.07295 379.444C6.18359 380.763 6.63245 390.704 5.89067 391.145C5.0889 391.623 4.00369 391.293 2.97159 390.979C2.35462 390.792 1.75664 390.61 1.2495 390.61C0.926825 390.61 0.493398 390.467 0 390.199Z" fill="#192729" fill-opacity="0.3"/>
<path d="M0 461.339V441.494C0.119029 441.506 0.238297 441.523 0.357687 441.544C0.993722 441.651 1.64186 441.884 2.29016 442.117C2.79172 442.297 3.29338 442.477 3.78963 442.599C3.89151 442.624 3.99754 442.649 4.10651 442.674C4.89505 442.854 5.83797 443.07 6.48433 443.955C6.78111 444.362 7.09218 444.733 7.40341 445.104C8.28817 446.158 9.17444 447.213 9.73835 449.102C10.3106 451.02 9.7431 458.868 9.07482 460.293C8.41268 461.704 7.72982 461.432 6.94914 461.123C6.44388 460.922 5.89764 460.704 5.28951 460.916C3.90154 461.4 1.80426 461.712 0 461.339Z" fill="#E29000" fill-opacity="0.3"/>
<path d="M0 533.44V516.163C0.0888237 515.758 0.178299 515.397 0.266288 515.089C1.05813 509.686 4.703 511.731 6.31247 513.366C6.4142 513.469 6.52954 513.58 6.65394 513.701C7.55746 514.569 8.93869 515.896 9.04851 518.144C9.19565 521.156 8.69867 524.033 8.21971 526.808C8.14879 527.219 8.07827 527.626 8.01029 528.033C7.28417 532.371 6.65452 534.918 4.44365 535.477C2.99338 535.844 1.29554 535.656 0.0830636 533.588C0.0547764 533.54 0.0270914 533.49 0 533.44Z" fill="#8AD1D7" fill-opacity="0.3"/>
<path d="M0 603.303V584.984C0.855135 590.774 1.20094 597.726 0 603.303Z" fill="#E29000" fill-opacity="0.3"/>
<path d="M0 681.857V663.265C0.789361 664.881 1.24069 667.286 1.46273 669.932C1.57337 671.252 2.02223 681.19 1.28044 681.634C0.904402 681.857 0.466016 681.903 0 681.857Z" fill="#8AD1D7" fill-opacity="0.3"/>
<path d="M0 751.611V733.283C0.661209 733.458 1.36108 733.74 1.87411 734.443C2.17089 734.849 2.48195 735.219 2.79319 735.59C3.67794 736.646 4.56418 737.701 5.12809 739.59C5.70042 741.508 5.13291 749.357 4.46458 750.781C3.80245 752.192 3.1196 751.921 2.33891 751.611C1.83366 751.41 1.28741 751.192 0.679289 751.405C0.468104 751.477 0.240497 751.548 0 751.611Z" fill="#192729" fill-opacity="0.3"/>
<path d="M0 825.919V802.568C0.654332 802.918 1.25638 803.401 1.70225 803.854C1.80396 803.958 1.91932 804.069 2.04372 804.187C2.94723 805.057 4.32846 806.384 4.4383 808.632C4.58541 811.642 4.08844 814.521 3.60949 817.296C3.53857 817.705 3.46804 818.114 3.40006 818.521C2.69253 822.749 2.07656 825.275 0 825.919Z" fill="#192729" fill-opacity="0.3"/>
<path d="M0 904.235V871.518C1.75306 872.224 3.47499 873.073 4.21457 877.195C5.50043 884.363 6.14348 894.153 3.75711 900.73C2.78461 903.41 1.43891 904.363 0 904.235Z" fill="#8AD1D7" fill-opacity="0.3"/>
<path d="M5.25232 956H0V942.023C1.76092 942.731 3.49461 943.57 4.23739 947.709C4.69008 950.233 5.0631 953.082 5.25232 956Z" fill="#E29000" fill-opacity="0.3"/>
<path d="M59.644 956H48.0911C48.2524 954.056 48.5657 952.163 49.0074 950.524C50.2018 946.094 51.961 946.186 53.7748 947.516C54.4315 948.063 55.1474 948.126 55.7736 948.18C56.217 948.218 56.6154 948.251 56.9156 948.451C58.4576 949.482 59.2748 952.463 59.644 956Z" fill="#8AD1D7" fill-opacity="0.3"/>
<path d="M118.597 956H102.629C102.683 955.708 102.746 955.409 102.819 955.105C104.057 949.937 106.661 948.337 109.328 948.792C109.964 948.899 110.612 949.132 111.26 949.365C111.762 949.545 112.263 949.725 112.76 949.847C112.861 949.872 112.967 949.897 113.077 949.922C113.865 950.102 114.807 950.318 115.454 951.203C115.751 951.61 116.062 951.979 116.373 952.35C117.202 953.339 118.032 954.327 118.597 956Z" fill="#192729" fill-opacity="0.3"/>
<path d="M175.158 956H165.402C165.665 953.593 166.046 951.463 166.403 950.216C167.195 944.813 170.84 946.859 172.449 948.493C172.551 948.597 172.667 948.708 172.791 948.828C173.694 949.696 175.075 951.023 175.185 953.271C175.23 954.193 175.215 955.101 175.158 956Z" fill="#E29000" fill-opacity="0.3"/>
<path d="M229.304 956H219.652C219.517 952.727 219.725 949.532 220.626 948.096C221.681 946.415 222.944 945.207 224.157 944.731C226.463 943.828 227.398 946.652 227.902 950.341C228.061 951.717 228.432 952.882 228.757 953.901C228.987 954.621 229.194 955.27 229.285 955.868C229.292 955.912 229.298 955.956 229.304 956Z" fill="#8AD1D7" fill-opacity="0.3"/>
<path d="M281.708 956H270.155C270.317 954.056 270.63 952.163 271.072 950.524C272.266 946.094 274.025 946.186 275.839 947.516C276.495 948.063 277.211 948.126 277.837 948.18C278.281 948.218 278.679 948.251 278.979 948.451C280.521 949.482 281.339 952.463 281.708 956Z" fill="#E29000" fill-opacity="0.3"/>
<path d="M340.66 956H324.693C324.747 955.708 324.811 955.409 324.884 955.105C326.12 949.937 328.726 948.337 331.391 948.792C332.028 948.899 332.676 949.132 333.324 949.365C333.825 949.545 334.327 949.725 334.823 949.847C334.925 949.872 335.031 949.897 335.14 949.922C335.929 950.102 336.872 950.318 337.518 951.203C337.815 951.61 338.126 951.979 338.437 952.35C339.266 953.339 340.095 954.327 340.66 956Z" fill="#192729" fill-opacity="0.3"/>
<path d="M397.073 956H387.317C387.58 953.593 387.961 951.463 388.318 950.216C389.11 944.813 392.755 946.859 394.364 948.493C394.465 948.597 394.581 948.708 394.705 948.828C395.609 949.696 396.99 951.023 397.1 953.271C397.145 954.193 397.13 955.101 397.073 956Z" fill="#8AD1D7" fill-opacity="0.3"/>
<path d="M440 942.023V956H435.324C434.932 954.759 434.577 953.488 434.439 951.979C433.978 946.909 434.838 941.215 437.502 940.704C438.202 941.308 438.993 941.622 439.786 941.939C439.857 941.966 439.929 941.995 440 942.023Z" fill="#E29000" fill-opacity="0.3"/>
<path d="M440 871.518V904.235C439.439 904.185 438.865 903.971 438.292 903.63C436.725 902.699 436.758 899.242 436.785 896.355C436.789 895.986 436.792 895.627 436.792 895.284C436.792 893.262 436.765 891.181 436.386 889.29C436.16 888.164 435.835 887.153 435.511 886.143C435.043 884.688 434.577 883.241 434.416 881.465C433.955 876.394 434.815 870.7 437.479 870.189C438.179 870.794 438.97 871.107 439.763 871.425C439.842 871.455 439.921 871.486 440 871.518Z" fill="#8AD1D7" fill-opacity="0.3"/>
<path d="M440 802.568V825.917C439.945 825.934 439.889 825.95 439.833 825.965C438.382 826.332 436.684 826.145 435.472 824.076C433.355 820.466 434.61 809.233 435.655 805.577C436.227 801.669 438.292 801.658 440 802.568Z" fill="#192729" fill-opacity="0.3"/>
<path d="M440 733.283V751.611C437.911 752.166 434.849 752.282 433.128 750.781C430.775 748.73 427.604 745.171 429.239 738.344C430.475 733.177 433.081 731.577 435.746 732.03C436.382 732.139 437.031 732.373 437.679 732.604C438.18 732.786 438.682 732.965 439.178 733.088C439.28 733.112 439.387 733.137 439.495 733.162C439.659 733.198 439.828 733.237 440 733.283Z" fill="#192729" fill-opacity="0.3"/>
<path d="M440 663.267V681.857C439.472 681.806 438.909 681.634 438.361 681.467C437.744 681.28 437.145 681.098 436.638 681.098C434.846 681.098 429.639 676.643 429.711 671.603C429.752 668.827 430.12 665.978 430.749 663.648C431.944 659.218 433.703 659.307 435.516 660.638C436.173 661.187 436.889 661.248 437.515 661.302C437.958 661.34 438.357 661.374 438.657 661.575C439.187 661.929 439.63 662.512 440 663.267Z" fill="#8AD1D7" fill-opacity="0.3"/>
<path d="M440 584.99V603.297C439.778 604.33 439.503 605.314 439.168 606.236C437.818 609.96 435.745 610.351 433.705 609.136C432.137 608.205 432.171 604.748 432.198 601.861C432.201 601.492 432.205 601.135 432.205 600.791C432.205 598.768 432.178 596.687 431.798 594.796C431.572 593.67 431.248 592.659 430.924 591.649C430.456 590.194 429.99 588.747 429.829 586.971C429.368 581.9 430.228 576.206 432.891 575.696C433.592 576.3 434.383 576.613 435.176 576.931C437.009 577.659 438.853 578.395 439.626 582.701C439.758 583.439 439.884 584.204 440 584.99Z" fill="#E29000" fill-opacity="0.3"/>
<path d="M440 516.16V533.442C438.169 530.003 439.047 520.511 440 516.16Z" fill="#8AD1D7" fill-opacity="0.3"/>
<path d="M440 441.494V461.339C439.145 461.161 438.355 460.832 437.738 460.293C435.385 458.241 432.215 454.685 433.849 447.857C435.03 442.92 437.46 441.238 440 441.494Z" fill="#E29000" fill-opacity="0.3"/>
<path d="M440 370.06V390.201C437.753 388.989 434.262 385.249 434.321 381.115C434.362 378.339 434.731 375.492 435.36 373.159C436.526 368.832 438.231 368.819 440 370.06Z" fill="#192729" fill-opacity="0.3"/>
<path d="M440 286.527V319.252C439.447 319.197 438.88 318.985 438.315 318.65C436.748 317.719 436.781 314.26 436.808 311.373C436.812 311.006 436.815 310.646 436.815 310.302C436.815 308.281 436.788 306.199 436.409 304.31C436.183 303.182 435.858 302.171 435.534 301.163C435.066 299.708 434.6 298.259 434.439 296.482C433.978 291.414 434.838 285.718 437.502 285.207C438.202 285.811 438.993 286.127 439.786 286.442C439.857 286.471 439.929 286.5 440 286.527Z" fill="#8AD1D7" fill-opacity="0.3"/>
<path d="M440 215.656V232.937C438.169 229.499 439.047 220.008 440 215.656Z" fill="#E29000" fill-opacity="0.3"/>
<path d="M440 140.991V160.835C439.145 160.658 438.355 160.328 437.738 159.79C435.385 157.738 432.215 154.181 433.849 147.353C435.03 142.416 437.46 140.735 440 140.991Z" fill="#E29000" fill-opacity="0.3"/>
<path d="M440 69.5561V89.6963C437.753 88.4843 434.262 84.7446 434.321 80.6122C434.362 77.836 434.731 74.9875 435.36 72.6558C436.526 68.3291 438.231 68.3146 440 69.5561Z" fill="#192729" fill-opacity="0.3"/>
<path d="M440 18.7477C439.446 18.6941 438.88 18.4812 438.315 18.1457C436.747 17.2148 436.781 13.7569 436.808 10.8699C436.812 10.5015 436.815 10.1423 436.815 9.79894C436.815 7.777 436.788 5.69527 436.409 3.80572C436.183 2.67886 435.858 1.66708 435.534 0.65876C435.463 0.439393 435.392 0.220188 435.324 0H440V18.7477Z" fill="#E29000" fill-opacity="0.3"/>
<path d="M387.317 0C386.809 4.64953 386.74 10.3371 388.135 12.7153C389.347 14.7833 391.045 14.9706 392.495 14.6041C394.706 14.0455 395.336 11.4992 396.062 7.15983C396.129 6.75357 396.201 6.34511 396.271 5.93437C396.604 4.00962 396.944 2.03465 397.073 0H387.317Z" fill="#8AD1D7" fill-opacity="0.3"/>
<path d="M340.66 0H324.693C323.531 6.24717 326.526 9.58107 328.773 11.5412C330.692 13.214 334.278 12.878 336.324 12.1644C336.932 11.9523 337.477 12.1695 337.983 12.3705C338.764 12.681 339.447 12.9527 340.109 11.5412C340.777 10.1165 341.344 2.26777 340.772 0.350617C340.736 0.230446 340.699 0.113645 340.66 0Z" fill="#192729" fill-opacity="0.3"/>
<path d="M281.708 0C281.735 0.266967 281.761 0.537096 281.784 0.809791C281.895 2.12874 282.344 12.0684 281.602 12.5105C280.8 12.9884 279.715 12.6586 278.683 12.3449C278.066 12.1574 277.468 11.9756 276.961 11.9756C275.168 11.9756 269.961 7.52041 270.034 2.48132C270.046 1.65544 270.087 0.823166 270.155 0H281.708Z" fill="#E29000" fill-opacity="0.3"/>
<path d="M229.304 0C229.765 3.26248 228.97 6.61506 227.721 9.52912C227.292 10.5316 223.842 17.4805 223.269 16.5914C222.65 15.6303 222.174 13.7161 221.722 11.8956C221.452 10.8073 221.191 9.75254 220.911 8.95481C220.388 7.46273 219.803 3.68142 219.651 0H229.304Z" fill="#8AD1D7" fill-opacity="0.3"/>
<path d="M165.402 0C164.894 4.64953 164.826 10.3371 166.22 12.7153C167.432 14.7833 169.13 14.9706 170.58 14.6041C172.792 14.0455 173.421 11.4992 174.147 7.15983C174.215 6.75357 174.286 6.34511 174.356 5.93437C174.689 4.00962 175.03 2.03465 175.159 0H165.402Z" fill="#E29000" fill-opacity="0.3"/>
<path d="M118.597 0H102.629C101.467 6.24717 104.461 9.58107 106.709 11.5412C108.627 13.214 112.214 12.878 114.259 12.1644C114.867 11.9523 115.414 12.1695 115.919 12.3705C116.699 12.681 117.382 12.9527 118.045 11.5412C118.713 10.1165 119.28 2.26777 118.708 0.350617C118.672 0.230446 118.635 0.113645 118.597 0Z" fill="#192729" fill-opacity="0.3"/>
</svg>
