<svg width="63" height="44" viewBox="0 0 63 44" fill="none" xmlns="http://www.w3.org/2000/svg">
<path d="M2.78195 0.471998C3.54995 0.471998 4.04595 1.672 4.26995 4.072L4.46195 6.664C4.46195 8.616 4.10995 13.704 3.40595 21.928H3.69395V22.072L3.88595 21.928H4.26995L9.88595 22.36H10.27L12.67 21.64H13.006C13.518 21.96 13.87 22.408 14.062 22.984C14.062 24.2 12.702 24.952 9.98195 25.24L5.08595 24.76H4.17395L1.86995 25.384C1.00595 25.064 0.573953 24.552 0.573953 23.848L1.58195 7.384V6.664L1.29395 1.864C1.29395 1.064 1.78995 0.599998 2.78195 0.471998ZM23.3466 6.904C25.7146 6.904 27.5066 8.664 28.7226 12.184L28.9146 13.192C28.9146 16.616 27.3146 20.12 24.1146 23.704C22.8346 24.888 21.5386 25.48 20.2266 25.48C18.3066 25.48 16.9466 24.376 16.1466 22.168C15.8586 21.144 15.7146 20.248 15.7146 19.48V18.904C15.7146 13.848 17.5546 10.008 21.2346 7.384C21.8746 7.064 22.5786 6.904 23.3466 6.904ZM18.5466 19.384C18.5466 21.56 19.1066 22.648 20.2266 22.648C22.5626 22.648 24.4986 19.656 26.0346 13.672V12.76C25.4906 10.776 24.4826 9.784 23.0106 9.784C22.4346 9.784 22.1466 10.184 22.1466 10.984C22.1466 11.528 21.5066 11.96 20.2266 12.28C19.1066 14.168 18.5466 16.536 18.5466 19.384ZM38.7696 6.568C40.2416 6.568 40.9776 7.272 40.9776 8.68C41.1696 8.68 41.2656 8.92 41.2656 9.4H41.4576L41.2656 10.792L41.4576 20.488L41.1696 28.168C44.0496 28.168 45.9856 30.28 46.9776 34.504C46.9776 35.368 46.3856 35.864 45.2016 35.992C44.6576 35.992 44.0496 34.792 43.3776 32.392C42.7376 31.464 42.0016 31 41.1696 31H40.9776C39.9536 37.816 39.0576 41.224 38.2896 41.224C37.3616 42.92 36.0176 43.768 34.2576 43.768C31.6656 43.16 30.3696 41.864 30.3696 39.88V39.592C30.3696 36.584 32.5136 33.32 36.8016 29.8L38.2896 28.888L38.4816 23.704V22.504H38.2896C37.2016 23.88 36.1616 24.568 35.1696 24.568H34.8816C32.6736 24.568 31.4096 22.872 31.0896 19.48V18.424C31.0896 14.328 32.5936 10.776 35.6016 7.768C36.5296 6.968 37.5856 6.568 38.7696 6.568ZM33.9696 17.8V20.104C34.0976 21.16 34.3376 21.688 34.6896 21.688H35.1696C36.0656 21.688 37.1696 18.392 38.4816 11.8V9.4C36.5616 9.4 35.0576 12.2 33.9696 17.8ZM33.2016 39.688C33.3296 40.488 33.7776 40.888 34.5456 40.888C36.0816 40.888 37.1856 38.152 37.8576 32.68H37.5696C34.6576 35.208 33.2016 37.544 33.2016 39.688ZM44.5551 -0.00800133C45.7711 0.247999 46.3791 0.791999 46.3791 1.624C46.0591 2.52 45.5471 2.968 44.8431 2.968C43.6591 2.744 43.0671 2.152 43.0671 1.192C43.3871 0.391999 43.8831 -0.00800133 44.5551 -0.00800133ZM46.3791 6.712C46.8911 6.712 47.3231 7.176 47.6751 8.104L47.2431 11.512V13.768C47.2431 16.392 47.6911 19.832 48.5871 24.088C48.2671 24.696 47.7231 25 46.9551 25C45.6431 25 44.7791 21.16 44.3631 13.48V11.8C44.3631 8.408 45.0351 6.712 46.3791 6.712ZM57.2972 8.824C60.0172 9.048 61.3772 10.376 61.3772 12.808L61.4732 13.432L61.3772 20.92C61.3772 21.784 61.8732 22.952 62.8652 24.424V24.52C62.6092 25.448 62.1452 25.912 61.4732 25.912C59.4892 25.08 58.4972 23.32 58.4972 20.632V20.008L58.3532 19.912L58.4972 19.72V19.624L58.6412 13C58.6412 12.072 58.2412 11.608 57.4412 11.608H56.8652C55.2652 12.248 54.4652 15.752 54.4652 22.12C54.4652 24.328 53.9052 25.432 52.7852 25.432C51.9212 25.432 51.4732 24.888 51.4412 23.8V19C51.4412 12.792 51.9852 9.688 53.0732 9.688L53.5532 9.544L54.5612 9.688C55.4252 9.112 56.3372 8.824 57.2972 8.824Z" fill="#192729"/>
</svg>
