<svg width="153" height="49" viewBox="0 0 153 49" fill="none" xmlns="http://www.w3.org/2000/svg">
<mask id="path-1-inside-1_172_428" fill="white">
<path d="M0 8C0 3.58172 3.58172 0 8 0H145C149.418 0 153 3.58172 153 8V41C153 45.4183 149.418 49 145 49H8C3.58172 49 0 45.4183 0 41V8Z"/>
</mask>
<path d="M0 8C0 3.58172 3.58172 0 8 0H145C149.418 0 153 3.58172 153 8V41C153 45.4183 149.418 49 145 49H8C3.58172 49 0 45.4183 0 41V8Z" fill="#192729"/>
<path d="M8 1H145V-1H8V1ZM152 8V41H154V8H152ZM145 48H8V50H145V48ZM1 41V8H-1V41H1ZM8 48C4.13401 48 1 44.866 1 41H-1C-1 45.9706 3.02944 50 8 50V48ZM152 41C152 44.866 148.866 48 145 48V50C149.971 50 154 45.9706 154 41H152ZM145 1C148.866 1 152 4.13401 152 8H154C154 3.02944 149.971 -1 145 -1V1ZM8 -1C3.02944 -1 -1 3.02944 -1 8H1C1 4.13401 4.13401 1 8 1V-1Z" fill="#192729" mask="url(#path-1-inside-1_172_428)"/>
<path d="M30.584 18.476H30.804C31.2147 18.476 31.4493 18.718 31.508 19.202C31.508 19.6273 30.9287 19.84 29.77 19.84C27.9073 20.544 26.6533 21.5707 26.008 22.92L25.854 23.558V23.69C25.854 24.3353 26.2867 24.658 27.152 24.658L29.572 24.526C31.2 24.526 32.3 25.318 32.872 26.902L33.004 27.672C33.004 29.1973 31.772 30.5907 29.308 31.852C28.5747 32.0573 27.9293 32.1967 27.372 32.27C25.876 32.27 24.82 31.4267 24.204 29.74C24.028 29.168 23.94 28.5887 23.94 28.002C23.94 27.826 24.0793 27.6427 24.358 27.452H24.622C25.0767 27.452 25.304 28.0313 25.304 29.19C25.6853 30.334 26.2867 30.906 27.108 30.906H27.702C28.89 30.906 30.0633 30.2167 31.222 28.838C31.53 28.398 31.684 27.9213 31.684 27.408C31.684 26.6893 31.1193 26.1833 29.99 25.89H29.902L27.02 25.956C25.4213 25.7653 24.622 25.1053 24.622 23.976L24.534 23.69C24.534 22.1793 25.6633 20.7127 27.922 19.29C28.9047 18.7473 29.792 18.476 30.584 18.476ZM36.5257 18.146C36.9364 18.234 37.1417 18.4393 37.1417 18.762L37.0097 19.73V20.016C37.0097 20.6613 37.0831 21.3433 37.2297 22.062H37.2737C38.9751 21.5487 40.0311 21.292 40.4417 21.292C40.8671 21.4093 41.0797 21.622 41.0797 21.93C41.0797 22.4287 40.5737 22.678 39.5617 22.678L37.2737 23.492C37.2737 25.472 37.4864 28.1633 37.9117 31.566C37.8237 31.962 37.6111 32.16 37.2737 32.16H37.2297C36.7164 32.16 36.4597 31.5 36.4597 30.18C36.2691 29.1973 36.1077 27.0633 35.9757 23.778H35.5797C34.2011 23.69 33.5117 23.3673 33.5117 22.81C33.5117 22.6487 33.6657 22.4507 33.9737 22.216H34.1937L35.2057 22.48H35.9097L35.7117 19.73C35.7117 18.674 35.9831 18.146 36.5257 18.146ZM45.864 23.008C46.5094 23.008 46.832 23.2647 46.832 23.778L46.634 24.196L46.502 28.222C46.502 30.0407 46.8687 31.17 47.602 31.61L47.646 31.94C47.602 32.3653 47.404 32.578 47.052 32.578H46.92C45.82 31.83 45.27 30.686 45.27 29.146H45.116C44.5294 30.7887 43.818 31.61 42.982 31.61C42.2047 31.39 41.816 30.8107 41.816 29.872C41.816 27.804 42.6447 25.7433 44.302 23.69C44.8594 23.2353 45.38 23.008 45.864 23.008ZM43.202 28.992L43.114 29.608V30.026H43.334C44.434 27.2833 44.984 25.6113 44.984 25.01H44.896C44.0454 25.9633 43.4807 27.2907 43.202 28.992ZM51.0779 22.832C52.0019 22.832 52.5519 23.4773 52.7279 24.768V24.966C52.7279 26.3887 51.9945 27.694 50.5279 28.882C51.3785 29.718 52.8672 30.136 54.9939 30.136C55.3165 30.2387 55.4779 30.466 55.4779 30.818C55.4779 31.214 55.2212 31.412 54.7079 31.412C53.2705 31.412 51.7599 31.0453 50.1759 30.312V30.95C50.1759 32.4607 49.8532 33.216 49.2079 33.216C48.7532 33.216 48.5259 32.3433 48.5259 30.598V28.882L48.4599 28.266L48.6139 27.562L48.4599 25.45V25.362C48.4599 24.966 48.6652 24.6947 49.0759 24.548C49.6479 23.404 50.3152 22.832 51.0779 22.832ZM49.9779 27.65C50.4032 27.65 50.8799 26.8873 51.4079 25.362V24.416L51.1439 24.13H50.9459C50.3005 24.57 49.9779 25.7433 49.9779 27.65ZM58.805 18.146C59.2157 18.234 59.421 18.4393 59.421 18.762L59.289 19.73V20.016C59.289 20.6613 59.3623 21.3433 59.509 22.062H59.553C61.2543 21.5487 62.3103 21.292 62.721 21.292C63.1463 21.4093 63.359 21.622 63.359 21.93C63.359 22.4287 62.853 22.678 61.841 22.678L59.553 23.492C59.553 25.472 59.7657 28.1633 60.191 31.566C60.103 31.962 59.8903 32.16 59.553 32.16H59.509C58.9957 32.16 58.739 31.5 58.739 30.18C58.5483 29.1973 58.387 27.0633 58.255 23.778H57.859C56.4803 23.69 55.791 23.3673 55.791 22.81C55.791 22.6487 55.945 22.4507 56.253 22.216H56.473L57.485 22.48H58.189L57.991 19.73C57.991 18.674 58.2623 18.146 58.805 18.146ZM76.6123 17.618L83.2123 17.2C83.403 17.2 83.5863 17.3833 83.7623 17.75C83.7623 18.3073 83.117 18.586 81.8263 18.586L77.9763 18.806L77.8883 18.85C78.255 21.2407 78.4383 25.78 78.4383 32.468C78.365 33.1133 78.1303 33.436 77.7343 33.436C77.353 33.436 77.133 33.1427 77.0743 32.556V27.452C77.0743 24.0493 76.9203 21.2113 76.6123 18.938C73.987 19.1873 72.6743 19.4807 72.6743 19.818L72.4763 19.906C72.0216 19.774 71.7943 19.5393 71.7943 19.202C71.7943 18.3953 73.4003 17.8673 76.6123 17.618ZM84.572 22.832C85.496 22.832 86.046 23.4773 86.222 24.768V24.966C86.222 26.3887 85.4887 27.694 84.022 28.882C84.8727 29.718 86.3613 30.136 88.488 30.136C88.8107 30.2387 88.972 30.466 88.972 30.818C88.972 31.214 88.7153 31.412 88.202 31.412C86.7647 31.412 85.254 31.0453 83.67 30.312V30.95C83.67 32.4607 83.3473 33.216 82.702 33.216C82.2473 33.216 82.02 32.3433 82.02 30.598V28.882L81.954 28.266L82.108 27.562L81.954 25.45V25.362C81.954 24.966 82.1593 24.6947 82.57 24.548C83.142 23.404 83.8093 22.832 84.572 22.832ZM83.472 27.65C83.8973 27.65 84.374 26.8873 84.902 25.362V24.416L84.638 24.13H84.44C83.7947 24.57 83.472 25.7433 83.472 27.65ZM93.8172 23.008C94.4625 23.008 94.7852 23.2647 94.7852 23.778L94.5872 24.196L94.4552 28.222C94.4552 30.0407 94.8218 31.17 95.5552 31.61L95.5992 31.94C95.5552 32.3653 95.3572 32.578 95.0052 32.578H94.8732C93.7732 31.83 93.2232 30.686 93.2232 29.146H93.0692C92.4825 30.7887 91.7712 31.61 90.9352 31.61C90.1578 31.39 89.7692 30.8107 89.7692 29.872C89.7692 27.804 90.5978 25.7433 92.2552 23.69C92.8125 23.2353 93.3332 23.008 93.8172 23.008ZM91.1552 28.992L91.0672 29.608V30.026H91.2872C92.3872 27.2833 92.9372 25.6113 92.9372 25.01H92.8492C91.9985 25.9633 91.4338 27.2907 91.1552 28.992ZM98.371 24.042L99.273 23.91C99.6397 23.91 99.845 24.1373 99.889 24.592C99.889 24.988 99.4123 25.2447 98.459 25.362C97.8577 25.8313 97.557 26.4327 97.557 27.166V27.892C97.8503 29.5053 98.349 30.312 99.053 30.312H99.273C99.6837 30.312 100.3 29.9233 101.121 29.146H101.253C101.546 29.146 101.781 29.3513 101.957 29.762C101.752 30.3927 101.092 30.9647 99.977 31.478C99.7717 31.566 99.515 31.61 99.207 31.61C97.6963 31.61 96.7137 30.422 96.259 28.046V27.562C96.259 25.846 96.963 24.6727 98.371 24.042ZM104.188 19.862H104.32C104.511 19.862 104.694 20.0233 104.87 20.346L104.782 21.842V22.678L104.87 26.528L104.936 26.748H105.002C105.633 26.1613 106.183 25.1273 106.652 23.646L107.136 23.492C107.547 23.5507 107.752 23.734 107.752 24.042C107.752 24.9953 107.07 26.2787 105.706 27.892V28.046C107.51 30.1433 108.698 31.192 109.27 31.192H109.402L109.952 30.862H110.15C110.458 30.862 110.686 31.0673 110.832 31.478C110.832 31.9473 110.312 32.27 109.27 32.446C108.229 32.446 106.872 31.39 105.2 29.278H105.002L105.068 30.466V31.61C104.98 32.0647 104.753 32.292 104.386 32.292C103.976 32.204 103.77 31.9767 103.77 31.61V31.478L103.682 28.948C103.521 28.948 103.411 28.7207 103.352 28.266L103.638 27.716L103.506 22.766V21.798C103.506 20.5073 103.734 19.862 104.188 19.862ZM111.688 20.038C112.245 20.1553 112.524 20.4047 112.524 20.786C112.377 21.1967 112.143 21.402 111.82 21.402C111.277 21.2993 111.006 21.028 111.006 20.588C111.153 20.2213 111.38 20.038 111.688 20.038ZM112.524 23.118C112.759 23.118 112.957 23.3307 113.118 23.756L112.92 25.318V26.352C112.92 27.5547 113.125 29.1313 113.536 31.082C113.389 31.3607 113.14 31.5 112.788 31.5C112.187 31.5 111.791 29.74 111.6 26.22V25.45C111.6 23.8953 111.908 23.118 112.524 23.118ZM117.528 24.086C118.775 24.1887 119.398 24.7973 119.398 25.912L119.442 26.198L119.398 29.63C119.398 30.026 119.625 30.5613 120.08 31.236V31.28C119.963 31.7053 119.75 31.918 119.442 31.918C118.533 31.5367 118.078 30.73 118.078 29.498V29.212L118.012 29.168L118.078 29.08V29.036L118.144 26C118.144 25.5747 117.961 25.362 117.594 25.362H117.33C116.597 25.6553 116.23 27.2613 116.23 30.18C116.23 31.192 115.973 31.698 115.46 31.698C115.064 31.698 114.859 31.4487 114.844 30.95V28.75C114.844 25.9047 115.093 24.482 115.592 24.482L115.812 24.416L116.274 24.482C116.67 24.218 117.088 24.086 117.528 24.086ZM124.312 23.052C124.986 23.052 125.324 23.3747 125.324 24.02C125.412 24.02 125.456 24.13 125.456 24.35H125.544L125.456 24.988L125.544 29.432L125.412 32.952C126.732 32.952 127.619 33.92 128.074 35.856C128.074 36.252 127.802 36.4793 127.26 36.538C127.01 36.538 126.732 35.988 126.424 34.888C126.13 34.4627 125.793 34.25 125.412 34.25H125.324C124.854 37.374 124.444 38.936 124.092 38.936C123.666 39.7133 123.05 40.102 122.244 40.102C121.056 39.8233 120.462 39.2293 120.462 38.32V38.188C120.462 36.8093 121.444 35.3133 123.41 33.7L124.092 33.282L124.18 30.906V30.356H124.092C123.593 30.9867 123.116 31.302 122.662 31.302H122.53C121.518 31.302 120.938 30.5247 120.792 28.97V28.486C120.792 26.6087 121.481 24.9807 122.86 23.602C123.285 23.2353 123.769 23.052 124.312 23.052ZM122.112 28.2V29.256C122.17 29.74 122.28 29.982 122.442 29.982H122.662C123.072 29.982 123.578 28.4713 124.18 25.45V24.35C123.3 24.35 122.61 25.6333 122.112 28.2ZM121.76 38.232C121.818 38.5987 122.024 38.782 122.376 38.782C123.08 38.782 123.586 37.528 123.894 35.02H123.762C122.427 36.1787 121.76 37.2493 121.76 38.232ZM127.271 16.562C127.667 16.7233 127.865 16.958 127.865 17.266C127.983 21.4313 128.151 24.438 128.371 26.286C128.225 26.6527 128.012 26.836 127.733 26.836C127.191 26.836 126.919 25.9633 126.919 24.218C126.787 23.5727 126.677 21.2333 126.589 17.2C126.589 16.8333 126.817 16.6207 127.271 16.562ZM127.403 31.698C127.535 31.2433 127.77 31.016 128.107 31.016C128.459 31.016 128.701 31.2433 128.833 31.698C128.672 32.1233 128.445 32.336 128.151 32.336H128.085C127.792 32.336 127.565 32.1233 127.403 31.698Z" fill="#F5F5F5"/>
</svg>
