<svg width="124" height="38" viewBox="0 0 124 38" fill="none" xmlns="http://www.w3.org/2000/svg">
<path d="M15.514 14.992L16.314 14.736C17.0393 14.736 17.402 15.696 17.402 17.616L18.394 25.008L18.522 25.136L22.202 23.792C22.6927 23.792 22.9593 24.1653 23.002 24.912C23.002 25.4667 21.6473 26.1387 18.938 26.928L18.81 26.992V27.12C18.81 27.568 19.514 29.904 20.922 34.128V34.192C20.922 34.5973 20.5913 34.9387 19.93 35.216C19.3113 35.216 18.906 34.48 18.714 33.008C18.2233 31.9413 17.626 30.1813 16.922 27.728H16.794C13.9993 28.304 12.602 28.7947 12.602 29.2C11.066 32.528 9.90333 34.192 9.114 34.192C8.666 34.192 8.39933 33.904 8.314 33.328C8.314 32.816 8.87933 31.8133 10.01 30.32L10.522 29.2H9.722L9.114 29.328C8.32467 29.136 7.93 28.7307 7.93 28.112C8.25 27.3653 8.71933 26.992 9.338 26.992L10.138 27.312C11.3327 27.312 11.93 26.8747 11.93 26C13.018 23.44 14.2127 19.7707 15.514 14.992ZM15.802 20.816L13.914 26.512C15.6633 26.1707 16.538 25.84 16.538 25.52C16.218 22.384 15.9727 20.816 15.802 20.816ZM31.4718 16.432C31.8344 16.432 32.1651 16.7733 32.4638 17.456L31.0558 26.352V28.848C31.0558 31.4507 31.4611 32.752 32.2718 32.752C32.8051 33.008 33.0718 33.3493 33.0718 33.776C33.0718 34.2667 32.6451 34.5547 31.7917 34.64C30.8531 34.64 30.1171 33.776 29.5838 32.048H29.2638C28.4744 33.776 27.5144 34.64 26.3838 34.64C25.0611 34.64 24.2611 33.6373 23.9838 31.632C23.9838 29.3067 25.5411 26.8427 28.6558 24.24C29.2744 24.24 29.5838 23.376 29.5838 21.648C30.0531 18.1707 30.6824 16.432 31.4718 16.432ZM25.8718 31.376V32.24L26.3838 32.752H26.5758C27.2584 32.752 28.0584 30.6933 28.9758 26.576H28.7838C26.8424 28.5173 25.8718 30.1173 25.8718 31.376ZM41.7218 16.432C42.0844 16.432 42.4151 16.7733 42.7138 17.456L41.3058 26.352V28.848C41.3058 31.4507 41.7111 32.752 42.5218 32.752C43.0551 33.008 43.3218 33.3493 43.3218 33.776C43.3218 34.2667 42.8951 34.5547 42.0417 34.64C41.1031 34.64 40.3671 33.776 39.8338 32.048H39.5138C38.7244 33.776 37.7644 34.64 36.6338 34.64C35.3111 34.64 34.5111 33.6373 34.2338 31.632C34.2338 29.3067 35.7911 26.8427 38.9058 24.24C39.5244 24.24 39.8338 23.376 39.8338 21.648C40.3031 18.1707 40.9324 16.432 41.7218 16.432ZM36.1218 31.376V32.24L36.6338 32.752H36.8258C37.5084 32.752 38.3084 30.6933 39.2258 26.576H39.0338C37.0924 28.5173 36.1218 30.1173 36.1218 31.376ZM66.2103 15.056H66.5303C67.1276 15.056 67.4689 15.408 67.5543 16.112C67.5543 16.7307 66.7116 17.04 65.0263 17.04C62.3169 18.064 60.4929 19.5573 59.5543 21.52L59.3303 22.448V22.64C59.3303 23.5787 59.9596 24.048 61.2183 24.048L64.7383 23.856C67.1063 23.856 68.7063 25.008 69.5383 27.312L69.7303 28.432C69.7303 30.6507 67.9383 32.6773 64.3542 34.512C63.2876 34.8107 62.3489 35.0133 61.5383 35.12C59.3623 35.12 57.8263 33.8933 56.9303 31.44C56.6743 30.608 56.5463 29.7653 56.5463 28.912C56.5463 28.656 56.7489 28.3893 57.1543 28.112H57.5383C58.1996 28.112 58.5303 28.9547 58.5303 30.64C59.0849 32.304 59.9596 33.136 61.1543 33.136H62.0183C63.7463 33.136 65.4529 32.1333 67.1383 30.128C67.5863 29.488 67.8103 28.7947 67.8103 28.048C67.8103 27.0027 66.9889 26.2667 65.3463 25.84H65.2183L61.0263 25.936C58.7009 25.6587 57.5383 24.6987 57.5383 23.056L57.4103 22.64C57.4103 20.4427 59.0529 18.3093 62.3383 16.24C63.7676 15.4507 65.0583 15.056 66.2103 15.056ZM74.3408 23.152L75.6528 22.96C76.1861 22.96 76.4848 23.2907 76.5488 23.952C76.5488 24.528 75.8554 24.9013 74.4688 25.072C73.5941 25.7547 73.1568 26.6293 73.1568 27.696V28.752C73.5834 31.0987 74.3088 32.272 75.3328 32.272H75.6528C76.2501 32.272 77.1461 31.7067 78.3408 30.576H78.5328C78.9594 30.576 79.3008 30.8747 79.5568 31.472C79.2581 32.3893 78.2981 33.2213 76.6768 33.968C76.3781 34.096 76.0048 34.16 75.5568 34.16C73.3594 34.16 71.9301 32.432 71.2688 28.976V28.272C71.2688 25.776 72.2928 24.0693 74.3408 23.152ZM82.5145 16.336C83.1118 16.336 83.4105 17.0613 83.4105 18.512L83.7945 24.016H83.9225L85.5225 23.408C87.3145 23.408 88.4025 25.2427 88.7865 28.912C88.9358 29.9573 89.0105 31.4933 89.0105 33.52V36.112C89.0105 36.9227 88.7118 37.328 88.1145 37.328H87.9865C87.4105 37.2427 87.1225 36.9333 87.1225 36.4V33.392C87.1225 28.5707 86.6532 25.904 85.7145 25.392H85.5225C84.8825 25.392 84.4132 26.3733 84.1145 28.336V30.128C84.1145 33.328 83.8478 34.928 83.3145 34.928L82.7065 34.992C82.1092 34.992 81.8105 34.1067 81.8105 32.336C81.8745 30.4587 82.0025 28.9227 82.1945 27.728L81.5225 17.2C81.5225 16.6453 81.8532 16.3573 82.5145 16.336ZM95.6343 21.936C97.2129 21.936 98.4076 23.1093 99.2183 25.456L99.3463 26.128C99.3463 28.4107 98.2796 30.7467 96.1463 33.136C95.2929 33.9253 94.4289 34.32 93.5543 34.32C92.2743 34.32 91.3676 33.584 90.8343 32.112C90.6423 31.4293 90.5463 30.832 90.5463 30.32V29.936C90.5463 26.5653 91.7729 24.0053 94.2263 22.256C94.6529 22.0427 95.1223 21.936 95.6343 21.936ZM92.4343 30.256C92.4343 31.7067 92.8076 32.432 93.5543 32.432C95.1116 32.432 96.4023 30.4373 97.4263 26.448V25.84C97.0636 24.5173 96.3916 23.856 95.4103 23.856C95.0263 23.856 94.8343 24.1227 94.8343 24.656C94.8343 25.0187 94.4076 25.3067 93.5543 25.52C92.8076 26.7787 92.4343 28.3573 92.4343 30.256ZM105.884 21.936C107.463 21.936 108.658 23.1093 109.468 25.456L109.596 26.128C109.596 28.4107 108.53 30.7467 106.396 33.136C105.543 33.9253 104.679 34.32 103.804 34.32C102.524 34.32 101.618 33.584 101.084 32.112C100.892 31.4293 100.796 30.832 100.796 30.32V29.936C100.796 26.5653 102.023 24.0053 104.476 22.256C104.903 22.0427 105.372 21.936 105.884 21.936ZM102.684 30.256C102.684 31.7067 103.058 32.432 103.804 32.432C105.362 32.432 106.652 30.4373 107.676 26.448V25.84C107.314 24.5173 106.642 23.856 105.66 23.856C105.276 23.856 105.084 24.1227 105.084 24.656C105.084 25.0187 104.658 25.3067 103.804 25.52C103.058 26.7787 102.684 28.3573 102.684 30.256ZM112.838 16.368C113.436 16.5813 113.734 16.912 113.734 17.36L114.054 29.552V33.488C114.054 34.2133 113.745 34.576 113.126 34.576H112.71C112.326 34.32 112.134 34.0213 112.134 33.68V29.968L111.846 17.296C111.846 16.7627 112.177 16.4533 112.838 16.368Z" fill="#192729"/>
</svg>
