<svg width="152" height="28" viewBox="0 0 152 28" fill="none" xmlns="http://www.w3.org/2000/svg">
<path d="M4.672 3.392C6.12267 3.392 6.96533 4.43733 7.2 6.528C7.2 8.256 6.79467 9.344 5.984 9.792H5.792C5.17333 9.74933 4.864 9.52533 4.864 9.12L4.992 6.72V5.536L4.8 5.312H4.48C3.79733 5.312 2.99733 7.21067 2.08 11.008L1.888 13.408V14.112C1.888 16.3307 2.88 17.632 4.864 18.016H6.208C8.42667 18.016 11.1147 16.5867 14.272 13.728H14.4C14.976 13.728 15.3067 14.0907 15.392 14.816C14.9013 16.096 14.3253 16.736 13.664 16.736C10.6133 18.912 7.872 20 5.44 20C3.008 20 1.29067 18.6667 0.288 16L0 13.728V13.312C0 10.0053 0.928 6.96533 2.784 4.192C3.38133 3.65867 4.01067 3.392 4.672 3.392ZM20.832 7.392C22.176 7.392 22.976 8.33067 23.232 10.208V10.496C23.232 12.5653 22.1653 14.464 20.032 16.192C21.2693 17.408 23.4347 18.016 26.528 18.016C26.9973 18.1653 27.232 18.496 27.232 19.008C27.232 19.584 26.8587 19.872 26.112 19.872C24.0213 19.872 21.824 19.3387 19.52 18.272V19.2C19.52 21.3973 19.0507 22.496 18.112 22.496C17.4507 22.496 17.12 21.2267 17.12 18.688V16.192L17.024 15.296L17.248 14.272L17.024 11.2V11.072C17.024 10.496 17.3227 10.1013 17.92 9.888C18.752 8.224 19.7227 7.392 20.832 7.392ZM19.232 14.4C19.8507 14.4 20.544 13.2907 21.312 11.072V9.696L20.928 9.28H20.64C19.7013 9.92 19.232 11.6267 19.232 14.4ZM31.1755 8.512C32.0288 8.53333 33.4688 10.0267 35.4955 12.992L35.5595 13.536C35.5595 14.1333 34.0982 14.592 31.1755 14.912L31.0795 15.008V15.136C31.5275 17.056 31.9968 18.016 32.4875 18.016H32.8715C33.5542 18.016 34.5888 17.28 35.9755 15.808H36.1675C36.5942 15.808 36.9248 16.1173 37.1595 16.736C37.1595 17.248 36.2635 18.1333 34.4715 19.392C34.0022 19.6693 33.4368 19.872 32.7755 20C31.0475 20 29.8422 18.3787 29.1595 15.136C28.1782 14.9867 27.6875 14.5813 27.6875 13.92C27.6875 13.4507 28.0502 13.1413 28.7755 12.992V13.12L29.0955 12.992V12.192C29.0955 9.73867 29.7888 8.512 31.1755 8.512ZM31.3675 10.816H31.0795L30.9515 12V12.992H31.0795C32.2742 12.9493 32.8715 12.8213 32.8715 12.608C32.3168 11.776 31.8155 11.1787 31.3675 10.816ZM44.3733 7.648C45.3119 7.648 45.7812 8.02133 45.7812 8.768L45.4933 9.376L45.3013 15.232C45.3013 17.8773 45.8346 19.52 46.9013 20.16L46.9653 20.64C46.9013 21.2587 46.6133 21.568 46.1013 21.568H45.9093C44.3093 20.48 43.5093 18.816 43.5093 16.576H43.2853C42.4319 18.9653 41.3973 20.16 40.1813 20.16C39.0506 19.84 38.4853 18.9973 38.4853 17.632C38.4853 14.624 39.6906 11.6267 42.1013 8.64C42.9119 7.97867 43.6693 7.648 44.3733 7.648ZM40.5013 16.352L40.3733 17.248V17.856H40.6933C42.2933 13.8667 43.0933 11.4347 43.0933 10.56H42.9653C41.7279 11.9467 40.9066 13.8773 40.5013 16.352ZM51.509 0.575998C52.1063 0.703999 52.405 1.00267 52.405 1.472L52.213 2.88V3.296C52.213 4.23467 52.3197 5.22667 52.533 6.272H52.597C55.0717 5.52533 56.6077 5.152 57.205 5.152C57.8237 5.32267 58.133 5.632 58.133 6.08C58.133 6.80533 57.397 7.168 55.925 7.168L52.597 8.352C52.597 11.232 52.9063 15.1467 53.525 20.096C53.397 20.672 53.0877 20.96 52.597 20.96H52.533C51.7863 20.96 51.413 20 51.413 18.08C51.1357 16.6507 50.901 13.5467 50.709 8.768H50.133C48.1277 8.64 47.125 8.17067 47.125 7.36C47.125 7.12533 47.349 6.83733 47.797 6.496H48.117L49.589 6.88H50.613L50.325 2.88C50.325 1.344 50.7197 0.575998 51.509 0.575998ZM61.988 8.512C62.8413 8.53333 64.2813 10.0267 66.308 12.992L66.372 13.536C66.372 14.1333 64.9107 14.592 61.988 14.912L61.892 15.008V15.136C62.34 17.056 62.8093 18.016 63.3 18.016H63.684C64.3667 18.016 65.4013 17.28 66.788 15.808H66.98C67.4067 15.808 67.7373 16.1173 67.972 16.736C67.972 17.248 67.076 18.1333 65.284 19.392C64.8147 19.6693 64.2493 19.872 63.588 20C61.86 20 60.6547 18.3787 59.972 15.136C58.9907 14.9867 58.5 14.5813 58.5 13.92C58.5 13.4507 58.8627 13.1413 59.588 12.992V13.12L59.908 12.992V12.192C59.908 9.73867 60.6013 8.512 61.988 8.512ZM62.18 10.816H61.892L61.764 12V12.992H61.892C63.0867 12.9493 63.684 12.8213 63.684 12.608C63.1293 11.776 62.628 11.1787 62.18 10.816ZM87.2483 7.648C88.1869 7.648 88.6562 8.02133 88.6562 8.768L88.3683 9.376L88.1763 15.232C88.1763 17.8773 88.7096 19.52 89.7763 20.16L89.8403 20.64C89.7763 21.2587 89.4883 21.568 88.9763 21.568H88.7843C87.1843 20.48 86.3843 18.816 86.3843 16.576H86.1603C85.3069 18.9653 84.2723 20.16 83.0563 20.16C81.9256 19.84 81.3603 18.9973 81.3603 17.632C81.3603 14.624 82.5656 11.6267 84.9763 8.64C85.7869 7.97867 86.5443 7.648 87.2483 7.648ZM83.3763 16.352L83.2483 17.248V17.856H83.5683C85.1683 13.8667 85.9683 11.4347 85.9683 10.56H85.8403C84.6029 11.9467 83.7816 13.8773 83.3763 16.352ZM93.872 9.152L95.184 8.96C95.7173 8.96 96.016 9.29067 96.08 9.952C96.08 10.528 95.3867 10.9013 94 11.072C93.1253 11.7547 92.688 12.6293 92.688 13.696V14.752C93.1147 17.0987 93.84 18.272 94.864 18.272H95.184C95.7813 18.272 96.6773 17.7067 97.872 16.576H98.064C98.4907 16.576 98.832 16.8747 99.088 17.472C98.7893 18.3893 97.8293 19.2213 96.208 19.968C95.9093 20.096 95.536 20.16 95.088 20.16C92.8907 20.16 91.4613 18.432 90.8 14.976V14.272C90.8 11.776 91.824 10.0693 93.872 9.152ZM103.966 9.152L105.278 8.96C105.811 8.96 106.11 9.29067 106.174 9.952C106.174 10.528 105.48 10.9013 104.094 11.072C103.219 11.7547 102.782 12.6293 102.782 13.696V14.752C103.208 17.0987 103.934 18.272 104.958 18.272H105.278C105.875 18.272 106.771 17.7067 107.966 16.576H108.158C108.584 16.576 108.926 16.8747 109.182 17.472C108.883 18.3893 107.923 19.2213 106.302 19.968C106.003 20.096 105.63 20.16 105.182 20.16C102.984 20.16 101.555 18.432 100.894 14.976V14.272C100.894 11.776 101.918 10.0693 103.966 9.152ZM115.916 7.936C117.494 7.936 118.689 9.10933 119.5 11.456L119.628 12.128C119.628 14.4107 118.561 16.7467 116.428 19.136C115.574 19.9253 114.71 20.32 113.836 20.32C112.556 20.32 111.649 19.584 111.116 18.112C110.924 17.4293 110.828 16.832 110.828 16.32V15.936C110.828 12.5653 112.054 10.0053 114.508 8.256C114.934 8.04267 115.404 7.936 115.916 7.936ZM112.716 16.256C112.716 17.7067 113.089 18.432 113.836 18.432C115.393 18.432 116.684 16.4373 117.708 12.448V11.84C117.345 10.5173 116.673 9.856 115.692 9.856C115.308 9.856 115.116 10.1227 115.116 10.656C115.116 11.0187 114.689 11.3067 113.836 11.52C113.089 12.7787 112.716 14.3573 112.716 16.256ZM122.326 10.368L122.902 10.048C123.414 10.048 123.787 10.3573 124.022 10.976C123.68 12.5547 123.51 14.176 123.51 15.84C123.51 16.672 123.755 17.5787 124.246 18.56H124.438C125.056 18.56 125.792 16.1173 126.646 11.232C126.944 10.976 127.232 10.848 127.51 10.848C128.171 10.848 128.502 12.0213 128.502 14.368C128.779 16.9493 129.088 18.24 129.43 18.24L129.91 18.048C130.528 18.2827 130.838 18.6133 130.838 19.04C130.454 19.8507 129.92 20.256 129.238 20.256C128.47 20.256 127.734 19.488 127.03 17.952C126.176 19.744 125.312 20.64 124.438 20.64C123.136 20.64 122.23 19.2853 121.718 16.576L121.622 15.552V15.232C121.622 13.5253 121.856 11.904 122.326 10.368ZM135.674 9.216C137.488 9.36533 138.394 10.2507 138.394 11.872L138.458 12.288L138.394 17.28C138.394 17.856 138.725 18.6347 139.386 19.616V19.68C139.216 20.2987 138.906 20.608 138.458 20.608C137.136 20.0533 136.474 18.88 136.474 17.088V16.672L136.378 16.608L136.474 16.48V16.416L136.57 12C136.57 11.3813 136.304 11.072 135.77 11.072H135.386C134.32 11.4987 133.786 13.8347 133.786 18.08C133.786 19.552 133.413 20.288 132.666 20.288C132.09 20.288 131.792 19.9253 131.77 19.2V16C131.77 11.8613 132.133 9.792 132.858 9.792L133.178 9.696L133.85 9.792C134.426 9.408 135.034 9.216 135.674 9.216ZM144.165 0.575998C144.763 0.703999 145.061 1.00267 145.061 1.472L144.869 2.88V3.296C144.869 4.23467 144.976 5.22667 145.189 6.272H145.253C147.728 5.52533 149.264 5.152 149.861 5.152C150.48 5.32267 150.789 5.632 150.789 6.08C150.789 6.80533 150.053 7.168 148.581 7.168L145.253 8.352C145.253 11.232 145.563 15.1467 146.181 20.096C146.053 20.672 145.744 20.96 145.253 20.96H145.189C144.443 20.96 144.069 20 144.069 18.08C143.792 16.6507 143.557 13.5467 143.365 8.768H142.789C140.784 8.64 139.781 8.17067 139.781 7.36C139.781 7.12533 140.005 6.83733 140.453 6.496H140.773L142.245 6.88H143.269L142.981 2.88C142.981 1.344 143.376 0.575998 144.165 0.575998Z" fill="#192729"/>
<path d="M0 24.672H151.141V27.072H0V24.672Z" fill="#192729"/>
</svg>
