<svg width="43" height="30" viewBox="0 0 43 30" fill="none" xmlns="http://www.w3.org/2000/svg">
<path d="M2.112 0.647999C2.624 0.647999 2.95467 1.448 3.104 3.048L3.232 4.776C3.232 6.07733 2.99733 9.46933 2.528 14.952H2.72V15.048L2.848 14.952H3.104L6.848 15.24H7.104L8.704 14.76H8.928C9.26933 14.9733 9.504 15.272 9.632 15.656C9.632 16.4667 8.72533 16.968 6.912 17.16L3.648 16.84H3.04L1.504 17.256C0.928 17.0427 0.64 16.7013 0.64 16.232L1.312 5.256V4.776L1.12 1.576C1.12 1.04267 1.45067 0.733332 2.112 0.647999ZM15.8218 4.936C17.4004 4.936 18.5951 6.10933 19.4058 8.456L19.5338 9.128C19.5338 11.4107 18.4671 13.7467 16.3338 16.136C15.4804 16.9253 14.6164 17.32 13.7418 17.32C12.4618 17.32 11.5551 16.584 11.0218 15.112C10.8298 14.4293 10.7338 13.832 10.7338 13.32V12.936C10.7338 9.56533 11.9604 7.00533 14.4138 5.256C14.8404 5.04267 15.3098 4.936 15.8218 4.936ZM12.6218 13.256C12.6218 14.7067 12.9951 15.432 13.7418 15.432C15.2991 15.432 16.5898 13.4373 17.6138 9.448V8.84C17.2511 7.51733 16.5791 6.856 15.5978 6.856C15.2138 6.856 15.0218 7.12267 15.0218 7.656C15.0218 8.01867 14.5951 8.30667 13.7418 8.52C12.9951 9.77867 12.6218 11.3573 12.6218 13.256ZM26.1038 4.712C27.0851 4.712 27.5758 5.18133 27.5758 6.12C27.7038 6.12 27.7678 6.28 27.7678 6.6H27.8958L27.7678 7.528L27.8958 13.992L27.7038 19.112C29.6238 19.112 30.9144 20.52 31.5758 23.336C31.5758 23.912 31.1811 24.2427 30.3918 24.328C30.0291 24.328 29.6238 23.528 29.1758 21.928C28.7491 21.3093 28.2584 21 27.7038 21H27.5758C26.8931 25.544 26.2958 27.816 25.7838 27.816C25.1651 28.9467 24.2691 29.512 23.0958 29.512C21.3678 29.1067 20.5038 28.2427 20.5038 26.92V26.728C20.5038 24.7227 21.9331 22.5467 24.7918 20.2L25.7838 19.592L25.9118 16.136V15.336H25.7838C25.0584 16.2533 24.3651 16.712 23.7038 16.712H23.5118C22.0398 16.712 21.1971 15.5813 20.9838 13.32V12.616C20.9838 9.88533 21.9864 7.51733 23.9918 5.512C24.6104 4.97867 25.3144 4.712 26.1038 4.712ZM22.9038 12.2V13.736C22.9891 14.44 23.1491 14.792 23.3838 14.792H23.7038C24.3011 14.792 25.0371 12.5947 25.9118 8.2V6.6C24.6318 6.6 23.6291 8.46667 22.9038 12.2ZM22.3918 26.792C22.4771 27.3253 22.7758 27.592 23.2878 27.592C24.3118 27.592 25.0478 25.768 25.4958 22.12H25.3038C23.3624 23.8053 22.3918 25.3627 22.3918 26.792ZM29.9608 0.327999C30.7714 0.498666 31.1768 0.861333 31.1768 1.416C30.9634 2.01333 30.6221 2.312 30.1528 2.312C29.3634 2.16267 28.9688 1.768 28.9688 1.128C29.1821 0.594666 29.5128 0.327999 29.9608 0.327999ZM31.1768 4.808C31.5181 4.808 31.8061 5.11733 32.0408 5.736L31.7528 8.008V9.512C31.7528 11.2613 32.0514 13.5547 32.6488 16.392C32.4354 16.7973 32.0728 17 31.5608 17C30.6861 17 30.1101 14.44 29.8328 9.32V8.2C29.8328 5.93867 30.2808 4.808 31.1768 4.808ZM38.4555 6.216C40.2688 6.36533 41.1755 7.25067 41.1755 8.872L41.2395 9.288L41.1755 14.28C41.1755 14.856 41.5062 15.6347 42.1675 16.616V16.68C41.9968 17.2987 41.6875 17.608 41.2395 17.608C39.9168 17.0533 39.2555 15.88 39.2555 14.088V13.672L39.1595 13.608L39.2555 13.48V13.416L39.3515 9C39.3515 8.38133 39.0848 8.072 38.5515 8.072H38.1675C37.1008 8.49867 36.5675 10.8347 36.5675 15.08C36.5675 16.552 36.1942 17.288 35.4475 17.288C34.8715 17.288 34.5728 16.9253 34.5515 16.2V13C34.5515 8.86133 34.9142 6.792 35.6395 6.792L35.9595 6.696L36.6315 6.792C37.2075 6.408 37.8155 6.216 38.4555 6.216Z" fill="#192729"/>
<path d="M0 21.672H42.5515V24.072H0V21.672Z" fill="#192729"/>
</svg>
