<svg width="238" height="283" viewBox="0 0 238 283" fill="none" xmlns="http://www.w3.org/2000/svg">
<path fill-rule="evenodd" clip-rule="evenodd" d="M185.472 12.6049L183.654 12.5435L183.603 14.1581C183.517 17.0633 183.557 20.1711 183.6 23.5597C183.63 25.9211 183.662 28.4189 183.654 31.0794L183.353 36.333C183.361 41.2274 183.395 48.0397 183.456 56.7703L183.653 81.6236C182.318 82.0665 181.314 83.2198 181.113 84.6227C180.011 84.7906 179.165 85.7263 179.165 86.8521C179.165 87.649 179.589 88.3501 180.227 88.7517L179.45 90.6309C179.105 91.4656 178.535 92.1794 177.802 92.6949C174.59 94.9542 172.7 98.6133 172.744 102.483C172.745 102.586 172.748 102.689 172.752 102.791C172.766 103.162 173.084 103.448 173.463 103.438C173.842 103.424 174.138 103.112 174.124 102.741C174.12 102.65 174.118 102.559 174.117 102.468C174.077 99.0362 176.36 95.7909 179.209 93.787C180.153 93.1231 180.886 92.2063 181.328 91.1358L181.561 89.1085H182.537C182.537 89.1085 182.876 90.9331 182.876 92.3595C182.876 93.7859 182.537 96.6112 182.537 96.6112H181.412C180.124 96.6112 179.076 97.6378 179.076 98.8997C179.076 100.162 180.124 101.188 181.412 101.188H181.573C182.861 101.188 183.303 100.529 183.303 98.8997C183.303 98.0469 183.397 97.4367 184.789 97.4367C186.181 97.4367 185.823 98.8997 185.823 98.8997C185.823 100.162 186.871 101.188 188.159 101.188H188.32C189.608 101.188 190.656 100.162 190.656 98.8997C190.656 97.6378 188.484 96.5705 187.195 96.5705C187.195 96.5705 186.852 94.0032 186.852 92.6949C186.852 91.5923 187.195 89.3378 187.195 89.3378H185.823C185.823 89.3378 186.109 91.442 186.109 92.7263C186.109 94.0105 185.823 96.5705 185.823 96.5705C185.823 96.5705 185.066 96.7071 184.705 96.7148C184.344 96.7225 183.909 96.6112 183.909 96.6112C183.909 96.6112 183.608 93.9862 183.608 92.7263C183.608 91.4664 183.909 89.1085 183.909 89.1085H185.823H187.195H188.171L189.01 91.1353C189.431 92.1535 190.692 93.0474 191.653 93.7285L191.775 93.8148C194.559 95.7924 195.616 98.9816 195.616 102.346C195.616 105.188 194.478 107.851 192.411 109.846C190.345 111.84 187.61 113.522 184.705 113.481C182.402 113.448 180.048 112.179 178.207 110.804C176.425 109.472 174.117 105.829 173.733 104.989C173.348 104.148 173.168 105.475 173.279 105.829C174.019 108.174 175.532 110.291 177.539 111.791C179.615 113.342 182.086 114.182 184.685 114.219C187.96 114.265 191.045 113.053 193.375 110.804C195.705 108.554 196.988 105.55 196.988 102.346C196.988 98.5521 195.114 94.956 191.974 92.7263C191.209 92.1832 190.624 91.4585 190.282 90.6305L189.505 88.7518C190.143 88.3502 190.567 87.6491 190.567 86.8522C190.567 85.7264 189.721 84.7907 188.619 84.6228C188.393 83.041 187.145 81.7765 185.552 81.4899L185.464 81.4899L184.411 58.3784C184.349 49.5812 185.171 31.9979 185.171 31.9979C185.186 25.2362 185.269 19.3079 185.421 14.2136L185.472 12.6049ZM188.159 99.8436C187.628 99.8436 187.195 99.4203 187.195 98.8997V97.4367C187.195 97.4367 189.284 97.855 189.284 98.8997C189.284 99.8583 188.92 99.8525 188.449 99.845H188.449H188.449C188.407 99.8443 188.364 99.8436 188.32 99.8436H188.159ZM179.923 98.8997C180.012 100.214 182.738 100.787 182.537 98.8997V97.4366C182.537 97.4366 179.834 97.5852 179.923 98.8997ZM182.512 84.5957C182.764 83.5515 183.724 82.7722 184.866 82.7722C186.008 82.7722 186.968 83.5516 187.22 84.5957H182.512ZM188.264 85.9403H187.971H181.761H181.468C180.955 85.9403 180.537 86.3493 180.537 86.852C180.537 87.3548 180.955 87.7638 181.468 87.7638H188.264C188.777 87.7638 189.195 87.3548 189.195 86.852C189.195 86.3493 188.777 85.9403 188.264 85.9403ZM200.025 91.7937H201.225C201.563 91.7937 201.837 91.5224 201.837 91.1876C201.837 90.8528 201.563 90.5815 201.225 90.5815H200.025C199.687 90.5815 199.413 90.8528 199.413 91.1876C199.413 91.5224 199.687 91.7937 200.025 91.7937ZM199.072 96.0846L200.226 96.5704C200.552 96.7074 200.71 97.0952 200.579 97.4366C200.449 97.7781 200.079 97.9438 199.754 97.8069L198.599 97.3211C198.274 97.1841 198.116 96.7963 198.246 96.4549C198.346 96.1947 198.584 96.0366 198.836 96.0366C198.915 96.0366 198.995 96.052 199.072 96.0846ZM198.042 86.2002L199.123 85.3326C199.428 85.088 199.505 84.6032 199.293 84.2496C199.163 84.0313 198.954 83.9142 198.741 83.9142C198.609 83.9142 198.476 83.9591 198.359 84.0526L197.278 84.9202C196.973 85.1649 196.897 85.6498 197.108 86.0033C197.319 86.3567 197.737 86.4449 198.042 86.2002ZM169.101 91.7937H167.901C167.563 91.7937 167.289 91.5224 167.289 91.1876C167.289 90.8528 167.563 90.5815 167.901 90.5815H169.101C169.439 90.5815 169.713 90.8528 169.713 91.1876C169.713 91.5224 169.439 91.7937 169.101 91.7937ZM170.054 96.0846L168.9 96.5704C168.574 96.7074 168.416 97.0953 168.547 97.4366C168.677 97.7781 169.047 97.9438 169.372 97.8069L170.527 97.3211C170.852 97.1841 171.01 96.7963 170.879 96.4549C170.78 96.1947 170.542 96.0366 170.29 96.0366C170.211 96.0366 170.131 96.052 170.054 96.0846ZM171.084 86.2002L170.003 85.3326C169.698 85.088 169.621 84.6032 169.832 84.2497C169.963 84.0313 170.172 83.9142 170.385 83.9142C170.517 83.9142 170.65 83.9591 170.767 84.0526L171.848 84.9202C172.153 85.1648 172.229 85.6497 172.018 86.0032C171.807 86.3565 171.389 86.445 171.084 86.2002Z" fill="#E29000"/>
<path d="M95.9304 181.852C102.616 183.612 106.047 187.799 108.944 191.7C111.847 195.599 105.465 193.744 101.943 192.336C98.4216 190.929 89.942 185.723 89.942 185.723L61.8302 177.22V164.218L70.2371 163.727C70.2371 163.727 89.2389 180.092 95.9304 181.852Z" fill="white"/>
<path d="M66.8014 86.6235C72.8141 109.38 75.9174 131.153 76.4084 152.041C76.4084 152.041 82.0392 152.744 81.3361 157.672C80.633 162.599 65.8498 175.971 65.8498 175.971L60.7281 158.995L58.8127 96.436L66.8014 86.6235Z" fill="white"/>
<path fill-rule="evenodd" clip-rule="evenodd" d="M68.8527 98.2701L65.4001 95.98C65.1796 95.8337 64.8887 95.9474 64.8094 96.2108L63.6054 100.209C63.5051 100.542 63.8047 100.854 64.1152 100.741L68.7718 99.032C69.0892 98.9156 69.1377 98.4591 68.8527 98.2701ZM68.4347 98.931L64.1918 100.158L65.4548 96.5216L68.4347 98.931Z" fill="#E29000"/>
<path fill-rule="evenodd" clip-rule="evenodd" d="M67.3375 127.06L63.8849 124.77C63.6644 124.624 63.3735 124.738 63.2941 125.001L62.0901 129C61.9899 129.333 62.2894 129.645 62.5999 129.531L67.2565 127.822C67.574 127.706 67.6225 127.25 67.3375 127.06ZM66.9192 127.722L62.6764 128.949L63.9394 125.312L66.9192 127.722Z" fill="#E29000"/>
<path fill-rule="evenodd" clip-rule="evenodd" d="M65.5222 143.236L65.7792 139.1C65.7956 138.836 65.5517 138.641 65.2839 138.704L61.219 139.661C60.8805 139.741 60.76 140.156 61.0139 140.368L64.8218 143.546C65.0814 143.763 65.501 143.577 65.5222 143.236ZM64.7407 143.204L61.5565 140.143L65.3374 139.419L64.7407 143.204Z" fill="#E29000"/>
<path fill-rule="evenodd" clip-rule="evenodd" d="M72.066 140.185L67.9309 139.928C67.6668 139.911 67.4717 140.155 67.5347 140.423L68.4914 144.488C68.571 144.827 68.9865 144.947 69.1984 144.693L72.3769 140.885C72.5936 140.626 72.4073 140.206 72.066 140.185ZM72.0343 140.966L68.9735 144.151L68.2489 140.37L72.0343 140.966Z" fill="#E29000"/>
<path fill-rule="evenodd" clip-rule="evenodd" d="M68.8737 161.264L65.1641 163.109C64.9272 163.227 64.8802 163.536 65.0686 163.736L67.9295 166.778C68.1678 167.031 68.5878 166.928 68.6444 166.602L69.4931 161.715C69.551 161.382 69.1799 161.112 68.8737 161.264ZM69.237 161.957L68.1784 166.245L65.6604 163.333L69.237 161.957Z" fill="#E29000"/>
<path fill-rule="evenodd" clip-rule="evenodd" d="M70.6921 149.748L66.9825 151.593C66.7455 151.711 66.6985 152.019 66.887 152.22L69.7479 155.262C69.9861 155.515 70.4062 155.412 70.4628 155.086L71.3115 150.199C71.3693 149.866 70.9983 149.596 70.6921 149.748ZM71.0554 150.44L69.9969 154.728L67.4789 151.816L71.0554 150.44Z" fill="#E29000"/>
<path d="M46.6431 100.308L42.5641 112.622C33.2404 140.824 28.6491 155.139 28.5113 156.481C28.4256 157.314 28.9311 157.938 29.7107 158.15C30.1792 158.277 30.7522 158.27 31.4638 158.164C32.571 158 34.0513 157.585 35.8387 156.968C37.2204 156.49 38.7133 155.917 40.2257 155.298L40.862 155.036C41.0687 154.95 41.2697 154.865 41.4643 154.783L42.4749 154.347L42.7634 154.22L42.9311 153.953C43.2291 153.478 43.6536 152.64 44.0723 151.49C44.4402 150.479 44.7334 149.397 44.9263 148.253L44.9938 147.822C45.0537 147.402 45.6302 146.43 46.8188 144.771L47.6472 143.637C48.3267 142.721 49.634 140.971 49.7654 140.794L50.5341 139.753C51.2688 138.752 51.9102 137.857 52.5366 136.955C55.6796 132.43 57.9005 128.47 59.2107 124.658C60.3221 121.425 60.7119 118.43 60.2718 115.676C59.5978 111.472 59.856 107.455 60.8398 103.686C61.6572 100.553 59.0718 97.6637 55.3447 96.6014C51.4936 95.5037 47.8245 96.747 46.6431 100.308Z" fill="white"/>
<path d="M53.4698 82.0977C55.7416 84.5088 57.6477 86.3475 59.1883 87.6137C61.7832 89.7466 65.5032 92.0327 70.3482 94.4718C55.5285 97.9036 46.4793 98.5821 43.2007 96.5072C43.2007 96.5072 44.5663 90.081 46.5284 87.3278C47.9894 85.2779 53.4698 82.0977 53.4698 82.0977Z" fill="white"/>
<path d="M77.0438 51.1182C73.9647 62.8127 65.5518 75.0217 56.5933 72.6639C47.6349 70.3055 42.6769 54.3216 45.7559 42.6271C48.835 30.9327 58.5935 23.3641 67.552 25.7219C76.5104 28.0797 80.1228 39.4244 77.0438 51.1182Z" fill="white"/>
<path d="M79.0933 54.8478C75.6087 68.2311 66.0879 82.2032 55.9497 79.5049C45.8115 76.8059 40.2005 58.5137 43.6851 45.1305C47.1696 31.7473 58.2133 23.0857 68.3515 25.784C78.4897 28.4823 82.5779 41.4653 79.0933 54.8478Z" fill="white"/>
<path fill-rule="evenodd" clip-rule="evenodd" d="M62.9137 27.3234C69.8222 27.7158 74.864 29.9854 77.6905 33.9847L78.0091 34.4471C79.4071 36.4644 80.5823 37.7339 81.0964 41.5523L81.1458 41.9581C81.4394 44.47 81.5255 47.1197 81.3746 47.9991C81.2931 48.3706 81.1337 48.5003 80.9327 48.461C80.476 48.3717 79.2936 46.2705 77.3854 42.1573L75.784 44.0317C74.9126 45.0385 73.0646 45.9874 71.9693 46.7007C70.874 47.4139 62.9137 27.3234 62.9137 27.3234Z" fill="#E7EAEE"/>
<path fill-rule="evenodd" clip-rule="evenodd" d="M69.8888 65.3129C73.7356 66.9173 76.658 69.0011 77.4328 68.1345C78.2075 67.2678 75.5652 64.6287 73.512 61.0443C71.3627 57.4799 69.3211 52.9901 68.9395 51.1635L67.9623 46.5464C65.1038 50.1536 62.4275 62.2563 69.8888 65.3129Z" fill="white"/>
<path d="M34.6373 217.435C34.6373 217.435 82.0194 216.388 96.9144 214.24C113.449 211.855 122.491 206.219 126.087 206.885C127.772 207.197 137.718 208.96 158.471 211.167C167.248 212.1 190.031 212.244 190.031 212.244L198.874 193.423C198.874 193.423 136.648 180.929 116.974 186.337C110.786 188.038 97.3847 190.492 81.4516 189.596C67.674 188.821 30.2024 181.543 30.2024 181.543C30.2024 181.543 15.073 186.974 17.8116 200.329C20.5501 213.685 34.6373 217.435 34.6373 217.435Z" fill="white"/>
<path fill-rule="evenodd" clip-rule="evenodd" d="M193.804 201.475L196.717 193.041C196.717 193.041 134.595 181.454 114.922 186.861C108.733 188.562 103.141 191.366 87.2082 190.47C81.1086 190.127 70.6799 188.699 55.9222 186.187C48.4567 184.917 47.2575 185.387 53.1248 189.224C66.731 198.122 96.9966 196.025 124.457 192.015C175.493 184.563 193.804 201.475 193.804 201.475Z" fill="#E7EAEE"/>
<path d="M13.3816 214.749C13.3816 214.749 29.6307 219.877 42.7155 221.8C55.8002 223.723 81.9004 224.817 81.9004 224.817C81.9004 224.817 90.0489 229.246 90.5746 231.298C90.7793 232.097 92.0141 242.655 95.428 256.142C97.034 262.487 105.615 291.178 105.615 291.178L116.974 286.15C116.974 286.15 116.518 233.416 109.267 215.926C102.017 198.435 27.4868 181.448 27.4868 181.448C27.4868 181.448 11.669 178.586 7.36284 191.522C3.05665 204.458 13.3816 214.749 13.3816 214.749Z" fill="white"/>
<path fill-rule="evenodd" clip-rule="evenodd" d="M107.434 289.359L118.792 284.331C118.488 249.175 115.919 225.767 111.085 214.107C111.085 214.107 116.025 276.181 107.434 289.359Z" fill="#E7EAEE"/>
<path d="M206.481 202.168C209.308 205.805 214.135 210.817 220.047 209.717L237.494 175.626C237.494 175.626 233.004 173.64 229.176 175.106C225.341 176.578 208.476 194.177 208.476 194.177L206.481 202.168Z" fill="white"/>
<path fill-rule="evenodd" clip-rule="evenodd" d="M216.588 210.351C223.909 201.985 228.117 183.17 234.146 176.695C236.274 174.41 239.035 173.897 236.063 179.307C230.627 189.206 220.179 210.351 220.179 210.351C219.626 210.628 218.942 210.351 218.324 210.351H216.588Z" fill="#E7EAEE"/>
<path d="M95.9305 181.852C102.616 183.612 106.047 187.799 108.944 191.7C111.847 195.599 105.465 193.744 101.943 192.336C98.4217 190.929 91.6853 185.586 91.6853 185.586L95.9305 181.852Z" fill="white"/>
<path d="M35.0337 166.015C35.0337 166.015 72.6676 182.182 77.9711 182.204C83.2686 182.225 96.2698 188.538 96.9729 193.465C97.8276 199.459 75.1527 190.65 75.1527 190.65C75.1527 190.65 24.4751 190.65 16.0319 182.204C7.5832 173.757 13.2134 156.161 13.2134 156.161L35.0337 166.015Z" fill="white"/>
<path d="M25.8814 90.7032C25.8814 90.7032 35.0338 96.3335 36.44 114.634C37.8462 132.934 32.2153 154.754 32.2153 154.754C32.2153 154.754 35.7369 157.569 36.44 160.384C37.1431 163.2 35.0035 166.916 35.0035 166.916C35.0035 166.916 13.9178 177.277 12.5098 177.981C11.1024 178.684 5.47156 176.573 5.47156 170.942C5.47156 165.312 7.58327 160.384 7.58327 160.384C8.59367 123.238 2.65614 87.1835 25.8814 90.7032Z" fill="white"/>
<path fill-rule="evenodd" clip-rule="evenodd" d="M63.1633 51.7626C65.3283 48.8637 69.904 47.9198 71.1251 52.4964C71.1251 52.4964 72.0633 55.2578 70.1724 56.964C64.3796 62.191 60.9984 54.6616 63.1633 51.7626Z" fill="white"/>
<path fill-rule="evenodd" clip-rule="evenodd" d="M75.2528 54.9072C77.3095 52.1532 81.6565 51.2565 82.8166 55.6043C82.8166 55.6043 83.7078 58.2277 81.9115 59.8486C76.4082 64.8142 73.1961 57.6613 75.2528 54.9072Z" fill="white"/>
<path d="M58.4117 90.1596C58.4117 90.1596 58.4117 123.993 58.9087 142.9C59.4058 161.806 55.072 180.435 46.7924 195.003C38.5129 209.572 39.6397 230.412 33.5366 231.961C-14.7375 244.214 -1.74049 94.2681 16.121 84.6864C33.9825 75.1046 39.8827 73.075 39.8827 73.075" fill="white"/>
<path fill-rule="evenodd" clip-rule="evenodd" d="M33.6539 99.6523L29.4937 105.864C29.1486 106.379 29.4092 107.081 30.0068 107.246L35.5581 108.781C36.2034 108.959 36.8136 108.403 36.6953 107.744L35.3042 99.9975C35.1596 99.1927 34.1089 98.9729 33.6539 99.6523ZM34.5582 100.608L35.8007 107.905L30.9734 105.864L34.5582 100.608Z" fill="#E29000"/>
<path fill-rule="evenodd" clip-rule="evenodd" d="M20.2687 93.5853L15.366 101.455C15.0528 101.958 15.2962 102.621 15.8601 102.801L24.4204 105.546C25.1332 105.774 25.8014 105.092 25.5575 104.384L21.8999 93.7698C21.6506 93.0462 20.6733 92.9357 20.2687 93.5853ZM21.4313 94.5445L23.9359 104.384L16.5139 101.455L21.4313 94.5445Z" fill="#E29000"/>
<path fill-rule="evenodd" clip-rule="evenodd" d="M17.2482 153.124L20.5831 165.657C20.7881 166.427 21.8143 166.58 22.2344 165.902L27.1927 157.908C27.4676 157.465 27.3141 156.881 26.8565 156.631L18.5633 152.093C17.8621 151.709 17.0427 152.352 17.2482 153.124ZM18.127 153.497L25.8141 157.429L21.4619 165.423L18.127 153.497Z" fill="#E29000"/>
<path fill-rule="evenodd" clip-rule="evenodd" d="M10.57 199.144L12.3884 207.735C12.5552 208.523 13.5891 208.721 14.0351 208.05L18.9475 200.659C19.31 200.113 18.9945 199.375 18.3499 199.26L11.6191 198.06C10.9841 197.947 10.4365 198.513 10.57 199.144ZM12.1565 199.008L17.9896 201.076L12.9564 206.823L12.1565 199.008Z" fill="#E29000"/>
<path fill-rule="evenodd" clip-rule="evenodd" d="M26.3291 197.326L28.1474 205.916C28.3143 206.705 29.3481 206.902 29.7941 206.231L34.7066 198.84C35.069 198.295 34.7536 197.557 34.1089 197.442L27.3781 196.242C26.7431 196.129 26.1955 196.695 26.3291 197.326ZM27.1706 198.073L33.9617 197.885L28.3732 205.066L27.1706 198.073Z" fill="#E29000"/>
<path fill-rule="evenodd" clip-rule="evenodd" d="M17.8435 179.748L19.6618 188.339C19.8287 189.127 20.8625 189.325 21.3085 188.654L26.221 181.263C26.5834 180.717 26.268 179.979 25.6233 179.864L18.8925 178.665C18.2576 178.552 17.7099 179.117 17.8435 179.748ZM18.733 179.56L24.8578 181.366L19.9453 187.545L18.733 179.56Z" fill="#E29000"/>
<path fill-rule="evenodd" clip-rule="evenodd" d="M219.121 208.005C218.664 208.897 217.915 209.27 216.916 209.325C213.357 209.523 210.535 207.953 208.018 205.665C207.064 204.798 206.217 203.812 205.261 202.947C204.588 202.339 203.867 201.943 202.817 202.319C202.013 202.607 201.07 202.498 200.191 202.588C198.209 202.79 196.231 203.055 194.245 203.199C192.979 203.291 192.948 204.371 192.651 205.116C191.978 206.802 191.476 208.557 190.941 210.296C190.734 210.971 190.404 211.238 189.645 211.228C185.859 211.182 182.072 211.186 178.286 211.217C176.562 211.231 174.836 211.437 173.115 211.398C169.875 211.325 166.632 211.221 163.403 210.973C160.279 210.733 157.172 210.283 154.055 209.95C151.865 209.716 149.662 209.593 147.482 209.297C144.946 208.952 142.432 208.451 139.902 208.062C138.636 207.868 137.35 207.81 136.082 207.624C133.909 207.304 131.736 206.971 129.577 206.569C127.573 206.196 125.688 206.583 123.803 207.206C120.131 208.418 116.45 209.602 112.767 210.78C112.112 210.989 111.918 211.161 112.214 211.957C113.299 214.876 114.315 217.827 115.198 220.812C115.822 222.919 116.253 225.09 116.653 227.254C117.143 229.905 117.553 232.574 117.918 235.246C118.197 237.287 118.374 239.343 118.557 241.396C118.79 244.006 119.01 246.617 119.186 249.23C119.361 251.833 119.508 254.439 119.607 257.046C119.775 261.473 119.9 265.901 120.033 270.329C120.114 273.01 120.164 275.692 120.252 278.373C120.278 279.151 120.528 279.949 120.409 280.696C120.32 281.26 119.919 282.048 119.46 282.225C118.277 282.682 117.935 283.562 117.945 284.774C117.958 286.322 118.153 287.872 118.112 289.417C118.087 290.401 118.464 291.089 119.179 291.611C122.432 293.984 125.717 296.313 128.969 298.688C130.512 299.815 132.034 300.975 133.513 302.185C135.097 303.481 136.65 304.818 138.16 306.199C139.665 307.575 140.465 309.258 140.719 311.356C140.915 312.983 140.707 314.495 140.436 316.043C140.294 316.849 139.834 317.179 138.996 316.905C135.474 315.756 131.959 314.585 128.421 313.49C122.576 311.682 116.715 309.925 110.86 308.147C108.773 307.514 106.686 306.881 104.597 306.256C103.317 305.873 103.046 304.725 102.809 303.686C102.133 300.731 103.006 298.042 104.564 295.565C105.518 294.048 106.629 292.631 107.672 291.171C108.524 289.978 108.304 288.757 107.882 287.466C106.51 283.266 105.16 279.057 103.863 274.832C102.582 270.662 101.313 266.486 100.152 262.282C98.9259 257.838 97.8129 253.362 96.6915 248.89C96.0847 246.47 95.5125 244.039 95.0211 241.594C94.6536 239.765 94.4458 237.905 94.1572 236.06C93.8124 233.856 93.605 231.615 93.0376 229.469C92.7934 228.546 91.8973 227.701 91.116 227.032C89.4144 225.575 87.4601 224.489 85.3366 223.747C84.8119 223.564 84.2432 223.437 83.6898 223.417C81.0554 223.317 78.4181 223.291 75.784 223.185C73.211 223.082 70.639 222.938 68.0698 222.765C65.42 222.587 62.7722 222.374 60.1271 222.136C57.2958 221.882 54.4545 221.68 51.6437 221.274C48.6639 220.843 45.7114 220.218 42.7544 219.639C41.7927 219.451 41.0903 220.035 40.9412 221.391C40.615 224.356 39.6078 227.11 38.4114 229.808C37.5485 231.753 35.9206 232.726 33.9122 233.058C32.4787 233.295 31.0101 233.52 29.568 233.466C25.4638 233.311 21.8034 231.957 18.5476 229.354C14.4182 226.052 12.0021 221.641 9.94496 216.938C9.02316 214.83 7.83645 212.819 7.11295 210.65C6.32708 208.293 5.92952 205.807 5.38228 203.373C4.95637 201.478 4.52189 199.584 4.16374 197.676C3.88052 196.168 3.70206 194.639 3.48685 193.118C3.20094 191.097 2.91899 189.076 2.64713 187.053C2.55719 186.384 2.46833 185.711 2.4402 185.038C2.35218 182.93 2.30893 180.82 2.2195 178.712C2.09408 175.756 1.86 172.801 1.82093 169.844C1.75411 164.787 1.76099 159.727 1.82161 154.67C1.84824 152.448 2.03608 150.225 2.23565 148.011C2.46248 145.494 2.80653 142.988 3.05725 140.472C3.23622 138.677 3.29225 136.869 3.49805 135.077C3.80001 132.448 4.13133 129.82 4.55176 127.208C5.05181 124.101 5.62363 121.004 6.22813 117.916C7.37208 112.071 8.70298 106.262 10.8818 100.709C12.2699 97.1715 13.7185 93.5625 16.5522 90.8917C17.7786 89.7358 19.483 89.0695 21.007 88.249C25.1899 85.9971 29.3948 83.7859 33.5791 81.5366C33.7747 81.4314 33.9426 81.1257 33.9746 80.893C34.0855 80.0865 34.0363 79.2471 34.2344 78.4676C34.3634 77.9598 34.7197 77.4027 35.1407 77.0957C36.5523 76.0661 38.0311 75.1273 39.5032 74.1833C39.7666 74.0144 40.1398 73.8664 40.4292 73.9132C41.9811 74.1637 42.7597 73.2088 43.2917 72.0337C44.0122 70.4425 44.6696 68.8147 45.2284 67.1602C46.154 64.4201 47.0875 61.673 47.7878 58.8715C48.0294 57.9051 47.6576 56.7523 47.4394 55.7111C46.9953 53.5924 46.6268 51.4349 45.9119 49.4042C45.4548 48.1059 44.5298 46.9284 43.6458 45.8327C41.3604 43.0001 40.1599 39.8274 40.5443 36.1923C40.7111 34.614 41.3882 33.1431 42.5689 31.9962C43.9582 30.6466 45.3827 29.3333 46.7764 27.9881C47.7925 27.0074 47.7196 26.2577 46.3966 25.2991C44.545 23.9574 42.7695 22.5078 40.9982 21.0594C39.4854 19.8224 38.8345 18.0551 38.4339 16.2434C37.8887 13.7786 37.8233 11.2921 38.8286 8.88644C40.4364 5.03893 42.7532 1.86359 46.9944 0.666452C50.7323 -0.388647 54.4613 -0.317179 57.8159 1.80173C60.8641 3.72706 62.8001 6.59484 63.6517 10.1343C64.6511 14.288 63.5135 18.026 61.4142 21.5813C61.2384 21.8791 61.2205 22.2701 61.1292 22.6178C61.4413 22.6768 61.7517 22.7745 62.0658 22.7889C66.1032 22.9728 70.1163 23.4209 73.7323 25.3454C78.4786 27.8713 81.4638 31.8747 82.7804 37.0853C82.9775 37.8653 82.9759 38.7037 83.0017 39.5172C83.0896 42.2911 83.0972 45.069 83.2609 47.838C83.2951 48.4161 83.7376 49.1256 84.2104 49.4959C86.4796 51.2731 87.2516 55.6253 85.1411 58.2015C84.9299 58.4593 84.7505 58.7428 84.5431 59.004C83.7324 60.0245 82.5564 60.5199 81.386 60.3115C80.3883 60.1338 80.304 60.4696 79.9747 61.2057C79.2721 62.7762 78.4299 64.2958 77.5222 65.7603C76.3057 67.7233 75.0633 69.6839 73.6566 71.5106C72.807 72.6137 71.6592 73.5014 70.5832 74.4126C69.2782 75.5178 67.8982 76.5341 66.5692 77.6117C65.9063 78.1492 65.1796 78.4268 64.3325 78.3046C63.4543 78.1779 62.9601 78.672 62.703 79.3831C62.2063 80.7569 61.7574 82.1507 61.3654 83.5575C61.2828 83.854 61.4579 84.2863 61.6372 84.5814C63.2041 87.1605 64.7605 89.7475 66.3978 92.2821C67.7265 94.339 69.2373 96.2806 70.523 98.3624C71.3182 99.65 71.8451 101.103 72.4892 102.484C73.6127 104.892 74.7602 107.29 75.8338 109.721C76.0547 110.221 76.1149 110.861 76.0378 111.407C75.9255 112.202 75.1417 112.456 74.2922 111.943C73.3051 111.347 72.3756 110.65 71.4515 109.957C70.8792 109.527 70.3645 109.022 69.8207 108.554C69.7578 108.5 69.6735 108.47 69.5991 108.43C69.5874 108.525 69.5541 108.623 69.5671 108.714C69.7192 109.783 69.8413 110.858 70.0457 111.917C70.2567 113.011 70.5783 114.084 70.8005 115.176C71.2418 117.346 71.6684 119.519 72.0634 121.697C72.5077 124.147 72.935 126.6 73.3209 129.06C73.5193 130.325 73.5868 131.609 73.7577 132.878C74.016 134.798 74.3407 136.709 74.5823 138.63C74.7143 139.68 74.7431 140.743 74.8014 141.801C74.8809 143.243 74.9335 144.687 75.0162 146.129C75.2202 149.687 75.4264 153.245 75.6512 156.801C75.707 157.683 76.225 158.361 77.0191 158.613C79.2778 159.331 80.8564 161.968 80.4763 164.169C80.388 164.68 80.2742 165.21 80.0491 165.671C79.5089 166.778 80.2136 167.407 80.9142 167.983C82.0519 168.918 83.2378 169.796 84.4262 170.667C87.2473 172.734 90.0878 174.775 92.909 176.843C95.4646 178.716 98.2845 180.018 101.31 180.941C103.74 181.682 105.806 183.087 107.748 184.706C108.703 185.502 109.528 186.679 111.039 186.388C113.178 185.977 115.31 185.531 117.443 185.092C118.086 184.959 118.717 184.765 119.363 184.654C121.614 184.267 122.942 182.674 124.267 181.027C125.253 179.801 126.351 178.668 127.377 177.473C129.394 175.123 131.39 172.755 133.407 170.405C134.409 169.236 135.44 168.093 136.453 166.933C139.306 163.665 142.141 160.381 145.012 157.128C146.517 155.423 148.084 153.773 149.615 152.091C150.027 151.639 150.468 151.197 150.794 150.685C151.29 149.907 151.796 149.668 152.764 149.982C154.881 150.667 154.843 150.537 153.363 152.161C150.712 155.069 148.148 158.058 145.538 161.004C144.262 162.444 142.943 163.847 141.677 165.296C139.455 167.838 137.267 170.41 135.051 172.957C133.477 174.765 131.885 176.556 130.292 178.347C129.06 179.733 127.81 181.103 126.582 182.492C126.475 182.613 126.39 182.95 126.428 182.973C126.728 183.161 127.066 183.44 127.383 183.427C129.956 183.327 132.525 183.13 135.098 183.042C137.024 182.977 138.956 182.976 140.882 183.043C143.35 183.128 145.823 183.234 148.28 183.47C151.018 183.733 153.741 184.154 156.471 184.5C159.27 184.855 162.079 185.147 164.868 185.568C167.655 185.989 170.42 186.555 173.202 187.018C175.506 187.401 177.826 187.686 180.126 188.086C183.06 188.597 185.979 189.191 188.909 189.729C190.965 190.106 193.031 190.436 195.087 190.814C197.07 191.179 199.043 191.601 201.028 191.954C202.279 192.176 203.541 192.4 204.805 192.452C205.335 192.474 206.01 192.186 206.404 191.812C209.411 188.951 212.326 185.992 215.346 183.146C218.727 179.961 222.262 176.953 226.074 174.28C227.818 173.057 229.771 173.27 231.671 173.435C232.779 173.531 233.849 174.064 234.934 174.409C235.824 174.692 235.904 175.242 235.508 176.019C233.71 179.548 231.943 183.094 230.144 186.623C228.589 189.674 227.005 192.709 225.382 195.804C223.261 199.906 221.194 203.957 219.121 208.005ZM52.6908 181.976C53.6362 179.242 54.4659 176.463 55.2115 173.667C55.6959 171.851 55.9706 169.976 56.2818 168.117C56.6016 166.208 56.869 164.289 57.1275 162.37C57.4276 160.142 57.8948 157.911 57.9311 155.676C58.0039 151.188 57.8183 146.695 57.7688 142.204C57.7385 139.46 57.7226 136.714 57.7762 133.97C57.8183 131.812 56.5624 130.203 55.6473 128.433C55.0379 127.255 54.3949 126.065 54.0057 124.807C53.2918 122.499 52.7113 120.147 52.1581 117.794C51.7798 116.184 51.501 114.548 51.2522 112.913C50.9643 111.021 50.3421 109.244 49.5344 107.526C49.4667 107.382 48.8991 107.277 48.8382 107.359C48.5128 107.795 48.2701 108.293 48.0072 108.775C47.5394 109.632 46.8282 110.448 46.6657 111.36C46.3411 113.184 45.5007 114.748 44.6417 116.313C44.107 117.287 43.2067 117.312 42.5812 116.419C41.9088 115.458 41.1827 114.488 40.7536 113.413C39.7449 110.886 38.8418 108.313 38.0019 105.724C36.8981 102.322 35.8572 98.8978 34.8663 95.4608C34.349 93.6665 33.8333 91.8439 33.6161 89.9989C33.4031 88.19 33.5717 86.3364 33.5661 84.5025C33.5656 84.3385 33.5155 84.1746 33.4884 84.0106C33.414 84.069 33.3461 84.1391 33.2644 84.1841C31.3423 85.2414 29.4321 86.3215 27.4916 87.3441C25.567 88.3582 23.6331 89.3597 21.6639 90.2828C19.5061 91.2944 17.3403 92.3381 16.0904 94.4575C14.7383 96.7503 13.158 98.9358 12.3433 101.521C11.5035 104.185 10.5537 106.819 9.82275 109.513C9.07509 112.268 8.56607 115.087 7.89222 117.864C7.46181 119.637 6.75263 121.357 6.47026 123.149C6.0395 125.882 5.77317 128.651 5.61881 131.415C5.48631 133.788 5.49647 136.166 5.17625 138.529C4.92765 140.364 4.7588 142.209 4.53493 144.048C4.19403 146.847 3.58141 149.64 3.53761 152.443C3.44063 158.648 3.69611 164.857 3.66724 171.064C3.6521 174.318 4.13729 177.498 4.52038 180.704C4.94575 184.264 5.19766 187.844 5.60365 191.406C5.87956 193.827 6.15554 196.262 6.67194 198.639C7.51265 202.508 8.41581 206.374 9.53835 210.169C10.939 214.903 12.9953 219.363 15.8907 223.409C17.7002 225.937 19.9089 228.007 22.6356 229.495C26.3322 231.513 30.2966 231.339 34.2684 230.723C34.9199 230.622 35.7628 230.121 36.0417 229.566C36.8235 228.011 37.5066 226.37 37.9517 224.69C38.5841 222.303 38.8637 219.823 39.4842 217.432C40.5073 213.49 41.7946 209.614 42.7587 205.659C43.5528 202.401 45.066 199.461 46.3809 196.432C47.3485 194.203 48.4928 192.05 49.6636 189.758C50.6805 187.167 51.7818 184.605 52.6908 181.976ZM87.5834 222.221C89.4962 223.39 91.3714 224.63 93.1913 225.939C94.3278 226.756 95.1442 227.944 95.3934 229.317C95.9704 232.497 96.3526 235.711 96.9105 238.895C97.302 241.13 97.8642 243.334 98.3295 245.556C98.7082 247.364 99.0582 249.179 99.4175 250.992C99.7705 252.774 100.114 254.557 100.472 256.337C100.744 257.694 101.026 259.05 101.313 260.404C101.777 262.593 102.146 264.81 102.746 266.962C103.337 269.082 104.225 271.117 104.874 273.223C105.953 276.728 107.292 280.12 108.844 283.442C109.212 284.229 109.83 284.071 110.197 283.928C112.518 283.019 114.807 282.027 117.082 281.006C117.8 280.684 118.181 280.059 118.148 279.206C118.059 276.888 117.996 274.569 117.933 272.251C117.857 269.477 117.792 266.703 117.721 263.929C117.651 261.213 117.636 258.494 117.495 255.782C117.357 253.132 117.097 250.489 116.878 247.844C116.605 244.549 116.35 241.251 116.027 237.961C115.804 235.689 115.599 233.404 115.169 231.166C114.425 227.291 113.511 223.449 112.672 219.592C111.694 215.098 109.805 211.182 106.07 208.24C103.226 206 100.241 204 97.0151 202.402C93.4457 200.633 89.8366 198.912 86.1316 197.459C81.8965 195.798 77.7825 193.699 73.1193 193.316C70.8789 193.133 68.6565 192.74 66.4196 192.502C64.6252 192.311 62.8161 192.257 61.0225 192.061C58.1839 191.75 55.356 191.337 52.5146 191.058C52.1161 191.019 51.5162 191.393 51.2718 191.754C50.7102 192.582 50.2875 193.509 49.849 194.416C48.4797 197.247 46.8759 199.997 45.8342 202.945C44.4577 206.841 43.5234 210.892 42.4071 214.879C41.7746 217.138 41.7611 217.239 43.7305 217.652C46.009 218.13 48.3239 218.447 50.6325 218.764C52.1425 218.972 53.6726 219.03 55.1881 219.204C58.0598 219.533 60.9243 219.928 63.7981 220.238C65.6267 220.436 67.465 220.555 69.3017 220.664C72.0465 220.827 74.7927 220.979 77.5404 221.079C79.1857 221.139 80.835 221.09 82.6929 221.09C84.4182 221.058 86.1037 221.316 87.5834 222.221ZM170.034 209.102C171.804 209.185 173.574 209.272 175.346 209.309C179.452 209.396 183.559 209.466 187.667 209.516C188.487 209.526 189.225 209.186 189.446 208.342C190.636 203.799 192.976 199.587 193.277 194.78C193.353 193.561 192.824 192.701 191.58 192.483C190.282 192.256 189 191.937 187.705 191.69C186.077 191.38 184.442 191.108 182.812 190.808C181.348 190.539 179.886 190.259 178.425 189.977C177.355 189.77 176.29 189.542 175.219 189.34C173.17 188.952 171.119 188.573 169.068 188.197C167.666 187.941 166.264 187.677 164.857 187.451C163.765 187.276 162.663 187.166 161.569 187.006C159.257 186.669 156.947 186.319 154.637 185.973C153.317 185.775 152 185.558 150.678 185.38C148.914 185.142 147.145 184.74 145.381 184.75C140.951 184.775 136.523 184.969 132.095 185.142C129.978 185.225 127.857 185.343 125.753 185.58C124.575 185.713 123.442 186.086 122.588 187.078C121.197 188.695 119.703 190.222 118.297 191.827C117.409 192.84 116.578 193.906 115.767 194.982C114.693 196.405 113.384 197.27 111.513 197.125C108.447 196.888 105.377 196.714 102.311 196.479C101.174 196.392 100.041 196.222 98.9102 196.064C96.9918 195.795 95.0791 195.484 93.1586 195.232C91.3218 194.992 89.4794 194.792 87.6366 194.603C87.1163 194.55 86.585 194.579 86.0608 194.608C85.9564 194.614 85.8616 194.792 85.7623 194.891C85.8693 194.941 85.9785 194.986 86.0829 195.041C87.0052 195.522 87.9032 196.058 88.8528 196.477C91.6372 197.707 94.5086 198.758 97.2231 200.124C101.164 202.106 104.842 204.527 108.187 207.436C109.224 208.339 110.219 209.009 111.919 208.782C114.615 208.424 117.134 207.759 119.553 206.582C122.808 204.998 126.121 203.699 129.864 204.475C132.03 204.924 134.207 205.317 136.37 205.781C137.74 206.075 139.077 206.559 140.457 206.764C142.17 207.018 143.913 207.063 145.642 207.214C148.786 207.487 151.929 207.778 155.073 208.051C157.208 208.236 159.344 208.403 161.585 208.684C164.401 208.824 167.217 208.971 170.034 209.102ZM60.4884 148.352C60.5195 149.191 60.486 150.033 60.5 150.874C60.5655 154.805 60.6272 158.736 60.7152 162.666C60.7407 163.806 60.6906 164.982 60.9519 166.076C61.4809 168.29 62.1748 170.467 62.8507 172.644C63.1401 173.576 63.5426 174.464 64.5963 174.833C65.5131 175.154 66.401 175.558 67.3195 175.873C68.6824 176.341 69.1003 176.164 69.9892 174.917C70.2832 174.504 70.6223 174.123 70.9527 173.738C73.0823 171.255 75.276 168.823 77.3269 166.277C78.8405 164.398 78.578 161.373 76.0433 160.403C75.7708 160.298 75.5006 160.173 75.2175 160.114C73.7197 159.804 73.7889 159.808 73.7391 158.393C73.5612 153.336 74.1547 148.265 73.3601 143.214C73.0429 141.197 73.1734 139.112 72.8819 137.09C72.4282 133.942 71.8001 130.82 71.2238 127.691C70.6788 124.732 70.1324 121.772 69.5353 118.823C69.0897 116.622 68.5541 114.44 68.0743 112.246C67.7083 110.573 67.4209 108.879 66.9789 107.227C66.8594 106.78 66.3051 106.45 65.9503 106.066C65.5354 106.467 64.8083 106.832 64.7581 107.274C64.5037 109.516 64.158 111.801 64.355 114.026C64.5813 116.581 64.9647 119.115 64.4769 121.652C63.9211 124.542 62.9964 127.319 61.4298 129.848C60.5614 131.25 59.9128 132.705 60.0606 134.44C60.2067 136.156 60.2543 137.884 60.2787 139.607C60.3135 142.06 60.2876 144.513 60.2876 147.176C60.3577 147.568 60.4739 147.958 60.4884 148.352ZM49.4579 61.4913C49.281 61.7653 49.0357 62.017 48.9378 62.3168C47.9387 65.3742 47.0263 68.4615 45.9585 71.4942C45.3152 73.3214 44.3055 74.9518 42.636 76.1C41.4232 76.9342 40.2919 77.886 39.1051 78.7594C38.5198 79.1901 38.6434 79.563 39.0085 80.0862C40.1005 81.6511 41.2549 83.1904 42.1665 84.8589C43.4246 87.1616 44.5022 89.5644 45.6219 91.9409C46.7128 94.2564 47.8521 96.5559 48.797 98.9313C49.5997 100.949 50.0315 103.116 50.8573 105.123C51.6038 106.937 52.4047 108.725 52.6752 110.668C52.7672 111.328 52.9813 111.334 53.4819 111.332C56.4903 111.321 59.3954 110.924 61.9319 109.133C62.1487 108.98 62.3322 108.665 62.3733 108.401C62.4729 107.762 62.4558 107.106 62.5308 106.461C62.5837 106.007 62.88 105.516 62.7737 105.12C62.3786 103.647 61.8526 102.21 61.3929 100.755C60.5149 97.9742 59.3629 95.2228 59.2844 92.2893C59.2045 89.3043 59.473 86.3058 59.6775 83.3193C59.7609 82.1011 59.9998 80.8786 60.3078 79.6944C60.6692 78.3053 60.5833 77.9253 59.3297 77.2478C57.2668 76.133 55.4883 74.6337 54.2169 72.7C52.1422 69.5443 50.5481 66.1481 49.9791 62.2225C49.8054 61.9788 49.6317 61.735 49.4579 61.4913ZM79.3838 60.5601C79.4411 60.4466 79.9514 60.0926 79.1924 59.9647C78.4255 59.8355 77.5597 59.4634 77.033 58.9142C76.0001 57.8371 75.1455 56.5824 74.2774 55.3585C74.0316 55.0121 73.9446 54.8019 73.5993 55.2172C73.38 55.4808 73.0952 55.69 72.8766 55.954C70.9787 58.2461 68.2494 59.2194 65.6939 58.5825C62.6302 57.819 60.7624 54.5526 60.7206 51.7188C60.704 50.589 60.3467 49.6423 59.4444 48.9925C57.9427 47.911 56.3982 46.8879 54.8547 45.866C53.9907 45.294 53.1675 45.481 52.9445 46.3832C52.3924 48.6168 51.7049 50.8557 51.5122 53.1297C51.2737 55.9432 51.3871 58.7837 52.0589 61.5912C53.1907 66.3208 54.66 70.8153 58.5197 74.1483C61.0082 76.2973 64.082 76.7808 67.045 75.4803C69.9815 74.1913 71.7858 71.8072 73.5409 69.3258C75.0162 67.2402 76.4868 65.1512 78.0646 62.9585C78.5106 62.1622 78.9731 61.3742 79.3838 60.5601ZM206.554 201.034C208.594 203.631 210.967 205.798 214.215 206.847C216.22 207.494 216.955 207.38 218.065 205.264C220.33 200.948 222.568 196.617 224.799 192.284C225.691 190.553 226.515 188.787 227.407 187.057C229.152 183.678 230.918 180.31 232.686 176.943C233.009 176.329 232.702 175.772 232.227 175.709C230.577 175.489 228.836 175.018 227.304 176.037C225.285 177.38 223.251 178.732 221.393 180.283C218.575 182.635 215.86 185.118 213.186 187.636C211.974 188.778 210.95 190.124 209.872 191.404C209.02 192.416 207.927 193.268 207.603 194.65C207.304 195.928 207.008 197.206 206.711 198.695C206.361 199.458 205.97 200.291 206.554 201.034ZM137.073 313.894C137.553 313.932 138.48 313.713 138.484 313.584C138.546 311.774 138.889 309.856 137.265 308.443C135.153 306.606 133.108 304.684 130.906 302.963C127.353 300.186 123.697 297.54 120.082 294.842C118.791 293.879 117.506 292.855 115.862 292.604C114.391 292.379 112.891 292.349 111.414 292.152C110.169 291.986 109.321 292.525 108.565 293.422C106.731 295.596 105.396 298.013 104.892 300.837C104.497 303.049 105.209 304.268 106.995 304.794C110.396 305.795 113.772 306.879 117.167 307.903C119.599 308.636 122.054 309.297 124.481 310.047C128.021 311.139 131.546 312.282 135.287 313.404C135.882 313.577 136.468 313.846 137.073 313.894ZM65.652 177.557C63.3033 176.627 60.9686 175.662 58.6144 174.747C57.919 174.476 57.3269 174.397 57.0976 175.468C56.8486 176.631 56.3177 177.732 55.934 178.868C55.0827 181.389 54.2274 183.91 53.4213 186.445C53.2724 186.914 53.0456 187.572 53.9714 187.661C55.1775 187.778 56.3764 187.979 57.584 188.067C59.9423 188.238 62.3028 188.407 64.6654 188.485C68.1752 188.601 71.6876 188.642 75.199 188.704C76.3204 188.724 77.4424 188.703 78.564 188.709C78.8369 188.711 79.1261 188.691 79.3798 188.771C82.4199 189.721 85.4494 190.705 88.4924 191.646C91.5532 192.592 94.6193 193.522 97.8894 193.34C99.0246 193.276 99.2329 193.063 98.8154 192.019C98.5876 191.449 98.2711 190.868 97.8516 190.428C95.8033 188.282 93.3029 186.783 90.6274 185.551C88.4959 184.569 86.4124 183.474 84.015 183.228C82.8924 183.112 81.7621 182.951 80.6721 182.669C78.9406 182.221 77.2235 181.701 75.5301 181.125C73.4138 180.404 71.3278 179.595 69.0182 178.824C67.8957 178.403 66.7665 177.998 65.652 177.557ZM39.2399 84.7281C38.2556 83.2027 37.2195 81.7106 36.2024 80.2063C36.0608 79.9969 35.9062 79.7963 35.7576 79.5916C35.6594 79.9361 35.5212 80.2749 35.4703 80.6262C35.3022 81.7874 35.2075 82.9603 35.0081 84.1156C34.6132 86.4022 34.3986 88.6487 35.8807 90.6812C35.9745 90.8099 36.0482 90.9644 36.0904 91.118C36.6355 93.0991 37.1708 95.0829 37.7143 97.0644C37.8519 97.5661 37.9955 98.0671 38.1603 98.5604C38.8692 100.683 39.7282 102.767 40.2625 104.931C40.8113 107.155 41.2315 109.39 42.3712 111.421C42.6986 112.004 42.8047 112.709 43.0463 113.345C43.1183 113.535 43.3561 113.841 43.4315 113.817C43.6723 113.742 43.9898 113.582 44.0706 113.375C45.0117 110.959 45.465 108.319 47.2501 106.29C48.7663 104.567 48.4517 102.805 47.5216 100.966C47.1581 100.246 46.9332 99.4588 46.6087 98.7184C45.9073 97.1177 45.2357 95.5003 44.4507 93.9407C43.7648 92.5781 42.9341 91.2888 42.1791 89.9604C41.6483 89.0264 41.1372 88.0811 40.5121 87.0357C40.0911 86.2645 39.715 85.4644 39.2399 84.7281ZM96.0649 181.236C92.9924 179.251 89.8773 177.323 86.9001 175.202C84.4074 173.427 82.0973 171.397 79.6747 169.52C79.0209 169.014 78.2704 168.846 77.6024 169.609C76.5199 170.846 75.4166 172.064 74.3358 173.303C73.5309 174.225 72.7576 175.175 71.9513 176.096C71.3211 176.816 71.3873 177.202 72.3099 177.478C75.2743 178.365 78.2603 179.18 81.2156 180.095C85.2501 181.344 89.2799 182.613 93.2779 183.972C94.5569 184.407 95.6843 185.286 96.9621 185.727C98.2596 186.175 99.6466 186.409 101.014 186.599C102.593 186.819 104.192 186.907 105.785 187.006C106.039 187.022 106.309 186.795 106.571 186.68C106.415 186.464 106.298 186.203 106.099 186.04C103.573 183.973 100.556 182.905 97.4194 181.768C96.9654 181.594 96.4642 181.494 96.0649 181.236ZM56.0609 125.848C56.4516 127.33 57.3796 128.051 58.8086 128.185C60.0424 128.301 60.4049 127.624 60.7058 126.722C61.1367 125.431 61.5635 124.138 61.9679 122.838C62.866 119.951 62.7375 117.041 62.2 114.107C62.0247 113.15 62.0657 112.152 62.0218 111.173C62.0154 111.03 62.0879 110.885 62.1238 110.74C61.9796 110.783 61.83 110.812 61.6919 110.869C60.8256 111.227 59.9915 111.723 59.091 111.926C57.404 112.305 55.6842 112.556 53.9672 112.775C53.3044 112.859 52.9117 112.929 53.1222 113.74C53.3211 114.506 53.4005 115.302 53.5586 116.08C53.8993 117.756 54.2568 119.428 54.6074 121.312C55.0983 122.822 55.6565 124.315 56.0609 125.848ZM74.0391 110.03C74.2026 110.169 74.3844 110.286 74.5578 110.413C74.5568 110.178 74.6217 109.918 74.5441 109.712C74.088 108.501 73.6633 107.271 73.1074 106.106C71.9208 103.618 70.8306 101.06 69.3822 98.7277C67.9583 96.4353 66.0411 94.4542 64.5286 92.2097C63.4451 90.6018 62.6785 88.7814 61.7533 87.065C61.611 86.8012 61.376 86.5872 61.1839 86.3502C61.0955 86.6287 60.9252 86.9093 60.932 87.1855C60.9762 88.9781 60.9995 90.7746 61.1498 92.5598C61.2523 93.7774 61.4576 95.0043 61.7849 96.1803C62.1483 97.486 62.8071 98.7114 63.1466 100.021C63.5439 101.554 64.2719 102.524 65.7563 103.342C68.218 104.7 70.7583 106.111 72.4895 108.695C73.0056 109.14 73.5189 109.589 74.0391 110.03ZM63.0811 50.6112C62.2734 51.7875 63.7712 55.9086 64.5856 56.2151C70.2869 58.3609 71.9122 54.6889 71.9871 53.6806C72.1356 51.6798 72.3824 49.651 70.4908 48.0285C65.5011 47.036 64.3865 48.7103 63.0811 50.6112ZM84.9116 52.2772C84.1454 50.3683 82.9859 49.1232 80.9667 49.559C79.9363 49.7813 79.0286 50.5979 78.0809 51.1713C76.045 52.4028 75.7786 53.0767 76.4902 55.2598C77.2025 57.4448 78.8639 58.6964 80.9777 59.1213C82.7272 59.4729 83.9775 58.3878 84.9019 56.7552C85.1349 55.2639 85.5181 53.7881 84.9116 52.2772ZM77.3619 49.809C78.1839 49.2245 79.0747 48.3591 79.9614 48.3271C81.4955 48.2717 81.2462 47.3348 81.0808 46.5969C80.6185 44.5354 80.0145 42.5043 79.4247 40.4732C79.021 39.0828 78.6794 39.0031 77.7001 39.9823C76.0225 41.6599 74.3229 43.3049 72.2154 44.463C71.5562 44.8252 71.4656 45.6596 71.9369 46.3169C72.1124 46.5616 72.3504 46.7715 72.4819 47.036C73.13 48.3389 73.7177 49.6734 74.4096 50.9519C74.5625 51.2347 74.4462 52.2343 75.4349 51.4981C76.0735 50.9299 76.6693 50.3015 77.3619 49.809ZM201.163 200.657C202.595 200.391 204.128 200.024 204.349 198.12C204.386 197.8 204.532 197.495 204.605 197.177C205.056 195.209 204.545 194.579 202.574 194.367C200.719 194.168 198.877 193.836 197.034 193.538C196.047 193.379 195.865 193.564 195.756 194.568C195.605 195.958 195.389 197.345 195.129 198.72C194.901 199.924 195.238 200.878 196.297 201.114C197.921 200.973 199.568 200.954 201.163 200.657ZM115.254 290.242C115.454 290.233 115.794 289.836 115.802 289.609C115.851 288.105 115.815 286.598 115.832 285.093C115.842 284.247 115.194 284.219 114.728 284.367C113.715 284.69 112.752 285.171 111.774 285.601C111.068 285.912 110.274 286.163 110.36 287.182C110.42 287.901 110.42 288.637 110.586 289.332C110.861 290.487 111.858 289.938 112.672 290.168C113.533 290.203 114.396 290.28 115.254 290.242ZM59.2201 167.918C59.1596 167.747 58.9108 167.642 58.7483 167.507C58.6303 167.676 58.4248 167.837 58.4085 168.015C58.3096 169.096 58.2251 170.181 58.192 171.266C58.1596 172.325 58.91 173.013 59.9883 172.915C60.1709 172.898 60.4948 172.576 60.4711 172.448C60.3124 171.586 60.0772 170.739 59.7616 169.782C59.5863 169.159 59.4352 168.527 59.2201 167.918ZM118.493 187.783C118.61 187.553 118.855 186.908 118.142 187.042C117.053 187.246 115.983 187.555 114.913 187.847C114.717 187.9 114.557 188.084 114.381 188.207C114.585 188.303 114.787 188.476 114.995 188.483C115.868 188.515 116.742 188.497 117.721 188.392C117.989 188.194 118.359 188.048 118.493 187.783ZM37.2512 77.468C37.0835 77.5655 36.9158 77.663 36.7481 77.7606C36.88 77.9076 36.9881 78.1116 37.1528 78.1804C37.2511 78.2215 37.4669 78.0804 37.5805 77.9703C38.228 77.343 38.8638 76.7036 39.4956 76.0604C39.6221 75.9316 39.7141 75.7689 39.8221 75.6218C39.6093 75.6634 39.3421 75.6377 39.1933 75.7582C38.5618 76.2694 37.9655 76.8241 37.2512 77.468Z" fill="#192729"/>
<path fill-rule="evenodd" clip-rule="evenodd" d="M59.7945 65.2187C58.8089 64.6858 57.834 64.2487 57.6292 63.0613C57.2313 60.7541 58.0625 58.0359 61.0693 58.194C63.7805 58.3365 65.5007 60.5879 64.5415 63.1311C63.8343 65.0062 62.1181 65.9361 59.7945 65.2187Z" fill="#E29000"/>
<path fill-rule="evenodd" clip-rule="evenodd" d="M73.1644 56.6118C73.2185 56.2581 73.2725 56.0105 73.3266 55.7629C73.4118 55.9788 73.5213 56.1884 73.5784 56.4117C74.0014 58.0666 75.3418 62.1871 73.7454 64.0832C73.6125 64.241 72.9391 64.2659 72.5195 64.2394C71.6951 64.1872 70.7343 62.9712 70.8871 62.1871C70.9101 62.0695 72.8997 64.0004 73.3266 62.9554C74.0384 61.2127 73.1644 57.2111 73.1644 56.6118Z" fill="#192729"/>
<path fill-rule="evenodd" clip-rule="evenodd" d="M61.9416 68.6866C61.8587 68.6445 61.7441 68.6557 61.6449 68.6598C61.3998 68.67 61.0644 68.2311 61.2073 68.0453C61.4222 67.7659 61.666 67.4837 61.9572 67.2997C62.1307 67.1902 62.4176 67.5454 62.3959 67.7025C62.3797 67.8199 62.4913 68.0037 62.5995 68.0832C64.2466 69.2934 66.0751 70.0776 68.0762 70.4545C68.2084 70.4794 68.3235 70.5975 68.4465 70.6722C68.324 70.7574 68.2019 70.9228 68.0786 70.9156C65.8955 70.7881 63.3717 69.412 61.9416 68.6866Z" fill="#192729"/>
<path fill-rule="evenodd" clip-rule="evenodd" d="M8.74487 162.987L6.67139 171.843C6.51107 172.528 7.15548 173.127 7.82691 172.918L15.0249 170.677C15.6305 170.488 15.8618 169.753 15.4734 169.252L10.3488 162.638C9.88012 162.033 8.91933 162.242 8.74487 162.987ZM9.63004 164.407L14.1485 169.809L7.55657 172.05L9.63004 164.407Z" fill="#E29000"/>
<path fill-rule="evenodd" clip-rule="evenodd" d="M15.1775 111.895C14.4196 111.827 13.9185 112.665 14.3367 113.301L19.6099 121.317C19.9654 121.858 20.7556 121.864 21.1203 121.33L25.9739 114.222C26.3654 113.649 25.9958 112.866 25.3043 112.804L15.1775 111.895ZM15.8909 112.804L24.9573 114.566L19.6099 120.163L15.8909 112.804Z" fill="#E29000"/>
<path fill-rule="evenodd" clip-rule="evenodd" d="M48.597 173.196H41.1594C40.5428 173.196 40.105 173.796 40.2939 174.383L42.7923 182.149C43.0282 182.882 44.0117 183.008 44.425 182.358L49.3641 174.593C49.7491 173.987 49.3143 173.196 48.597 173.196ZM47.9908 174.711L44.2639 181.87L41.7654 174.105L47.9908 174.711Z" fill="#E29000"/>
<path fill-rule="evenodd" clip-rule="evenodd" d="M24.226 215.275L23.8861 222.007C23.8505 222.713 24.5981 223.188 25.2216 222.855L33.8693 218.249C34.6019 217.859 34.4713 216.771 33.6672 216.566L25.3594 214.44C24.8026 214.298 24.255 214.701 24.226 215.275ZM24.8834 215.917L32.8305 217.021L25.2216 221.519L24.8834 215.917Z" fill="#E29000"/>
<path fill-rule="evenodd" clip-rule="evenodd" d="M12.76 132.59L6.09269 137.211C5.52846 137.602 5.58465 138.454 6.1954 138.767L13.9978 142.773C14.6501 143.108 15.4101 142.572 15.3144 141.845L14.1793 133.218C14.0906 132.544 13.3193 132.202 12.76 132.59ZM13.0276 134.195L14.4129 141.964L6.61056 137.958L13.0276 134.195Z" fill="#E29000"/>
<path fill-rule="evenodd" clip-rule="evenodd" d="M43.3518 152.385L39.1916 158.596C38.8334 159.131 39.1291 159.858 39.7589 159.992L44.6232 161.02C45.2242 161.148 45.7757 160.654 45.7163 160.043L45.0121 152.803C44.9295 151.953 43.8269 151.675 43.3518 152.385ZM44.4847 153.629V160.281L40.302 158.596L44.4847 153.629Z" fill="#E29000"/>
<path fill-rule="evenodd" clip-rule="evenodd" d="M44.1399 123.122C45.3504 122.332 46.4125 122.519 45.5482 124.257C45.5482 124.257 39.238 140.257 37.3526 140.446C35.5646 140.626 34.7016 138.314 32.205 131.703L32.0989 131.421C32.0895 131.396 32.0813 131.371 32.0742 131.346L32.0609 131.293L32.0445 131.264L32.01 131.184L31.7114 130.376C31.3588 129.414 30.4712 127.825 30.0018 127.273C29.5016 126.685 30.6176 126.321 31.4419 126.321C32.9803 126.321 34.8629 126.75 37.8234 125.896C41.2909 124.895 42.4808 124.205 44.1399 123.122ZM41.4563 131.341L41.373 131.395C40.4927 131.937 39.5198 132.354 38.4566 132.645C37.1849 132.992 35.3398 133.035 34.1461 132.775L33.9465 132.728L34.0201 132.912C34.6937 134.591 35.2928 136.532 35.8146 137.519L35.9968 137.856C36.3241 138.444 36.6115 138.871 36.8439 139.128L36.9165 139.203L37.0068 139.094C37.3959 138.597 38.7812 136.725 39.7434 134.855L39.8441 134.659C40.2561 133.851 40.7055 132.933 41.1921 131.904L41.4563 131.341ZM44.0534 124.97L43.9071 125.053C42.5382 125.816 40.2739 127.081 38.3276 127.643C35.9978 128.315 34.0227 128.555 32.3979 128.34L32.2984 128.325L32.3554 128.486C32.5105 128.921 33.1686 130.977 33.4015 131.293C34.3444 132.165 35.5007 132.247 36.9164 131.904L37.1193 131.852C42.1885 130.873 44.0534 124.97 44.0534 124.97Z" fill="#E29000"/>
<path fill-rule="evenodd" clip-rule="evenodd" d="M222.073 180.903C222.275 180.754 222.559 180.797 222.708 180.999C223.758 182.422 225.534 182.492 227.897 181.181C228.116 181.059 228.393 181.138 228.515 181.357C228.637 181.577 228.557 181.854 228.338 181.975C225.62 183.484 223.345 183.395 221.977 181.538C221.828 181.336 221.871 181.052 222.073 180.903Z" fill="#E7EAEE"/>
<path fill-rule="evenodd" clip-rule="evenodd" d="M218.636 184.544C218.822 184.375 219.109 184.389 219.278 184.575C220.87 186.326 222.985 186.426 224.706 185.507C224.927 185.389 225.203 185.472 225.321 185.694C225.439 185.915 225.355 186.191 225.134 186.309C223.079 187.406 220.514 187.285 218.606 185.187C218.437 185.001 218.45 184.713 218.636 184.544Z" fill="#E7EAEE"/>
<path fill-rule="evenodd" clip-rule="evenodd" d="M214.914 188.151C215.097 187.979 215.384 187.988 215.556 188.171C217.09 189.801 220.21 190.597 222.343 189.467C222.565 189.349 222.84 189.434 222.958 189.655C223.075 189.877 222.991 190.152 222.769 190.27C220.242 191.609 216.69 190.702 214.894 188.794C214.722 188.611 214.731 188.324 214.914 188.151Z" fill="#E7EAEE"/>
<path fill-rule="evenodd" clip-rule="evenodd" d="M217.804 202.408C220.995 200.864 217.696 195.143 214.607 197.458C212.627 198.944 214.799 203.862 217.804 202.408Z" fill="#E7EAEE"/>
</svg>
