<svg width="124" height="48" viewBox="0 0 124 48" fill="none" xmlns="http://www.w3.org/2000/svg">
<path d="M19.7771 10.64H19.8731C20.4065 10.9173 20.6731 11.2267 20.6731 11.568L19.8731 17.648C19.8731 19.8667 20.5345 24.464 21.8571 31.44L23.4571 35.44C23.4571 35.7173 23.2331 36.0267 22.7851 36.368H22.1771C21.7505 36.24 21.1105 34.928 20.2571 32.432C19.7025 30.4267 19.1478 27.3333 18.5931 23.152H18.4011C17.1638 26.8213 16.2891 28.72 15.7771 28.848L15.2651 28.976C14.8171 28.976 14.2625 28.1013 13.6011 26.352H13.3771C13.1211 31.6213 12.6198 34.256 11.8731 34.256H11.7771C11.0945 34.256 10.7211 33.7227 10.6571 32.656C11.1905 30.608 11.4571 28.4747 11.4571 26.256L10.5931 17.776V17.168C10.5931 16.3573 10.8811 15.952 11.4571 15.952C12.2891 15.952 13.0251 17.584 13.6651 20.848C14.6038 23.8133 15.1798 25.4133 15.3931 25.648C15.8838 24.88 16.3745 23.5147 16.8651 21.552C17.2491 20.5493 17.6225 18.9813 17.9851 16.848L17.8571 16.752L17.9851 16.24V16.048C18.1771 12.4427 18.7745 10.64 19.7771 10.64ZM25.4914 24.4C26.238 24.4 26.75 26.0427 27.0274 29.328C27.39 30.8427 27.6567 31.6 27.8274 31.6H28.0194C28.5527 30.256 28.8194 28.9227 28.8194 27.6L28.6274 25.392C28.862 24.816 29.1927 24.528 29.6194 24.528C30.4087 24.528 30.8034 25.9253 30.8034 28.72C31.2727 31.6213 31.5074 34.32 31.5074 36.816V38.32C31.5074 42.9067 30.206 46 27.6034 47.6L26.8994 47.728C25.6834 47.728 24.5527 46.5973 23.5074 44.336L23.2194 42.416V42.32C23.2194 40.912 23.614 40.208 24.4034 40.208L25.2034 40.72L25.1074 42.736C25.1074 43.7173 25.6087 44.7093 26.6114 45.712H27.0274C28.2007 45.712 29.0647 43.472 29.6194 38.992L29.6834 37.136C29.662 34.9813 29.5767 33.6053 29.4274 33.008C28.574 33.7547 27.902 34.128 27.4114 34.128C26.3234 34.128 25.3527 31.216 24.4994 25.392L24.4034 25.328C24.4034 24.8373 24.766 24.528 25.4914 24.4ZM54.6946 15.056H55.0146C55.612 15.056 55.9533 15.408 56.0386 16.112C56.0386 16.7307 55.196 17.04 53.5106 17.04C50.8013 18.064 48.9773 19.5573 48.0386 21.52L47.8146 22.448V22.64C47.8146 23.5787 48.444 24.048 49.7026 24.048L53.2226 23.856C55.5906 23.856 57.1906 25.008 58.0226 27.312L58.2146 28.432C58.2146 30.6507 56.4226 32.6773 52.8386 34.512C51.772 34.8107 50.8333 35.0133 50.0226 35.12C47.8466 35.12 46.3106 33.8933 45.4146 31.44C45.1586 30.608 45.0306 29.7653 45.0306 28.912C45.0306 28.656 45.2333 28.3893 45.6386 28.112H46.0226C46.684 28.112 47.0146 28.9547 47.0146 30.64C47.5693 32.304 48.444 33.136 49.6386 33.136H50.5026C52.2306 33.136 53.9373 32.1333 55.6226 30.128C56.0706 29.488 56.2946 28.7947 56.2946 28.048C56.2946 27.0027 55.4733 26.2667 53.8306 25.84H53.7026L49.5106 25.936C47.1853 25.6587 46.0226 24.6987 46.0226 23.056L45.8946 22.64C45.8946 20.4427 47.5373 18.3093 50.8226 16.24C52.252 15.4507 53.5426 15.056 54.6946 15.056ZM62.8251 23.152L64.1371 22.96C64.6705 22.96 64.9691 23.2907 65.0331 23.952C65.0331 24.528 64.3398 24.9013 62.9531 25.072C62.0785 25.7547 61.6411 26.6293 61.6411 27.696V28.752C62.0678 31.0987 62.7931 32.272 63.8171 32.272H64.1371C64.7345 32.272 65.6305 31.7067 66.8251 30.576H67.0171C67.4438 30.576 67.7851 30.8747 68.0411 31.472C67.7425 32.3893 66.7825 33.2213 65.1611 33.968C64.8625 34.096 64.4891 34.16 64.0411 34.16C61.8438 34.16 60.4145 32.432 59.7531 28.976V28.272C59.7531 25.776 60.7771 24.0693 62.8251 23.152ZM70.9989 16.336C71.5962 16.336 71.8949 17.0613 71.8949 18.512L72.2789 24.016H72.4069L74.0069 23.408C75.7989 23.408 76.8869 25.2427 77.2709 28.912C77.4202 29.9573 77.4949 31.4933 77.4949 33.52V36.112C77.4949 36.9227 77.1962 37.328 76.5989 37.328H76.4709C75.8949 37.2427 75.6069 36.9333 75.6069 36.4V33.392C75.6069 28.5707 75.1375 25.904 74.1989 25.392H74.0069C73.3669 25.392 72.8975 26.3733 72.5989 28.336V30.128C72.5989 33.328 72.3322 34.928 71.7989 34.928L71.1909 34.992C70.5935 34.992 70.2949 34.1067 70.2949 32.336C70.3589 30.4587 70.4869 28.9227 70.6789 27.728L70.0069 17.2C70.0069 16.6453 70.3375 16.3573 70.9989 16.336ZM84.1186 21.936C85.6973 21.936 86.892 23.1093 87.7026 25.456L87.8306 26.128C87.8306 28.4107 86.764 30.7467 84.6306 33.136C83.7773 33.9253 82.9133 34.32 82.0386 34.32C80.7586 34.32 79.852 33.584 79.3186 32.112C79.1266 31.4293 79.0306 30.832 79.0306 30.32V29.936C79.0306 26.5653 80.2573 24.0053 82.7106 22.256C83.1373 22.0427 83.6066 21.936 84.1186 21.936ZM80.9186 30.256C80.9186 31.7067 81.292 32.432 82.0386 32.432C83.596 32.432 84.8866 30.4373 85.9106 26.448V25.84C85.548 24.5173 84.876 23.856 83.8946 23.856C83.5106 23.856 83.3186 24.1227 83.3186 24.656C83.3186 25.0187 82.892 25.3067 82.0386 25.52C81.292 26.7787 80.9186 28.3573 80.9186 30.256ZM94.3686 21.936C95.9473 21.936 97.142 23.1093 97.9526 25.456L98.0806 26.128C98.0806 28.4107 97.014 30.7467 94.8806 33.136C94.0273 33.9253 93.1633 34.32 92.2886 34.32C91.0086 34.32 90.102 33.584 89.5686 32.112C89.3766 31.4293 89.2806 30.832 89.2806 30.32V29.936C89.2806 26.5653 90.5073 24.0053 92.9606 22.256C93.3873 22.0427 93.8566 21.936 94.3686 21.936ZM91.1686 30.256C91.1686 31.7067 91.542 32.432 92.2886 32.432C93.846 32.432 95.1366 30.4373 96.1606 26.448V25.84C95.798 24.5173 95.126 23.856 94.1446 23.856C93.7606 23.856 93.5686 24.1227 93.5686 24.656C93.5686 25.0187 93.142 25.3067 92.2886 25.52C91.542 26.7787 91.1686 28.3573 91.1686 30.256ZM101.323 16.368C101.92 16.5813 102.219 16.912 102.219 17.36L102.539 29.552V33.488C102.539 34.2133 102.229 34.576 101.611 34.576H101.195C100.811 34.32 100.619 34.0213 100.619 33.68V29.968L100.331 17.296C100.331 16.7627 100.661 16.4533 101.323 16.368ZM111.274 21.04C111.85 21.04 112.245 22.0107 112.458 23.952C112.245 24.4853 111.893 24.752 111.402 24.752C111.061 24.688 110.72 24.2933 110.378 23.568L109.802 23.376C108.8 23.376 107.893 24.0373 107.082 25.36V25.648C107.082 25.968 108.586 26.5013 111.594 27.248C112.853 27.9947 113.482 28.9013 113.482 29.968C113.482 31.7173 112.074 33.2107 109.258 34.448L108.074 34.64C106.282 34.448 105.386 33.552 105.386 31.952V31.856C105.386 31.344 105.717 31.0453 106.378 30.96C106.89 30.96 107.232 31.4933 107.402 32.56L107.658 32.752H108.202C109.418 32.752 110.549 31.92 111.594 30.256V29.84C111.594 29.2 110.197 28.6027 107.402 28.048C105.93 27.4507 105.194 26.6187 105.194 25.552C105.194 24.1653 106.357 22.864 108.682 21.648C109.706 21.52 110.57 21.3173 111.274 21.04Z" fill="#192729"/>
</svg>
