<svg width="312" height="171" viewBox="0 0 312 171" fill="none" xmlns="http://www.w3.org/2000/svg">
<path d="M18.648 0.279999H18.84C19.9067 0.834666 20.44 1.45333 20.44 2.136L18.84 14.296C18.84 18.7333 20.1627 27.928 22.808 41.88L26.008 49.88C26.008 50.4347 25.56 51.0533 24.664 51.736H23.448C22.5947 51.48 21.3147 48.856 19.608 43.864C18.4987 39.8533 17.3893 33.6667 16.28 25.304H15.896C13.4213 32.6427 11.672 36.44 10.648 36.696L9.624 36.952C8.728 36.952 7.61867 35.2027 6.296 31.704H5.848C5.336 42.2427 4.33333 47.512 2.84 47.512H2.648C1.28267 47.512 0.536 46.4453 0.408 44.312C1.47467 40.216 2.008 35.9493 2.008 31.512L0.28 14.552V13.336C0.28 11.7147 0.856 10.904 2.008 10.904C3.672 10.904 5.144 14.168 6.424 20.696C8.30133 26.6267 9.45333 29.8267 9.88 30.296C10.8613 28.76 11.8427 26.0293 12.824 22.104C13.592 20.0987 14.3387 16.9627 15.064 12.696L14.808 12.504L15.064 11.48V11.096C15.448 3.88533 16.6427 0.279999 18.648 0.279999ZM39.9965 22.296C41.8738 22.296 42.8125 23.0427 42.8125 24.536L42.2365 25.752L41.8525 37.464C41.8525 42.7547 42.9192 46.04 45.0525 47.32L45.1805 48.28C45.0525 49.5173 44.4765 50.136 43.4525 50.136H43.0685C39.8685 47.96 38.2685 44.632 38.2685 40.152H37.8205C36.1138 44.9307 34.0445 47.32 31.6125 47.32C29.3512 46.68 28.2205 44.9947 28.2205 42.264C28.2205 36.248 30.6312 30.2533 35.4525 24.28C37.0738 22.9573 38.5885 22.296 39.9965 22.296ZM32.2525 39.704L31.9965 41.496V42.712H32.6365C35.8365 34.7333 37.4365 29.8693 37.4365 28.12H37.1805C34.7058 30.8933 33.0632 34.7547 32.2525 39.704ZM49.98 13.144H50.364C50.9187 13.144 51.452 13.6133 51.964 14.552L51.708 18.904V21.336L51.964 32.536L52.156 33.176H52.348C54.1827 31.4693 55.7827 28.4613 57.148 24.152L58.556 23.704C59.7507 23.8747 60.348 24.408 60.348 25.304C60.348 28.0773 58.364 31.8107 54.396 36.504V36.952C59.644 43.0533 63.1 46.104 64.764 46.104H65.148L66.748 45.144H67.324C68.22 45.144 68.8813 45.7413 69.308 46.936C69.308 48.3013 67.7933 49.24 64.764 49.752C61.7347 49.752 57.788 46.68 52.924 40.536H52.348L52.54 43.992V47.32C52.284 48.6427 51.6227 49.304 50.556 49.304C49.3613 49.048 48.764 48.3867 48.764 47.32V46.936L48.508 39.576C48.0387 39.576 47.7187 38.9147 47.548 37.592L48.38 35.992L47.996 21.592V18.776C47.996 15.0213 48.6573 13.144 49.98 13.144ZM76.7885 24.024C78.4952 24.0667 81.3752 27.0533 85.4285 32.984L85.5565 34.072C85.5565 35.2667 82.6338 36.184 76.7885 36.824L76.5965 37.016V37.272C77.4925 41.112 78.4312 43.032 79.4125 43.032H80.1805C81.5458 43.032 83.6152 41.56 86.3885 38.616H86.7725C87.6258 38.616 88.2872 39.2347 88.7565 40.472C88.7565 41.496 86.9645 43.2667 83.3805 45.784C82.4418 46.3387 81.3112 46.744 79.9885 47C76.5325 47 74.1218 43.7573 72.7565 37.272C70.7938 36.9733 69.8125 36.1627 69.8125 34.84C69.8125 33.9013 70.5378 33.2827 71.9885 32.984V33.24L72.6285 32.984V31.384C72.6285 26.4773 74.0152 24.024 76.7885 24.024ZM77.1725 28.632H76.5965L76.3405 31V32.984H76.5965C78.9858 32.8987 80.1805 32.6427 80.1805 32.216C79.0712 30.552 78.0685 29.3573 77.1725 28.632ZM117.389 27.8C118.882 27.8 119.906 31.0853 120.461 37.656C121.186 40.6853 121.72 42.2 122.061 42.2H122.445C123.512 39.512 124.045 36.8453 124.045 34.2L123.661 29.784C124.13 28.632 124.792 28.056 125.645 28.056C127.224 28.056 128.013 30.8507 128.013 36.44C128.952 42.2427 129.421 47.64 129.421 52.632V55.64C129.421 64.8133 126.818 71 121.613 74.2L120.205 74.456C117.773 74.456 115.512 72.1947 113.421 67.672L112.845 63.832V63.64C112.845 60.824 113.634 59.416 115.213 59.416L116.813 60.44L116.621 64.472C116.621 66.4347 117.624 68.4187 119.629 70.424H120.461C122.808 70.424 124.536 65.944 125.645 56.984L125.773 53.272C125.73 48.9627 125.56 46.2107 125.261 45.016C123.554 46.5093 122.21 47.256 121.229 47.256C119.053 47.256 117.112 41.432 115.405 29.784L115.213 29.656C115.213 28.6747 115.938 28.056 117.389 27.8ZM142.519 22.872C145.676 22.872 148.065 25.2187 149.687 29.912L149.943 31.256C149.943 35.8213 147.809 40.4933 143.543 45.272C141.836 46.8507 140.108 47.64 138.359 47.64C135.799 47.64 133.985 46.168 132.919 43.224C132.535 41.8587 132.343 40.664 132.343 39.64V38.872C132.343 32.1307 134.796 27.0107 139.703 23.512C140.556 23.0853 141.495 22.872 142.519 22.872ZM136.119 39.512C136.119 42.4133 136.865 43.864 138.359 43.864C141.473 43.864 144.055 39.8747 146.103 31.896V30.68C145.377 28.0347 144.033 26.712 142.071 26.712C141.303 26.712 140.919 27.2453 140.919 28.312C140.919 29.0373 140.065 29.6133 138.359 30.04C136.865 32.5573 136.119 35.7147 136.119 39.512ZM155.339 27.736L156.491 27.096C157.515 27.096 158.261 27.7147 158.731 28.952C158.048 32.1093 157.707 35.352 157.707 38.68C157.707 40.344 158.197 42.1573 159.179 44.12H159.562C160.8 44.12 162.272 39.2347 163.979 29.464C164.576 28.952 165.152 28.696 165.707 28.696C167.029 28.696 167.691 31.0427 167.691 35.736C168.245 40.8987 168.864 43.48 169.547 43.48L170.507 43.096C171.744 43.5653 172.363 44.2267 172.363 45.08C171.595 46.7013 170.528 47.512 169.163 47.512C167.627 47.512 166.155 45.976 164.747 42.904C163.04 46.488 161.312 48.28 159.562 48.28C156.96 48.28 155.147 45.5707 154.123 40.152L153.931 38.104V37.464C153.931 34.0507 154.4 30.808 155.339 27.736ZM182.164 21.784C184.852 21.784 186.452 23.6613 186.964 27.416V27.992C186.964 32.1307 184.831 35.928 180.564 39.384C183.039 41.816 187.369 43.032 193.556 43.032C194.495 43.3307 194.964 43.992 194.964 45.016C194.964 46.168 194.217 46.744 192.724 46.744C188.543 46.744 184.148 45.6773 179.54 43.544V45.4C179.54 49.7947 178.601 51.992 176.724 51.992C175.401 51.992 174.74 49.4533 174.74 44.376V39.384L174.548 37.592L174.996 35.544L174.548 29.4V29.144C174.548 27.992 175.145 27.2027 176.34 26.776C178.004 23.448 179.945 21.784 182.164 21.784ZM178.964 35.8C180.201 35.8 181.588 33.5813 183.124 29.144V26.392L182.356 25.56H181.78C179.903 26.84 178.964 30.2533 178.964 35.8ZM12.184 118.296C14.0613 118.296 15 119.043 15 120.536L14.424 121.752L14.04 133.464C14.04 138.755 15.1067 142.04 17.24 143.32L17.368 144.28C17.24 145.517 16.664 146.136 15.64 146.136H15.256C12.056 143.96 10.456 140.632 10.456 136.152H10.008C8.30133 140.931 6.232 143.32 3.8 143.32C1.53867 142.68 0.408 140.995 0.408 138.264C0.408 132.248 2.81867 126.253 7.64 120.28C9.26133 118.957 10.776 118.296 12.184 118.296ZM4.44 135.704L4.184 137.496V138.712H4.824C8.024 130.733 9.624 125.869 9.624 124.12H9.368C6.89333 126.893 5.25067 130.755 4.44 135.704ZM26.7755 123.992C31.2982 123.992 33.9648 126.829 34.7755 132.504C34.7755 137.539 32.4288 141.144 27.7355 143.32C27.2235 143.576 26.5195 143.704 25.6235 143.704H25.1755L23.7675 143.576V143.704L24.0235 160.792C23.7248 162.115 23.0422 162.776 21.9755 162.776C20.7808 162.392 20.1835 161.773 20.1835 160.92L19.6075 126.104C19.6075 124.995 20.2688 124.419 21.5915 124.376L22.9355 124.952C24.1302 124.312 25.4102 123.992 26.7755 123.992ZM23.5755 130.776L23.3835 132.76L23.5755 139.544L25.3675 139.992C28.2262 139.992 30.0822 137.901 30.9355 133.72V132.76C30.6368 129.389 29.4422 127.704 27.3515 127.704H26.3915C24.5142 127.704 23.5755 128.728 23.5755 130.776ZM45.6505 123.992C50.1732 123.992 52.8398 126.829 53.6505 132.504C53.6505 137.539 51.3038 141.144 46.6105 143.32C46.0985 143.576 45.3945 143.704 44.4985 143.704H44.0505L42.6425 143.576V143.704L42.8985 160.792C42.5998 162.115 41.9172 162.776 40.8505 162.776C39.6558 162.392 39.0585 161.773 39.0585 160.92L38.4825 126.104C38.4825 124.995 39.1438 124.419 40.4665 124.376L41.8105 124.952C43.0052 124.312 44.2852 123.992 45.6505 123.992ZM42.4505 130.776L42.2585 132.76L42.4505 139.544L44.2425 139.992C47.1012 139.992 48.9572 137.901 49.8105 133.72V132.76C49.5118 129.389 48.3172 127.704 46.2265 127.704H45.2665C43.3892 127.704 42.4505 128.728 42.4505 130.776ZM60.3015 107.736C61.4962 108.163 62.0935 108.824 62.0935 109.72L62.7335 134.104V141.976C62.7335 143.427 62.1148 144.152 60.8775 144.152H60.0455C59.2775 143.64 58.8935 143.043 58.8935 142.36V134.936L58.3175 109.592C58.3175 108.525 58.9788 107.907 60.3015 107.736ZM68.109 109.656C69.7303 109.997 70.541 110.723 70.541 111.832C70.1143 113.027 69.4317 113.624 68.493 113.624C66.9143 113.325 66.125 112.536 66.125 111.256C66.5517 110.189 67.213 109.656 68.109 109.656ZM70.541 118.616C71.2237 118.616 71.7997 119.235 72.269 120.472L71.693 125.016V128.024C71.693 131.523 72.2903 136.109 73.485 141.784C73.0583 142.595 72.333 143 71.309 143C69.5597 143 68.4077 137.88 67.853 127.64V125.4C67.853 120.877 68.749 118.616 70.541 118.616ZM83.3065 121.304L85.9305 120.92C86.9972 120.92 87.5945 121.581 87.7225 122.904C87.7225 124.056 86.3358 124.803 83.5625 125.144C81.8132 126.509 80.9385 128.259 80.9385 130.392V132.504C81.7918 137.197 83.2425 139.544 85.2905 139.544H85.9305C87.1252 139.544 88.9172 138.413 91.3065 136.152H91.6905C92.5438 136.152 93.2265 136.749 93.7385 137.944C93.1412 139.779 91.2212 141.443 87.9785 142.936C87.3812 143.192 86.6345 143.32 85.7385 143.32C81.3438 143.32 78.4852 139.864 77.1625 132.952V131.544C77.1625 126.552 79.2105 123.139 83.3065 121.304ZM108.934 118.296C110.811 118.296 111.75 119.043 111.75 120.536L111.174 121.752L110.79 133.464C110.79 138.755 111.857 142.04 113.99 143.32L114.118 144.28C113.99 145.517 113.414 146.136 112.39 146.136H112.006C108.806 143.96 107.206 140.632 107.206 136.152H106.758C105.051 140.931 102.982 143.32 100.55 143.32C98.2887 142.68 97.158 140.995 97.158 138.264C97.158 132.248 99.5687 126.253 104.39 120.28C106.011 118.957 107.526 118.296 108.934 118.296ZM101.19 135.704L100.934 137.496V138.712H101.574C104.774 130.733 106.374 125.869 106.374 124.12H106.118C103.643 126.893 102.001 130.755 101.19 135.704ZM123.206 104.152C124.4 104.408 124.998 105.005 124.998 105.944L124.614 108.76V109.592C124.614 111.469 124.827 113.453 125.254 115.544H125.382C130.331 114.051 133.403 113.304 134.598 113.304C135.835 113.645 136.454 114.264 136.454 115.16C136.454 116.611 134.982 117.336 132.038 117.336L125.382 119.704C125.382 125.464 126 133.293 127.238 143.192C126.982 144.344 126.363 144.92 125.382 144.92H125.254C123.76 144.92 123.014 143 123.014 139.16C122.459 136.301 121.99 130.093 121.606 120.536H120.454C116.443 120.28 114.438 119.341 114.438 117.72C114.438 117.251 114.886 116.675 115.782 115.992H116.422L119.366 116.76H121.414L120.838 108.76C120.838 105.688 121.627 104.152 123.206 104.152ZM139.172 109.656C140.793 109.997 141.604 110.723 141.604 111.832C141.177 113.027 140.494 113.624 139.556 113.624C137.977 113.325 137.188 112.536 137.188 111.256C137.614 110.189 138.276 109.656 139.172 109.656ZM141.604 118.616C142.286 118.616 142.862 119.235 143.332 120.472L142.756 125.016V128.024C142.756 131.523 143.353 136.109 144.548 141.784C144.121 142.595 143.396 143 142.372 143C140.622 143 139.47 137.88 138.916 127.64V125.4C138.916 120.877 139.812 118.616 141.604 118.616ZM158.081 118.872C161.238 118.872 163.628 121.219 165.249 125.912L165.505 127.256C165.505 131.821 163.372 136.493 159.105 141.272C157.398 142.851 155.67 143.64 153.921 143.64C151.361 143.64 149.548 142.168 148.481 139.224C148.097 137.859 147.905 136.664 147.905 135.64V134.872C147.905 128.131 150.358 123.011 155.265 119.512C156.118 119.085 157.057 118.872 158.081 118.872ZM151.681 135.512C151.681 138.413 152.428 139.864 153.921 139.864C157.036 139.864 159.617 135.875 161.665 127.896V126.68C160.94 124.035 159.596 122.712 157.633 122.712C156.865 122.712 156.481 123.245 156.481 124.312C156.481 125.037 155.628 125.613 153.921 126.04C152.428 128.557 151.681 131.715 151.681 135.512ZM176.661 121.432C180.288 121.731 182.101 123.501 182.101 126.744L182.229 127.576L182.101 137.56C182.101 138.712 182.762 140.269 184.085 142.232V142.36C183.744 143.597 183.125 144.216 182.229 144.216C179.584 143.107 178.261 140.76 178.261 137.176V136.344L178.069 136.216L178.261 135.96V135.832L178.453 127C178.453 125.763 177.92 125.144 176.853 125.144H176.085C173.952 125.997 172.885 130.669 172.885 139.16C172.885 142.104 172.138 143.576 170.645 143.576C169.493 143.576 168.896 142.851 168.853 141.4V135C168.853 126.723 169.578 122.584 171.029 122.584L171.669 122.392L173.013 122.584C174.165 121.816 175.381 121.432 176.661 121.432ZM198.955 117.08C200.107 117.08 200.896 119.021 201.323 122.904C200.896 123.971 200.192 124.504 199.211 124.504C198.528 124.376 197.846 123.587 197.163 122.136L196.011 121.752C194.006 121.752 192.192 123.075 190.571 125.72V126.296C190.571 126.936 193.579 128.003 199.595 129.496C202.112 130.989 203.371 132.803 203.371 134.936C203.371 138.435 200.555 141.421 194.923 143.896L192.555 144.28C188.971 143.896 187.179 142.104 187.179 138.904V138.712C187.179 137.688 187.84 137.091 189.163 136.92C190.187 136.92 190.87 137.987 191.211 140.12L191.723 140.504H192.811C195.243 140.504 197.504 138.84 199.595 135.512V134.68C199.595 133.4 196.8 132.205 191.211 131.096C188.267 129.901 186.795 128.237 186.795 126.104C186.795 123.331 189.12 120.728 193.771 118.296C195.819 118.04 197.547 117.635 198.955 117.08ZM235.601 120.024C237.308 120.067 240.188 123.053 244.241 128.984L244.369 130.072C244.369 131.267 241.446 132.184 235.601 132.824L235.409 133.016V133.272C236.305 137.112 237.244 139.032 238.225 139.032H238.993C240.358 139.032 242.428 137.56 245.201 134.616H245.585C246.438 134.616 247.1 135.235 247.569 136.472C247.569 137.496 245.777 139.267 242.193 141.784C241.254 142.339 240.124 142.744 238.801 143C235.345 143 232.934 139.757 231.569 133.272C229.606 132.973 228.625 132.163 228.625 130.84C228.625 129.901 229.35 129.283 230.801 128.984V129.24L231.441 128.984V127.384C231.441 122.477 232.828 120.024 235.601 120.024ZM235.985 124.632H235.409L235.153 127V128.984H235.409C237.798 128.899 238.993 128.643 238.993 128.216C237.884 126.552 236.881 125.357 235.985 124.632ZM261.997 118.296C263.874 118.296 264.812 119.043 264.812 120.536L264.237 121.752L263.853 133.464C263.853 138.755 264.919 142.04 267.053 143.32L267.181 144.28C267.053 145.517 266.477 146.136 265.453 146.136H265.069C261.869 143.96 260.269 140.632 260.269 136.152H259.821C258.114 140.931 256.045 143.32 253.613 143.32C251.351 142.68 250.221 140.995 250.221 138.264C250.221 132.248 252.631 126.253 257.453 120.28C259.074 118.957 260.589 118.296 261.997 118.296ZM254.253 135.704L253.997 137.496V138.712H254.637C257.837 130.733 259.437 125.869 259.437 124.12H259.181C256.706 126.893 255.063 130.755 254.253 135.704ZM281.58 117.08C282.732 117.08 283.521 119.021 283.948 122.904C283.521 123.971 282.817 124.504 281.836 124.504C281.153 124.376 280.471 123.587 279.788 122.136L278.636 121.752C276.631 121.752 274.817 123.075 273.196 125.72V126.296C273.196 126.936 276.204 128.003 282.22 129.496C284.737 130.989 285.996 132.803 285.996 134.936C285.996 138.435 283.18 141.421 277.548 143.896L275.18 144.28C271.596 143.896 269.804 142.104 269.804 138.904V138.712C269.804 137.688 270.465 137.091 271.788 136.92C272.812 136.92 273.495 137.987 273.836 140.12L274.348 140.504H275.436C277.868 140.504 280.129 138.84 282.22 135.512V134.68C282.22 133.4 279.425 132.205 273.836 131.096C270.892 129.901 269.42 128.237 269.42 126.104C269.42 123.331 271.745 120.728 276.396 118.296C278.444 118.04 280.172 117.635 281.58 117.08ZM290.389 123.8C291.882 123.8 292.906 127.085 293.461 133.656C294.186 136.685 294.72 138.2 295.061 138.2H295.445C296.512 135.512 297.045 132.845 297.045 130.2L296.661 125.784C297.13 124.632 297.792 124.056 298.645 124.056C300.224 124.056 301.013 126.851 301.013 132.44C301.952 138.243 302.421 143.64 302.421 148.632V151.64C302.421 160.813 299.818 167 294.613 170.2L293.205 170.456C290.773 170.456 288.512 168.195 286.421 163.672L285.845 159.832V159.64C285.845 156.824 286.634 155.416 288.213 155.416L289.813 156.44L289.621 160.472C289.621 162.435 290.624 164.419 292.629 166.424H293.461C295.808 166.424 297.536 161.944 298.645 152.984L298.773 149.272C298.73 144.963 298.56 142.211 298.261 141.016C296.554 142.509 295.21 143.256 294.229 143.256C292.053 143.256 290.112 137.432 288.405 125.784L288.213 125.656C288.213 124.675 288.938 124.056 290.389 123.8ZM306.943 99.544C308.095 100.013 308.671 100.696 308.671 101.592C309.012 113.709 309.503 122.456 310.143 127.832C309.716 128.899 309.097 129.432 308.286 129.432C306.708 129.432 305.919 126.893 305.919 121.816C305.535 119.939 305.215 113.133 304.959 101.4C304.959 100.333 305.62 99.7147 306.943 99.544ZM307.327 143.576C307.711 142.253 308.393 141.592 309.375 141.592C310.399 141.592 311.103 142.253 311.487 143.576C311.017 144.813 310.356 145.432 309.503 145.432H309.311C308.457 145.432 307.796 144.813 307.327 143.576Z" fill="#192729"/>
</svg>
