<svg width="120" height="22" viewBox="0 0 120 22" fill="none" xmlns="http://www.w3.org/2000/svg">
<path d="M6.992 1.332L15.392 0.799999C15.6347 0.799999 15.868 1.03333 16.092 1.5C16.092 2.20933 15.2707 2.564 13.628 2.564L8.728 2.844L8.616 2.9C9.08267 5.94267 9.316 11.72 9.316 20.232C9.22267 21.0533 8.924 21.464 8.42 21.464C7.93467 21.464 7.65467 21.0907 7.58 20.344V13.848C7.58 9.51733 7.384 5.90533 6.992 3.012C3.65067 3.32933 1.98 3.70267 1.98 4.132L1.728 4.244C1.14933 4.076 0.86 3.77733 0.86 3.348C0.86 2.32133 2.904 1.64933 6.992 1.332ZM17.1225 7.968C18.2985 7.968 18.9985 8.78933 19.2225 10.432V10.684C19.2225 12.4947 18.2892 14.156 16.4225 15.668C17.5052 16.732 19.3999 17.264 22.1065 17.264C22.5172 17.3947 22.7225 17.684 22.7225 18.132C22.7225 18.636 22.3959 18.888 21.7425 18.888C19.9132 18.888 17.9905 18.4213 15.9745 17.488V18.3C15.9745 20.2227 15.5639 21.184 14.7425 21.184C14.1639 21.184 13.8745 20.0733 13.8745 17.852V15.668L13.7905 14.884L13.9865 13.988L13.7905 11.3V11.188C13.7905 10.684 14.0519 10.3387 14.5745 10.152C15.3025 8.696 16.1519 7.968 17.1225 7.968ZM15.7225 14.1C16.2639 14.1 16.8705 13.1293 17.5425 11.188V9.984L17.2065 9.62H16.9545C16.1332 10.18 15.7225 11.6733 15.7225 14.1ZM28.8891 8.192C29.7104 8.192 30.1211 8.51867 30.1211 9.172L29.8691 9.704L29.7011 14.828C29.7011 17.1427 30.1678 18.58 31.1011 19.14L31.1571 19.56C31.1011 20.1013 30.8491 20.372 30.4011 20.372H30.2331C28.8331 19.42 28.1331 17.964 28.1331 16.004H27.9371C27.1904 18.0947 26.2851 19.14 25.2211 19.14C24.2318 18.86 23.7371 18.1227 23.7371 16.928C23.7371 14.296 24.7918 11.6733 26.9011 9.06C27.6104 8.48133 28.2731 8.192 28.8891 8.192ZM25.5011 15.808L25.3891 16.592V17.124H25.6691C27.0691 13.6333 27.7691 11.5053 27.7691 10.74H27.6571C26.5744 11.9533 25.8558 13.6427 25.5011 15.808ZM34.6849 9.508L35.8329 9.34C36.2995 9.34 36.5609 9.62933 36.6169 10.208C36.6169 10.712 36.0102 11.0387 34.7969 11.188C34.0315 11.7853 33.6489 12.5507 33.6489 13.484V14.408C34.0222 16.4613 34.6569 17.488 35.5529 17.488H35.8329C36.3555 17.488 37.1395 16.9933 38.1849 16.004H38.3529C38.7262 16.004 39.0249 16.2653 39.2489 16.788C38.9875 17.5907 38.1475 18.3187 36.7289 18.972C36.4675 19.084 36.1409 19.14 35.7489 19.14C33.8262 19.14 32.5755 17.628 31.9969 14.604V13.988C31.9969 11.804 32.8929 10.3107 34.6849 9.508ZM42.0889 4.188H42.2569C42.4996 4.188 42.7329 4.39333 42.9569 4.804L42.8449 6.708V7.772L42.9569 12.672L43.0409 12.952H43.1249C43.9276 12.2053 44.6276 10.8893 45.2249 9.004L45.8409 8.808C46.3636 8.88267 46.6249 9.116 46.6249 9.508C46.6249 10.7213 45.7569 12.3547 44.0209 14.408V14.604C46.3169 17.2733 47.8289 18.608 48.5569 18.608H48.7249L49.4249 18.188H49.6769C50.0689 18.188 50.3582 18.4493 50.5449 18.972C50.5449 19.5693 49.8822 19.98 48.5569 20.204C47.2316 20.204 45.5049 18.86 43.3769 16.172H43.1249L43.2089 17.684V19.14C43.0969 19.7187 42.8076 20.008 42.3409 20.008C41.8182 19.896 41.5569 19.6067 41.5569 19.14V18.972L41.4449 15.752C41.2396 15.752 41.0996 15.4627 41.0249 14.884L41.3889 14.184L41.2209 7.884V6.652C41.2209 5.00933 41.5102 4.188 42.0889 4.188ZM56.7576 1.332L65.1576 0.799999C65.4003 0.799999 65.6336 1.03333 65.8576 1.5C65.8576 2.20933 65.0363 2.564 63.3936 2.564L58.4936 2.844L58.3816 2.9C58.8483 5.94267 59.0816 11.72 59.0816 20.232C58.9883 21.0533 58.6896 21.464 58.1856 21.464C57.7003 21.464 57.4203 21.0907 57.3456 20.344V13.848C57.3456 9.51733 57.1496 5.90533 56.7576 3.012C53.4163 3.32933 51.7456 3.70267 51.7456 4.132L51.4936 4.244C50.915 4.076 50.6256 3.77733 50.6256 3.348C50.6256 2.32133 52.6696 1.64933 56.7576 1.332ZM66.8882 7.968C68.0642 7.968 68.7642 8.78933 68.9882 10.432V10.684C68.9882 12.4947 68.0548 14.156 66.1882 15.668C67.2708 16.732 69.1655 17.264 71.8722 17.264C72.2828 17.3947 72.4882 17.684 72.4882 18.132C72.4882 18.636 72.1615 18.888 71.5082 18.888C69.6788 18.888 67.7562 18.4213 65.7402 17.488V18.3C65.7402 20.2227 65.3295 21.184 64.5082 21.184C63.9295 21.184 63.6402 20.0733 63.6402 17.852V15.668L63.5562 14.884L63.7522 13.988L63.5562 11.3V11.188C63.5562 10.684 63.8175 10.3387 64.3402 10.152C65.0682 8.696 65.9175 7.968 66.8882 7.968ZM65.4882 14.1C66.0295 14.1 66.6362 13.1293 67.3082 11.188V9.984L66.9722 9.62H66.7202C65.8988 10.18 65.4882 11.6733 65.4882 14.1ZM78.6547 8.192C79.4761 8.192 79.8867 8.51867 79.8867 9.172L79.6347 9.704L79.4667 14.828C79.4667 17.1427 79.9334 18.58 80.8667 19.14L80.9227 19.56C80.8667 20.1013 80.6147 20.372 80.1667 20.372H79.9987C78.5987 19.42 77.8987 17.964 77.8987 16.004H77.7027C76.9561 18.0947 76.0507 19.14 74.9867 19.14C73.9974 18.86 73.5027 18.1227 73.5027 16.928C73.5027 14.296 74.5574 11.6733 76.6667 9.06C77.3761 8.48133 78.0387 8.192 78.6547 8.192ZM75.2667 15.808L75.1547 16.592V17.124H75.4347C76.8347 13.6333 77.5347 11.5053 77.5347 10.74H77.4227C76.3401 11.9533 75.6214 13.6427 75.2667 15.808ZM84.4505 9.508L85.5985 9.34C86.0652 9.34 86.3265 9.62933 86.3825 10.208C86.3825 10.712 85.7758 11.0387 84.5625 11.188C83.7972 11.7853 83.4145 12.5507 83.4145 13.484V14.408C83.7878 16.4613 84.4225 17.488 85.3185 17.488H85.5985C86.1212 17.488 86.9052 16.9933 87.9505 16.004H88.1185C88.4918 16.004 88.7905 16.2653 89.0145 16.788C88.7532 17.5907 87.9132 18.3187 86.4945 18.972C86.2332 19.084 85.9065 19.14 85.5145 19.14C83.5918 19.14 82.3412 17.628 81.7625 14.604V13.988C81.7625 11.804 82.6585 10.3107 84.4505 9.508ZM91.8545 4.188H92.0225C92.2652 4.188 92.4985 4.39333 92.7225 4.804L92.6105 6.708V7.772L92.7225 12.672L92.8065 12.952H92.8905C93.6932 12.2053 94.3932 10.8893 94.9905 9.004L95.6065 8.808C96.1292 8.88267 96.3905 9.116 96.3905 9.508C96.3905 10.7213 95.5225 12.3547 93.7865 14.408V14.604C96.0825 17.2733 97.5945 18.608 98.3225 18.608H98.4905L99.1905 18.188H99.4425C99.8345 18.188 100.124 18.4493 100.311 18.972C100.311 19.5693 99.6479 19.98 98.3225 20.204C96.9972 20.204 95.2705 18.86 93.1425 16.172H92.8905L92.9745 17.684V19.14C92.8625 19.7187 92.5732 20.008 92.1065 20.008C91.5839 19.896 91.3225 19.6067 91.3225 19.14V18.972L91.2105 15.752C91.0052 15.752 90.8652 15.4627 90.7905 14.884L91.1545 14.184L90.9865 7.884V6.652C90.9865 5.00933 91.2759 4.188 91.8545 4.188ZM103.583 8.948C104.33 8.96667 105.59 10.2733 107.363 12.868L107.419 13.344C107.419 13.8667 106.141 14.268 103.583 14.548L103.499 14.632V14.744C103.891 16.424 104.302 17.264 104.731 17.264H105.067C105.665 17.264 106.57 16.62 107.783 15.332H107.951C108.325 15.332 108.614 15.6027 108.819 16.144C108.819 16.592 108.035 17.3667 106.467 18.468C106.057 18.7107 105.562 18.888 104.983 19C103.471 19 102.417 17.5813 101.819 14.744C100.961 14.6133 100.531 14.2587 100.531 13.68C100.531 13.2693 100.849 12.9987 101.483 12.868V12.98L101.763 12.868V12.168C101.763 10.0213 102.37 8.948 103.583 8.948ZM103.751 10.964H103.499L103.387 12V12.868H103.499C104.545 12.8307 105.067 12.7187 105.067 12.532C104.582 11.804 104.143 11.2813 103.751 10.964ZM113.591 7.968C114.767 7.968 115.467 8.78933 115.691 10.432V10.684C115.691 12.4947 114.758 14.156 112.891 15.668C113.974 16.732 115.869 17.264 118.575 17.264C118.986 17.3947 119.191 17.684 119.191 18.132C119.191 18.636 118.865 18.888 118.211 18.888C116.382 18.888 114.459 18.4213 112.443 17.488V18.3C112.443 20.2227 112.033 21.184 111.211 21.184C110.633 21.184 110.343 20.0733 110.343 17.852V15.668L110.259 14.884L110.455 13.988L110.259 11.3V11.188C110.259 10.684 110.521 10.3387 111.043 10.152C111.771 8.696 112.621 7.968 113.591 7.968ZM112.191 14.1C112.733 14.1 113.339 13.1293 114.011 11.188V9.984L113.675 9.62H113.423C112.602 10.18 112.191 11.6733 112.191 14.1Z" fill="#192729"/>
</svg>
