<svg width="290" height="52" viewBox="0 0 290 52" fill="none" xmlns="http://www.w3.org/2000/svg">
<mask id="path-1-inside-1_127_5062" fill="white">
<path d="M0 8C0 3.58172 3.58172 0 8 0H282C286.418 0 290 3.58172 290 8V44C290 48.4183 286.418 52 282 52H8C3.58173 52 0 48.4183 0 44V8Z"/>
</mask>
<path d="M0 8C0 3.58172 3.58172 0 8 0H282C286.418 0 290 3.58172 290 8V44C290 48.4183 286.418 52 282 52H8C3.58173 52 0 48.4183 0 44V8Z" fill="#192729"/>
<path d="M8 1H282V-1H8V1ZM289 8V44H291V8H289ZM282 51H8V53H282V51ZM1 44V8H-1V44H1ZM8 51C4.13401 51 1 47.866 1 44H-1C-1 48.9706 3.02944 53 8 53V51ZM289 44C289 47.866 285.866 51 282 51V53C286.971 53 291 48.9706 291 44H289ZM282 1C285.866 1 289 4.13401 289 8H291C291 3.02944 286.971 -1 282 -1V1ZM8 -1C3.02944 -1 -1 3.02944 -1 8H1C1 4.13401 4.13401 1 8 1V-1Z" fill="#2C2C2C" mask="url(#path-1-inside-1_127_5062)"/>
<path d="M85.636 33.428V34H81.456V33.428L82.644 33.296C82.8053 33.2813 82.9227 33.2593 82.996 33.23C83.0693 33.186 83.1353 33.098 83.194 32.966C83.2673 32.8193 83.3553 32.57 83.458 32.218L87.704 19.04H89.09L93.38 32.218C93.4827 32.57 93.5633 32.8193 93.622 32.966C93.6953 33.098 93.7687 33.186 93.842 33.23C93.9153 33.2593 94.0253 33.2813 94.172 33.296L95.382 33.428V34H90.036V33.428L91.246 33.296C91.4807 33.2667 91.6053 33.208 91.62 33.12C91.6493 33.0173 91.5833 32.7167 91.422 32.218L90.52 29.402H85.152L84.25 32.218C84.0887 32.7167 84.0153 33.0173 84.03 33.12C84.0593 33.208 84.1913 33.2667 84.426 33.296L85.636 33.428ZM85.372 28.698H90.3L87.836 21.042L85.372 28.698ZM107.415 33.45V34H104.027V32.262C103.573 32.9367 103.067 33.4353 102.509 33.758C101.967 34.066 101.358 34.22 100.683 34.22C99.4222 34.22 98.4395 33.7507 97.7355 32.812C97.0462 31.8587 96.7015 30.5167 96.7015 28.786V28.346C96.7015 26.6887 97.1048 25.3687 97.9115 24.386C98.7328 23.3887 99.8548 22.89 101.277 22.89C102.319 22.89 103.199 23.2127 103.917 23.858V19.502C103.917 18.9887 103.895 18.688 103.851 18.6C103.807 18.512 103.668 18.4533 103.433 18.424L102.223 18.314V17.72H105.721V32.218C105.721 32.7313 105.743 33.032 105.787 33.12C105.831 33.208 105.971 33.2667 106.205 33.296L107.415 33.45ZM98.6815 29.446C98.6815 30.8247 98.8795 31.8367 99.2755 32.482C99.6862 33.1273 100.251 33.45 100.969 33.45C101.439 33.45 101.923 33.3033 102.421 33.01C102.92 32.7167 103.419 32.1227 103.917 31.228V24.936C103.272 24.0707 102.429 23.638 101.387 23.638C100.449 23.638 99.7595 23.9973 99.3195 24.716C98.8942 25.4347 98.6815 26.4247 98.6815 27.686V29.446ZM120.177 33.45V34H116.789V32.262C116.335 32.9367 115.829 33.4353 115.271 33.758C114.729 34.066 114.12 34.22 113.445 34.22C112.184 34.22 111.201 33.7507 110.497 32.812C109.808 31.8587 109.463 30.5167 109.463 28.786V28.346C109.463 26.6887 109.867 25.3687 110.673 24.386C111.495 23.3887 112.617 22.89 114.039 22.89C115.081 22.89 115.961 23.2127 116.679 23.858V19.502C116.679 18.9887 116.657 18.688 116.613 18.6C116.569 18.512 116.43 18.4533 116.195 18.424L114.985 18.314V17.72H118.483V32.218C118.483 32.7313 118.505 33.032 118.549 33.12C118.593 33.208 118.733 33.2667 118.967 33.296L120.177 33.45ZM111.443 29.446C111.443 30.8247 111.641 31.8367 112.037 32.482C112.448 33.1273 113.013 33.45 113.731 33.45C114.201 33.45 114.685 33.3033 115.183 33.01C115.682 32.7167 116.181 32.1227 116.679 31.228V24.936C116.034 24.0707 115.191 23.638 114.149 23.638C113.211 23.638 112.521 23.9973 112.081 24.716C111.656 25.4347 111.443 26.4247 111.443 27.686V29.446ZM135.613 34.154C134.469 34.154 133.795 33.626 133.589 32.57C133.076 33.1567 132.511 33.582 131.895 33.846C131.279 34.0953 130.671 34.22 130.069 34.22C129.043 34.22 128.287 33.934 127.803 33.362C127.319 32.79 127.077 32.1007 127.077 31.294C127.077 30.4287 127.371 29.7467 127.957 29.248C128.559 28.7347 129.593 28.478 131.059 28.478H133.545V26.696C133.545 25.5227 133.34 24.716 132.929 24.276C132.533 23.8213 131.991 23.594 131.301 23.594C130.861 23.594 130.465 23.682 130.113 23.858C129.761 24.034 129.505 24.3567 129.343 24.826C129.197 25.2807 129.182 25.948 129.299 26.828L127.561 26.564C127.488 25.8747 127.576 25.2587 127.825 24.716C128.089 24.1587 128.515 23.7187 129.101 23.396C129.703 23.0587 130.451 22.89 131.345 22.89C132.416 22.89 133.237 23.0733 133.809 23.44C134.381 23.792 134.777 24.254 134.997 24.826C135.232 25.398 135.349 26.0213 135.349 26.696V31.646C135.349 32.394 135.43 32.8633 135.591 33.054C135.767 33.2447 135.958 33.34 136.163 33.34C136.295 33.34 136.435 33.3107 136.581 33.252C136.728 33.1787 136.889 33.0687 137.065 32.922L137.461 33.472C137.241 33.6627 136.977 33.824 136.669 33.956C136.376 34.088 136.024 34.154 135.613 34.154ZM130.685 33.296C131.096 33.296 131.536 33.186 132.005 32.966C132.489 32.7313 133.003 32.2693 133.545 31.58V29.182H131.301C130.48 29.182 129.879 29.3507 129.497 29.688C129.131 30.0107 128.947 30.5167 128.947 31.206C128.947 31.866 129.087 32.3793 129.365 32.746C129.659 33.1127 130.099 33.296 130.685 33.296ZM148.057 29.556L146.715 29.226C144.881 28.7567 143.965 27.7007 143.965 26.058C143.965 25.5153 144.089 25.002 144.339 24.518C144.588 24.034 144.984 23.6453 145.527 23.352C146.084 23.044 146.795 22.89 147.661 22.89C148.629 22.89 149.406 23.0513 149.993 23.374C150.579 23.6967 150.99 24.1147 151.225 24.628C151.459 25.1413 151.533 25.6987 151.445 26.3L149.729 26.608C149.905 25.6547 149.802 24.914 149.421 24.386C149.054 23.858 148.445 23.594 147.595 23.594C146.935 23.594 146.407 23.7627 146.011 24.1C145.615 24.4227 145.417 24.8993 145.417 25.53C145.417 25.9993 145.563 26.4173 145.857 26.784C146.15 27.136 146.641 27.4 147.331 27.576L148.717 27.906C149.685 28.1407 150.433 28.5147 150.961 29.028C151.503 29.5413 151.775 30.216 151.775 31.052C151.775 31.9907 151.43 32.7533 150.741 33.34C150.066 33.9267 149.098 34.22 147.837 34.22C147.235 34.22 146.649 34.132 146.077 33.956C145.519 33.7653 145.028 33.472 144.603 33.076C144.192 32.6653 143.891 32.1373 143.701 31.492L144.933 31.052C145.094 31.976 145.446 32.6213 145.989 32.988C146.531 33.3547 147.155 33.538 147.859 33.538C148.269 33.538 148.658 33.472 149.025 33.34C149.406 33.208 149.714 33.0027 149.949 32.724C150.183 32.4307 150.301 32.0567 150.301 31.602C150.301 31.1327 150.139 30.7293 149.817 30.392C149.494 30.0547 148.907 29.776 148.057 29.556ZM158.982 23.594C158.176 23.594 157.545 23.9313 157.09 24.606C156.65 25.266 156.43 26.3587 156.43 27.884V29.204C156.43 30.744 156.65 31.8513 157.09 32.526C157.545 33.186 158.278 33.516 159.29 33.516C159.98 33.516 160.537 33.34 160.962 32.988C161.388 32.636 161.674 32.0273 161.82 31.162L162.986 31.492C162.722 32.4893 162.238 33.1933 161.534 33.604C160.83 34.0147 160.046 34.22 159.18 34.22C157.596 34.22 156.408 33.7287 155.616 32.746C154.839 31.7487 154.45 30.4213 154.45 28.764V28.324C154.45 26.6813 154.839 25.3687 155.616 24.386C156.394 23.3887 157.516 22.89 158.982 22.89C159.921 22.89 160.698 23.0733 161.314 23.44C161.945 23.8067 162.392 24.3053 162.656 24.936C162.92 25.552 162.994 26.234 162.876 26.982L161.138 27.246C161.3 26.0727 161.19 25.1707 160.808 24.54C160.442 23.9093 159.833 23.594 158.982 23.594ZM177.021 33.428V34H171.829V33.428L173.039 33.296C173.274 33.2667 173.413 33.208 173.457 33.12C173.501 33.032 173.523 32.7313 173.523 32.218V26.74C173.523 25.6547 173.347 24.892 172.995 24.452C172.643 23.9973 172.145 23.77 171.499 23.77C171.001 23.77 170.458 23.9167 169.871 24.21C169.285 24.5033 168.735 25.0827 168.221 25.948V32.218C168.221 32.7313 168.243 33.032 168.287 33.12C168.331 33.208 168.471 33.2667 168.705 33.296L169.915 33.428V34H164.723V33.428L165.933 33.296C166.168 33.2667 166.307 33.208 166.351 33.12C166.395 33.032 166.417 32.7313 166.417 32.218V19.502C166.417 18.9887 166.395 18.688 166.351 18.6C166.307 18.512 166.168 18.4533 165.933 18.424L164.723 18.314V17.72H168.221V24.782C168.735 24.122 169.321 23.6453 169.981 23.352C170.641 23.044 171.294 22.89 171.939 22.89C173.025 22.89 173.861 23.2273 174.447 23.902C175.034 24.562 175.327 25.5007 175.327 26.718V32.218C175.327 32.7313 175.349 33.032 175.393 33.12C175.437 33.208 175.577 33.2667 175.811 33.296L177.021 33.428ZM188.425 28.324V28.764C188.425 30.4213 188.007 31.7487 187.171 32.746C186.35 33.7287 185.176 34.22 183.651 34.22C182.14 34.22 180.967 33.7287 180.131 32.746C179.31 31.7487 178.899 30.4213 178.899 28.764V28.324C178.899 26.6813 179.31 25.3687 180.131 24.386C180.952 23.3887 182.126 22.89 183.651 22.89C185.176 22.89 186.35 23.3887 187.171 24.386C188.007 25.3687 188.425 26.6813 188.425 28.324ZM186.445 27.884C186.445 26.3587 186.203 25.266 185.719 24.606C185.25 23.9313 184.56 23.594 183.651 23.594C182.756 23.594 182.067 23.9313 181.583 24.606C181.114 25.266 180.879 26.3587 180.879 27.884V29.204C180.879 30.744 181.114 31.8513 181.583 32.526C182.067 33.186 182.756 33.516 183.651 33.516C184.56 33.516 185.25 33.186 185.719 32.526C186.203 31.8513 186.445 30.744 186.445 29.204V27.884ZM200.671 28.324V28.764C200.671 30.4213 200.253 31.7487 199.417 32.746C198.596 33.7287 197.423 34.22 195.897 34.22C194.387 34.22 193.213 33.7287 192.377 32.746C191.556 31.7487 191.145 30.4213 191.145 28.764V28.324C191.145 26.6813 191.556 25.3687 192.377 24.386C193.199 23.3887 194.372 22.89 195.897 22.89C197.423 22.89 198.596 23.3887 199.417 24.386C200.253 25.3687 200.671 26.6813 200.671 28.324ZM198.691 27.884C198.691 26.3587 198.449 25.266 197.965 24.606C197.496 23.9313 196.807 23.594 195.897 23.594C195.003 23.594 194.313 23.9313 193.829 24.606C193.36 25.266 193.125 26.3587 193.125 27.884V29.204C193.125 30.744 193.36 31.8513 193.829 32.526C194.313 33.186 195.003 33.516 195.897 33.516C196.807 33.516 197.496 33.186 197.965 32.526C198.449 31.8513 198.691 30.744 198.691 29.204V27.884ZM202.643 18.314V17.72H206.141V32.218C206.141 32.7313 206.163 33.032 206.207 33.12C206.251 33.208 206.391 33.2667 206.625 33.296L207.835 33.428V34H202.643V33.428L203.853 33.296C204.088 33.2667 204.227 33.208 204.271 33.12C204.315 33.032 204.337 32.7313 204.337 32.218V19.502C204.337 18.9887 204.315 18.688 204.271 18.6C204.227 18.512 204.088 18.4533 203.853 18.424L202.643 18.314Z" fill="#F5F5F5"/>
</svg>
