<svg width="366" height="356" viewBox="0 0 366 356" fill="none" xmlns="http://www.w3.org/2000/svg">
<path fill-rule="evenodd" clip-rule="evenodd" d="M172.654 291.739C120.883 280.409 51.9032 257.923 63.2385 180.771C74.5738 103.619 123.165 73.8716 183.28 73.8716C243.393 73.8716 311.692 119.225 298.284 213.178C284.877 307.132 224.426 303.07 172.654 291.739ZM342.823 198.738C344.961 177.27 342.69 156.029 336.588 136.117L353.997 126.791C356.931 125.22 358.035 121.569 356.466 118.635L332.699 74.2622C331.125 71.3288 327.473 70.2248 324.539 71.7959L307.13 81.1213C293.933 65.0121 277.509 51.3518 258.457 41.2357L264.168 22.34C265.133 19.1546 263.331 15.7922 260.145 14.8292L211.961 0.259419C208.775 -0.703552 205.415 1.09769 204.45 4.28302L198.739 23.1787C177.268 21.0415 161.625 28.9092 141.713 35.0072L132.387 17.598C130.816 14.6645 127.164 13.5605 124.231 15.1316L79.8585 38.9006C76.925 40.4717 75.821 44.1232 77.3921 47.0562L86.7175 64.4659C70.6083 77.6629 51.3518 88.4905 41.2356 107.546L22.3394 101.832C19.1546 100.869 15.7916 102.67 14.8287 105.855L0.259422 154.039C-0.703548 157.224 1.09769 160.587 4.28252 161.55L23.1787 167.264C21.0415 188.731 23.3128 209.973 29.4108 229.885L12.0016 239.21C9.06817 240.782 7.96417 244.433 9.53531 247.366L33.3042 291.739C34.8754 294.672 38.5268 295.777 41.4598 294.205L58.8694 284.88C72.0665 300.989 88.4904 314.65 107.545 324.766L101.832 343.662C100.869 346.846 102.67 350.209 105.855 351.172L154.04 365.74C157.222 366.705 160.586 364.903 161.551 361.717L167.262 342.823C188.728 344.96 209.972 342.688 229.885 336.59L239.208 354C240.781 356.933 244.433 358.035 247.368 356.466L291.74 332.697C294.67 331.126 295.778 327.474 294.205 324.541L284.877 307.132C300.989 293.934 314.647 277.51 324.766 258.455L343.66 264.169C346.846 265.132 350.211 263.331 351.171 260.146L365.74 211.962C366.705 208.777 364.903 205.414 361.717 204.451L342.823 198.738Z" fill="#8AD1D7"/>
</svg>
