<svg width="38" height="38" viewBox="0 0 38 38" fill="none" xmlns="http://www.w3.org/2000/svg">
<g filter="url(#filter0_d_72_122)">
<path d="M4 10C4 4.47715 8.47715 0 14 0H24C29.5228 0 34 4.47715 34 10V20C34 25.5228 29.5228 30 24 30H14C8.47715 30 4 25.5228 4 20V10Z" fill="#246068"/>
</g>
<path d="M16.017 13.7784L18.659 16.4205L27.4659 7.61365M26.5852 14.6591V20.8239C26.5852 21.291 26.3996 21.739 26.0693 22.0694C25.739 22.3997 25.291 22.5852 24.8238 22.5852H12.4943C12.0271 22.5852 11.5791 22.3997 11.2488 22.0694C10.9185 21.739 10.7329 21.291 10.7329 20.8239V8.49433C10.7329 8.02719 10.9185 7.57918 11.2488 7.24886C11.5791 6.91854 12.0271 6.73297 12.4943 6.73297H22.1818" stroke="white" stroke-linecap="round" stroke-linejoin="round"/>
<defs>
<filter id="filter0_d_72_122" x="0" y="0" width="38" height="38" filterUnits="userSpaceOnUse" color-interpolation-filters="sRGB">
<feFlood flood-opacity="0" result="BackgroundImageFix"/>
<feColorMatrix in="SourceAlpha" type="matrix" values="0 0 0 0 0 0 0 0 0 0 0 0 0 0 0 0 0 0 127 0" result="hardAlpha"/>
<feOffset dy="4"/>
<feGaussianBlur stdDeviation="2"/>
<feComposite in2="hardAlpha" operator="out"/>
<feColorMatrix type="matrix" values="0 0 0 0 0 0 0 0 0 0 0 0 0 0 0 0 0 0 0.25 0"/>
<feBlend mode="normal" in2="BackgroundImageFix" result="effect1_dropShadow_72_122"/>
<feBlend mode="normal" in="SourceGraphic" in2="effect1_dropShadow_72_122" result="shape"/>
</filter>
</defs>
</svg>
