<svg width="52" height="52" viewBox="0 0 52 52" fill="none" xmlns="http://www.w3.org/2000/svg">
<g filter="url(#filter0_d_70_216)">
<path d="M4 10C4 4.47715 8.47715 0 14 0H38C43.5228 0 48 4.47715 48 10V34C48 39.5228 43.5228 44 38 44H14C8.47715 44 4 39.5228 4 34V10Z" fill="#8AD1D7"/>
</g>
<path d="M25.5 31.8333H37.125M31.3125 10.5208C31.8264 10.007 32.5233 9.71829 33.25 9.71829C33.6098 9.71829 33.9661 9.78917 34.2986 9.92687C34.631 10.0646 34.9331 10.2664 35.1875 10.5208C35.4419 10.7753 35.6438 11.0773 35.7815 11.4098C35.9192 11.7422 35.99 12.0985 35.99 12.4583C35.99 12.8182 35.9192 13.1745 35.7815 13.5069C35.6438 13.8393 35.4419 14.1414 35.1875 14.3958L19.0417 30.5417L13.875 31.8333L15.1667 26.6667L31.3125 10.5208Z" stroke="white" stroke-linecap="round" stroke-linejoin="round"/>
<defs>
<filter id="filter0_d_70_216" x="0" y="0" width="52" height="52" filterUnits="userSpaceOnUse" color-interpolation-filters="sRGB">
<feFlood flood-opacity="0" result="BackgroundImageFix"/>
<feColorMatrix in="SourceAlpha" type="matrix" values="0 0 0 0 0 0 0 0 0 0 0 0 0 0 0 0 0 0 127 0" result="hardAlpha"/>
<feOffset dy="4"/>
<feGaussianBlur stdDeviation="2"/>
<feComposite in2="hardAlpha" operator="out"/>
<feColorMatrix type="matrix" values="0 0 0 0 0 0 0 0 0 0 0 0 0 0 0 0 0 0 0.25 0"/>
<feBlend mode="normal" in2="BackgroundImageFix" result="effect1_dropShadow_70_216"/>
<feBlend mode="normal" in="SourceGraphic" in2="effect1_dropShadow_70_216" result="shape"/>
</filter>
</defs>
</svg>
