<svg width="111" height="24" viewBox="0 0 111 24" fill="none" xmlns="http://www.w3.org/2000/svg">
<path d="M10.208 1.536C10.592 1.536 10.8587 1.86667 11.008 2.528C11.008 2.912 10.336 3.44533 8.992 4.128C7.328 5.57867 6.09067 8.07467 5.28 11.616V12.192C7.136 11.2747 8.46933 10.72 9.28 10.528C9.536 10.528 9.84533 10.752 10.208 11.2V11.808C10.208 12.0427 9.26933 12.512 7.392 13.216C5.984 13.984 5.28 14.4213 5.28 14.528V14.816C5.28 16.0107 6.048 17.0453 7.584 17.92L8.672 18.112C9.376 18.112 10.4213 17.6747 11.808 16.8H12.192C12.64 17.0133 12.864 17.3227 12.864 17.728V17.92C11.5413 19.3067 10.08 20 8.48 20C6.19733 20 4.53333 18.464 3.488 15.392L1.472 15.808C0.490667 15.6587 0 15.3387 0 14.848C0 14.3573 0.288 14.0053 0.864 13.792L1.6 13.92C2.70933 13.6 3.264 13.3653 3.264 13.216C3.264 9.58933 4.64 6.22933 7.392 3.136C8.77867 2.06933 9.71733 1.536 10.208 1.536ZM21.878 2.432C22.2407 2.432 22.5713 2.77333 22.87 3.456L21.462 12.352V14.848C21.462 17.4507 21.8673 18.752 22.678 18.752C23.2113 19.008 23.478 19.3493 23.478 19.776C23.478 20.2667 23.0513 20.5547 22.198 20.64C21.2593 20.64 20.5233 19.776 19.99 18.048H19.67C18.8807 19.776 17.9207 20.64 16.79 20.64C15.4673 20.64 14.6673 19.6373 14.39 17.632C14.39 15.3067 15.9473 12.8427 19.062 10.24C19.6807 10.24 19.99 9.376 19.99 7.648C20.4593 4.17067 21.0887 2.432 21.878 2.432ZM16.278 17.376V18.24L16.79 18.752H16.982C17.6647 18.752 18.4647 16.6933 19.382 12.576H19.19C17.2487 14.5173 16.278 16.1173 16.278 17.376ZM24.992 3.328C25.8027 3.49867 26.208 3.86133 26.208 4.416C25.9947 5.01333 25.6533 5.312 25.184 5.312C24.3947 5.16267 24 4.768 24 4.128C24.2133 3.59467 24.544 3.328 24.992 3.328ZM26.208 7.808C26.5493 7.808 26.8373 8.11733 27.072 8.736L26.784 11.008V12.512C26.784 14.2613 27.0827 16.5547 27.68 19.392C27.4667 19.7973 27.104 20 26.592 20C25.7173 20 25.1413 17.44 24.864 12.32V11.2C24.864 8.93867 25.312 7.808 26.208 7.808ZM33.1028 0.575998C33.7001 0.703999 33.9988 1.00267 33.9988 1.472L33.8068 2.88V3.296C33.8068 4.23467 33.9134 5.22667 34.1268 6.272H34.1908C36.6654 5.52533 38.2014 5.152 38.7988 5.152C39.4174 5.32267 39.7268 5.632 39.7268 6.08C39.7268 6.80533 38.9908 7.168 37.5188 7.168L34.1908 8.352C34.1908 11.232 34.5001 15.1467 35.1188 20.096C34.9908 20.672 34.6814 20.96 34.1908 20.96H34.1268C33.3801 20.96 33.0068 20 33.0068 18.08C32.7294 16.6507 32.4948 13.5467 32.3028 8.768H31.7268C29.7214 8.64 28.7188 8.17067 28.7188 7.36C28.7188 7.12533 28.9428 6.83733 29.3908 6.496H29.7108L31.1828 6.88H32.2068L31.9188 2.88C31.9188 1.344 32.3134 0.575998 33.1028 0.575998ZM62.4603 1.056H62.7803C63.3776 1.056 63.7189 1.408 63.8043 2.112C63.8043 2.73067 62.9616 3.04 61.2763 3.04C58.5669 4.064 56.7429 5.55733 55.8043 7.52L55.5803 8.448V8.64C55.5803 9.57867 56.2096 10.048 57.4683 10.048L60.9883 9.856C63.3563 9.856 64.9563 11.008 65.7883 13.312L65.9803 14.432C65.9803 16.6507 64.1883 18.6773 60.6042 20.512C59.5376 20.8107 58.5989 21.0133 57.7883 21.12C55.6123 21.12 54.0763 19.8933 53.1803 17.44C52.9243 16.608 52.7963 15.7653 52.7963 14.912C52.7963 14.656 52.9989 14.3893 53.4043 14.112H53.7883C54.4496 14.112 54.7803 14.9547 54.7803 16.64C55.3349 18.304 56.2096 19.136 57.4043 19.136H58.2683C59.9963 19.136 61.7029 18.1333 63.3883 16.128C63.8363 15.488 64.0603 14.7947 64.0603 14.048C64.0603 13.0027 63.2389 12.2667 61.5963 11.84H61.4683L57.2763 11.936C54.9509 11.6587 53.7883 10.6987 53.7883 9.056L53.6603 8.64C53.6603 6.44267 55.3029 4.30933 58.5883 2.24C60.0176 1.45067 61.3083 1.056 62.4603 1.056ZM70.5908 9.152L71.9028 8.96C72.4361 8.96 72.7348 9.29067 72.7988 9.952C72.7988 10.528 72.1054 10.9013 70.7188 11.072C69.8441 11.7547 69.4068 12.6293 69.4068 13.696V14.752C69.8334 17.0987 70.5588 18.272 71.5828 18.272H71.9028C72.5001 18.272 73.3961 17.7067 74.5908 16.576H74.7828C75.2094 16.576 75.5508 16.8747 75.8068 17.472C75.5081 18.3893 74.5481 19.2213 72.9268 19.968C72.6281 20.096 72.2548 20.16 71.8068 20.16C69.6094 20.16 68.1801 18.432 67.5188 14.976V14.272C67.5188 11.776 68.5428 10.0693 70.5908 9.152ZM78.7645 2.336C79.3618 2.336 79.6605 3.06133 79.6605 4.512L80.0445 10.016H80.1725L81.7725 9.408C83.5645 9.408 84.6525 11.2427 85.0365 14.912C85.1858 15.9573 85.2605 17.4933 85.2605 19.52V22.112C85.2605 22.9227 84.9618 23.328 84.3645 23.328H84.2365C83.6605 23.2427 83.3725 22.9333 83.3725 22.4V19.392C83.3725 14.5707 82.9032 11.904 81.9645 11.392H81.7725C81.1325 11.392 80.6632 12.3733 80.3645 14.336V16.128C80.3645 19.328 80.0978 20.928 79.5645 20.928L78.9565 20.992C78.3592 20.992 78.0605 20.1067 78.0605 18.336C78.1245 16.4587 78.2525 14.9227 78.4445 13.728L77.7725 3.2C77.7725 2.64533 78.1032 2.35733 78.7645 2.336ZM91.8843 7.936C93.4629 7.936 94.6576 9.10933 95.4683 11.456L95.5963 12.128C95.5963 14.4107 94.5296 16.7467 92.3963 19.136C91.5429 19.9253 90.6789 20.32 89.8043 20.32C88.5243 20.32 87.6176 19.584 87.0843 18.112C86.8923 17.4293 86.7963 16.832 86.7963 16.32V15.936C86.7963 12.5653 88.0229 10.0053 90.4763 8.256C90.9029 8.04267 91.3723 7.936 91.8843 7.936ZM88.6843 16.256C88.6843 17.7067 89.0576 18.432 89.8043 18.432C91.3616 18.432 92.6523 16.4373 93.6763 12.448V11.84C93.3136 10.5173 92.6416 9.856 91.6603 9.856C91.2763 9.856 91.0843 10.1227 91.0843 10.656C91.0843 11.0187 90.6576 11.3067 89.8043 11.52C89.0576 12.7787 88.6843 14.3573 88.6843 16.256ZM102.134 7.936C103.713 7.936 104.908 9.10933 105.718 11.456L105.846 12.128C105.846 14.4107 104.78 16.7467 102.646 19.136C101.793 19.9253 100.929 20.32 100.054 20.32C98.7743 20.32 97.8676 19.584 97.3343 18.112C97.1423 17.4293 97.0463 16.832 97.0463 16.32V15.936C97.0463 12.5653 98.2729 10.0053 100.726 8.256C101.153 8.04267 101.622 7.936 102.134 7.936ZM98.9343 16.256C98.9343 17.7067 99.3076 18.432 100.054 18.432C101.612 18.432 102.902 16.4373 103.926 12.448V11.84C103.564 10.5173 102.892 9.856 101.91 9.856C101.526 9.856 101.334 10.1227 101.334 10.656C101.334 11.0187 100.908 11.3067 100.054 11.52C99.3076 12.7787 98.9343 14.3573 98.9343 16.256ZM109.088 2.368C109.686 2.58133 109.984 2.912 109.984 3.36L110.304 15.552V19.488C110.304 20.2133 109.995 20.576 109.376 20.576H108.96C108.576 20.32 108.384 20.0213 108.384 19.68V15.968L108.096 3.296C108.096 2.76267 108.427 2.45333 109.088 2.368Z" fill="#192729"/>
</svg>
