<svg width="248" height="345" viewBox="0 0 248 345" fill="none" xmlns="http://www.w3.org/2000/svg">
<path fill-rule="evenodd" clip-rule="evenodd" d="M177.516 -4.57118C175.951 8.21638 176.056 41.4639 178.35 45.7606C183.669 56.1952 188.779 48.0111 189.926 27.3465C190.865 9.34165 191.699 0.646117 191.803 -3.95738C192.22 -14.1874 178.558 -13.369 177.516 -4.57118ZM247.285 -1.70675C239.985 1.15768 199.208 73.8932 199.208 84.1232C199.208 86.9876 203.692 87.9083 207.134 85.6577C210.575 83.407 218.814 70.9264 228.93 52.4101C240.193 31.95 252.187 10.6716 255.107 6.17032C259.696 -0.990714 255.733 -4.98041 247.285 -1.70675ZM110.04 13.9451C108.163 15.2751 108.476 15.8889 114.108 26.4258C135.591 66.1183 136.738 70.8242 147.376 69.4942C155.406 68.4712 155.406 67.9597 144.56 48.318C132.15 25.6074 125.371 14.8658 122.972 13.6382C120.261 12.1037 112.335 12.3084 110.04 13.9451ZM283.161 20.5947C277.112 23.0499 245.095 60.2872 245.095 64.8907C245.095 73.4839 260.947 61.3102 289.209 31.1316C297.657 22.0269 294.32 16.0934 283.161 20.5947ZM69.1588 40.8501C59.6685 42.6916 73.7475 59.5711 84.8022 59.5711C93.6668 59.5711 93.9797 55.4791 85.7408 47.8066C80.8392 43.1007 75.9376 39.5202 69.1588 40.8501ZM320.601 55.5814C314.76 58.6504 307.356 65.1976 294.32 73.6885C278.885 83.714 262.511 95.0693 257.61 99.2636C249.162 106.425 256.15 108.266 266.683 101.514C270.229 99.2636 280.971 92.7164 290.565 87.0898C313.405 73.5863 336.766 58.5481 336.766 57.5251C336.87 53.5353 326.858 52.3077 320.601 55.5814ZM178.558 61.8217C176.681 63.6631 176.994 73.3816 178.976 75.3253C186.067 82.2818 195.245 69.6988 188.674 62.0263C187.214 60.2872 180.227 60.1849 178.558 61.8217ZM93.2497 71.2333C90.7468 72.9725 91.7896 74.4046 108.372 91.7957C127.874 112.256 129.647 113.279 138.094 109.494C141.953 107.754 141.536 106.936 133.192 97.6268C111.813 73.9954 100.133 66.3229 93.2497 71.2333ZM34.0132 93.6371C30.1545 96.5015 32.5532 97.9337 56.3312 107.141C80.2135 116.348 93.2497 122.895 111.5 134.455C121.825 141.002 139.033 141.309 133.61 134.762C121.304 120.44 42.0436 87.6014 34.0132 93.6371ZM324.355 112.87C266.683 133.125 262.199 135.273 266.162 139.161C268.039 141.002 270.855 140.695 282.744 137.217C360.543 114.506 362.004 115.325 352.513 108.573C347.612 105.095 345.422 105.402 324.355 112.87ZM229.452 117.064C221.526 123.816 220.796 125.964 225.697 127.294C235.605 129.851 249.475 116.45 249.371 116.552C249.892 116.041 250.31 115.325 250.205 114.609C250.205 113.893 249.788 113.176 249.267 112.665C244.156 108.471 237.795 109.903 229.452 117.064ZM177.203 129.34L175.013 137.524C170.737 153.892 158.952 168.009 149.67 168.009C142.891 168.009 146.959 173.636 154.572 174.864C164.688 176.398 173.657 193.175 174.074 209.543C174.387 220.592 185.859 220.796 188.049 212.817C193.785 192.152 198.478 183.866 210.68 174.659C218.188 169.032 218.293 168.009 211.931 163.815C201.711 157.063 199.312 153.483 193.263 135.887C186.484 116.041 178.871 123.304 177.203 129.34ZM28.6945 136.91C26.6087 138.956 26.6087 141.718 28.7988 146.219C31.5103 151.744 35.2647 152.971 65.7173 157.268C75.729 158.7 88.1395 160.848 93.2497 162.076C103.783 164.634 104.721 164.122 103.992 157.575C103.261 151.437 100.967 149.084 94.2925 147.038C84.3851 144.173 81.8821 143.662 60.7114 140.388C49.5524 138.649 38.602 136.808 36.2033 136.296C30.4675 135.069 30.676 135.069 28.6945 136.91ZM188.257 156.552C190.343 159.621 193.576 162.383 197.852 164.838C204.839 168.828 205.465 169.544 202.336 170.567C199.208 171.59 191.177 178.444 187.527 183.252L184.294 187.549L181.374 182.945C178.454 178.444 171.675 172.817 167.608 171.59C165.731 170.976 166.044 170.465 170.737 166.475C179.914 158.598 182 146.936 183.981 150.311C184.607 151.13 186.484 153.994 188.257 156.552ZM244.261 165.963C239.776 167.703 245.825 177.421 252.187 178.546C263.033 180.592 310.797 180.388 310.797 178.342C310.797 175.375 305.062 169.339 301.098 168.112C295.258 166.373 248.015 164.531 244.261 165.963ZM316.429 169.442C314.343 174.864 323.312 179.774 338.956 181.615C354.808 183.457 356.893 182.331 350.74 175.068C345.526 169.135 318.306 164.634 316.429 169.442ZM110.979 175.887C105.452 181.308 113.065 191.845 122.138 191.334C128.395 191.027 129.96 187.856 127.144 181.206C124.849 175.58 114.733 172.306 110.979 175.887ZM68.8459 180.899C56.0184 183.457 38.0805 186.423 28.1731 187.446C14.7197 188.981 10.4439 190.106 10.4439 192.459C10.4439 196.551 19.3085 201.257 25.4615 200.439C27.7559 200.132 35.7862 199.109 43.295 198.29C73.8518 194.607 94.9183 189.186 92.8325 185.503C89.8081 179.979 81.3606 178.342 68.8459 180.899ZM261.886 206.577C246.972 213.635 264.597 224.991 280.658 218.648C285.664 216.704 281.179 210.771 276.173 208.623C267.934 205.042 265.849 204.735 261.886 206.577ZM227.366 213.84C221.317 215.784 219.648 221.001 224.133 224.479C225.802 225.809 234.875 233.686 244.365 241.972C283.474 276.345 294.841 284.632 299.743 282.483C307.564 279.005 301.724 272.151 260.217 236.96C237.691 217.83 230.495 212.817 227.366 213.84ZM130.585 221.308C124.119 224.479 64.6743 285.246 64.6743 288.621C64.6743 295.169 78.7535 293.327 85.6366 285.859C90.851 280.233 106.807 263.865 129.125 241.461C148.94 221.512 149.67 211.896 130.585 221.308ZM296.51 224.786C293.173 226.218 290.774 230.924 292.755 232.356C319.558 250.77 332.803 254.351 332.803 243.098C332.698 236.755 303.289 221.922 296.51 224.786ZM64.6743 236.653C49.031 244.428 48.6138 244.837 52.6811 247.394C60.3985 252.305 97.4213 236.039 90.2253 230.822C85.8451 227.65 80.1092 228.98 64.6743 236.653ZM182.209 236.858C177.411 240.438 175.638 256.601 187.423 256.806C192.012 256.908 195.453 252.202 195.245 244.325C195.036 236.141 188.257 232.254 182.209 236.858ZM147.689 250.157C140.18 259.159 121.929 289.133 121.929 292.509C121.929 301.511 139.763 281.154 154.572 254.965C160.725 244.325 155.51 240.745 147.689 250.157ZM222.047 250.463C217.771 255.578 255.941 302.023 262.094 299.261C267.517 296.805 265.744 293.736 246.764 272.458C227.053 250.054 224.342 247.701 222.047 250.463ZM182.73 274.197C178.141 277.061 175.013 335.68 179.393 339.055C188.883 346.626 192.95 336.089 192.846 304.171C192.846 275.425 190.76 269.287 182.73 274.197Z" fill="#FFECA3" fill-opacity="0.31"/>
</svg>
