<svg width="155" height="234" viewBox="0 0 155 234" fill="none" xmlns="http://www.w3.org/2000/svg">
<path d="M41.536 94.9136C43.6214 94.9562 43.7063 94.1478 42.0717 90.4889C40.2117 86.3195 38.4645 84.958 37.4217 86.83C36.379 88.7445 39.4787 94.8711 41.536 94.9136Z" fill="#E29000" fill-opacity="0.38"/>
<path d="M31.6444 73.9813C34.378 80.9588 38.9435 81.0439 36.238 74.0239C32.1517 63.5152 26.9099 52.8363 25.2471 51.5173C24.1762 50.709 22.2035 50.709 21.978 51.5173C21.6962 52.7512 25.078 57.1333 31.6444 73.9813Z" fill="#E29000" fill-opacity="0.38"/>
<path d="M5.94179 90.4457C21.2163 97.9762 34.4336 105.592 36.2091 106.443C37.2236 106.911 36.9136 103.848 35.7582 101.976C33.87 98.9122 1.88361 84.5744 1.88361 86.8293C1.88361 87.893 3.2927 89.1693 5.94179 90.4457Z" fill="#E29000" fill-opacity="0.38"/>
<path d="M85.0767 77.6397C86.3449 77.8099 88.7967 73.215 88.1203 71.9386C87.6976 71.1728 85.8658 71.1303 85.2739 71.8536C83.7239 73.8106 83.6112 77.427 85.0767 77.6397Z" fill="#E29000" fill-opacity="0.38"/>
<path d="M34.9976 121.802C33.2785 122.398 26.9095 126.482 12.1704 136.396C3.03945 142.522 2.84218 142.777 4.61763 144.905C6.67491 147.33 6.11127 146.394 28.234 130.226C36.2376 124.398 39.5631 120.228 34.9976 121.802Z" fill="#E29000" fill-opacity="0.38"/>
<path d="M18.5107 116.995C20.4553 117.08 20.6244 116.995 20.7089 116.186C20.8498 114.655 20.1171 114.272 16.0589 113.889C16.0307 113.889 6.47709 112.697 2.19345 112.74C-1.18837 112.74 0.277085 115.378 1.85527 116.016C4.36345 116.952 10.1125 116.654 18.5107 116.995Z" fill="#E29000" fill-opacity="0.38"/>
<path d="M120.276 120.1C118.529 122.313 119.29 123.163 124.081 124.312C127.237 125.078 127.604 121.334 124.504 119.973C121.714 118.739 121.319 118.739 120.276 120.1Z" fill="#E29000" fill-opacity="0.38"/>
<path d="M92.7416 60.9192C97.8143 48.7937 98.2371 47.4748 97.2789 46.9217C96.6307 46.5388 95.1371 46.6664 94.4607 47.1344C93.3052 47.9853 87.9228 63.0469 87.7819 65.8974C87.5846 69.5138 90.2616 66.833 92.7416 60.9192Z" fill="#E29000" fill-opacity="0.38"/>
<path d="M118.556 107.89C119.232 108.315 120.641 108.06 127.489 106.23C147.273 100.955 150.796 101.763 147.329 98.2322C146.061 96.9559 144.483 96.998 137.719 98.5722C118.584 102.954 114.103 105.124 118.556 107.89Z" fill="#E29000" fill-opacity="0.38"/>
<path d="M117.881 90.3188C116.782 89.2127 115.936 89.1276 114.893 89.9359C113.569 90.957 113.428 92.3185 114.583 93.2119C116.894 94.9988 119.938 92.361 117.881 90.3188Z" fill="#E29000" fill-opacity="0.38"/>
<path d="M101.422 85.1283C102.07 85.341 102.747 85.0857 103.254 84.4901C107.791 79.0868 113.231 72.5778 116.951 69.5145C123.686 63.9411 131.267 56.1123 131.267 54.7083C131.267 51.2621 128.392 51.3051 124.729 54.8789C108.806 70.2803 98.858 82.2352 98.4352 83.2563C98.0971 84.0221 100.07 84.7028 101.422 85.1283Z" fill="#E29000" fill-opacity="0.38"/>
<path d="M124.644 84.0221C129.745 83.2562 141.355 76.7468 140.397 74.4068C139.608 72.4922 137.523 72.1519 134.93 73.4282C130.252 75.7682 123.263 80.5333 122.389 81.9799C122.389 81.9799 120.839 84.6177 124.644 84.0221Z" fill="#E29000" fill-opacity="0.38"/>
<path d="M49.3708 135.629C47.9335 134.651 46.9753 134.991 45.7917 136.948C44.2417 139.501 44.3263 139.756 31.419 166.176C28.319 172.516 28.2626 173.112 30.7144 173.75C32.2644 174.133 32.6026 173.622 37.7035 163.454C49.709 139.458 50.8926 136.693 49.3708 135.629Z" fill="#E29000" fill-opacity="0.38"/>
<path d="M69.8298 70.7899C69.3789 67.8117 68.0261 66.0673 67.1807 67.3437C66.8425 67.8543 66.9834 71.6408 67.3779 72.1088C68.5052 73.5553 70.1116 72.7044 69.8298 70.7899Z" fill="#E29000" fill-opacity="0.38"/>
<path d="M83.3857 154.392C83.1602 154.775 83.1884 155.286 83.4702 156.179C84.4566 159.455 86.9651 168.219 87.5851 170.644C88.8532 175.495 90.206 178.728 91.0232 178.856C92.1223 179.026 92.0657 178.643 89.9239 170.73C86.0066 156.222 84.4848 152.435 83.3857 154.392Z" fill="#E29000" fill-opacity="0.38"/>
<path d="M72.4236 141.969C71.1272 141.075 69.8308 141.373 69.4927 142.65C69.0136 144.522 69.1826 185.28 69.6617 186.684C70.2536 188.429 71.6908 188.726 72.5081 187.28C73.1563 186.174 73.1563 185.918 73.1845 176.048C73.2126 170.517 73.2408 164.05 73.2972 161.71C73.5508 150.733 73.1563 142.479 72.4236 141.969Z" fill="#E29000" fill-opacity="0.38"/>
<path d="M89.558 144.01C93.1089 151.754 105.509 176.94 105.537 176.94C107.087 180.089 115.063 188.342 104.072 165.963C98.5762 154.774 94.6586 146.052 91.925 142.606C90.2059 140.521 87.6698 139.926 89.558 144.01Z" fill="#E29000" fill-opacity="0.38"/>
<path d="M137.494 159.54C133.464 155.583 114.132 133.587 110.778 131.46C109.651 130.737 109.369 130.737 108.242 131.46C106.1 132.864 107.03 134.225 119.233 147.414C130.139 159.2 135.775 164.603 138.424 165.624C139.834 166.177 143.272 165.198 137.494 159.54Z" fill="#E29000" fill-opacity="0.38"/>
<path d="M20.8784 150.775C15.7211 156.008 12.9311 160.348 14.4247 160.774C15.6929 161.156 24.4574 152.903 24.6829 151.158C24.9084 149.244 22.5693 149.031 20.8784 150.775Z" fill="#E29000" fill-opacity="0.38"/>
<path d="M154.404 129.291C154.235 128.908 133.803 120.101 131.351 123.802C129.745 126.227 130.252 127.376 133.521 128.524C151.276 134.864 156.828 135.077 154.404 129.291Z" fill="#E29000" fill-opacity="0.38"/>
<path d="M68.112 52.6232C67.0974 46.369 66.4211 44.8799 65.0683 46.1563C64.702 46.4966 64.7302 47.773 65.1811 54.8781C65.3783 57.8137 66.1674 59.3879 67.492 59.3879C69.042 59.4305 69.0983 58.7497 68.112 52.6232Z" fill="#E29000" fill-opacity="0.38"/>
<path d="M30.9394 142.819C29.7839 141.883 28.7128 142.309 27.3603 144.181C25.2185 147.159 27.3039 148.18 30.2349 145.585C31.5876 144.394 31.813 143.5 30.9394 142.819Z" fill="#E29000" fill-opacity="0.38"/>
<path d="M53.8228 72.6201C52.8365 68.6208 48.9474 50.1987 46.7774 47.6034C46.0165 46.7099 45.3119 46.9652 45.3119 48.1139C45.3119 49.2627 50.7228 75.2579 51.371 79.2998C52.0756 83.8521 58.3319 90.8721 53.8228 72.6201Z" fill="#E29000" fill-opacity="0.38"/>
<path d="M52.329 173.24C50.8072 176.006 52.6672 180.005 54.7527 178.516C55.9645 177.622 56.3027 175.112 55.429 173.666C54.6681 172.389 52.9209 172.177 52.329 173.24Z" fill="#E29000" fill-opacity="0.38"/>
<path d="M57.4587 146.947C56.9796 149.244 54.4151 162.774 54.246 163.539C53.7387 165.667 55.6269 167.198 56.8951 165.667C57.6842 164.731 59.9387 149.031 59.9387 144.522C59.9387 140.65 58.4733 142.096 57.4587 146.947Z" fill="#E29000" fill-opacity="0.38"/>
</svg>
