<svg width="440" height="619" viewBox="0 0 440 619" fill="none" xmlns="http://www.w3.org/2000/svg">
<path d="M316.536 524.914C318.621 524.956 318.706 524.148 317.072 520.489C315.212 516.319 313.464 514.958 312.422 516.83C311.379 518.745 314.479 524.871 316.536 524.914Z" fill="#E29000" fill-opacity="0.38"/>
<path d="M306.644 503.981C309.378 510.959 313.944 511.044 311.238 504.024C307.152 493.515 301.91 482.836 300.247 481.517C299.176 480.709 297.204 480.709 296.978 481.517C296.696 482.751 300.078 487.133 306.644 503.981Z" fill="#E29000" fill-opacity="0.38"/>
<path d="M280.942 520.446C296.216 527.976 309.434 535.592 311.209 536.443C312.224 536.911 311.914 533.848 310.758 531.976C308.87 528.912 276.884 514.574 276.884 516.829C276.884 517.893 278.293 519.169 280.942 520.446Z" fill="#E29000" fill-opacity="0.38"/>
<path d="M360.077 507.64C361.345 507.81 363.797 503.215 363.12 501.939C362.698 501.173 360.866 501.13 360.274 501.854C358.724 503.811 358.611 507.427 360.077 507.64Z" fill="#E29000" fill-opacity="0.38"/>
<path d="M309.998 551.802C308.279 552.398 301.909 556.482 287.17 566.396C278.039 572.522 277.842 572.777 279.618 574.905C281.675 577.33 281.111 576.394 303.234 560.226C311.238 554.398 314.563 550.228 309.998 551.802Z" fill="#E29000" fill-opacity="0.38"/>
<path d="M293.511 546.995C295.455 547.08 295.624 546.995 295.709 546.186C295.85 544.655 295.117 544.272 291.059 543.889C291.031 543.889 281.477 542.697 277.193 542.74C273.812 542.74 275.277 545.378 276.855 546.016C279.363 546.952 285.113 546.654 293.511 546.995Z" fill="#E29000" fill-opacity="0.38"/>
<path d="M395.276 550.1C393.529 552.313 394.29 553.163 399.081 554.312C402.237 555.078 402.604 551.334 399.504 549.973C396.714 548.739 396.319 548.739 395.276 550.1Z" fill="#E29000" fill-opacity="0.38"/>
<path d="M367.742 490.919C372.814 478.794 373.237 477.475 372.279 476.922C371.631 476.539 370.137 476.666 369.461 477.134C368.305 477.985 362.923 493.047 362.782 495.897C362.585 499.514 365.262 496.833 367.742 490.919Z" fill="#E29000" fill-opacity="0.38"/>
<path d="M393.556 537.89C394.232 538.315 395.641 538.06 402.489 536.23C422.273 530.955 425.796 531.763 422.329 528.232C421.061 526.956 419.483 526.998 412.719 528.572C393.584 532.954 389.103 535.124 393.556 537.89Z" fill="#E29000" fill-opacity="0.38"/>
<path d="M392.881 520.319C391.782 519.213 390.936 519.128 389.893 519.936C388.569 520.957 388.428 522.318 389.583 523.212C391.894 524.999 394.938 522.361 392.881 520.319Z" fill="#E29000" fill-opacity="0.38"/>
<path d="M376.422 515.128C377.07 515.341 377.747 515.086 378.254 514.49C382.791 509.087 388.231 502.578 391.951 499.515C398.686 493.941 406.267 486.112 406.267 484.708C406.267 481.262 403.392 481.305 399.729 484.879C383.806 500.28 373.858 512.235 373.435 513.256C373.097 514.022 375.07 514.703 376.422 515.128Z" fill="#E29000" fill-opacity="0.38"/>
<path d="M399.644 514.022C404.745 513.256 416.355 506.747 415.397 504.407C414.608 502.492 412.523 502.152 409.93 503.428C405.252 505.768 398.263 510.533 397.389 511.98C397.389 511.98 395.839 514.618 399.644 514.022Z" fill="#E29000" fill-opacity="0.38"/>
<path d="M324.371 565.629C322.934 564.651 321.975 564.991 320.792 566.948C319.242 569.501 319.326 569.756 306.419 596.176C303.319 602.516 303.263 603.112 305.714 603.75C307.264 604.133 307.603 603.622 312.704 593.454C324.709 569.458 325.893 566.693 324.371 565.629Z" fill="#E29000" fill-opacity="0.38"/>
<path d="M344.83 500.79C344.379 497.812 343.026 496.067 342.181 497.344C341.842 497.854 341.983 501.641 342.378 502.109C343.505 503.555 345.112 502.704 344.83 500.79Z" fill="#E29000" fill-opacity="0.38"/>
<path d="M358.386 584.392C358.16 584.775 358.188 585.286 358.47 586.179C359.457 589.455 361.965 598.219 362.585 600.644C363.853 605.495 365.206 608.728 366.023 608.856C367.122 609.026 367.066 608.643 364.924 600.73C361.007 586.222 359.485 582.435 358.386 584.392Z" fill="#E29000" fill-opacity="0.38"/>
<path d="M347.424 571.969C346.127 571.075 344.831 571.373 344.493 572.65C344.014 574.522 344.183 615.28 344.662 616.684C345.254 618.429 346.691 618.726 347.508 617.28C348.156 616.174 348.156 615.918 348.184 606.048C348.213 600.517 348.241 594.05 348.297 591.71C348.551 580.733 348.156 572.479 347.424 571.969Z" fill="#E29000" fill-opacity="0.38"/>
<path d="M364.558 574.01C368.109 581.754 380.509 606.94 380.537 606.94C382.087 610.089 390.063 618.342 379.072 595.963C373.576 584.774 369.659 576.052 366.925 572.606C365.206 570.521 362.67 569.926 364.558 574.01Z" fill="#E29000" fill-opacity="0.38"/>
<path d="M412.494 589.54C408.464 585.583 389.132 563.587 385.778 561.46C384.651 560.737 384.369 560.737 383.242 561.46C381.1 562.864 382.03 564.225 394.233 577.414C405.139 589.2 410.775 594.603 413.424 595.624C414.834 596.177 418.272 595.198 412.494 589.54Z" fill="#E29000" fill-opacity="0.38"/>
<path d="M295.878 580.775C290.721 586.008 287.931 590.348 289.425 590.774C290.693 591.156 299.457 582.903 299.683 581.158C299.908 579.244 297.569 579.031 295.878 580.775Z" fill="#E29000" fill-opacity="0.38"/>
<path d="M429.404 559.291C429.235 558.908 408.803 550.101 406.351 553.802C404.745 556.227 405.252 557.376 408.521 558.524C426.276 564.864 431.828 565.077 429.404 559.291Z" fill="#E29000" fill-opacity="0.38"/>
<path d="M343.112 482.623C342.097 476.369 341.421 474.88 340.068 476.156C339.702 476.497 339.73 477.773 340.181 484.878C340.378 487.814 341.167 489.388 342.492 489.388C344.042 489.43 344.098 488.75 343.112 482.623Z" fill="#E29000" fill-opacity="0.38"/>
<path d="M305.939 572.819C304.784 571.883 303.713 572.309 302.36 574.181C300.218 577.159 302.304 578.18 305.235 575.585C306.588 574.394 306.813 573.5 305.939 572.819Z" fill="#E29000" fill-opacity="0.38"/>
<path d="M328.823 502.62C327.836 498.621 323.947 480.199 321.777 477.603C321.016 476.71 320.312 476.965 320.312 478.114C320.312 479.263 325.723 505.258 326.371 509.3C327.076 513.852 333.332 520.872 328.823 502.62Z" fill="#E29000" fill-opacity="0.38"/>
<path d="M327.329 603.24C325.807 606.006 327.667 610.005 329.753 608.516C330.964 607.622 331.303 605.112 330.429 603.666C329.668 602.389 327.921 602.177 327.329 603.24Z" fill="#E29000" fill-opacity="0.38"/>
<path d="M332.459 576.947C331.98 579.244 329.415 592.774 329.246 593.539C328.739 595.667 330.627 597.198 331.895 595.667C332.684 594.731 334.939 579.031 334.939 574.522C334.939 570.65 333.473 572.096 332.459 576.947Z" fill="#E29000" fill-opacity="0.38"/>
<path d="M24.7501 542.772C15.8734 546.78 3.10852 564.036 8.97743 564.036C12.7922 564.036 29.1518 548.784 29.1518 545.222C29.1518 540.101 25.2637 542.55 24.7501 542.772Z" fill="#FFECA3" fill-opacity="0.54"/>
<path d="M12.865 428.884C5.23546 427.103 -2.90765 427.327 -5.84214 429.331C-13.9119 434.786 -11.1241 438.793 0.833759 438.793C12.2782 438.793 21.8152 430.888 12.865 428.884Z" fill="#FFECA3" fill-opacity="0.54"/>
<path d="M18.441 504.699C19.9816 500.914 16.9738 499.8 11.1782 501.803C0.100622 505.7 -8.55604 512.38 -6.72196 515.719C-4.52114 519.727 15.9467 510.822 18.441 504.699Z" fill="#FFECA3" fill-opacity="0.54"/>
<path d="M68.3258 505.701C67.0053 504.921 67.0786 504.921 63.4839 506.257C54.4604 509.486 44.5574 517.056 44.5574 520.73C44.5574 526.074 53.9477 519.617 62.6043 516.165C68.0331 513.939 71.5537 507.593 68.3258 505.701Z" fill="#FFECA3" fill-opacity="0.54"/>
<path d="M58.9361 481.432C66.7858 474.975 61.137 470.744 48.8856 473.861C43.2367 475.309 39.9355 478.982 41.9896 481.543C43.6769 483.658 56.2217 483.658 58.9361 481.432Z" fill="#FFECA3" fill-opacity="0.54"/>
<path d="M22.9166 368.991C14.26 362.088 13.5264 361.756 10.8854 363.871C7.95089 366.097 8.31769 367.766 13.1596 373.221C21.5228 382.572 26.5847 385.245 29.7393 381.906C33.0405 378.455 31.6467 375.893 22.9166 368.991Z" fill="#FFECA3" fill-opacity="0.54"/>
<path d="M131.565 329.135C133.912 329.135 150.491 311.991 151.812 308.206C153.573 303.308 148.951 301.192 143.449 304.532C131.197 311.88 122.908 329.135 131.565 329.135Z" fill="#FFECA3" fill-opacity="0.54"/>
<path d="M147.264 375.56C144.329 376.339 133.839 384.355 132.225 387.026C128.043 394.04 135.672 394.151 146.089 387.249C157.901 379.345 158.562 372.443 147.264 375.56Z" fill="#FFECA3" fill-opacity="0.54"/>
<path d="M167.145 343.721C170.519 346.949 192.747 338.711 192.747 334.258C192.747 330.695 184.897 330.361 176.827 333.59C168.464 336.93 164.43 341.049 167.145 343.721Z" fill="#FFECA3" fill-opacity="0.54"/>
<path d="M56.8822 391.59C55.0482 393.148 55.2676 394.818 58.2754 401.052C63.3374 411.406 67.0795 414.189 70.1607 409.847C74.1956 404.058 61.8709 387.137 56.8822 391.59Z" fill="#FFECA3" fill-opacity="0.54"/>
<path d="M60.3309 441.577C67.0801 438.237 65.9063 433.895 56.296 426.102C51.7476 422.429 51.5275 422.317 49.3267 423.653C43.1642 427.327 53.8017 444.694 60.3309 441.577Z" fill="#FFECA3" fill-opacity="0.54"/>
<path d="M94.6637 388.807C99.0654 381.125 103.614 365.428 101.34 361.977C99.5063 359.194 96.8645 360.084 93.8567 364.203C90.1886 369.213 87.5483 378.787 87.5483 387.025C87.5483 387.137 87.0341 401.943 94.6637 388.807Z" fill="#FFECA3" fill-opacity="0.54"/>
<path d="M52.7729 340.715C59.6689 346.281 63.0435 340.158 61.6496 324.461C60.6226 312.772 56.0741 307.428 51.5257 312.772C49.9852 314.553 50.0585 316.111 50.0585 334.035C50.0585 336.818 51.0856 339.379 52.7729 340.715Z" fill="#FFECA3" fill-opacity="0.54"/>
<path d="M92.5358 448.256C86.7403 451.818 100.019 469.185 106.401 466.402C109.776 464.955 109.849 461.392 106.768 456.939C100.386 447.699 96.7908 445.584 92.5358 448.256Z" fill="#FFECA3" fill-opacity="0.54"/>
<path d="M173.306 482.878C172.426 484.993 174.628 486.887 181.45 490.004C192.088 494.902 199.424 495.57 199.424 491.674C199.35 486.441 175.14 478.202 173.306 482.878Z" fill="#FFECA3" fill-opacity="0.54"/>
<path d="M192.673 446.698C193.26 442.356 172.279 437.903 168.391 441.577C164.502 445.25 167.143 447.032 179.101 448.813C189.005 450.26 192.233 449.815 192.673 446.698Z" fill="#FFECA3" fill-opacity="0.54"/>
<path d="M89.3819 318.45C94.0036 304.311 92.7558 293.067 86.9602 296.629C82.1183 299.635 76.0301 323.793 79.1112 327.69C82.926 332.477 85.6404 329.916 89.3819 318.45Z" fill="#FFECA3" fill-opacity="0.54"/>
<path d="M212.042 372.554C208.374 370.996 206.026 371.218 198.69 373.667C183.651 378.677 185.999 384.132 202.065 381.46C213.876 379.456 218.571 375.226 212.042 372.554Z" fill="#FFECA3" fill-opacity="0.54"/>
<path d="M240.212 473.972C237.644 470.743 220.185 467.181 215.857 468.962C211.895 470.632 213.142 474.307 217.91 475.42C219.598 475.754 224.586 476.867 228.914 477.758C239.258 479.873 243.807 478.425 240.212 473.972Z" fill="#FFECA3" fill-opacity="0.54"/>
<path d="M232.803 436.567C230.308 435.008 217.102 434.34 212.774 435.676C206.832 437.457 210.501 442.133 218.424 443.024C231.555 444.471 239.552 440.797 232.803 436.567Z" fill="#FFECA3" fill-opacity="0.54"/>
<path d="M180.863 412.965C181.67 409.292 165.75 406.731 157.681 409.292C152.986 410.739 151.812 412.52 153.939 415.081C157.094 419.088 179.909 417.196 180.863 412.965Z" fill="#FFECA3" fill-opacity="0.54"/>
<path d="M137.726 495.125C132.885 496.35 131.637 497.797 133.617 500.023C136.625 503.475 153.866 501.359 153.866 497.574C153.866 494.123 146.53 492.898 137.726 495.125Z" fill="#FFECA3" fill-opacity="0.54"/>
<path d="M93.2684 497.239C89.1602 498.464 87.1053 500.913 88.4259 502.917C91.0669 507.036 109.114 504.81 109.114 500.469C109.114 498.799 105.667 493.565 93.2684 497.239Z" fill="#FFECA3" fill-opacity="0.54"/>
<path d="M102.513 480.763C98.845 477.312 83.4391 474.529 82.3387 477.201C81.0915 480.318 86.0067 483.657 95.397 486.217C102.293 488.11 106.768 484.66 102.513 480.763Z" fill="#FFECA3" fill-opacity="0.54"/>
<path d="M129.29 362.535C130.537 356.634 125.181 356.523 120.339 362.312C109.995 374.669 105.373 388.14 111.462 388.14C114.103 388.14 128.19 367.878 129.29 362.535Z" fill="#FFECA3" fill-opacity="0.54"/>
<path d="M123.422 441.465C121.148 442.913 114.985 453.489 114.985 455.938C114.985 459.946 120.413 459.165 123.201 454.712C128.996 445.138 129.144 437.903 123.422 441.465Z" fill="#FFECA3" fill-opacity="0.54"/>
<path d="M145.575 473.193C146.675 468.74 140.147 467.07 134.424 470.299C126.061 475.086 122.1 479.65 124.961 481.32C127.675 482.879 144.841 476.088 145.575 473.193Z" fill="#FFECA3" fill-opacity="0.54"/>
<path fill-rule="evenodd" clip-rule="evenodd" d="M369.516 -4.57118C367.951 8.21638 368.056 41.4639 370.35 45.7606C375.669 56.1952 380.779 48.0111 381.926 27.3465C382.865 9.34165 383.699 0.646117 383.803 -3.95738C384.22 -14.1874 370.558 -13.369 369.516 -4.57118ZM439.285 -1.70675C431.985 1.15768 391.208 73.8932 391.208 84.1232C391.208 86.9876 395.692 87.9083 399.134 85.6577C402.575 83.407 410.814 70.9264 420.93 52.4101C432.193 31.95 444.187 10.6716 447.107 6.17032C451.696 -0.990714 447.733 -4.98041 439.285 -1.70675ZM302.04 13.9451C300.163 15.2751 300.476 15.8889 306.108 26.4258C327.591 66.1183 328.738 70.8242 339.376 69.4942C347.406 68.4712 347.406 67.9597 336.56 48.318C324.15 25.6074 317.371 14.8658 314.972 13.6382C312.261 12.1037 304.335 12.3084 302.04 13.9451ZM475.161 20.5947C469.112 23.0499 437.095 60.2872 437.095 64.8907C437.095 73.4839 452.947 61.3102 481.209 31.1316C489.657 22.0269 486.32 16.0934 475.161 20.5947ZM261.159 40.8501C251.668 42.6916 265.747 59.5711 276.802 59.5711C285.667 59.5711 285.98 55.4791 277.741 47.8066C272.839 43.1007 267.938 39.5202 261.159 40.8501ZM512.601 55.5814C506.76 58.6504 499.356 65.1976 486.32 73.6885C470.885 83.714 454.511 95.0693 449.61 99.2636C441.162 106.425 448.15 108.266 458.683 101.514C462.229 99.2636 472.971 92.7164 482.565 87.0898C505.405 73.5863 528.766 58.5481 528.766 57.5251C528.87 53.5353 518.858 52.3077 512.601 55.5814ZM370.558 61.8217C368.681 63.6631 368.994 73.3816 370.976 75.3253C378.067 82.2818 387.245 69.6988 380.674 62.0263C379.214 60.2872 372.227 60.1849 370.558 61.8217ZM285.25 71.2333C282.747 72.9725 283.79 74.4046 300.372 91.7957C319.874 112.256 321.647 113.279 330.094 109.494C333.953 107.754 333.536 106.936 325.192 97.6268C303.813 73.9954 292.133 66.3229 285.25 71.2333ZM226.013 93.6371C222.155 96.5015 224.553 97.9337 248.331 107.141C272.213 116.348 285.25 122.895 303.5 134.455C313.825 141.002 331.033 141.309 325.61 134.762C313.304 120.44 234.044 87.6014 226.013 93.6371ZM516.355 112.87C458.683 133.125 454.199 135.273 458.162 139.161C460.039 141.002 462.855 140.695 474.744 137.217C552.543 114.506 554.004 115.325 544.513 108.573C539.612 105.095 537.422 105.402 516.355 112.87ZM421.452 117.064C413.526 123.816 412.796 125.964 417.697 127.294C427.605 129.851 441.475 116.45 441.371 116.552C441.892 116.041 442.31 115.325 442.205 114.609C442.205 113.893 441.788 113.176 441.267 112.665C436.156 108.471 429.795 109.903 421.452 117.064ZM369.203 129.34L367.013 137.524C362.737 153.892 350.952 168.009 341.67 168.009C334.891 168.009 338.959 173.636 346.572 174.864C356.688 176.398 365.657 193.175 366.074 209.543C366.387 220.592 377.859 220.796 380.049 212.817C385.785 192.152 390.478 183.866 402.68 174.659C410.188 169.032 410.293 168.009 403.931 163.815C393.711 157.063 391.312 153.483 385.263 135.887C378.484 116.041 370.871 123.304 369.203 129.34ZM220.694 136.91C218.609 138.956 218.609 141.718 220.799 146.219C223.51 151.744 227.265 152.971 257.717 157.268C267.729 158.7 280.14 160.848 285.25 162.076C295.783 164.634 296.721 164.122 295.992 157.575C295.261 151.437 292.967 149.084 286.293 147.038C276.385 144.173 273.882 143.662 252.711 140.388C241.552 138.649 230.602 136.808 228.203 136.296C222.467 135.069 222.676 135.069 220.694 136.91ZM380.257 156.552C382.343 159.621 385.576 162.383 389.852 164.838C396.839 168.828 397.465 169.544 394.336 170.567C391.208 171.59 383.177 178.444 379.527 183.252L376.294 187.549L373.374 182.945C370.454 178.444 363.675 172.817 359.608 171.59C357.731 170.976 358.044 170.465 362.737 166.475C371.914 158.598 374 146.936 375.981 150.311C376.607 151.13 378.484 153.994 380.257 156.552ZM436.261 165.963C431.776 167.703 437.825 177.421 444.187 178.546C455.033 180.592 502.797 180.388 502.797 178.342C502.797 175.375 497.062 169.339 493.098 168.112C487.258 166.373 440.015 164.531 436.261 165.963ZM508.429 169.442C506.343 174.864 515.312 179.774 530.956 181.615C546.808 183.457 548.893 182.331 542.74 175.068C537.526 169.135 510.306 164.634 508.429 169.442ZM302.979 175.887C297.452 181.308 305.065 191.845 314.138 191.334C320.395 191.027 321.96 187.856 319.144 181.206C316.849 175.58 306.733 172.306 302.979 175.887ZM260.846 180.899C248.018 183.457 230.081 186.423 220.173 187.446C206.72 188.981 202.444 190.106 202.444 192.459C202.444 196.551 211.308 201.257 217.462 200.439C219.756 200.132 227.786 199.109 235.295 198.29C265.852 194.607 286.918 189.186 284.833 185.503C281.808 179.979 273.361 178.342 260.846 180.899ZM453.886 206.577C438.972 213.635 456.597 224.991 472.658 218.648C477.664 216.704 473.179 210.771 468.173 208.623C459.934 205.042 457.849 204.735 453.886 206.577ZM419.366 213.84C413.317 215.784 411.648 221.001 416.133 224.479C417.802 225.809 426.875 233.686 436.365 241.972C475.474 276.345 486.841 284.632 491.743 282.483C499.564 279.005 493.724 272.151 452.217 236.96C429.691 217.83 422.495 212.817 419.366 213.84ZM322.585 221.308C316.119 224.479 256.674 285.246 256.674 288.621C256.674 295.169 270.753 293.327 277.637 285.859C282.851 280.233 298.807 263.865 321.125 241.461C340.94 221.512 341.67 211.896 322.585 221.308ZM488.51 224.786C485.173 226.218 482.774 230.924 484.755 232.356C511.558 250.77 524.803 254.351 524.803 243.098C524.698 236.755 495.289 221.922 488.51 224.786ZM256.674 236.653C241.031 244.428 240.614 244.837 244.681 247.394C252.399 252.305 289.421 236.039 282.225 230.822C277.845 227.65 272.109 228.98 256.674 236.653ZM374.209 236.858C369.411 240.438 367.638 256.601 379.423 256.806C384.012 256.908 387.453 252.202 387.245 244.325C387.036 236.141 380.257 232.254 374.209 236.858ZM339.689 250.157C332.18 259.159 313.929 289.133 313.929 292.509C313.929 301.511 331.763 281.154 346.572 254.965C352.725 244.325 347.51 240.745 339.689 250.157ZM414.047 250.463C409.771 255.578 447.941 302.023 454.094 299.261C459.517 296.805 457.744 293.736 438.764 272.458C419.053 250.054 416.342 247.701 414.047 250.463ZM374.73 274.197C370.141 277.061 367.013 335.68 371.393 339.055C380.883 346.626 384.95 336.089 384.846 304.171C384.846 275.425 382.76 269.287 374.73 274.197Z" fill="#FFECA3" fill-opacity="0.31"/>
</svg>
