<svg width="244" height="390" viewBox="0 0 244 390" fill="none" xmlns="http://www.w3.org/2000/svg">
<path d="M24.7501 307.772C15.8734 311.78 3.10852 329.036 8.97743 329.036C12.7922 329.036 29.1518 313.784 29.1518 310.222C29.1518 305.101 25.2637 307.55 24.7501 307.772Z" fill="#FFECA3" fill-opacity="0.54"/>
<path d="M12.865 193.884C5.23546 192.103 -2.90765 192.327 -5.84214 194.331C-13.9119 199.786 -11.1241 203.793 0.833759 203.793C12.2782 203.793 21.8152 195.888 12.865 193.884Z" fill="#FFECA3" fill-opacity="0.54"/>
<path d="M18.441 269.699C19.9816 265.914 16.9738 264.8 11.1782 266.803C0.100622 270.7 -8.55604 277.38 -6.72196 280.719C-4.52114 284.727 15.9467 275.822 18.441 269.699Z" fill="#FFECA3" fill-opacity="0.54"/>
<path d="M68.3258 270.701C67.0053 269.921 67.0786 269.921 63.4839 271.257C54.4604 274.486 44.5574 282.056 44.5574 285.73C44.5574 291.074 53.9477 284.617 62.6043 281.165C68.0331 278.939 71.5537 272.593 68.3258 270.701Z" fill="#FFECA3" fill-opacity="0.54"/>
<path d="M58.9361 246.432C66.7858 239.975 61.137 235.744 48.8856 238.861C43.2367 240.309 39.9355 243.982 41.9896 246.543C43.6769 248.658 56.2217 248.658 58.9361 246.432Z" fill="#FFECA3" fill-opacity="0.54"/>
<path d="M22.9166 133.991C14.26 127.088 13.5264 126.756 10.8854 128.871C7.95089 131.097 8.31769 132.766 13.1596 138.221C21.5228 147.572 26.5847 150.245 29.7393 146.906C33.0405 143.455 31.6467 140.893 22.9166 133.991Z" fill="#FFECA3" fill-opacity="0.54"/>
<path d="M131.565 94.1354C133.912 94.1354 150.491 76.9911 151.812 73.206C153.573 68.3077 148.951 66.1924 143.449 69.5323C131.197 76.8798 122.908 94.1354 131.565 94.1354Z" fill="#FFECA3" fill-opacity="0.54"/>
<path d="M147.264 140.56C144.329 141.339 133.839 149.355 132.225 152.026C128.043 159.04 135.672 159.151 146.089 152.249C157.901 144.345 158.562 137.443 147.264 140.56Z" fill="#FFECA3" fill-opacity="0.54"/>
<path d="M167.145 108.721C170.519 111.949 192.747 103.711 192.747 99.2578C192.747 95.6954 184.897 95.3614 176.827 98.5899C168.464 101.93 164.43 106.049 167.145 108.721Z" fill="#FFECA3" fill-opacity="0.54"/>
<path d="M56.8822 156.59C55.0482 158.148 55.2676 159.818 58.2754 166.052C63.3374 176.406 67.0795 179.189 70.1607 174.847C74.1956 169.058 61.8709 152.137 56.8822 156.59Z" fill="#FFECA3" fill-opacity="0.54"/>
<path d="M60.3309 206.577C67.0801 203.237 65.9063 198.895 56.296 191.102C51.7476 187.429 51.5275 187.317 49.3267 188.653C43.1642 192.327 53.8017 209.694 60.3309 206.577Z" fill="#FFECA3" fill-opacity="0.54"/>
<path d="M94.6637 153.807C99.0654 146.125 103.614 130.428 101.34 126.977C99.5063 124.194 96.8645 125.084 93.8567 129.203C90.1886 134.213 87.5483 143.787 87.5483 152.025C87.5483 152.137 87.0341 166.943 94.6637 153.807Z" fill="#FFECA3" fill-opacity="0.54"/>
<path d="M52.7729 105.715C59.6689 111.281 63.0435 105.158 61.6496 89.4608C60.6226 77.7715 56.0741 72.4278 51.5257 77.7715C49.9852 79.5527 50.0585 81.1113 50.0585 99.0349C50.0585 101.818 51.0856 104.379 52.7729 105.715Z" fill="#FFECA3" fill-opacity="0.54"/>
<path d="M92.5358 213.256C86.7403 216.818 100.019 234.185 106.401 231.402C109.776 229.955 109.849 226.392 106.768 221.939C100.386 212.699 96.7908 210.584 92.5358 213.256Z" fill="#FFECA3" fill-opacity="0.54"/>
<path d="M173.306 247.878C172.426 249.993 174.628 251.887 181.45 255.004C192.088 259.902 199.424 260.57 199.424 256.674C199.35 251.441 175.14 243.202 173.306 247.878Z" fill="#FFECA3" fill-opacity="0.54"/>
<path d="M192.673 211.698C193.26 207.356 172.279 202.903 168.391 206.577C164.502 210.25 167.143 212.032 179.101 213.813C189.005 215.26 192.233 214.815 192.673 211.698Z" fill="#FFECA3" fill-opacity="0.54"/>
<path d="M89.3819 83.4495C94.0036 69.3109 92.7558 58.0669 86.9602 61.6294C82.1183 64.6352 76.0301 88.7932 79.1112 92.6896C82.926 97.4766 85.6404 94.9161 89.3819 83.4495Z" fill="#FFECA3" fill-opacity="0.54"/>
<path d="M212.042 137.554C208.374 135.996 206.026 136.218 198.69 138.667C183.651 143.677 185.999 149.132 202.065 146.46C213.876 144.456 218.571 140.226 212.042 137.554Z" fill="#FFECA3" fill-opacity="0.54"/>
<path d="M240.212 238.972C237.644 235.743 220.185 232.181 215.857 233.962C211.895 235.632 213.142 239.307 217.91 240.42C219.598 240.754 224.586 241.867 228.914 242.758C239.258 244.873 243.807 243.425 240.212 238.972Z" fill="#FFECA3" fill-opacity="0.54"/>
<path d="M232.803 201.567C230.308 200.008 217.102 199.34 212.774 200.676C206.832 202.457 210.501 207.133 218.424 208.024C231.555 209.471 239.552 205.797 232.803 201.567Z" fill="#FFECA3" fill-opacity="0.54"/>
<path d="M180.863 177.965C181.67 174.292 165.75 171.731 157.681 174.292C152.986 175.739 151.812 177.52 153.939 180.081C157.094 184.088 179.909 182.196 180.863 177.965Z" fill="#FFECA3" fill-opacity="0.54"/>
<path d="M137.726 260.125C132.885 261.35 131.637 262.797 133.617 265.023C136.625 268.475 153.866 266.359 153.866 262.574C153.866 259.123 146.53 257.898 137.726 260.125Z" fill="#FFECA3" fill-opacity="0.54"/>
<path d="M93.2684 262.239C89.1602 263.464 87.1053 265.913 88.4259 267.917C91.0669 272.036 109.114 269.81 109.114 265.469C109.114 263.799 105.667 258.565 93.2684 262.239Z" fill="#FFECA3" fill-opacity="0.54"/>
<path d="M102.513 245.763C98.845 242.312 83.4391 239.529 82.3387 242.201C81.0915 245.318 86.0067 248.657 95.397 251.217C102.293 253.11 106.768 249.66 102.513 245.763Z" fill="#FFECA3" fill-opacity="0.54"/>
<path d="M129.29 127.535C130.537 121.634 125.181 121.523 120.339 127.312C109.995 139.669 105.373 153.14 111.462 153.14C114.103 153.14 128.19 132.878 129.29 127.535Z" fill="#FFECA3" fill-opacity="0.54"/>
<path d="M123.422 206.465C121.148 207.913 114.985 218.489 114.985 220.938C114.985 224.946 120.413 224.165 123.201 219.712C128.996 210.138 129.144 202.903 123.422 206.465Z" fill="#FFECA3" fill-opacity="0.54"/>
<path d="M145.575 238.193C146.675 233.74 140.147 232.07 134.424 235.299C126.061 240.086 122.1 244.65 124.961 246.32C127.675 247.879 144.841 241.088 145.575 238.193Z" fill="#FFECA3" fill-opacity="0.54"/>
</svg>
