<svg width="322" height="251" viewBox="0 0 322 251" fill="none" xmlns="http://www.w3.org/2000/svg">
<path fill-rule="evenodd" clip-rule="evenodd" d="M100.168 199.741C53.6274 210.59 26.9996 195.442 20.2844 154.297C10.2115 92.5799 44.3337 27.7415 91.1527 21.526C137.972 15.3105 157.654 33.0404 190.56 55.3049C223.467 77.5695 318.842 129.956 329.678 138.847C340.513 147.738 363.698 182.481 317.325 204.487C286.409 219.158 247.949 216.395 201.945 196.198C185.773 189.128 171.046 185.386 157.764 184.973C144.482 184.56 125.284 189.483 100.168 199.741Z" fill="#8AD1D7"/>
<path d="M153.219 121.386C157.402 124.117 159.084 127.649 158.265 131.982C154.347 137.855 152.388 142.94 152.388 147.238C152.388 151.536 152.093 157.127 151.504 164.011L118.942 164.699L118.873 164.657C118.003 164.674 117.148 164.688 116.307 164.699C109.06 164.793 102.63 165.753 102.327 165.8C99.9541 166.168 95.6778 161.765 94.4911 160.274C92.5841 157.877 91.6777 155.041 91.2748 151.954C90.8947 149.042 91.4308 146.335 92.4836 143.74C93.7135 140.708 95.6387 138.084 98.0797 135.773C100.756 133.319 103.639 131.316 106.87 129.839C106.995 129.781 109.315 128.64 109.426 128.655C109.5 128.665 113.208 129.853 118.364 132.261C124.217 128.102 130.546 123.7 137.354 119.057C143.748 117.879 149.036 118.656 153.219 121.386Z" fill="white"/>
<path fill-rule="evenodd" clip-rule="evenodd" d="M111.085 192.251C116.205 193.306 119.292 191.297 120.345 186.224C121.925 178.616 112.38 179.975 109.459 176.06C106.537 172.144 113.017 171.359 120.345 173.709C127.68 173.388 129.797 173.808 130.218 171.785C130.639 169.762 126.818 168.488 116.611 168.821C106.404 169.155 107.906 169.169 108.682 177.696C109.2 183.382 110.001 188.233 111.085 192.251Z" fill="white"/>
<path d="M238.33 208.501C234.395 205.246 231.623 203.198 230.138 201.889C226.59 198.763 222.956 195.734 219.377 192.643C218.641 192.008 217.927 191.324 217.321 190.567C216.561 189.617 216.735 188.961 217.934 188.498C218.881 188.133 219.916 187.965 220.926 187.804C223.939 187.322 226.958 186.872 229.978 186.439C231.305 186.249 232.643 186.138 233.974 185.972C234.212 185.943 234.439 185.824 234.671 185.746C234.556 185.559 234.468 185.347 234.321 185.189C233.156 183.93 231.979 182.681 230.806 181.43C230.702 181.32 230.593 181.216 230.486 181.109C230.653 181.069 230.818 181.015 230.987 180.99C234.08 180.534 237.172 180.075 240.266 179.629C242.298 179.337 244.329 179.035 246.367 178.795C248.453 178.55 250.545 178.351 252.638 178.178C254.51 178.024 256.389 177.959 258.26 177.803C259.459 177.703 260.647 177.467 261.846 177.37C263.346 177.248 264.853 177.229 266.354 177.126C268.229 176.998 270.1 176.81 271.975 176.684C273.551 176.579 275.133 176.55 276.709 176.444C277.98 176.358 279.245 176.171 280.517 176.094C281.76 176.019 283.007 176.027 284.253 175.998C287.477 175.922 290.701 175.83 293.926 175.777C295.899 175.744 297.889 175.622 299.841 175.832C300.858 175.942 302.021 176.467 302.746 177.183C304.578 178.992 306.203 181.013 307.906 182.954C308.95 184.143 309.996 185.332 311.024 186.535C313.191 189.073 315.34 191.624 317.508 194.16C318.182 194.948 318.902 195.695 319.578 196.48C319.772 196.705 319.886 197 320.036 197.262C319.823 197.088 319.187 196.544 319.399 196.737C340.312 215.762 252.242 219.807 238.33 208.501Z" fill="white"/>
<path d="M0.10851 138.2C0.179803 136.241 0.240413 134.282 0.316475 132.323C0.34105 131.69 0.412628 131.06 0.4517 130.427C0.776136 125.175 1.40011 119.957 2.74412 114.865C3.81664 110.802 5.23284 106.85 6.9541 102.99C8.91751 98.5868 11.3046 94.4462 14.055 90.5093C15.4563 88.5034 16.9869 86.5705 18.6154 84.7422C20.5748 82.5425 22.5879 80.3646 24.7837 78.4054C27.2906 76.1688 29.9846 74.1303 32.69 72.1296C33.2923 71.6842 34.3571 71.467 35.076 71.653C36.3382 71.9796 36.5207 73.0768 35.5552 73.9148C33.3629 75.8174 32.3197 78.2464 32.159 81.0672C32.0703 82.6254 32.2162 84.1966 32.1297 85.755C31.8446 90.8923 33.3447 95.621 35.5663 100.132C37.6902 104.444 40.7828 107.996 45.2204 110.071C47.7666 111.261 50.4896 112.097 53.171 112.978C55.5002 113.743 57.8868 114.333 60.2407 115.025C62.55 115.704 64.8248 116.32 67.2717 115.504C68.5269 115.086 69.4687 116.208 68.988 117.425C67.1703 122.025 65.6215 126.8 62.4286 130.679C60.5133 133.006 58.2974 135.159 55.9269 137.027C52.4469 139.77 48.4454 141.725 44.4485 143.651C40.55 145.53 36.7393 147.591 32.8236 149.432C28.4123 151.506 23.942 153.459 19.4686 155.398C15.8597 156.964 12.2165 158.452 8.56955 159.928C7.69751 160.281 6.76342 160.528 5.83405 160.682C4.90287 160.837 2.85716 159.377 2.4917 158.412C1.56428 155.962 0.933859 153.444 0.673512 150.834C0.515073 149.245 0.301815 147.662 0.0565909 146.077C1.14604e-08 145.964 -1.52805e-08 145.852 0.0565902 145.683C0.150907 143.51 0.190464 141.394 0.216742 139.278C0.217465 139.22 0.075453 139.16 0 139.101C0 138.838 0 138.576 0 138.257C0.0377188 138.2 0.10846 138.202 0.10851 138.2Z" fill="white"/>
<path fill-rule="evenodd" clip-rule="evenodd" d="M151.114 163.941L219.64 162.195H222.451C226.548 165.248 231.044 166.563 235.938 166.141C243.279 165.509 249.761 157.407 251.274 146.111C251.497 145.23 252.038 145.019 252.898 145.476C253.843 147.32 255.521 148.124 257.932 147.889C258.979 147.776 259.561 148.021 260.152 149.157C260.743 150.293 263.867 151.722 265.825 150.575C267.783 149.429 276.81 134.807 276.81 132.346C276.81 129.886 277.316 124.513 277.715 124.166C278.113 123.819 278.863 124.1 280.318 123.639C281.772 123.178 283.017 123.637 287.682 111.392C292.347 99.1475 299.484 80.8427 300.244 68.0252C301.004 55.2078 291.951 59.738 287.682 65.0866C283.414 70.4352 271.515 84.2072 260.503 91.6858C259.155 92.6923 258.055 93.1655 257.203 93.1053C256.692 89.9222 254.599 88.7362 250.924 89.5473C249.495 89.804 248.326 88.6749 247.417 86.1599C245.061 73.1035 239.689 63.656 231.303 57.8172C218.723 49.0591 197.289 44.054 192.131 62.366C188.693 74.574 190.76 89.4058 198.332 106.861L195.179 109.59C182.774 113.882 172.639 119.179 164.776 125.483C152.981 134.939 152.756 144.163 152.13 151.771C151.712 156.843 151.374 160.9 151.114 163.941Z" fill="white"/>
<path d="M125.757 111.218C125.862 110.226 125.91 109.228 126.024 108.237C126.031 108.184 126.534 108.07 126.679 108.17C128.028 109.096 129.362 110.046 130.669 111.031C131.023 111.297 131.051 111.563 131.212 110.864C131.463 109.773 133.016 109.468 133.946 110.244C136.078 112.022 137.155 114.414 137.935 117.015C138.612 119.27 138.344 121.563 138.41 123.842C138.452 125.305 139.822 126.408 141.26 126.467C142.323 126.511 143.441 126.977 144.398 127.505C146.712 128.781 148.2 130.795 148.931 133.332C149.719 136.065 148.986 138.497 147.402 140.767C145.962 142.832 144.651 144.994 142.56 146.508C141.404 147.346 140.072 148.041 139.167 149.098C138.195 150.234 137.079 150.975 135.755 151.486C132.494 152.744 128.931 151.112 127.335 148.393C125.648 144.806 119.628 147.729 117.296 142.438C116.119 140.691 115.66 139.227 115.914 139.08C116.224 138.902 115.796 138.45 115.247 137.873C112.852 135.357 110.724 132.632 109.268 129.442C109.038 128.938 108.801 128.419 108.701 127.882C108.639 127.552 108.731 127.081 108.945 126.853C109.08 126.71 109.615 126.813 109.886 126.961C110.292 127.182 110.614 127.554 110.988 127.838C111.627 128.324 111.982 128.117 111.809 127.36C111.317 125.208 111.769 123.165 112.526 121.19C112.934 120.125 113.599 119.154 114.215 118.183C114.274 118.091 114.867 118.231 115.125 118.397C115.603 118.707 116.018 119.116 116.459 119.483C116.489 118.895 116.498 118.305 116.556 117.719C116.59 117.372 116.675 117.023 116.781 116.689C117.309 115.013 117.593 114.928 118.992 115.979C119.18 116.12 119.404 116.212 119.612 116.326C119.64 116.113 119.678 115.9 119.696 115.686C119.85 113.844 119.481 112.172 118.134 110.805C118.119 110.788 118.411 110.308 118.579 110.294C120.519 110.142 122.459 110.062 124.233 111.098C124.596 111.31 124.958 111.523 125.377 111.792C125.545 111.639 125.734 111.437 125.757 111.218Z" fill="white"/>
<path fill-rule="evenodd" clip-rule="evenodd" d="M154.523 43.456C148.794 48.2039 146.196 55.0776 146.729 64.0772C147.528 77.5765 163.233 87.1939 170.829 83.1232C178.425 79.0524 186.813 73.1223 187.815 60.4995C188.24 72.511 189.499 78.3569 173.304 87.0678C157.11 95.7787 140.179 82.2624 137.731 76.6913C135.282 71.1203 129.387 58.8217 141.352 44.5537C142.989 42.6666 147.379 42.3008 154.523 43.456Z" fill="white"/>
<path fill-rule="evenodd" clip-rule="evenodd" d="M291.016 201.401C292.402 201.25 293.679 201.128 294.946 200.94C297.824 200.512 300.696 200.043 303.574 199.61C305.286 199.352 307.024 199.227 308.712 198.863C309.897 198.607 310.97 198.773 312.06 199.133C312.236 199.19 312.37 199.373 312.524 199.498C312.339 199.601 312.164 199.772 311.97 199.796C309.44 200.116 306.903 200.382 304.377 200.727C301.837 201.074 299.309 201.514 296.771 201.877C295.002 202.13 293.223 202.309 291.452 202.546C290.529 202.669 289.616 202.868 288.692 202.991C287.385 203.165 286.07 203.281 284.764 203.457C283.23 203.663 281.704 203.92 280.172 204.132C278.94 204.302 277.701 204.426 276.469 204.594C274.899 204.809 273.333 205.053 271.764 205.273C270.606 205.435 269.447 205.582 268.287 205.73C267.066 205.885 265.84 206.007 264.624 206.196C263.888 206.311 263.211 206.305 262.992 205.458C262.793 204.686 263.187 204.081 263.939 203.914C264.969 203.686 266.026 203.561 267.079 203.462C268.328 203.344 269.583 203.293 270.837 203.226C272.379 203.143 273.925 203.1 275.466 202.989C277.105 202.87 278.74 202.682 280.378 202.543C282.304 202.38 284.235 202.261 286.159 202.075C287.159 201.979 288.149 201.777 289.145 201.631C289.73 201.546 290.317 201.477 291.016 201.401Z" fill="#E7EAEE"/>
<path fill-rule="evenodd" clip-rule="evenodd" d="M260.956 190.73C262.342 190.655 263.617 190.602 264.888 190.499C266.238 190.39 267.582 190.208 268.932 190.103C270.448 189.986 271.969 189.938 273.485 189.825C275.205 189.697 276.921 189.517 278.64 189.385C279.912 189.287 281.188 189.252 282.459 189.15C284.053 189.023 285.643 188.839 287.237 188.711C288.509 188.609 289.785 188.577 291.056 188.475C292.736 188.341 294.411 188.091 296.092 188.035C298.01 187.971 299.937 187.374 301.854 188.035C302.082 188.114 302.29 188.253 302.507 188.364C302.3 188.403 302.095 188.456 301.887 188.478C300.433 188.633 298.976 188.764 297.523 188.935C295.759 189.142 294.002 189.413 292.235 189.594C290.943 189.725 289.636 189.717 288.343 189.84C286.57 190.008 284.804 190.263 283.032 190.442C281.745 190.571 280.451 190.626 279.162 190.733C277.481 190.872 275.8 191.025 274.12 191.182C272.59 191.324 271.059 191.467 269.53 191.633C267.579 191.845 265.632 192.104 263.679 192.298C261.825 192.481 259.964 192.583 258.11 192.762C256.82 192.887 255.541 193.124 254.25 193.225C253.746 193.264 253.185 193.155 252.723 192.95C252.393 192.803 252.185 192.384 251.922 192.086C252.255 191.859 252.573 191.466 252.925 191.432C255.064 191.228 257.212 191.112 259.356 190.95C259.854 190.912 260.347 190.805 260.956 190.73Z" fill="#E7EAEE"/>
<path fill-rule="evenodd" clip-rule="evenodd" d="M143.06 219.101C142.944 219.195 142.883 219.266 142.824 219.264C142.295 219.249 141.766 219.22 141.237 219.196C141.742 218.847 142.204 218.311 142.761 218.183C144.952 217.681 146.926 216.797 148.755 215.491C151.145 213.786 152.62 211.55 153.157 208.692C153.24 208.252 153.116 208.055 152.584 208.057C151.826 208.061 151.066 207.937 150.309 207.852C148.827 207.684 147.647 206.636 147.517 205.387C147.433 204.585 148.636 202.907 149.525 202.474C151.592 201.467 153.889 203.456 154.476 205.178C154.713 205.871 154.825 205.62 155.137 205.334C156.613 203.986 157.096 202.255 156.978 200.353C156.853 198.321 155.958 196.686 154.195 195.543C153.583 195.146 153.349 194.582 153.823 193.862C154.339 193.077 155.773 193.024 156.332 193.718C157.089 194.657 157.754 195.739 158.171 196.864C159.185 199.593 158.925 202.245 157.221 204.687C157.099 204.861 156.998 205.063 156.841 205.199C155.503 206.361 154.782 207.807 154.238 209.51C152.625 214.561 148.923 217.543 143.903 219.036C143.662 219.108 143.379 219.046 143.06 219.101ZM149.886 203.824C148.918 204.398 148.653 206.045 149.571 206.331C150.63 206.662 151.854 206.479 153.006 206.49C153.056 206.491 153.139 206.201 153.154 206.042C153.305 204.493 151.852 203.424 149.886 203.824Z" fill="#E29000"/>
<path fill-rule="evenodd" clip-rule="evenodd" d="M278.269 195.668C281.467 195.365 284.55 195.038 287.637 194.766C289.825 194.573 292.021 194.475 294.21 194.295C295.561 194.184 296.907 194.006 298.253 193.846C300.112 193.624 301.971 193.212 303.827 193.234C304.884 193.246 306.115 193.589 306.836 194.661C306.892 194.744 306.955 194.822 307.014 194.903C306.875 194.93 306.725 195.006 306.597 194.978C304.178 194.466 301.798 194.962 299.397 195.183C297.724 195.338 296.022 195.154 294.338 195.23C292.647 195.306 290.963 195.523 289.275 195.667C287.411 195.826 285.544 195.949 283.682 196.133C282.682 196.232 281.695 196.454 280.696 196.573C279.212 196.749 277.721 196.862 276.237 197.04C274.54 197.244 272.842 197.448 271.156 197.728C269.153 198.062 267.167 198.504 265.165 198.848C263.182 199.188 261.195 199.551 259.194 199.727C258.282 199.807 257.318 199.523 256.407 199.289C255.706 199.109 255.865 198.615 256.311 198.292C256.672 198.03 257.113 197.804 257.546 197.736C258.847 197.532 260.162 197.41 261.472 197.263C262.857 197.107 264.241 196.935 265.629 196.812C267.605 196.638 269.586 196.524 271.561 196.344C272.761 196.234 273.953 196.028 275.152 195.902C276.15 195.797 277.154 195.744 278.269 195.668Z" fill="#E7EAEE"/>
<path fill-rule="evenodd" clip-rule="evenodd" d="M257.061 186.258C259.699 185.957 262.222 185.64 264.75 185.361C266.392 185.179 268.043 185.075 269.685 184.895C270.645 184.79 271.594 184.592 272.551 184.455C273.208 184.361 273.871 184.309 274.53 184.224C276.544 183.966 278.554 183.671 280.572 183.448C282.625 183.22 284.687 183.08 286.741 182.865C288.623 182.667 290.494 182.359 292.379 182.225C293.056 182.177 293.771 182.456 294.443 182.666C294.667 182.736 294.813 183.056 294.994 183.261C294.737 183.346 294.484 183.488 294.222 183.506C292.755 183.612 291.284 183.665 289.818 183.78C288.27 183.903 286.725 184.062 285.181 184.23C283.998 184.359 282.821 184.538 281.638 184.674C280.22 184.838 278.795 184.949 277.38 185.136C275.304 185.41 273.235 185.741 271.16 186.03C268.913 186.343 266.658 186.602 264.416 186.946C262.48 187.242 260.559 187.641 258.627 187.964C256.086 188.39 253.539 188.774 250.999 189.201C250.071 189.356 249.508 188.828 249.424 188.091C249.349 187.423 249.936 187.18 250.688 187.13C252.66 186.998 254.623 186.713 256.588 186.476C256.715 186.461 256.828 186.334 257.061 186.258Z" fill="#E7EAEE"/>
<path fill-rule="evenodd" clip-rule="evenodd" d="M286.532 209.921C284.071 210.229 281.722 210.53 279.376 210.847C278.376 210.982 277.382 211.242 276.383 211.255C276.059 211.259 275.414 210.591 275.464 210.349C275.567 209.856 275.989 209.121 276.375 209.054C278.019 208.768 279.699 208.696 281.365 208.535C282.867 208.389 284.368 208.222 285.871 208.076C287.537 207.915 289.203 207.76 290.87 207.615C292.737 207.453 294.605 207.295 296.473 207.155C297.754 207.059 299.038 207.022 300.317 206.914C301.821 206.787 303.32 206.595 304.824 206.464C306.028 206.36 307.238 206.334 308.44 206.22C309.681 206.103 310.915 205.919 312.153 205.769C312.302 205.751 312.466 205.731 312.605 205.773C313.083 205.92 313.553 206.094 314.026 206.258C313.609 206.402 313.202 206.621 312.774 206.677C310.24 207.01 307.7 207.296 305.165 207.616C303.478 207.83 301.797 208.097 300.109 208.299C298.56 208.484 297.001 208.591 295.452 208.776C294.636 208.874 293.837 209.115 293.021 209.205C291.284 209.396 289.541 209.524 287.802 209.696C287.413 209.734 287.031 209.844 286.532 209.921Z" fill="#E7EAEE"/>
<path fill-rule="evenodd" clip-rule="evenodd" d="M98.0797 135.773C100.756 133.319 103.639 131.316 106.87 129.839C106.995 129.781 107.124 129.642 107.235 129.657C107.721 129.724 108.2 129.834 108.682 129.928C108.333 130.166 108.009 130.456 107.632 130.634C103.894 132.406 100.412 134.556 97.5789 137.636C94.8258 140.629 92.852 143.988 92.4166 148.182C92.0162 152.038 92.5054 155.643 94.6863 158.895C95.8568 160.64 97.4371 161.943 99.3573 162.807C99.5098 162.876 99.6535 162.964 99.8013 163.044C99.6297 163.079 99.4592 163.12 99.2864 163.147C96.9136 163.515 95.6778 161.765 94.4911 160.274C92.5841 157.877 91.6777 155.041 91.2748 151.954C90.8947 149.042 91.4308 146.335 92.4836 143.74C93.7135 140.708 95.6387 138.084 98.0797 135.773Z" fill="#192729"/>
<path fill-rule="evenodd" clip-rule="evenodd" d="M246.542 185.582C246.139 184.695 246.723 183.713 247.651 183.721C249.236 183.736 250.82 183.842 252.403 183.922C253.615 183.983 254.826 184.063 256.038 184.134C256.183 184.143 256.367 184.098 256.468 184.166C256.805 184.393 257.113 184.661 257.431 184.913C257.124 185.064 256.826 185.323 256.508 185.347C255.526 185.42 254.528 185.49 253.553 185.402C251.825 185.245 250.192 185.634 248.597 186.122C247.728 186.388 247.18 186.111 246.542 185.582Z" fill="#E7EAEE"/>
<path fill-rule="evenodd" clip-rule="evenodd" d="M17.7044 112.5C17.4784 113.872 17.2283 115.127 17.0353 116.391C16.913 117.192 16.8857 118.007 16.7984 118.814C16.656 120.13 16.4056 121.443 16.3673 122.762C16.2748 125.956 16.3039 129.153 16.2357 132.348C16.17 135.429 16.7638 138.411 17.482 141.379C17.6216 141.956 17.6638 142.635 18.0058 143.065C18.5307 143.725 18.0434 144.045 17.6749 144.147C17.3228 144.243 16.636 144.071 16.4948 143.805C16.1081 143.079 15.8461 142.257 15.6875 141.443C15.2858 139.382 14.7989 137.316 14.6576 135.231C14.4664 132.41 14.5989 129.568 14.5327 126.736C14.4525 123.304 14.9582 119.934 15.4297 116.55C16.208 110.965 17.3208 105.459 19.0857 100.099C19.2988 99.4518 19.7772 98.827 20.2865 98.3583C20.9086 97.7858 21.8671 98.3091 22.0042 99.173C22.1664 100.195 21.7007 100.977 21.139 101.75C19.4483 104.076 18.603 106.729 18.1564 109.531C18.0048 110.483 17.855 111.436 17.7044 112.5Z" fill="#E7EAEE"/>
<path fill-rule="evenodd" clip-rule="evenodd" d="M29.1051 136.855C29.0254 137.556 30.2875 138.397 28.8804 138.662C28.4999 138.734 27.6673 137.974 27.4923 137.458C26.962 135.897 26.4487 134.284 26.3061 132.662C26.1093 130.421 26.2568 128.154 26.2568 125.897C26.2568 125.636 26.2568 125.374 26.2568 125.112C26.2568 121.56 26.2729 118.008 26.2459 114.456C26.2387 113.514 26.0185 112.571 26.046 111.633C26.0662 110.942 26.2094 110.202 26.527 109.591C26.754 109.154 27.3406 108.67 27.8055 108.632C28.1251 108.605 28.7661 109.279 28.8182 109.69C28.9545 110.766 28.8996 111.874 28.8192 112.962C28.7566 113.807 28.4599 114.638 28.4089 115.482C28.2815 117.593 28.2259 119.707 28.1578 121.821C28.0697 124.556 27.8204 127.301 27.9733 130.026C28.0997 132.277 28.7095 134.504 29.1051 136.855Z" fill="#E7EAEE"/>
<path fill-rule="evenodd" clip-rule="evenodd" d="M39.8745 132.297C37.7363 128.991 36.1427 125.5 35.1454 121.752C34.9443 120.996 35.1191 120.038 35.4025 119.286C35.5387 118.924 36.4844 118.518 36.7906 118.679C37.2059 118.898 37.5365 119.621 37.5939 120.163C37.8152 122.254 37.9576 124.323 38.6471 126.357C39.4849 128.829 40.9219 130.892 42.3137 133.011C42.6034 133.452 43.4699 133.888 42.8587 134.448C42.2498 135.005 41.631 134.359 41.1718 133.847C40.7401 133.366 40.3421 132.852 39.8745 132.297Z" fill="#E7EAEE"/>
<path fill-rule="evenodd" clip-rule="evenodd" d="M49.6875 125.214C48.4015 123.962 47.1139 122.822 45.9626 121.551C45.3638 120.889 45.4761 120.049 46.1958 119.418C46.9136 118.788 47.3626 119.376 47.7761 119.854C49.3405 121.667 50.8829 123.499 52.4267 125.33C52.5142 125.433 52.6069 125.695 52.5847 125.71C52.3323 125.885 52.0061 126.207 51.7991 126.144C51.092 125.928 50.4248 125.573 49.6875 125.214Z" fill="#E7EAEE"/>
<path fill-rule="evenodd" clip-rule="evenodd" d="M122.523 244.795C124.507 244.821 125.559 246.141 126.692 247.309C127.018 247.644 127.282 248.064 127.477 248.487C127.671 248.908 127.933 249.482 127.394 249.766C127.152 249.894 126.616 249.641 126.291 249.439C125.361 248.858 124.484 248.196 123.558 247.609C123.225 247.398 122.76 247.379 122.446 247.151C121.989 246.819 121.613 246.377 121.203 245.982C121.606 245.586 122.01 245.191 122.523 244.795Z" fill="#E7EAEE"/>
<path fill-rule="evenodd" clip-rule="evenodd" d="M128.868 212.564C130.504 215.961 131.817 219.465 132.255 223.243C132.489 225.269 132.758 227.294 132.918 229.326C133.064 231.172 133.176 233.029 133.135 234.878C133.086 237.089 132.847 239.296 132.711 241.506C132.617 243.043 132.602 244.586 132.471 246.119C132.288 248.276 131.994 250.424 131.817 252.581C131.682 254.214 131.592 255.856 131.596 257.494C131.6 259.358 131.734 261.222 131.804 263.086C131.884 265.214 131.704 267.388 132.089 269.458C132.666 272.555 133.457 275.641 134.483 278.619C135.992 282.997 138.604 286.803 141.484 290.385C143.263 292.599 145.316 294.563 148.208 295.326C148.245 295.336 148.278 295.684 148.204 295.749C147.137 296.682 145.81 296.303 144.685 296.152C142.17 295.816 139.682 295.222 137.211 294.618C130.933 293.083 124.663 291.511 118.404 289.899C115.354 289.114 112.338 288.2 109.301 287.365C108.854 287.242 108.278 287.038 107.928 287.21C106.157 288.078 104.789 287.124 103.487 286.242C100.635 284.308 99.017 281.5 98.178 278.201C97.0206 273.649 97.951 269.305 99.6306 265.095C100.738 262.319 102.059 259.622 103.385 256.941C104.732 254.219 106.421 251.703 108.47 249.454C109.162 248.694 110.003 248.072 110.755 247.364C111.786 246.393 111.84 245.061 111.925 243.792C112.024 242.322 111.801 240.817 112.012 239.37C112.729 234.452 114.899 230.038 117.181 225.715C118.318 223.56 119.763 221.513 121.368 219.678C122.558 218.317 124.123 217.215 125.967 216.693C126.532 216.533 126.692 216.403 126.27 215.698C125.66 214.677 124.802 213.492 125.881 212.125C127.172 210.833 128.104 210.979 128.868 212.564ZM130.583 222.818C130.539 222.862 130.465 222.9 130.455 222.951C130.372 223.383 130.362 223.839 130.214 224.246C129.562 226.045 129.058 227.93 128.155 229.597C126.344 232.94 124.033 235.951 121.302 238.616C118.922 240.94 116.507 243.229 114.146 245.572C112.8 246.908 111.415 248.232 110.256 249.723C108.397 252.116 106.443 254.499 105.019 257.149C103.366 260.228 102.126 263.55 100.929 266.847C100.178 268.919 99.6679 271.114 99.353 273.298C99.0147 275.644 99.467 277.984 100.528 280.123C101.31 281.7 102.412 283.007 104.216 283.575C106.374 284.255 108.493 285.057 110.645 285.754C115.422 287.3 120.183 288.906 125.002 290.308C128.61 291.358 132.291 292.17 135.957 293.007C138.033 293.481 140.145 293.802 142.246 294.163C142.412 294.192 142.617 293.992 142.804 293.899C142.71 293.766 142.629 293.621 142.52 293.501C141.753 292.651 140.898 291.866 140.225 290.947C138.371 288.417 136.341 285.972 134.841 283.24C132.179 278.391 130.395 273.193 129.995 267.601C129.872 265.879 129.699 264.161 129.548 262.216C129.548 260.057 129.461 257.894 129.575 255.741C129.672 253.895 130.004 252.062 130.224 250.222C130.382 248.893 130.435 247.544 130.696 246.236C131.194 243.735 130.96 242.726 128.833 241.299C127.844 240.636 126.602 239.997 126.554 238.608C126.534 238.021 127.004 237.324 127.448 236.869C127.583 236.732 128.531 237.114 128.84 237.483C129.54 238.318 130.069 239.295 130.682 240.205C130.781 240.352 130.95 240.45 131.087 240.571C131.176 240.42 131.329 240.274 131.343 240.116C131.438 239.058 131.569 237.996 131.563 236.936C131.555 235.574 131.419 234.214 131.356 232.852C131.271 231.026 131.211 229.199 131.125 227.374C131.064 226.074 130.991 224.774 130.89 223.477C130.872 223.251 130.69 223.038 130.583 222.818ZM125.937 218.168C123.519 219.002 121.855 220.778 120.546 222.833C117.934 226.933 115.854 231.317 114.496 235.991C113.863 238.168 113.594 240.456 114.441 242.693C114.491 242.824 114.839 242.988 114.864 242.962C118.102 239.539 121.356 236.129 124.537 232.654C127.784 229.107 129.01 224.876 128.404 220.134C128.129 217.982 127.977 217.928 125.937 218.168ZM299.841 175.832C300.858 175.942 302.021 176.467 302.746 177.183C304.578 178.992 306.203 181.014 307.906 182.954C308.95 184.143 309.996 185.332 311.024 186.535C313.191 189.073 315.34 191.624 317.508 194.16C318.182 194.948 318.902 195.695 319.578 196.48C319.772 196.705 319.886 197 320.036 197.262C319.823 197.088 319.593 196.931 319.399 196.737C314.276 191.608 309.174 186.459 304.029 181.353C302.345 179.681 300.431 178.267 298.119 177.607C295.684 176.913 293.202 176.677 290.65 177.095C289.365 177.306 288.015 177.088 286.698 177.141C283.765 177.258 280.835 177.451 277.902 177.559C276.184 177.622 274.459 177.522 272.742 177.601C270.905 177.686 269.073 177.894 267.239 178.052C265.552 178.197 263.865 178.333 262.18 178.497C260.845 178.628 259.516 178.811 258.181 178.943C256.485 179.11 254.781 179.211 253.089 179.412C251.655 179.582 250.235 179.864 248.805 180.078C247.216 180.317 245.622 180.524 244.032 180.764C241.585 181.133 239.14 181.513 236.698 181.914C236.608 181.929 236.458 182.282 236.509 182.356C236.962 183.008 237.427 183.654 237.937 184.261C240.487 187.288 243.071 190.287 245.607 193.327C248.481 196.774 251.264 200.298 254.188 203.702C256.24 206.09 258.262 208.554 261.159 210.026C261.251 210.073 261.334 210.141 261.421 210.198C261.315 210.216 261.198 210.273 261.106 210.246C259.337 209.727 257.491 209.514 256.199 207.841C253.814 204.753 251.246 201.808 248.793 198.771C245.758 195.014 242.873 191.129 239.267 187.876C238.973 187.611 238.666 187.336 238.318 187.162C237.545 186.777 236.835 186.648 236.233 187.561C235.034 189.38 233.725 191.126 232.527 192.946C231.728 194.16 231.987 194.755 233.432 195.738C237.238 198.327 241.37 200.17 245.792 201.426C247.633 201.949 249.459 202.612 250.767 204.162C250.86 204.272 250.959 204.376 251.056 204.483C250.9 204.468 250.734 204.484 250.591 204.433C244.636 202.328 238.675 200.241 232.74 198.08C231.765 197.725 230.867 197.096 230.016 196.48C229.472 196.087 229.498 195.498 229.853 194.865C231.072 192.693 232.239 190.491 233.414 188.294C233.494 188.145 233.528 187.8 233.501 187.791C233.201 187.688 232.871 187.539 232.576 187.584C231.344 187.771 230.102 187.948 228.899 188.262C226.183 188.971 223.486 189.755 220.787 190.529C220.629 190.575 220.526 190.811 220.397 190.958C221.08 191.491 221.763 192.025 222.502 192.614C225.362 195.103 228.167 197.533 230.968 199.969C232.467 201.273 233.958 202.589 235.452 203.9C235.514 203.954 235.577 204.005 235.64 204.057C235.499 204.08 235.346 204.152 235.218 204.12C233.403 203.661 231.623 203.198 230.138 201.889C226.59 198.763 222.956 195.734 219.377 192.643C218.641 192.008 217.927 191.324 217.321 190.567C216.561 189.617 216.735 188.961 217.934 188.498C218.881 188.133 219.916 187.965 220.926 187.804C223.939 187.322 226.958 186.872 229.978 186.439C231.305 186.249 232.643 186.138 233.974 185.972C234.212 185.943 234.439 185.824 234.671 185.746C234.556 185.559 234.468 185.347 234.321 185.189C233.156 183.93 231.979 182.681 230.806 181.43C230.702 181.32 230.593 181.216 230.486 181.109C230.653 181.069 230.818 181.015 230.987 180.99C234.08 180.534 237.172 180.075 240.266 179.629C242.298 179.337 244.329 179.035 246.367 178.795C248.453 178.55 250.545 178.351 252.638 178.178C254.51 178.024 256.389 177.959 258.26 177.803C259.459 177.703 260.647 177.467 261.846 177.37C263.346 177.248 264.853 177.229 266.354 177.126C268.229 176.998 270.1 176.81 271.975 176.684C273.551 176.579 275.133 176.55 276.709 176.444C277.98 176.358 279.245 176.171 280.517 176.094C281.76 176.019 283.007 176.027 284.253 175.998C287.477 175.922 290.701 175.83 293.926 175.777C295.899 175.744 297.889 175.622 299.841 175.832ZM112.282 168.221C113.143 168.31 114.022 168.194 114.889 168.245C117.001 168.37 119.11 168.564 121.223 168.683C123.19 168.793 125.166 168.77 127.127 168.937C129.135 169.107 130.337 169.946 130.209 172.352C130.093 174.523 130.053 176.697 129.976 178.87C129.904 180.892 129.825 182.913 129.755 184.935C129.745 185.234 129.755 185.535 129.775 185.833C129.791 186.092 129.834 186.35 129.865 186.608C129.791 186.608 129.66 186.63 129.651 186.605C129.544 186.326 129.407 186.045 129.373 185.754C129.256 184.734 129.179 183.709 129.081 182.687C128.935 181.161 128.787 179.636 128.633 178.112C128.555 177.34 128.467 176.57 128.376 175.801C128.32 175.322 128.265 174.843 128.181 174.37C128.144 174.168 128.033 173.98 127.956 173.786C127.798 173.875 127.608 173.934 127.487 174.06C126.004 175.6 124.991 177.396 124.602 179.534C124.56 179.768 124.418 179.984 124.323 180.208C124.244 180.01 124.179 179.804 124.084 179.614C122.353 176.15 119.625 173.848 115.901 173.061C114.199 172.701 112.362 173.007 110.586 172.996C109.692 172.991 109.543 173.504 109.621 174.268C109.791 175.929 109.918 177.594 110.077 179.257C110.293 181.519 110.525 183.779 110.745 186.041C110.899 187.628 111.025 189.218 111.205 190.802C111.256 191.248 111.459 191.675 111.586 192.112C111.645 192.316 111.691 192.525 111.743 192.732C111.515 192.574 111.146 192.459 111.085 192.251C110.779 191.203 110.554 190.13 110.298 189.066C110.001 187.83 109.702 186.596 109.404 185.247C109.106 183.144 108.696 181.162 108.536 179.161C108.311 176.331 107.879 173.471 108.509 170.654C108.866 169.059 110.685 168.054 112.282 168.221ZM106.218 173.779C106.683 173.943 107.034 174.44 107.435 174.791C107.159 175.113 106.928 175.499 106.596 175.742C105.867 176.274 104.999 176.635 104.345 177.241C102.792 178.679 103.527 181.538 105.139 182.293C105.882 182.641 106.625 182.996 107.343 183.393C107.603 183.537 107.79 183.816 108.01 184.033C107.742 184.04 107.474 184.048 107.206 184.055C105.486 184.099 104.195 183.304 103.231 181.921C101.779 179.836 102.55 177.798 104.26 176.167C104.421 176.014 104.567 175.844 104.731 175.694C104.944 175.502 105.168 175.323 105.386 175.138C104.961 175.083 104.492 174.884 104.118 175.001C102.722 175.434 101.929 176.6 101.506 177.877C100.05 182.259 103.491 185.81 107.395 185.353C107.807 185.305 108.252 185.547 108.682 185.654C108.579 185.719 108.483 185.809 108.371 185.845C105.102 186.911 102.318 185.703 100.739 182.546C100.63 182.328 100.481 182.131 100.35 181.812C99.595 177.94 101.208 175.052 104.748 173.898C105.212 173.747 105.791 173.628 106.218 173.779ZM110.198 169.385C109.505 169.544 109.262 170.292 109.629 170.957C110.131 171.866 110.904 171.9 111.837 171.807C113.309 171.662 114.809 171.548 116.276 171.673C118.136 171.832 119.966 172.34 121.826 172.516C123.375 172.662 124.948 172.546 126.622 172.432C127.276 172.395 127.93 172.346 128.585 172.322C129.372 172.293 129.821 171.663 129.397 170.989C129.137 170.575 128.601 170.145 128.144 170.088C126.232 169.849 124.305 169.709 122.38 169.611C121.019 169.541 119.649 169.652 118.288 169.585C116.227 169.482 114.171 169.267 112.11 169.161C111.477 169.128 110.822 169.242 110.198 169.385ZM212.203 161.198C214.48 161.243 216.751 161.612 219.023 161.847C219.192 161.865 219.375 161.918 219.517 162.01C219.813 162.204 220.086 162.435 220.369 162.65C220.008 162.686 219.648 162.731 219.286 162.756C217.02 162.911 214.754 163.076 212.486 163.201C212.109 163.222 211.718 162.979 211.341 162.999C208.998 163.125 206.658 163.31 204.314 163.428C203.787 163.455 203.246 163.203 202.719 163.23C200.451 163.347 198.186 163.535 195.918 163.658C195.503 163.68 195.075 163.435 194.66 163.457C192.317 163.581 189.977 163.766 187.634 163.886C187.144 163.911 186.641 163.661 186.151 163.687C183.883 163.806 181.618 163.994 179.35 164.115C178.898 164.139 178.432 163.891 177.98 163.915C175.636 164.037 173.296 164.22 170.953 164.344C170.539 164.366 170.11 164.121 169.696 164.143C167.353 164.267 165.012 164.447 162.669 164.573C162.292 164.593 161.902 164.351 161.525 164.371C159.181 164.497 156.841 164.682 154.498 164.8C153.971 164.827 153.43 164.575 152.903 164.602C150.634 164.719 148.369 164.907 146.101 165.03C145.687 165.052 145.259 164.807 144.844 164.829C142.501 164.953 140.161 165.137 137.817 165.258C137.365 165.282 136.899 165.035 136.447 165.058C134.142 165.18 131.839 165.366 129.533 165.487C129.081 165.511 128.616 165.263 128.163 165.287C125.82 165.409 123.48 165.594 121.137 165.716C120.685 165.739 120.219 165.492 119.767 165.516C117.499 165.637 115.234 165.822 112.966 165.945C112.551 165.967 112.123 165.722 111.708 165.744C109.365 165.867 107.025 166.047 104.682 166.174C104.342 166.193 103.988 165.952 103.65 165.972C101.717 166.091 99.7885 166.272 97.8561 166.392C96.5408 166.475 95.2171 166.439 93.9053 166.553C92.0311 166.715 90.1527 166.895 88.2981 167.202C86.8471 167.443 85.4411 167.967 83.9893 168.196C83.5803 168.261 82.9775 167.818 82.6702 167.436C82.5402 167.275 82.8329 166.533 83.1242 166.293C84.3187 165.311 85.7561 165.144 87.3563 165.273C88.3522 165.196 89.2358 165.125 90.1186 165.043C91.7222 164.894 93.3226 164.692 94.9293 164.598C97.0494 164.475 99.1745 164.363 101.297 164.374C104.86 164.392 108.423 164.56 111.986 164.57C114.634 164.577 117.283 164.439 119.932 164.356C122.167 164.287 124.403 164.204 126.638 164.13C128.986 164.052 131.334 163.978 133.682 163.9C135.918 163.826 138.154 163.772 140.389 163.666C143.045 163.539 145.698 163.349 148.355 163.229C148.92 163.204 149.497 163.451 150.063 163.43C153.433 163.305 156.801 163.134 160.17 162.99C160.783 162.963 161.4 163.021 162.011 162.979C164.016 162.844 166.017 162.661 168.023 162.544C168.474 162.517 168.942 162.768 169.393 162.742C171.436 162.624 173.475 162.437 175.518 162.314C175.895 162.291 176.287 162.537 176.663 162.514C178.668 162.392 180.67 162.204 182.675 162.086C183.127 162.06 183.594 162.311 184.045 162.285C186.088 162.167 188.127 161.976 190.17 161.857C190.622 161.831 191.089 162.083 191.54 162.056C193.508 161.939 195.472 161.744 197.44 161.629C197.929 161.601 198.434 161.855 198.923 161.827C200.891 161.712 202.855 161.523 204.823 161.399C205.161 161.378 205.516 161.62 205.855 161.6C207.972 161.475 210.091 161.156 212.203 161.198ZM212.165 49.1289C217.128 49.588 221.804 51.1782 226.108 53.6351C228.638 55.0791 230.99 56.8648 233.294 58.66C236.868 61.4446 239.675 64.9336 242.099 68.738C243.906 71.5753 245.487 74.5385 246.425 77.7648C247.279 80.698 248.042 83.68 248.518 86.6916C248.862 88.8668 248.659 91.1262 248.723 93.3473C248.788 95.6174 248.55 97.8562 248.308 100.114C247.718 105.626 246.684 111.026 245.135 116.353C244.463 118.664 244.948 121.056 245.389 123.396C245.775 125.446 246.486 127.361 247.577 129.143C247.709 129.358 247.698 129.659 247.754 129.92C247.474 129.902 247.18 129.934 246.917 129.857C245.025 129.304 244.411 127.761 243.96 126.072C243.636 124.859 243.343 123.622 242.849 122.476C242.284 121.165 242.064 121.29 240.823 121.907C238.268 123.179 235.671 124.387 233.019 125.442C229.427 126.871 225.65 127.611 221.829 128.21C219.755 128.535 217.66 129.167 216.098 130.681C215.372 131.385 214.809 132.384 214.499 133.353C214.112 134.566 214.023 135.845 214.745 137.101C215.172 137.846 215.622 137.971 216.333 137.776C219.784 136.827 223.212 135.773 226.696 134.963C229.372 134.341 232.131 134.081 234.834 133.562C237.639 133.024 240.464 132.892 243.305 132.905C243.519 132.906 243.733 132.962 243.946 132.993C243.753 133.037 243.56 133.086 243.366 133.126C240.724 133.666 238.081 134.197 235.442 134.748C233.05 135.247 230.665 135.777 228.273 136.279C225.601 136.839 222.918 137.355 220.252 137.942C218.95 138.229 217.649 138.56 216.395 139.002C214.644 139.62 214.094 140.705 213.998 142.69C213.89 144.924 214.275 147.015 214.813 149.088C215.778 152.81 217.431 156.204 220.106 159.074C222.353 161.486 224.887 163.44 228.11 164.273C229.847 164.721 231.664 165.004 233.456 165.072C235.69 165.157 237.862 164.739 239.981 163.848C242.636 162.732 244.687 160.978 246.209 158.631C247.88 156.053 248.98 153.201 249.377 150.148C249.706 147.613 250.049 145.052 250.029 142.506C250.001 138.834 249.24 135.252 247.82 131.833C247.732 131.621 247.387 131.321 248.064 131.301C249.855 131.25 251.633 132.882 251.656 134.743C251.677 136.445 251.735 138.152 251.644 139.85C251.481 142.926 254.768 146.948 257.476 147.642C258.068 147.794 258.122 147.584 257.977 147.278C256.326 143.785 257.339 140.37 258.32 136.994C260.214 130.478 262.809 124.215 265.409 117.953C267.95 111.829 270.391 105.663 272.859 99.5089C274.952 94.2888 277.012 89.0554 279.104 83.8347C281.118 78.8077 283.154 73.7892 285.183 68.768C285.248 68.6072 285.354 68.463 285.418 68.3018C285.539 67.9962 285.642 67.6839 285.752 67.3743C285.437 67.5875 285.047 67.7405 284.818 68.023C282.107 71.3665 279.583 74.8775 276.682 78.0468C273.582 81.434 270.216 84.5957 266.806 87.6812C264.371 89.8853 261.674 91.8034 259.088 93.8425C258.846 94.0333 258.567 94.1769 258.305 94.3425C258.33 94.0375 258.385 93.7315 258.375 93.4277C258.296 91.0972 260.46 90.8877 261.762 89.8698C263.722 88.3374 265.76 86.8971 267.655 85.2892C271.186 82.2933 273.996 78.6369 276.859 75.0346C277.633 74.0608 278.461 73.1302 279.322 72.1235C281.831 69.399 284.193 66.6392 286.765 64.0902C289.021 61.8549 291.528 59.9007 294.695 58.9809C296.107 58.5707 298.674 59.512 299.623 61.0005C300.615 62.5536 301.009 64.2569 301.004 66.1086C300.994 69.9524 300.211 73.6763 299.398 77.399C298.512 81.4608 297.652 85.5299 296.665 89.5677C296.085 91.9362 295.404 94.2959 294.551 96.5789C292.522 102.01 290.462 107.434 288.218 112.779C286.941 115.82 285.363 118.748 283.757 121.637C282.867 123.238 281.552 124.459 279.437 124.363C278.57 124.323 278.013 125.332 277.894 126.562C277.72 128.352 277.573 130.157 277.204 131.911C276.456 135.463 274.863 138.693 272.953 141.753C271.51 144.065 269.906 146.277 268.416 148.561C267.385 150.143 266.018 151.42 264.147 151.518C262.974 151.58 261.755 150.837 260.566 150.43C260.372 150.363 260.202 150.183 260.06 150.021C259.477 149.354 259.029 148.369 258.301 148.086C257.621 147.822 256.632 148.488 255.813 148.405C254.413 148.264 253.243 147.539 252.387 146.37C252.22 146.142 252.031 145.612 251.849 146.484C251.356 148.849 250.732 151.19 250.066 153.515C248.852 157.751 246.604 161.393 243.17 164.166C241.041 165.885 238.588 167.023 235.714 167.181C232.8 167.341 230.187 166.551 227.579 165.392C223.888 163.752 220.644 161.517 217.614 158.864C213.266 155.058 209.97 150.498 207.707 145.266C206.442 142.338 205.699 139.176 204.842 136.087C203.978 132.973 202.892 129.987 201.105 127.258C199.487 124.784 198.306 122.079 197.858 119.15C197.709 118.174 198.041 117.088 198.307 116.094C198.837 114.114 199.13 112.115 198.682 110.111C198.459 109.112 197.848 108.205 197.494 107.228C196.073 103.307 194.579 99.4069 193.32 95.4338C192.452 92.694 191.852 89.8619 191.275 87.042C190.905 85.2365 190.79 83.3788 190.571 81.5432C190.411 80.2042 190.215 78.8666 190.129 77.5224C190.005 75.5911 190.031 73.649 189.874 71.7212C189.671 69.2346 190.04 66.772 190.652 64.4349C191.251 62.1491 192.419 59.982 193.539 57.8687C194.837 55.4201 196.614 53.318 199.018 51.8296C201.165 50.5003 203.456 49.5128 206.003 49.326C208.053 49.1756 210.134 48.941 212.165 49.1289ZM195.828 109.131C195.685 109.367 195.6 109.705 195.391 109.82C194.171 110.495 192.95 111.18 191.677 111.743C189.516 112.699 187.317 113.566 185.021 114.47C181.433 116.068 177.887 117.528 174.504 119.301C171.133 121.068 168 123.235 165.075 125.715C160.793 129.345 157.338 133.605 155.106 138.748C154.194 140.85 153.569 143.152 153.264 145.424C152.861 148.429 152.91 151.494 152.748 154.533C152.611 157.083 152.46 159.632 152.294 162.181C152.231 163.142 151.483 162.429 151.091 162.604C151.06 162.617 150.734 162.23 150.753 162.053C150.942 160.358 151.282 158.673 151.37 156.975C151.481 154.833 151.379 152.682 151.4 150.535C151.44 146.421 152.224 142.471 153.936 138.706C155.53 135.2 157.679 132.095 160.231 129.221C164.082 124.883 168.692 121.564 173.718 118.767C178.472 116.122 183.401 113.862 188.503 111.969C190.716 111.148 192.871 110.17 195.058 109.277C195.295 109.18 195.571 109.178 195.828 109.131ZM256.184 158.922C258.139 159.197 260.085 159.538 262.037 159.831C263.228 160.01 264.421 160.233 265.619 160.286C267.376 160.363 269.138 160.276 270.896 160.315C272.185 160.344 273.473 160.454 274.76 160.544C275.672 160.607 276.581 160.751 277.493 160.765C279.603 160.799 281.714 160.799 283.824 160.771C288.767 160.707 293.71 160.568 298.653 160.576C299.917 160.578 301.179 161.012 302.443 161.245C302.516 161.258 302.623 161.213 302.664 161.252C302.953 161.527 303.228 161.817 303.508 162.103C303.143 162.131 302.777 162.183 302.412 162.184C299.912 162.191 297.411 162.209 294.911 162.177C293.924 162.164 292.94 161.987 291.952 161.96C288.329 161.862 284.704 161.788 281.08 161.721C279.786 161.697 278.491 161.717 277.084 161.717C275.464 161.717 273.955 161.745 272.449 161.71C270.143 161.657 267.839 161.522 265.533 161.491C262.619 161.452 259.702 161.537 256.789 161.457C255.426 161.42 254.063 161.155 252.71 160.927C251.954 160.8 251.778 160.099 252.029 159.529C252.202 159.136 252.781 158.724 253.197 158.702C254.188 158.652 255.195 158.783 256.184 158.922ZM198.332 111.725C198.252 111.769 198.148 111.795 198.095 111.861C196.449 113.94 194.619 115.904 193.214 118.135C191.326 121.133 189.767 124.342 188.835 127.793C188.331 129.658 187.966 131.561 187.528 133.445C187.241 134.68 186.589 135.7 185.522 136.384C184.104 137.294 182.603 138.075 181.206 139.013C177.729 141.348 175.526 144.655 174.243 148.578C173.524 150.773 173.072 153.02 173.487 155.371C173.74 156.8 173.845 158.255 174.003 159.7C174.028 159.93 173.98 160.168 173.967 160.402C173.661 160.375 173.21 160.463 173.079 160.297C172.721 159.845 172.333 159.31 172.251 158.764C172.007 157.135 171.911 155.484 171.741 153.843C171.706 153.501 171.603 153.165 171.531 152.827C171.227 153.165 170.879 153.473 170.626 153.845C168.938 156.333 167.276 158.838 165.584 161.322C165.461 161.504 165.171 161.573 164.958 161.695C164.903 161.315 164.679 160.847 164.824 160.571C165.359 159.547 165.945 158.531 166.641 157.61C168.271 155.455 170.118 153.451 171.599 151.202C172.575 149.72 173.103 147.934 173.765 146.258C174.443 144.542 175.513 143.138 176.896 141.943C178.641 140.436 180.378 138.92 182.175 137.351C183.396 136.057 184.702 134.921 185.69 133.556C186.993 131.756 187.457 129.561 187.984 127.425C189.1 122.904 191.086 118.806 194.018 115.177C194.748 114.273 195.441 113.324 196.274 112.523C196.726 112.088 197.434 111.915 198.036 111.642C198.107 111.609 198.232 111.694 198.332 111.725ZM35.076 71.6529C36.3382 71.9795 36.5207 73.0768 35.5552 73.9147C33.3629 75.8173 32.3197 78.2463 32.159 81.0672C32.0703 82.6253 32.2162 84.1966 32.1297 85.755C31.8446 90.8922 33.3447 95.6209 35.5663 100.132C37.6902 104.444 40.7828 107.996 45.2204 110.071C47.7666 111.261 50.4896 112.097 53.171 112.977C55.5002 113.742 57.8868 114.333 60.2407 115.025C62.55 115.704 64.8248 116.32 67.2717 115.504C68.5269 115.085 69.4687 116.208 68.988 117.425C67.1703 122.025 65.6215 126.8 62.4286 130.679C60.5133 133.006 58.2974 135.159 55.9269 137.027C52.4469 139.77 48.4454 141.725 44.4485 143.651C40.55 145.53 36.7393 147.591 32.8236 149.432C28.4123 151.506 23.942 153.458 19.4686 155.398C15.8597 156.963 12.2165 158.452 8.56955 159.928C7.69751 160.281 6.76342 160.528 5.83405 160.682C4.90287 160.837 2.85716 159.377 2.4917 158.411C1.56428 155.962 0.933859 153.444 0.673512 150.834C0.515073 149.245 0.301815 147.662 0.0565909 146.077C1.14604e-08 145.964 -1.52805e-08 145.852 0.0565902 145.683C0.150907 143.51 0.190464 141.394 0.216742 139.278C0.217465 139.22 0.075453 139.16 0 139.101V138.257C0.0377188 138.2 0.10846 138.202 0.10851 138.2C0.179803 136.241 0.240413 134.282 0.316475 132.323C0.34105 131.69 0.412628 131.059 0.4517 130.427C0.776136 125.175 1.40011 119.957 2.74412 114.865C3.81664 110.802 5.23284 106.85 6.9541 102.99C8.91751 98.5867 11.3046 94.4462 14.055 90.5092C15.4563 88.5034 16.9869 86.5704 18.6154 84.7422C20.5748 82.5425 22.5879 80.3645 24.7837 78.4054C27.2906 76.1687 29.9846 74.1302 32.69 72.1295C33.2923 71.6841 34.3571 71.4669 35.076 71.6529ZM31.7863 74.7397C31.6592 74.7968 31.5155 74.8322 31.4074 74.9141C28.0059 77.4925 24.625 80.0968 21.8084 83.3319C20.0586 85.3416 18.27 87.3231 16.618 89.4106C12.603 94.4839 9.496 100.075 7.13034 106.245C7.05003 106.475 6.95683 106.701 6.89134 106.935C5.87482 110.567 4.79923 114.184 3.87679 117.839C3.46758 119.461 3.3501 121.158 3.13541 122.825C2.89915 124.659 2.63602 126.494 2.51093 128.338C2.40788 129.856 2.54671 131.39 2.47442 132.912C2.38462 134.803 2.12316 136.687 2.05979 138.578C2.01698 139.855 2.22316 141.139 2.2546 142.421C2.29258 143.971 2.23466 145.523 2.27263 147.072C2.30377 148.343 2.33425 149.623 2.51046 150.878C2.72623 152.416 3.11063 153.929 3.39134 155.459C3.79666 157.667 4.70402 158.522 6.86649 158.679C8.38209 158.789 9.53398 157.893 9.74613 156.473C9.77192 156.301 10.0436 156 10.079 156.017C11.9896 156.913 13.6481 156.01 15.3226 155.3C18.8807 153.79 22.4547 152.314 25.9771 150.725C31.2181 148.362 36.4374 145.949 41.631 143.484C44.0609 142.331 46.4471 141.074 48.7862 139.748C53.3512 137.159 57.5242 134.089 60.9039 130.006C63.5232 126.842 65.1423 123.245 66.0807 119.309C66.2589 118.561 65.9964 117.912 65.1027 117.72C62.68 117.2 60.263 116.653 57.8366 116.151C52.905 115.13 48.1379 113.707 43.7059 111.218C38.015 108.021 34.3695 103.193 32.1802 97.2297C31.1417 94.4006 30.3075 91.4687 30.329 88.3879C30.3452 86.0748 30.1416 83.7412 30.3881 81.4543C30.6159 79.3407 31.3144 77.2775 31.7972 75.1901C31.83 75.0483 31.7916 74.8902 31.7863 74.7397ZM126.679 108.17C128.028 109.096 129.362 110.046 130.669 111.031C131.023 111.297 131.051 111.563 131.212 110.864C131.463 109.773 133.016 109.468 133.946 110.244C136.078 112.022 137.154 114.414 137.935 117.015C138.612 119.27 138.344 121.563 138.41 123.842C138.452 125.305 139.822 126.408 141.26 126.467C142.323 126.511 143.441 126.977 144.398 127.505C146.712 128.781 148.2 130.795 148.931 133.332C149.719 136.065 148.986 138.497 147.402 140.767C145.962 142.832 144.651 144.994 142.56 146.508C141.404 147.346 140.072 148.041 139.167 149.098C138.195 150.234 137.079 150.975 135.755 151.486C132.494 152.744 128.931 151.112 127.335 148.393C125.896 145.943 122.432 146.482 121.09 148.467C120.504 149.333 120.343 150.477 119.906 151.457C119.637 152.058 119.898 151.967 120.3 151.907C122.293 151.611 124.288 151.328 126.282 151.046C126.385 151.031 126.495 151.071 126.601 151.086C126.522 151.146 126.449 151.217 126.363 151.266C124.385 152.384 122.244 153.015 120.005 153.282C118.308 153.484 116.574 153.808 114.902 153.637C113.584 153.502 112.243 152.847 111.079 152.146C109.706 151.32 109.294 149.916 109.32 148.276C109.372 145.091 110.593 142.404 112.61 140.075C113.191 139.404 114.217 139.121 115.034 138.651C115.344 138.472 115.796 138.45 115.247 137.873C112.852 135.357 110.724 132.632 109.268 129.442C109.038 128.938 108.801 128.419 108.701 127.882C108.639 127.552 108.731 127.081 108.945 126.853C109.08 126.71 109.615 126.813 109.886 126.961C110.292 127.182 110.614 127.554 110.988 127.838C111.627 128.324 111.982 128.117 111.809 127.36C111.317 125.208 111.769 123.165 112.526 121.19C112.934 120.125 113.599 119.154 114.215 118.183C114.274 118.091 114.867 118.231 115.125 118.397C115.603 118.707 116.018 119.116 116.459 119.483C116.489 118.895 116.498 118.305 116.556 117.719C116.59 117.372 116.675 117.023 116.781 116.689C117.309 115.013 117.593 114.928 118.992 115.979C119.18 116.12 119.404 116.212 119.612 116.326L119.672 115.9C119.681 115.829 119.69 115.757 119.696 115.686C119.85 113.844 119.481 112.172 118.134 110.805C118.118 110.788 118.411 110.308 118.579 110.294C120.519 110.142 122.459 110.062 124.233 111.098C124.596 111.31 124.958 111.523 125.377 111.792C125.545 111.639 125.734 111.437 125.757 111.218C125.862 110.226 125.91 109.228 126.024 108.237C126.03 108.184 126.534 108.07 126.679 108.17ZM113.755 140.249C113.711 140.331 113.683 140.428 113.621 140.493C111.414 142.823 110.385 145.59 110.467 148.8C110.511 150.543 111.44 151.827 113.183 152.145C114.291 152.347 115.441 152.338 116.573 152.369C116.71 152.372 116.933 152.053 116.985 151.85C117.319 150.553 117.295 149.108 118.685 148.114C119.072 147.964 119.461 147.815 119.848 147.663C120.024 147.594 120.336 147.531 120.343 147.444C120.359 147.259 120.271 146.972 120.129 146.884C119.749 146.649 119.332 146.39 118.904 146.33C116.93 146.056 115.529 145.015 114.725 143.224C114.343 142.372 114.135 141.442 113.849 140.547C113.817 140.448 113.786 140.348 113.755 140.249ZM119.022 148.902C118.872 149.47 118.7 150.033 118.594 150.609C118.576 150.705 118.879 150.983 118.966 150.956C119.325 150.847 119.44 149.125 119.022 148.902ZM127.207 109.396C127.328 109.809 127.499 110.216 127.56 110.638C127.697 111.596 127.615 112.512 126.674 113.076C125.922 113.527 125.358 112.985 124.847 112.589C123.685 111.691 122.313 111.574 120.949 111.403C120.205 111.309 120.171 111.616 120.414 112.257C120.772 113.199 121.217 114.201 121.189 115.164C121.172 115.769 120.399 116.393 119.884 116.929C119.403 117.43 118.943 117.193 118.563 116.699C118.504 116.623 118.317 116.647 118.189 116.625C118.197 116.828 118.171 117.041 118.221 117.233C118.519 118.378 118.092 119.485 116.891 120.143C116.06 120.599 115.475 119.904 114.969 119.365C114.589 118.96 114.555 119.206 114.394 119.514C112.991 122.199 112.83 125.006 113.575 127.891C113.76 128.608 113.43 128.965 112.838 128.938C112.148 128.906 111.472 128.635 110.784 128.497C110.465 128.433 110.133 128.438 109.807 128.412C109.896 128.725 109.936 129.063 110.08 129.35C111.27 131.717 112.801 133.859 114.787 135.6C115.958 136.627 116.677 137.527 116.642 139.299C116.597 141.613 117.828 143.505 119.964 144.763C121.665 145.765 123.474 145.556 125.268 145.618C126.187 145.649 126.855 145.967 127.401 146.695L127.618 146.985C128.739 148.489 129.847 149.986 131.853 150.512C134.115 151.104 136.183 150.867 137.927 149.273C138.29 148.941 138.294 148.148 138.309 147.563C138.312 147.457 137.576 147.269 137.17 147.224C135.545 147.042 133.912 147.454 132.272 147.01C129.955 146.383 127.826 145.46 126.07 143.788C125.739 143.473 125.461 143.103 125.158 142.758C125.692 142.884 126.227 143.005 126.759 143.138C126.892 143.171 127.044 143.211 127.139 143.299C129.622 145.586 132.535 146.583 135.903 146.318C139.32 146.048 141.08 144.254 141.256 141.255C141.439 138.157 140.84 135.158 139.415 132.35C139.209 131.944 139.211 131.38 139.261 130.904C139.454 129.057 139.918 127.193 137.935 125.879C137.602 125.658 137.509 124.919 137.487 124.412C137.419 122.907 136.945 122.345 135.476 122.209C134.58 122.125 134.078 121.589 133.873 120.748C133.814 120.504 133.817 120.245 133.791 119.993C133.552 120.208 133.25 120.383 133.086 120.645C132.255 121.975 131.015 122.798 129.712 123.594C129.052 123.997 128.839 123.951 128.675 123.204C128.598 122.853 128.312 122.547 128.121 122.221C127.937 122.482 127.747 122.739 127.571 123.006C127.34 123.359 127.176 123.776 126.885 124.066C125.845 125.101 124.794 126.131 123.672 127.073C123.428 127.278 122.695 127.282 122.51 127.081C122.265 126.815 122.298 126.257 122.286 125.823C122.275 125.391 122.381 124.956 122.383 124.522C122.384 124.353 122.25 124.045 122.164 124.04C121.978 124.029 121.691 124.12 121.606 124.264L121.165 125.007C120.724 125.751 120.291 126.5 119.936 127.285C118.986 129.386 118.597 131.618 118.545 133.924C118.537 134.249 118.191 134.598 117.93 134.867C117.841 134.959 117.381 134.89 117.353 134.807C117.231 134.443 117.136 134.042 117.162 133.663C117.202 133.063 117.358 132.471 117.446 131.873C117.979 128.261 119.542 125.19 122.241 122.72C122.34 122.629 122.685 122.622 122.691 122.642C122.936 123.48 123.165 124.322 123.371 125.17C123.417 125.362 123.375 125.575 123.373 125.778C123.554 125.696 123.756 125.642 123.912 125.527C125.619 124.264 126.985 122.708 127.964 120.813C128.2 120.356 128.531 119.948 128.818 119.518L129.321 120.434C129.488 120.74 129.653 121.048 129.81 121.358C129.871 121.478 129.775 121.675 129.834 121.798C129.877 121.888 130.129 121.991 130.158 121.962C131.029 121.061 131.867 120.127 132.752 119.241C133.092 118.901 133.731 118.341 133.893 118.44C134.419 118.762 134.806 119.328 135.204 119.834C135.295 119.95 135.148 120.242 135.233 120.377C135.387 120.623 135.716 121.03 135.824 120.988C136.371 120.777 136.921 120.5 137.363 120.121C137.539 119.969 137.44 119.496 137.354 119.056C136.9 116.185 135.767 113.646 133.697 111.565C133.567 111.434 133.432 111.307 133.3 111.179C133.264 111.352 133.229 111.525 133.193 111.697C132.996 112.651 131.97 113.225 131.229 112.648C130.295 111.919 129.554 110.948 128.662 110.159C128.263 109.807 127.697 109.644 127.207 109.396ZM206.276 132.919C206.196 132.999 206.061 133.07 206.046 133.16C205.994 133.482 205.915 133.822 205.966 134.137C206.244 135.856 206.594 137.564 206.852 139.286C207.302 142.29 208.054 145.206 209.605 147.835C210.156 148.767 211.049 149.5 211.798 150.312C211.883 150.404 212.05 150.422 212.179 150.474C212.173 150.394 212.176 150.313 212.161 150.235C211.979 149.297 211.908 148.319 211.589 147.429C210.829 145.305 209.952 143.224 209.01 141.012C208.444 139.481 207.846 137.96 207.324 136.414C206.964 135.35 206.711 134.25 206.405 133.168C206.38 133.08 206.32 133.002 206.276 132.919ZM266.806 127.874C266.801 127.977 266.587 128.062 266.487 128.171C266.216 128.469 265.9 128.742 265.697 129.082C263.47 132.821 262.298 136.938 261.392 141.146C261.152 142.262 260.937 143.385 260.711 144.73C260.636 145.374 260.484 146.021 260.505 146.662C260.529 147.407 260.522 148.242 260.85 148.871C261.77 150.636 264.236 150.586 265.75 149.656C267.151 148.796 267.824 147.41 268.582 146.101C269.875 143.869 270.954 141.512 272.298 139.313C274.125 136.323 275.926 133.344 276.75 129.891C276.998 128.852 276.468 128.144 275.36 128.175C272.75 128.251 270.214 127.736 267.674 127.26C266.82 127.1 266.84 127.056 266.806 127.874ZM140.585 127.406C140.134 129.348 140.423 131.203 140.982 133.035C141.796 135.705 142.684 138.355 142.412 141.209C142.221 143.205 141.324 144.782 139.609 145.884C139.345 146.053 139.227 146.45 139.041 146.741C139.389 146.813 139.739 146.948 140.083 146.934C140.295 146.926 140.524 146.721 140.701 146.556C141.97 145.376 143.392 144.313 144.443 142.961C145.499 141.601 146.181 139.951 147.139 138.315C147.359 137.269 147.618 136.23 147.79 135.176C148.176 132.812 146.992 130.537 144.835 129.734C143.422 129.208 141.876 129.012 141.276 127.297C141.178 127.017 140.812 126.428 140.585 127.406ZM72.2605 76.1224C75.0174 76.4498 77.7937 76.9608 80.4387 77.789C83.2736 78.6766 85.7574 80.3658 87.7675 82.5909C90.508 85.6244 92.2959 89.1499 93.0904 93.1989C93.4268 94.9135 93.5326 96.6155 93.5001 98.3389C93.4795 99.4327 93.3668 100.525 93.2841 101.617C93.1073 103.953 93.6934 106.175 94.273 108.401C94.8668 110.68 94.6506 112.965 94.4414 115.28C94.1324 118.701 92.8458 121.795 91.4498 124.838C90.5511 126.797 89.3343 128.616 88.2003 130.461C87.2409 132.021 86.1957 133.529 85.1322 135.116C83.6978 137.374 82.2977 139.562 80.9515 141.783C80.3581 142.762 79.8752 143.808 79.3393 144.822C79.2739 144.946 79.2085 145.078 79.1124 145.176C78.7799 145.517 78.4337 145.844 78.0927 146.176C78.0606 145.691 77.8689 145.148 78.0214 144.73C79.2413 141.387 81.1214 138.403 83.1601 135.507C85.6286 132 88.2513 128.588 90.0016 124.629C91.1516 122.029 92.0589 119.353 92.3793 116.513C92.5648 114.867 92.773 113.217 92.8109 111.565C92.8486 109.924 92.6878 108.279 92.604 106.637C92.5999 106.555 92.458 106.406 92.4502 106.411C92.2666 106.516 92.0554 106.606 91.9232 106.761C91.2209 107.589 90.5506 108.443 89.8474 109.27C88.0606 111.37 85.885 112.783 83.1392 113.395C80.4269 113.999 78.1467 113.209 76.2197 111.442C73.7777 109.202 73.8145 106.462 75.4946 103.869C77.0315 101.496 79.2588 100.238 82.1235 99.8352C84.9242 99.4414 87.4667 100.219 90.0094 101.049C90.9489 101.356 91.5275 101.685 91.5722 100.356C91.6227 98.8511 91.5297 97.3262 91.7448 95.8456C92.0214 93.9422 91.3579 92.2803 90.8211 90.5523C89.7591 87.133 87.7072 84.4568 84.9619 82.1927C82.8558 80.4558 80.4929 79.2618 77.9164 78.5619C75.2565 77.8393 72.5571 77.5083 69.7275 77.7954C65.1433 78.2604 61.16 80.0151 57.5406 82.6987C54.9768 84.5997 52.9815 87.0612 51.2134 89.7097C50.9499 90.1044 50.5148 90.3843 50.1606 90.7189C49.718 91.137 49.1278 91.2574 48.8118 90.7685C48.5719 90.3973 48.4847 89.6056 48.7194 89.3035L49.265 88.6C50.3582 87.1913 51.4732 85.7841 52.772 84.5853C54.363 83.1169 56.1865 81.8809 57.993 80.6692C61.0124 78.644 64.3208 77.2814 67.9376 76.7278C69.3818 76.5068 70.8633 75.9564 72.2605 76.1224ZM115.7 141.867C115.683 142.01 115.636 142.156 115.653 142.295C115.806 143.586 116.652 144.442 117.609 145.158C117.93 145.397 118.491 145.314 118.942 145.378C118.704 145.012 118.482 144.634 118.223 144.282C118.069 144.074 117.858 143.907 117.673 143.496C117.121 143.019 116.571 142.54 116.016 142.067C115.923 141.987 115.806 141.933 115.7 141.867ZM293.539 61.8049C292.332 62.8099 291.131 63.8272 289.985 64.9001C288.104 66.6601 286.913 68.9123 285.928 71.2195C283.858 76.0711 281.944 80.989 279.984 85.8872C277.096 93.1059 274.224 100.331 271.346 107.779C271.195 108.018 271.001 108.239 270.9 108.497C269.069 113.149 267.256 117.807 265.425 122.459C264.015 126.044 262.518 129.597 261.183 133.21C259.95 136.552 259.151 140.019 258.686 143.553C258.641 143.894 258.757 144.256 258.798 144.607C258.832 144.308 258.82 143.993 258.917 143.716C258.983 143.53 259.282 143.422 259.342 143.237C260.489 139.691 261.542 136.114 262.773 132.598C263.62 130.178 264.685 127.831 265.699 125.472C266.173 124.37 266.596 124.263 267.66 124.79C268.38 125.146 269.111 125.479 269.814 125.865C270.925 126.474 272.102 126.705 273.358 126.593C274.253 126.514 275.372 125.481 275.394 124.52C275.415 123.58 274.998 122.826 273.908 122.726C273.226 122.664 272.529 122.698 271.863 122.568C271.371 122.473 270.917 122.183 270.446 121.979C270.753 121.745 271.038 121.47 271.375 121.291C271.583 121.181 271.869 121.214 272.121 121.185C273.806 120.99 275.236 121.796 276.716 122.373C279.383 123.412 280.887 123.214 282.242 121.435C282.97 120.479 283.458 119.32 283.94 118.204C286.125 113.136 288.444 108.116 290.38 102.954C292.382 97.6135 294.248 92.1957 295.714 86.6905C297.292 80.7681 299.021 74.8373 299.326 68.6475C299.41 66.9431 299.263 65.2931 298.776 63.6099C297.991 60.9005 295.433 60.2287 293.539 61.8049ZM200.814 116.053C200.717 116.238 200.595 116.415 200.529 116.61C199.681 119.12 199.814 121.634 200.987 123.958C202.214 126.392 203.718 128.688 205.114 131.035C205.174 131.135 205.371 131.153 205.505 131.209C205.548 131.028 205.667 130.825 205.621 130.669C205.221 129.299 204.766 127.944 204.392 126.567C204.315 126.283 204.399 125.808 204.597 125.632C204.891 125.37 205.383 125.117 205.738 125.177C206.762 125.348 207.613 126.565 207.714 127.78C207.88 129.787 207.939 131.81 208.243 133.797C208.731 136.991 209.991 139.95 211.39 142.845C211.466 143.002 211.614 143.124 211.728 143.262C211.84 143.083 212.005 142.918 212.055 142.723C212.23 142.041 212.262 141.305 212.535 140.669C213.497 138.428 213.482 136.275 212.304 134.104C211.66 132.917 211.159 131.652 210.48 130.31C210.001 128.932 209.774 127.386 208.985 126.215C207.768 124.409 206.129 122.891 204.74 121.194C203.514 119.695 202.385 118.118 201.213 116.576L200.814 116.053ZM136.59 137.44C136.848 137.881 137.047 138.29 137.374 138.529C138.603 139.427 138.465 141.845 137.256 142.59C136.985 142.757 136.518 142.616 136.141 142.617C136.141 142.312 136.047 141.968 136.156 141.707C136.922 139.865 136.127 138.356 134.121 137.872C133.807 137.797 133.522 137.606 133.223 137.468C133.498 137.299 133.767 137.121 134.048 136.964C134.349 136.797 134.661 136.65 134.97 136.496C136.13 135.918 136.316 136.013 136.59 137.44ZM138.621 127.809C138.803 128.857 138.747 129.99 138.559 131.044C138.412 131.866 136.255 132.318 135.082 132.166C133.843 132.005 133.081 131.265 132.311 130.477C131.64 129.79 130.875 129.25 129.929 129.632C128.968 130.02 128.931 130.974 128.976 131.99C128.707 133.777 128.188 135.223 126.627 136.281C124.562 137.681 122.182 136.655 121.254 134.958C121.149 134.766 120.963 134.618 120.815 134.449C120.702 134.614 120.555 134.765 120.483 134.946C119.926 136.355 119.32 137.75 118.858 139.191C118.57 140.088 118.981 140.496 119.898 140.487C120.511 140.481 121.125 140.476 121.737 140.493C121.898 140.497 122.056 140.586 122.216 140.635C122.127 140.785 122.073 141.017 121.944 141.07C121.365 141.309 120.68 141.787 120.19 141.645C118.904 141.272 117.778 140.568 117.704 138.975C117.585 136.38 118.978 134.422 120.46 132.513C122.147 130.339 124.638 129.571 127.149 128.86C130.303 127.967 133.457 127.069 136.612 126.179C137.269 125.994 138.441 126.774 138.621 127.809ZM126.558 129.827C125.433 130.274 124.32 130.766 123.245 131.319C121.389 132.275 121.194 133.965 122.74 135.305C124.347 136.698 126.411 136.226 127.017 134.235C127.358 133.118 127.431 131.921 127.624 130.537C127.676 129.699 127.148 129.593 126.558 129.827ZM131.22 130.657C131.319 130.697 131.415 130.748 131.517 130.774C133.043 131.163 134.231 133.65 133.505 134.996C133.362 135.262 133.068 135.443 132.844 135.663C132.788 135.444 132.726 135.226 132.678 135.005C132.534 134.35 132.396 133.694 132.203 132.985C131.855 132.27 131.557 131.61 131.267 130.946C131.23 130.86 131.235 130.754 131.22 130.657ZM135.965 126.87C134.699 127.312 133.482 127.891 132.018 128.413C131.981 128.583 131.86 128.79 131.918 128.917C132.648 130.517 135.388 131.645 137.03 131.042C137.999 130.687 138.535 129.459 138.216 128.328C137.994 127.543 136.695 126.616 135.965 126.87ZM252.317 88.1174C254.497 88.3298 256.238 89.2826 257.565 91.1597C258.294 92.1909 257.74 93.0457 257.569 93.9118C256.951 97.0345 256.204 100.131 255.495 103.235C254.911 105.79 254.317 108.344 253.72 110.896C252.923 114.297 252.124 117.698 251.318 121.097C250.739 123.542 250.152 125.986 249.554 128.427C249.491 128.683 249.332 128.913 249.218 129.156C249.112 128.901 248.898 128.637 248.918 128.394C249.084 126.467 249.251 124.538 249.502 122.622C249.766 120.605 250.089 118.594 250.449 116.592C250.879 114.203 251.331 111.816 251.854 109.447C253.038 104.082 254.566 98.8204 256.315 93.616C257.009 91.5486 255.036 90.1837 253.44 90.2195C252.419 90.2424 251.539 90.4753 250.602 90.7043C250.447 90.7421 250.203 90.3991 250 90.1199C250 89.9329 249.977 89.8473 250.004 89.7851C250.221 89.2911 249.433 88.3859 250.595 88.2777C251.17 88.2242 251.753 88.0624 252.317 88.1174ZM140.444 118.143C141.813 118.163 143.181 118.345 144.548 118.332C146.503 118.314 148.369 118.73 150.116 119.5C151.652 120.176 153.07 121.112 154.597 121.99C156.379 123.576 157.734 125.351 158.256 127.623C158.324 127.922 157.996 128.309 157.851 128.655C157.617 128.447 157.237 128.275 157.172 128.024C155.931 123.213 152.435 120.871 147.871 119.697C145.377 119.055 142.855 119.213 140.324 119.439C139.996 119.468 139.261 119.902 139.234 119.038C139.209 118.244 139.88 118.134 140.444 118.143ZM205.504 50.7208C201.058 51.3518 197.77 53.9031 195.278 57.5661C192.562 61.5583 191.654 66.0955 191.534 70.758C191.449 74.0868 191.847 77.4377 192.179 80.7641C192.426 83.2493 192.778 85.7406 193.324 88.1757C194.012 91.245 194.96 94.2559 195.77 97.2989C197.124 102.387 198.828 107.356 200.989 112.157C203.293 117.274 206.321 121.911 210.576 125.66C211.949 126.87 213.541 127.745 215.393 127.928C217.7 128.157 219.94 127.723 222.146 127.048C226.864 125.605 231.632 124.308 236.303 122.727C240.569 121.284 243.225 118.188 244.173 113.793C244.883 110.498 245.482 107.173 245.979 103.839C246.402 101.002 246.745 98.138 246.864 95.2755C246.956 93.0864 246.67 90.8786 246.503 88.6828C246.376 87.0091 246.173 85.3412 246.004 83.4454C245.454 80.1143 244.457 76.9262 243.143 73.809C241.147 69.0726 238.397 64.9053 234.679 61.3091C230.627 57.3889 225.783 54.8953 220.516 53.1801C217.544 52.2122 214.467 51.4999 211.388 50.9389C209.471 50.5895 207.421 50.4486 205.504 50.7208ZM73.1225 81.2038C72.9902 81.4104 72.8726 81.6282 72.7236 81.8219C69.9576 85.4191 67.0291 88.9039 64.4601 92.6368C61.4291 97.0413 58.8964 101.759 56.9302 106.837C56.1645 108.429 55.4637 109.969 54.7415 111.499C54.3591 112.309 53.564 112.207 53.0222 111.946C52.4354 111.664 52.5079 111.066 52.8593 110.437C55.7543 105.255 58.533 100.008 61.495 94.8653C63.3119 91.7112 65.2748 88.6253 67.395 85.6691C68.5293 84.0876 70.1289 82.8386 71.5379 81.4593C71.7251 81.2761 72.0172 81.1466 72.2781 81.1073C72.5486 81.0666 72.8401 81.1658 73.1225 81.2038ZM80.5442 101.886C77.4426 102.708 75.9009 104.979 76.1696 107.965C76.3389 109.847 77.0836 111.051 78.8675 111.559C80.9124 112.14 82.954 111.874 84.8795 111.099C87.6417 109.989 89.901 108.309 90.5864 104.939C90.6581 104.031 90.3968 103.367 89.5878 102.776C86.7207 100.68 83.6947 101.05 80.5442 101.886ZM145.2 42.7715C145.125 42.8654 145.049 42.9029 144.974 42.9968C144.731 43.1062 144.431 43.0858 144.255 43.223C139.87 46.649 137.12 51.1248 135.675 56.4427C134.988 58.9681 134.677 61.5436 134.791 64.1416C134.991 68.7135 136.426 72.8919 139.026 76.6944C141.867 80.8487 145.642 83.9058 150.148 86.0508C152.731 87.2801 155.472 88.1649 158.375 88.3195C159.682 88.389 161.019 88.1742 162.3 88.3648C164.762 88.7312 167.053 88.0686 169.327 87.407C173.907 86.0748 177.937 83.7734 181.39 80.4471C183.937 77.9931 186.14 75.3252 187.594 72.0889C187.623 72.0255 187.659 71.9652 187.691 71.9034C187.734 71.9872 187.824 72.0771 187.814 72.154C187.597 73.7968 187.702 75.4605 186.534 76.9267C182.918 81.4651 178.723 85.2884 173.29 87.5086C170.965 88.4584 168.483 89.0684 166.028 89.6465C164.551 89.9943 162.985 90.1421 161.466 90.1022C157.623 90.0012 153.916 89.1902 150.369 87.6639C146.582 86.0344 143.266 83.7457 140.441 80.7733C137.154 77.3164 134.861 73.2927 133.891 68.6145C133.505 66.7512 133.199 64.8251 133.225 62.9326C133.306 57.0204 135.045 51.5696 138.487 46.73C139.425 45.4112 140.687 44.3155 141.832 43.1479C142.371 42.5977 144.767 42.3323 145.2 42.7715ZM150.032 42.8286C150.089 42.8352 150.139 42.9048 150.192 42.945C150.094 42.98 149.997 43.0189 149.898 43.0492C146.039 44.2273 143.291 46.7604 141.454 50.2678C140.329 52.4174 139.719 54.7532 139.376 57.1895C138.678 62.142 139.821 66.7019 142.198 70.9513C145.136 76.2015 149.29 80.1971 155.04 82.2656C156.873 82.9253 158.769 83.6334 160.682 83.8063C165.276 84.2214 169.688 83.3981 173.778 81.096C176.827 79.38 179.333 77.0835 181.58 74.4177C184.186 71.3257 185.668 67.7218 186.59 63.8699C186.913 62.5197 186.774 61.0594 186.859 59.65C186.874 59.386 186.948 59.1253 186.995 58.8631C187.304 59.0226 187.78 59.1066 187.892 59.355C188.288 60.2402 188.898 61.2167 188.807 62.0938C188.62 63.8969 188.168 65.7047 187.582 67.4276C186.061 71.8991 183.375 75.6292 179.889 78.7699C176.646 81.6919 172.906 83.7334 168.651 84.7578C167.21 85.1047 165.753 85.5032 164.286 85.5879C162.929 85.6662 161.537 85.4286 160.182 85.2003C158.376 84.8961 156.532 84.6426 154.809 84.0567C150.052 82.4386 146.061 79.6889 142.843 75.7461C140.272 72.596 138.787 69.0172 138.075 65.0925C137.237 60.4744 137.988 56 139.696 51.68C140.853 48.757 142.538 46.1666 144.848 44.0074C145.023 43.8441 145.12 43.5965 145.252 43.2753C145.327 43.125 145.402 43.0874 145.477 43.0498C146.958 42.2049 148.502 42.6507 150.032 42.8286ZM319.604 83.1002C321.151 83.1166 322.696 83.327 324.243 83.4483C326.125 83.5959 328.007 83.7814 329.893 83.854C331.697 83.9234 333.509 83.8247 335.313 83.8878C336.203 83.9188 337.109 84.0761 337.954 84.3276C338.242 84.4132 338.368 84.9619 338.567 85.2991C338.293 85.3807 338.023 85.4855 337.742 85.5379C337.416 85.5988 337.079 85.6138 336.691 85.5963C332.938 85.4742 329.242 85.3768 325.546 85.348C324.049 85.3364 322.55 85.5291 321.053 85.5205C320.319 85.5163 319.584 85.2767 318.855 85.1219C318.094 84.9606 317.867 84.3296 318.15 83.8689C318.394 83.473 319.104 83.0948 319.604 83.1002ZM161.174 45.9495C162.02 49.9833 162.803 54.0309 163.632 58.0685C164.058 60.1413 163.552 61.0016 161.77 62.0081C159.415 63.3378 157.136 64.8191 154.885 66.3299C153.758 67.0866 152.833 67.35 152.215 66.7521C151.632 66.1875 151.536 65.6903 152.314 65.1607C154.749 63.5033 157.195 61.8574 159.549 60.0848C160.061 59.6989 160.523 58.7776 160.47 58.1504C160.277 55.8601 159.869 53.5878 159.516 51.313C159.369 50.3637 159.158 49.4249 158.975 48.3678C158.888 47.4353 158.639 46.5866 158.774 45.8081C158.858 45.3201 159.473 44.6539 159.937 44.5704C160.758 44.4221 161.036 45.2927 161.174 45.9495ZM316.371 36.5243C316.508 36.6678 316.583 37.0586 316.487 37.2013C316.023 37.8855 315.49 38.5237 314.925 39.2346C313.103 41.7188 311.36 44.1634 309.545 46.5541C309.308 46.8672 308.539 47.1655 308.296 47.0177C307.68 46.642 308.235 46.241 308.491 45.8152C310.187 42.9889 311.828 40.1304 313.51 37.2952C314.284 35.9897 315.542 35.6583 316.371 36.5243ZM264.68 0.000894096C264.977 0.0257538 265.31 0.384135 265.51 0.679764C266.245 1.76439 265.859 2.98358 265.713 4.11039C265.458 6.07645 264.996 8.01442 264.636 9.96709C264.467 10.879 264.335 11.7979 264.187 12.8265C263.89 14.357 263.568 15.7695 263.303 17.1931C262.821 19.779 262.391 22.3747 261.908 24.9601C261.504 27.1169 261.068 29.2677 260.623 31.4161C259.892 34.9435 259.166 38.4723 258.385 41.9882C258.17 42.9528 257.419 43.3141 256.803 42.8526C256.595 42.6969 256.388 42.298 256.437 42.067C257.589 36.689 258.824 31.329 259.943 25.9439C260.765 21.9846 261.353 17.9744 262.21 14.0238C263.027 10.2602 263.447 6.4871 263.327 2.63572C263.306 1.96954 263.618 1.26597 263.889 0.629091C264.012 0.340573 264.426 -0.0203299 264.68 0.000894096ZM203.635 26.7089C203.852 27.0752 204.075 27.438 204.295 27.9175C204.661 29.8659 205.039 31.6968 205.389 33.5334C205.566 34.4592 205.702 35.394 205.834 36.3281C205.867 36.5601 205.815 36.8054 205.801 37.0446C205.478 36.9904 204.956 37.0455 204.865 36.8636C204.394 35.9268 203.97 34.9512 203.652 33.947C203.286 32.7966 203.133 31.5678 202.721 30.4399C202.496 29.8227 201.882 29.3731 201.524 28.793C201.215 28.2912 200.851 27.7168 200.837 27.165C200.827 26.8109 201.357 26.216 201.733 26.1253C202.389 25.9666 203.17 25.9227 203.635 26.7089Z" fill="#192729"/>
<path d="M128.724 139.134C130.06 138.776 131.027 138.053 130.884 137.518C130.741 136.984 129.542 136.841 128.206 137.199C126.87 137.557 125.903 138.281 126.046 138.815C126.19 139.349 127.389 139.492 128.724 139.134Z" fill="#E29000"/>
<path fill-rule="evenodd" clip-rule="evenodd" d="M137.919 134.791C138.873 134.433 139.422 133.71 139.226 133.176C139.041 132.642 138.336 132.499 137.571 132.857C136.731 133.215 135.982 133.938 135.978 134.472C135.986 135.006 136.89 135.149 137.919 134.791Z" fill="#E29000"/>
</svg>
