<svg width="253" height="82" viewBox="0 0 253 82" fill="none" xmlns="http://www.w3.org/2000/svg">
<path d="M66.0405 7.936C67.6192 7.936 68.8138 9.10933 69.6245 11.456L69.7525 12.128C69.7525 14.4107 68.6858 16.7467 66.5525 19.136C65.6992 19.9253 64.8352 20.32 63.9605 20.32C62.6805 20.32 61.7738 19.584 61.2405 18.112C61.0485 17.4293 60.9525 16.832 60.9525 16.32V15.936C60.9525 12.5653 62.1792 10.0053 64.6325 8.256C65.0592 8.04267 65.5285 7.936 66.0405 7.936ZM62.8405 16.256C62.8405 17.7067 63.2138 18.432 63.9605 18.432C65.5178 18.432 66.8085 16.4373 67.8325 12.448V11.84C67.4698 10.5173 66.7978 9.856 65.8165 9.856C65.4325 9.856 65.2405 10.1227 65.2405 10.656C65.2405 11.0187 64.8138 11.3067 63.9605 11.52C63.2138 12.7787 62.8405 14.3573 62.8405 16.256ZM75.3945 7.392C76.7385 7.392 77.5385 8.33067 77.7945 10.208V10.496C77.7945 12.5653 76.7278 14.464 74.5945 16.192C75.8318 17.408 77.9972 18.016 81.0905 18.016C81.5598 18.1653 81.7945 18.496 81.7945 19.008C81.7945 19.584 81.4212 19.872 80.6745 19.872C78.5838 19.872 76.3865 19.3387 74.0825 18.272V19.2C74.0825 21.3973 73.6132 22.496 72.6745 22.496C72.0132 22.496 71.6825 21.2267 71.6825 18.688V16.192L71.5865 15.296L71.8105 14.272L71.5865 11.2V11.072C71.5865 10.496 71.8852 10.1013 72.4825 9.888C73.3145 8.224 74.2852 7.392 75.3945 7.392ZM73.7945 14.4C74.4132 14.4 75.1065 13.2907 75.8745 11.072V9.696L75.4905 9.28H75.2025C74.2638 9.92 73.7945 11.6267 73.7945 14.4ZM4.384 48.576C4.98133 48.704 5.28 49.0027 5.28 49.472L5.088 50.88V51.296C5.088 52.2347 5.19467 53.2267 5.408 54.272H5.472C7.94667 53.5253 9.48267 53.152 10.08 53.152C10.6987 53.3227 11.008 53.632 11.008 54.08C11.008 54.8053 10.272 55.168 8.8 55.168L5.472 56.352C5.472 59.232 5.78133 63.1467 6.4 68.096C6.272 68.672 5.96267 68.96 5.472 68.96H5.408C4.66133 68.96 4.288 68 4.288 66.08C4.01067 64.6507 3.776 61.5467 3.584 56.768H3.008C1.00267 56.64 0 56.1707 0 55.36C0 55.1253 0.224 54.8373 0.672 54.496H0.992L2.464 54.88H3.488L3.2 50.88C3.2 49.344 3.59467 48.576 4.384 48.576ZM17.103 55.936C18.6817 55.936 19.8763 57.1093 20.687 59.456L20.815 60.128C20.815 62.4107 19.7483 64.7467 17.615 67.136C16.7617 67.9253 15.8977 68.32 15.023 68.32C13.743 68.32 12.8363 67.584 12.303 66.112C12.111 65.4293 12.015 64.832 12.015 64.32V63.936C12.015 60.5653 13.2417 58.0053 15.695 56.256C16.1217 56.0427 16.591 55.936 17.103 55.936ZM13.903 64.256C13.903 65.7067 14.2763 66.432 15.023 66.432C16.5803 66.432 17.871 64.4373 18.895 60.448V59.84C18.5323 58.5173 17.8603 57.856 16.879 57.856C16.495 57.856 16.303 58.1227 16.303 58.656C16.303 59.0187 15.8763 59.3067 15.023 59.52C14.2763 60.7787 13.903 62.3573 13.903 64.256ZM40.7275 55.04C41.3035 55.04 41.6982 56.0107 41.9115 57.952C41.6982 58.4853 41.3462 58.752 40.8555 58.752C40.5142 58.688 40.1728 58.2933 39.8315 57.568L39.2555 57.376C38.2528 57.376 37.3462 58.0373 36.5355 59.36V59.648C36.5355 59.968 38.0395 60.5013 41.0475 61.248C42.3062 61.9947 42.9355 62.9013 42.9355 63.968C42.9355 65.7173 41.5275 67.2107 38.7115 68.448L37.5275 68.64C35.7355 68.448 34.8395 67.552 34.8395 65.952V65.856C34.8395 65.344 35.1702 65.0453 35.8315 64.96C36.3435 64.96 36.6848 65.4933 36.8555 66.56L37.1115 66.752H37.6555C38.8715 66.752 40.0022 65.92 41.0475 64.256V63.84C41.0475 63.2 39.6502 62.6027 36.8555 62.048C35.3835 61.4507 34.6475 60.6187 34.6475 59.552C34.6475 58.1653 35.8102 56.864 38.1355 55.648C39.1595 55.52 40.0235 55.3173 40.7275 55.04ZM50.092 55.648C51.0307 55.648 51.5 56.0213 51.5 56.768L51.212 57.376L51.02 63.232C51.02 65.8773 51.5533 67.52 52.62 68.16L52.684 68.64C52.62 69.2587 52.332 69.568 51.82 69.568H51.628C50.028 68.48 49.228 66.816 49.228 64.576H49.004C48.1507 66.9653 47.116 68.16 45.9 68.16C44.7693 67.84 44.204 66.9973 44.204 65.632C44.204 62.624 45.4093 59.6267 47.82 56.64C48.6307 55.9787 49.388 55.648 50.092 55.648ZM46.22 64.352L46.092 65.248V65.856H46.412C48.012 61.8667 48.812 59.4347 48.812 58.56H48.684C47.4467 59.9467 46.6253 61.8773 46.22 64.352ZM53.9318 57.216C54.4224 57.216 54.9558 58.3893 55.5318 60.736C56.3424 62.6133 56.8011 63.6053 56.9078 63.712C57.0144 63.712 57.4091 62.6453 58.0918 60.512C58.7744 58.3787 59.4251 57.312 60.0438 57.312C60.6198 57.5253 60.9078 57.8667 60.9078 58.336C59.1371 62.9013 58.2518 65.92 58.2518 67.392L57.6438 68H57.0358C56.2678 67.4453 54.9664 64.512 53.1318 59.2L52.8438 58.016C52.9931 57.4827 53.3558 57.216 53.9318 57.216ZM65.1443 56.512C65.9976 56.5333 67.4376 58.0267 69.4643 60.992L69.5283 61.536C69.5283 62.1333 68.0669 62.592 65.1443 62.912L65.0483 63.008V63.136C65.4963 65.056 65.9656 66.016 66.4563 66.016H66.8403C67.5229 66.016 68.5576 65.28 69.9443 63.808H70.1363C70.5629 63.808 70.8936 64.1173 71.1283 64.736C71.1283 65.248 70.2323 66.1333 68.4403 67.392C67.9709 67.6693 67.4056 67.872 66.7443 68C65.0163 68 63.8109 66.3787 63.1283 63.136C62.1469 62.9867 61.6562 62.5813 61.6562 61.92C61.6562 61.4507 62.0189 61.1413 62.7443 60.992V61.12L63.0643 60.992V60.192C63.0643 57.7387 63.7576 56.512 65.1443 56.512ZM65.3363 58.816H65.0483L64.9203 60V60.992H65.0483C66.2429 60.9493 66.8403 60.8213 66.8403 60.608C66.2856 59.776 65.7843 59.1787 65.3363 58.816ZM85.4445 58.4C86.1912 58.4 86.7032 60.0427 86.9805 63.328C87.3432 64.8427 87.6098 65.6 87.7805 65.6H87.9725C88.5058 64.256 88.7725 62.9227 88.7725 61.6L88.5805 59.392C88.8152 58.816 89.1458 58.528 89.5725 58.528C90.3618 58.528 90.7565 59.9253 90.7565 62.72C91.2258 65.6213 91.4605 68.32 91.4605 70.816V72.32C91.4605 76.9067 90.1592 80 87.5565 81.6L86.8525 81.728C85.6365 81.728 84.5058 80.5973 83.4605 78.336L83.1725 76.416V76.32C83.1725 74.912 83.5672 74.208 84.3565 74.208L85.1565 74.72L85.0605 76.736C85.0605 77.7173 85.5618 78.7093 86.5645 79.712H86.9805C88.1538 79.712 89.0178 77.472 89.5725 72.992L89.6365 71.136C89.6152 68.9813 89.5298 67.6053 89.3805 67.008C88.5272 67.7547 87.8552 68.128 87.3645 68.128C86.2765 68.128 85.3058 65.216 84.4525 59.392L84.3565 59.328C84.3565 58.8373 84.7192 58.528 85.4445 58.4ZM98.0093 55.936C99.5879 55.936 100.783 57.1093 101.593 59.456L101.721 60.128C101.721 62.4107 100.655 64.7467 98.5213 67.136C97.6679 67.9253 96.8039 68.32 95.9293 68.32C94.6493 68.32 93.7426 67.584 93.2093 66.112C93.0173 65.4293 92.9213 64.832 92.9213 64.32V63.936C92.9213 60.5653 94.1479 58.0053 96.6013 56.256C97.0279 56.0427 97.4973 55.936 98.0093 55.936ZM94.8093 64.256C94.8093 65.7067 95.1826 66.432 95.9293 66.432C97.4866 66.432 98.7773 64.4373 99.8013 60.448V59.84C99.4386 58.5173 98.7666 57.856 97.7853 57.856C97.4013 57.856 97.2093 58.1227 97.2093 58.656C97.2093 59.0187 96.7826 59.3067 95.9293 59.52C95.1826 60.7787 94.8093 62.3573 94.8093 64.256ZM104.419 58.368L104.995 58.048C105.507 58.048 105.881 58.3573 106.115 58.976C105.774 60.5547 105.603 62.176 105.603 63.84C105.603 64.672 105.849 65.5787 106.339 66.56H106.531C107.15 66.56 107.886 64.1173 108.739 59.232C109.038 58.976 109.326 58.848 109.603 58.848C110.265 58.848 110.595 60.0213 110.595 62.368C110.873 64.9493 111.182 66.24 111.523 66.24L112.003 66.048C112.622 66.2827 112.931 66.6133 112.931 67.04C112.547 67.8507 112.014 68.256 111.331 68.256C110.563 68.256 109.827 67.488 109.123 65.952C108.27 67.744 107.406 68.64 106.531 68.64C105.23 68.64 104.323 67.2853 103.811 64.576L103.715 63.552V63.232C103.715 61.5253 103.95 59.904 104.419 58.368ZM117.832 55.392C119.176 55.392 119.976 56.3307 120.232 58.208V58.496C120.232 60.5653 119.165 62.464 117.032 64.192C118.269 65.408 120.435 66.016 123.528 66.016C123.997 66.1653 124.232 66.496 124.232 67.008C124.232 67.584 123.859 67.872 123.112 67.872C121.021 67.872 118.824 67.3387 116.52 66.272V67.2C116.52 69.3973 116.051 70.496 115.112 70.496C114.451 70.496 114.12 69.2267 114.12 66.688V64.192L114.024 63.296L114.248 62.272L114.024 59.2V59.072C114.024 58.496 114.323 58.1013 114.92 57.888C115.752 56.224 116.723 55.392 117.832 55.392ZM116.232 62.4C116.851 62.4 117.544 61.2907 118.312 59.072V57.696L117.928 57.28H117.64C116.701 57.92 116.232 59.6267 116.232 62.4ZM141.294 58.496C143.555 58.496 144.889 59.9147 145.294 62.752C145.294 65.2693 144.121 67.072 141.774 68.16C141.518 68.288 141.166 68.352 140.718 68.352H140.494L139.79 68.288V68.352L139.918 76.896C139.769 77.5573 139.427 77.888 138.894 77.888C138.297 77.696 137.998 77.3867 137.998 76.96L137.71 59.552C137.71 58.9973 138.041 58.7093 138.702 58.688L139.374 58.976C139.971 58.656 140.611 58.496 141.294 58.496ZM139.694 61.888L139.598 62.88L139.694 66.272L140.59 66.496C142.019 66.496 142.947 65.4507 143.374 63.36V62.88C143.225 61.1947 142.627 60.352 141.582 60.352H141.102C140.163 60.352 139.694 60.864 139.694 61.888ZM151.02 55.392C152.364 55.392 153.164 56.3307 153.42 58.208V58.496C153.42 60.5653 152.353 62.464 150.22 64.192C151.457 65.408 153.622 66.016 156.716 66.016C157.185 66.1653 157.42 66.496 157.42 67.008C157.42 67.584 157.046 67.872 156.3 67.872C154.209 67.872 152.012 67.3387 149.708 66.272V67.2C149.708 69.3973 149.238 70.496 148.299 70.496C147.638 70.496 147.308 69.2267 147.308 66.688V64.192L147.212 63.296L147.436 62.272L147.212 59.2V59.072C147.212 58.496 147.51 58.1013 148.108 57.888C148.94 56.224 149.91 55.392 151.02 55.392ZM149.42 62.4C150.038 62.4 150.732 61.2907 151.5 59.072V57.696L151.116 57.28H150.828C149.889 57.92 149.42 59.6267 149.42 62.4ZM163.603 55.936C165.182 55.936 166.376 57.1093 167.187 59.456L167.315 60.128C167.315 62.4107 166.248 64.7467 164.115 67.136C163.262 67.9253 162.398 68.32 161.523 68.32C160.243 68.32 159.336 67.584 158.803 66.112C158.611 65.4293 158.515 64.832 158.515 64.32V63.936C158.515 60.5653 159.742 58.0053 162.195 56.256C162.622 56.0427 163.091 55.936 163.603 55.936ZM160.403 64.256C160.403 65.7067 160.776 66.432 161.523 66.432C163.08 66.432 164.371 64.4373 165.395 60.448V59.84C165.032 58.5173 164.36 57.856 163.379 57.856C162.995 57.856 162.803 58.1227 162.803 58.656C162.803 59.0187 162.376 59.3067 161.523 59.52C160.776 60.7787 160.403 62.3573 160.403 64.256ZM173.885 55.712C174.866 55.712 175.357 56.1813 175.357 57.12C175.485 57.12 175.549 57.28 175.549 57.6H175.677L175.549 58.528L175.677 64.992L175.485 70.112C177.405 70.112 178.696 71.52 179.357 74.336C179.357 74.912 178.962 75.2427 178.173 75.328C177.81 75.328 177.405 74.528 176.957 72.928C176.53 72.3093 176.04 72 175.485 72H175.357C174.674 76.544 174.077 78.816 173.565 78.816C172.946 79.9467 172.05 80.512 170.877 80.512C169.149 80.1067 168.285 79.2427 168.285 77.92V77.728C168.285 75.7227 169.714 73.5467 172.573 71.2L173.565 70.592L173.693 67.136V66.336H173.565C172.84 67.2533 172.146 67.712 171.485 67.712H171.293C169.821 67.712 168.978 66.5813 168.765 64.32V63.616C168.765 60.8853 169.768 58.5173 171.773 56.512C172.392 55.9787 173.096 55.712 173.885 55.712ZM170.685 63.2V64.736C170.77 65.44 170.93 65.792 171.165 65.792H171.485C172.082 65.792 172.818 63.5947 173.693 59.2V57.6C172.413 57.6 171.41 59.4667 170.685 63.2ZM170.173 77.792C170.258 78.3253 170.557 78.592 171.069 78.592C172.093 78.592 172.829 76.768 173.277 73.12H173.085C171.144 74.8053 170.173 76.3627 170.173 77.792ZM181.582 55.392C182.926 55.392 183.726 56.3307 183.982 58.208V58.496C183.982 60.5653 182.915 62.464 180.782 64.192C182.019 65.408 184.185 66.016 187.278 66.016C187.747 66.1653 187.982 66.496 187.982 67.008C187.982 67.584 187.609 67.872 186.862 67.872C184.771 67.872 182.574 67.3387 180.27 66.272V67.2C180.27 69.3973 179.801 70.496 178.862 70.496C178.201 70.496 177.87 69.2267 177.87 66.688V64.192L177.774 63.296L177.998 62.272L177.774 59.2V59.072C177.774 58.496 178.073 58.1013 178.67 57.888C179.502 56.224 180.473 55.392 181.582 55.392ZM179.982 62.4C180.601 62.4 181.294 61.2907 182.062 59.072V57.696L181.678 57.28H181.39C180.451 57.92 179.982 59.6267 179.982 62.4ZM191.926 56.512C192.779 56.5333 194.219 58.0267 196.246 60.992L196.31 61.536C196.31 62.1333 194.848 62.592 191.926 62.912L191.83 63.008V63.136C192.278 65.056 192.747 66.016 193.238 66.016H193.622C194.304 66.016 195.339 65.28 196.726 63.808H196.918C197.344 63.808 197.675 64.1173 197.91 64.736C197.91 65.248 197.014 66.1333 195.222 67.392C194.752 67.6693 194.187 67.872 193.526 68C191.798 68 190.592 66.3787 189.91 63.136C188.928 62.9867 188.438 62.5813 188.438 61.92C188.438 61.4507 188.8 61.1413 189.526 60.992V61.12L189.846 60.992V60.192C189.846 57.7387 190.539 56.512 191.926 56.512ZM192.118 58.816H191.83L191.702 60V60.992H191.83C193.024 60.9493 193.622 60.8213 193.622 60.608C193.067 59.776 192.566 59.1787 192.118 58.816ZM205.571 55.04C206.147 55.04 206.542 56.0107 206.755 57.952C206.542 58.4853 206.19 58.752 205.699 58.752C205.358 58.688 205.017 58.2933 204.675 57.568L204.099 57.376C203.097 57.376 202.19 58.0373 201.379 59.36V59.648C201.379 59.968 202.883 60.5013 205.891 61.248C207.15 61.9947 207.779 62.9013 207.779 63.968C207.779 65.7173 206.371 67.2107 203.555 68.448L202.371 68.64C200.579 68.448 199.683 67.552 199.683 65.952V65.856C199.683 65.344 200.014 65.0453 200.675 64.96C201.187 64.96 201.529 65.4933 201.699 66.56L201.955 66.752H202.499C203.715 66.752 204.846 65.92 205.891 64.256V63.84C205.891 63.2 204.494 62.6027 201.699 62.048C200.227 61.4507 199.491 60.6187 199.491 59.552C199.491 58.1653 200.654 56.864 202.979 55.648C204.003 55.52 204.867 55.3173 205.571 55.04ZM215.384 55.04C215.96 55.04 216.354 56.0107 216.568 57.952C216.354 58.4853 216.002 58.752 215.512 58.752C215.17 58.688 214.829 58.2933 214.488 57.568L213.912 57.376C212.909 57.376 212.002 58.0373 211.192 59.36V59.648C211.192 59.968 212.696 60.5013 215.704 61.248C216.962 61.9947 217.592 62.9013 217.592 63.968C217.592 65.7173 216.184 67.2107 213.368 68.448L212.184 68.64C210.392 68.448 209.496 67.552 209.496 65.952V65.856C209.496 65.344 209.826 65.0453 210.488 64.96C211 64.96 211.341 65.4933 211.512 66.56L211.768 66.752H212.312C213.528 66.752 214.658 65.92 215.704 64.256V63.84C215.704 63.2 214.306 62.6027 211.512 62.048C210.04 61.4507 209.304 60.6187 209.304 59.552C209.304 58.1653 210.466 56.864 212.792 55.648C213.816 55.52 214.68 55.3173 215.384 55.04Z" fill="#192729"/>
<path d="M105.672 3.392C107.123 3.392 107.965 4.43733 108.2 6.528C108.2 8.256 107.795 9.344 106.984 9.792H106.792C106.173 9.74933 105.864 9.52533 105.864 9.12L105.992 6.72V5.536L105.8 5.312H105.48C104.797 5.312 103.997 7.21067 103.08 11.008L102.888 13.408V14.112C102.888 16.3307 103.88 17.632 105.864 18.016H107.208C109.427 18.016 112.115 16.5867 115.272 13.728H115.4C115.976 13.728 116.307 14.0907 116.392 14.816C115.901 16.096 115.325 16.736 114.664 16.736C111.613 18.912 108.872 20 106.44 20C104.008 20 102.291 18.6667 101.288 16L101 13.728V13.312C101 10.0053 101.928 6.96533 103.784 4.192C104.381 3.65867 105.011 3.392 105.672 3.392ZM121.832 7.392C123.176 7.392 123.976 8.33067 124.232 10.208V10.496C124.232 12.5653 123.165 14.464 121.032 16.192C122.269 17.408 124.435 18.016 127.528 18.016C127.997 18.1653 128.232 18.496 128.232 19.008C128.232 19.584 127.859 19.872 127.112 19.872C125.021 19.872 122.824 19.3387 120.52 18.272V19.2C120.52 21.3973 120.051 22.496 119.112 22.496C118.451 22.496 118.12 21.2267 118.12 18.688V16.192L118.024 15.296L118.248 14.272L118.024 11.2V11.072C118.024 10.496 118.323 10.1013 118.92 9.888C119.752 8.224 120.723 7.392 121.832 7.392ZM120.232 14.4C120.851 14.4 121.544 13.2907 122.312 11.072V9.696L121.928 9.28H121.64C120.701 9.92 120.232 11.6267 120.232 14.4ZM132.176 8.512C133.029 8.53333 134.469 10.0267 136.496 12.992L136.56 13.536C136.56 14.1333 135.098 14.592 132.176 14.912L132.08 15.008V15.136C132.528 17.056 132.997 18.016 133.488 18.016H133.872C134.554 18.016 135.589 17.28 136.976 15.808H137.168C137.594 15.808 137.925 16.1173 138.16 16.736C138.16 17.248 137.264 18.1333 135.472 19.392C135.002 19.6693 134.437 19.872 133.776 20C132.048 20 130.842 18.3787 130.16 15.136C129.178 14.9867 128.688 14.5813 128.688 13.92C128.688 13.4507 129.05 13.1413 129.776 12.992V13.12L130.096 12.992V12.192C130.096 9.73867 130.789 8.512 132.176 8.512ZM132.368 10.816H132.08L131.952 12V12.992H132.08C133.274 12.9493 133.872 12.8213 133.872 12.608C133.317 11.776 132.816 11.1787 132.368 10.816ZM145.373 7.648C146.312 7.648 146.781 8.02133 146.781 8.768L146.493 9.376L146.301 15.232C146.301 17.8773 146.835 19.52 147.901 20.16L147.965 20.64C147.901 21.2587 147.613 21.568 147.101 21.568H146.909C145.309 20.48 144.509 18.816 144.509 16.576H144.285C143.432 18.9653 142.397 20.16 141.181 20.16C140.051 19.84 139.485 18.9973 139.485 17.632C139.485 14.624 140.691 11.6267 143.101 8.64C143.912 7.97867 144.669 7.648 145.373 7.648ZM141.501 16.352L141.373 17.248V17.856H141.693C143.293 13.8667 144.093 11.4347 144.093 10.56H143.965C142.728 11.9467 141.907 13.8773 141.501 16.352ZM152.509 0.575998C153.106 0.703999 153.405 1.00267 153.405 1.472L153.213 2.88V3.296C153.213 4.23467 153.32 5.22667 153.533 6.272H153.597C156.072 5.52533 157.608 5.152 158.205 5.152C158.824 5.32267 159.133 5.632 159.133 6.08C159.133 6.80533 158.397 7.168 156.925 7.168L153.597 8.352C153.597 11.232 153.906 15.1467 154.525 20.096C154.397 20.672 154.088 20.96 153.597 20.96H153.533C152.786 20.96 152.413 20 152.413 18.08C152.136 16.6507 151.901 13.5467 151.709 8.768H151.133C149.128 8.64 148.125 8.17067 148.125 7.36C148.125 7.12533 148.349 6.83733 148.797 6.496H149.117L150.589 6.88H151.613L151.325 2.88C151.325 1.344 151.72 0.575998 152.509 0.575998ZM162.988 8.512C163.841 8.53333 165.281 10.0267 167.308 12.992L167.372 13.536C167.372 14.1333 165.911 14.592 162.988 14.912L162.892 15.008V15.136C163.34 17.056 163.809 18.016 164.3 18.016H164.684C165.367 18.016 166.401 17.28 167.788 15.808H167.98C168.407 15.808 168.737 16.1173 168.972 16.736C168.972 17.248 168.076 18.1333 166.284 19.392C165.815 19.6693 165.249 19.872 164.588 20C162.86 20 161.655 18.3787 160.972 15.136C159.991 14.9867 159.5 14.5813 159.5 13.92C159.5 13.4507 159.863 13.1413 160.588 12.992V13.12L160.908 12.992V12.192C160.908 9.73867 161.601 8.512 162.988 8.512ZM163.18 10.816H162.892L162.764 12V12.992H162.892C164.087 12.9493 164.684 12.8213 164.684 12.608C164.129 11.776 163.628 11.1787 163.18 10.816ZM188.248 7.648C189.187 7.648 189.656 8.02133 189.656 8.768L189.368 9.376L189.176 15.232C189.176 17.8773 189.71 19.52 190.776 20.16L190.84 20.64C190.776 21.2587 190.488 21.568 189.976 21.568H189.784C188.184 20.48 187.384 18.816 187.384 16.576H187.16C186.307 18.9653 185.272 20.16 184.056 20.16C182.926 19.84 182.36 18.9973 182.36 17.632C182.36 14.624 183.566 11.6267 185.976 8.64C186.787 7.97867 187.544 7.648 188.248 7.648ZM184.376 16.352L184.248 17.248V17.856H184.568C186.168 13.8667 186.968 11.4347 186.968 10.56H186.84C185.603 11.9467 184.782 13.8773 184.376 16.352ZM194.872 9.152L196.184 8.96C196.717 8.96 197.016 9.29067 197.08 9.952C197.08 10.528 196.387 10.9013 195 11.072C194.125 11.7547 193.688 12.6293 193.688 13.696V14.752C194.115 17.0987 194.84 18.272 195.864 18.272H196.184C196.781 18.272 197.677 17.7067 198.872 16.576H199.064C199.491 16.576 199.832 16.8747 200.088 17.472C199.789 18.3893 198.829 19.2213 197.208 19.968C196.909 20.096 196.536 20.16 196.088 20.16C193.891 20.16 192.461 18.432 191.8 14.976V14.272C191.8 11.776 192.824 10.0693 194.872 9.152ZM204.966 9.152L206.278 8.96C206.811 8.96 207.11 9.29067 207.174 9.952C207.174 10.528 206.48 10.9013 205.094 11.072C204.219 11.7547 203.782 12.6293 203.782 13.696V14.752C204.208 17.0987 204.934 18.272 205.958 18.272H206.278C206.875 18.272 207.771 17.7067 208.966 16.576H209.158C209.584 16.576 209.926 16.8747 210.182 17.472C209.883 18.3893 208.923 19.2213 207.302 19.968C207.003 20.096 206.63 20.16 206.182 20.16C203.984 20.16 202.555 18.432 201.894 14.976V14.272C201.894 11.776 202.918 10.0693 204.966 9.152ZM216.916 7.936C218.494 7.936 219.689 9.10933 220.5 11.456L220.628 12.128C220.628 14.4107 219.561 16.7467 217.428 19.136C216.574 19.9253 215.71 20.32 214.836 20.32C213.556 20.32 212.649 19.584 212.116 18.112C211.924 17.4293 211.828 16.832 211.828 16.32V15.936C211.828 12.5653 213.054 10.0053 215.508 8.256C215.934 8.04267 216.404 7.936 216.916 7.936ZM213.716 16.256C213.716 17.7067 214.089 18.432 214.836 18.432C216.393 18.432 217.684 16.4373 218.708 12.448V11.84C218.345 10.5173 217.673 9.856 216.692 9.856C216.308 9.856 216.116 10.1227 216.116 10.656C216.116 11.0187 215.689 11.3067 214.836 11.52C214.089 12.7787 213.716 14.3573 213.716 16.256ZM223.326 10.368L223.902 10.048C224.414 10.048 224.787 10.3573 225.022 10.976C224.68 12.5547 224.51 14.176 224.51 15.84C224.51 16.672 224.755 17.5787 225.246 18.56H225.438C226.056 18.56 226.792 16.1173 227.646 11.232C227.944 10.976 228.232 10.848 228.51 10.848C229.171 10.848 229.502 12.0213 229.502 14.368C229.779 16.9493 230.088 18.24 230.43 18.24L230.91 18.048C231.528 18.2827 231.838 18.6133 231.838 19.04C231.454 19.8507 230.92 20.256 230.238 20.256C229.47 20.256 228.734 19.488 228.03 17.952C227.176 19.744 226.312 20.64 225.438 20.64C224.136 20.64 223.23 19.2853 222.718 16.576L222.622 15.552V15.232C222.622 13.5253 222.856 11.904 223.326 10.368ZM236.674 9.216C238.488 9.36533 239.394 10.2507 239.394 11.872L239.458 12.288L239.394 17.28C239.394 17.856 239.725 18.6347 240.386 19.616V19.68C240.216 20.2987 239.906 20.608 239.458 20.608C238.136 20.0533 237.474 18.88 237.474 17.088V16.672L237.378 16.608L237.474 16.48V16.416L237.57 12C237.57 11.3813 237.304 11.072 236.77 11.072H236.386C235.32 11.4987 234.786 13.8347 234.786 18.08C234.786 19.552 234.413 20.288 233.666 20.288C233.09 20.288 232.792 19.9253 232.77 19.2V16C232.77 11.8613 233.133 9.792 233.858 9.792L234.178 9.696L234.85 9.792C235.426 9.408 236.034 9.216 236.674 9.216ZM245.165 0.575998C245.763 0.703999 246.061 1.00267 246.061 1.472L245.869 2.88V3.296C245.869 4.23467 245.976 5.22667 246.189 6.272H246.253C248.728 5.52533 250.264 5.152 250.861 5.152C251.48 5.32267 251.789 5.632 251.789 6.08C251.789 6.80533 251.053 7.168 249.581 7.168L246.253 8.352C246.253 11.232 246.563 15.1467 247.181 20.096C247.053 20.672 246.744 20.96 246.253 20.96H246.189C245.443 20.96 245.069 20 245.069 18.08C244.792 16.6507 244.557 13.5467 244.365 8.768H243.789C241.784 8.64 240.781 8.17067 240.781 7.36C240.781 7.12533 241.005 6.83733 241.453 6.496H241.773L243.245 6.88H244.269L243.981 2.88C243.981 1.344 244.376 0.575998 245.165 0.575998Z" fill="#192729"/>
<path d="M101 24.672H252.141V27.072H101V24.672Z" fill="#192729"/>
<path d="M2.112 3.648C2.624 3.648 2.95467 4.448 3.104 6.048L3.232 7.776C3.232 9.07733 2.99733 12.4693 2.528 17.952H2.72V18.048L2.848 17.952H3.104L6.848 18.24H7.104L8.704 17.76H8.928C9.26933 17.9733 9.504 18.272 9.632 18.656C9.632 19.4667 8.72533 19.968 6.912 20.16L3.648 19.84H3.04L1.504 20.256C0.928 20.0427 0.64 19.7013 0.64 19.232L1.312 8.256V7.776L1.12 4.576C1.12 4.04267 1.45067 3.73333 2.112 3.648ZM15.8218 7.936C17.4004 7.936 18.5951 9.10933 19.4058 11.456L19.5338 12.128C19.5338 14.4107 18.4671 16.7467 16.3338 19.136C15.4804 19.9253 14.6164 20.32 13.7418 20.32C12.4618 20.32 11.5551 19.584 11.0218 18.112C10.8298 17.4293 10.7338 16.832 10.7338 16.32V15.936C10.7338 12.5653 11.9604 10.0053 14.4138 8.256C14.8404 8.04267 15.3098 7.936 15.8218 7.936ZM12.6218 16.256C12.6218 17.7067 12.9951 18.432 13.7418 18.432C15.2991 18.432 16.5898 16.4373 17.6138 12.448V11.84C17.2511 10.5173 16.5791 9.856 15.5978 9.856C15.2138 9.856 15.0218 10.1227 15.0218 10.656C15.0218 11.0187 14.5951 11.3067 13.7418 11.52C12.9951 12.7787 12.6218 14.3573 12.6218 16.256ZM26.1038 7.712C27.0851 7.712 27.5758 8.18133 27.5758 9.12C27.7038 9.12 27.7678 9.28 27.7678 9.6H27.8958L27.7678 10.528L27.8958 16.992L27.7038 22.112C29.6238 22.112 30.9144 23.52 31.5758 26.336C31.5758 26.912 31.1811 27.2427 30.3918 27.328C30.0291 27.328 29.6238 26.528 29.1758 24.928C28.7491 24.3093 28.2584 24 27.7038 24H27.5758C26.8931 28.544 26.2958 30.816 25.7838 30.816C25.1651 31.9467 24.2691 32.512 23.0958 32.512C21.3678 32.1067 20.5038 31.2427 20.5038 29.92V29.728C20.5038 27.7227 21.9331 25.5467 24.7918 23.2L25.7838 22.592L25.9118 19.136V18.336H25.7838C25.0584 19.2533 24.3651 19.712 23.7038 19.712H23.5118C22.0398 19.712 21.1971 18.5813 20.9838 16.32V15.616C20.9838 12.8853 21.9864 10.5173 23.9918 8.512C24.6104 7.97867 25.3144 7.712 26.1038 7.712ZM22.9038 15.2V16.736C22.9891 17.44 23.1491 17.792 23.3838 17.792H23.7038C24.3011 17.792 25.0371 15.5947 25.9118 11.2V9.6C24.6318 9.6 23.6291 11.4667 22.9038 15.2ZM22.3918 29.792C22.4771 30.3253 22.7758 30.592 23.2878 30.592C24.3118 30.592 25.0478 28.768 25.4958 25.12H25.3038C23.3624 26.8053 22.3918 28.3627 22.3918 29.792ZM29.9608 3.328C30.7714 3.49867 31.1768 3.86133 31.1768 4.416C30.9634 5.01333 30.6221 5.312 30.1528 5.312C29.3634 5.16267 28.9688 4.768 28.9688 4.128C29.1821 3.59467 29.5128 3.328 29.9608 3.328ZM31.1768 7.808C31.5181 7.808 31.8061 8.11733 32.0408 8.736L31.7528 11.008V12.512C31.7528 14.2613 32.0514 16.5547 32.6488 19.392C32.4354 19.7973 32.0728 20 31.5608 20C30.6861 20 30.1101 17.44 29.8328 12.32V11.2C29.8328 8.93867 30.2808 7.808 31.1768 7.808ZM38.4555 9.216C40.2688 9.36533 41.1755 10.2507 41.1755 11.872L41.2395 12.288L41.1755 17.28C41.1755 17.856 41.5062 18.6347 42.1675 19.616V19.68C41.9968 20.2987 41.6875 20.608 41.2395 20.608C39.9168 20.0533 39.2555 18.88 39.2555 17.088V16.672L39.1595 16.608L39.2555 16.48V16.416L39.3515 12C39.3515 11.3813 39.0848 11.072 38.5515 11.072H38.1675C37.1008 11.4987 36.5675 13.8347 36.5675 18.08C36.5675 19.552 36.1942 20.288 35.4475 20.288C34.8715 20.288 34.5728 19.9253 34.5515 19.2V16C34.5515 11.8613 34.9142 9.792 35.6395 9.792L35.9595 9.696L36.6315 9.792C37.2075 9.408 37.8155 9.216 38.4555 9.216Z" fill="#192729"/>
<path d="M0 24.672H42.5515V27.072H0V24.672Z" fill="#192729"/>
</svg>
