<svg width="357" height="264" viewBox="0 0 357 264" fill="none" xmlns="http://www.w3.org/2000/svg">
<path fill-rule="evenodd" clip-rule="evenodd" d="M58.1607 184.103C59.0477 184.421 69.8642 183.771 87.7701 182.288C94.514 181.741 105.504 180.974 112.206 180.614C129.984 179.668 130.983 174.801 112.979 175.84C85.7684 177.41 58.6232 180.35 57.6692 181.859C57.1211 182.736 57.3516 183.806 58.1607 184.103Z" fill="#192729"/>
<g clip-path="url(#clip0_6_71)">
<rect width="16.5386" height="17.2932" transform="matrix(0.672403 0.773948 -0.672247 0.708044 270.529 146.479)" fill="#FADB67"/>
<path d="M257.047 157.38L268.3 164.534L245.794 164.534L257.047 157.38Z" fill="#FADB67"/>
<path d="M206.684 179.415C180.315 183.348 172.689 184.228 172.2 185.312C171.856 186.074 174.716 186.989 177.21 186.903C190.679 186.469 221.451 181.143 221.665 179.158C221.88 177.474 219.405 177.52 206.684 179.415Z" fill="#192729"/>
<path d="M135.554 174.858C134.919 176.263 137.328 179.284 139.441 179.739C141.007 180.097 149.105 178.774 164.338 177.053C179.025 175.434 182.537 174.704 182.388 173.221C182.183 170.856 174.596 172.358 149.331 173.542C135.425 174.238 135.843 174.217 135.554 174.858Z" fill="#192729"/>
<path d="M197.314 172.984C226.673 171.189 220.646 170.542 243.091 170.468C263.133 170.379 265.538 170.994 270.046 177.016C275.084 183.778 276.375 183.334 277.013 174.574C277.296 170.725 277.566 169.321 278.311 168.077C279.998 165.247 283.358 161.631 285.558 160.383C292.577 156.317 282.761 154.297 281.96 154.258C277.845 154.008 275.144 150.527 272.67 142.315C271.021 136.908 266.245 133.392 265.98 137.401C265.414 146.001 261.259 152.885 248.834 156.443C238.773 159.294 223.962 162.798 211.369 164.712C192.953 167.543 191.297 167.988 191.774 170.052C192.087 171.474 195.203 173.13 197.314 172.984ZM254.923 161.079C267.383 156.438 269.408 149.839 269.954 149.236C273.477 154.519 272.839 153.92 278.726 157.593L276.764 159.321C272.457 163.12 271.07 170.62 271.052 170.66L268.754 168.201C264.358 163.541 259.658 162.069 252.397 163.049C250.85 163.253 249.467 163.397 249.358 163.337C249.193 163.297 251.703 162.269 254.923 161.079Z" fill="#192729"/>
<ellipse cx="186.508" cy="171.687" rx="1.85628" ry="2.04386" fill="#192729"/>
</g>
<ellipse cx="130.82" cy="177.137" rx="1.85628" ry="2.04386" fill="#192729"/>
<ellipse cx="52.8563" cy="183.95" rx="1.85628" ry="2.04386" fill="#192729"/>
<path d="M132.919 186.424L161.719 184.6C162.551 184.6 163.351 185.4 164.119 187C164.119 189.432 161.303 190.648 155.671 190.648L138.871 191.608L138.487 191.8C140.087 202.232 140.887 222.04 140.887 251.224C140.567 254.04 139.543 255.448 137.815 255.448C136.151 255.448 135.191 254.168 134.935 251.608V229.336C134.935 214.488 134.263 202.104 132.919 192.184C121.463 193.272 115.735 194.552 115.735 196.024L114.871 196.408C112.887 195.832 111.895 194.808 111.895 193.336C111.895 189.816 118.903 187.512 132.919 186.424ZM167.652 209.176C171.684 209.176 174.084 211.992 174.852 217.624V218.488C174.852 224.696 171.652 230.392 165.252 235.576C168.964 239.224 175.46 241.048 184.74 241.048C186.148 241.496 186.852 242.488 186.852 244.024C186.852 245.752 185.732 246.616 183.492 246.616C177.22 246.616 170.628 245.016 163.716 241.816V244.6C163.716 251.192 162.308 254.488 159.492 254.488C157.508 254.488 156.516 250.68 156.516 243.064V235.576L156.228 232.888L156.9 229.816L156.228 220.6V220.216C156.228 218.488 157.124 217.304 158.916 216.664C161.412 211.672 164.324 209.176 167.652 209.176ZM162.852 230.2C164.708 230.2 166.788 226.872 169.092 220.216V216.088L167.94 214.84H167.076C164.26 216.76 162.852 221.88 162.852 230.2Z" fill="#192729"/>
<path d="M207.995 209.944C210.811 209.944 212.219 211.064 212.219 213.304L211.355 215.128L210.779 232.696C210.779 240.632 212.379 245.56 215.579 247.48L215.771 248.92C215.579 250.776 214.715 251.704 213.179 251.704H212.603C207.803 248.44 205.403 243.448 205.403 236.728H204.731C202.171 243.896 199.067 247.48 195.419 247.48C192.027 246.52 190.331 243.992 190.331 239.896C190.331 230.872 193.947 221.88 201.179 212.92C203.611 210.936 205.883 209.944 207.995 209.944ZM196.379 236.056L195.995 238.744V240.568H196.955C201.755 228.6 204.155 221.304 204.155 218.68H203.771C200.059 222.84 197.595 228.632 196.379 236.056Z" fill="#FADB67"/>
<path d="M227.866 214.456L231.802 213.88C233.402 213.88 234.298 214.872 234.49 216.856C234.49 218.584 232.41 219.704 228.25 220.216C225.626 222.264 224.314 224.888 224.314 228.088V231.256C225.594 238.296 227.77 241.816 230.842 241.816H231.802C233.594 241.816 236.282 240.12 239.866 236.728H240.442C241.722 236.728 242.746 237.624 243.514 239.416C242.618 242.168 239.738 244.664 234.874 246.904C233.978 247.288 232.858 247.48 231.514 247.48C224.922 247.48 220.634 242.296 218.65 231.928V229.816C218.65 222.328 221.722 217.208 227.866 214.456ZM253.251 196.216H253.827C254.659 196.216 255.459 196.92 256.227 198.328L255.843 204.856V208.504L256.227 225.304L256.515 226.264H256.803C259.555 223.704 261.955 219.192 264.003 212.728L266.115 212.056C267.907 212.312 268.803 213.112 268.803 214.456C268.803 218.616 265.827 224.216 259.875 231.256V231.928C267.747 241.08 272.931 245.656 275.427 245.656H276.003L278.403 244.216H279.267C280.611 244.216 281.603 245.112 282.243 246.904C282.243 248.952 279.971 250.36 275.427 251.128C270.883 251.128 264.963 246.52 257.667 237.304H256.803L257.091 242.488V247.48C256.707 249.464 255.715 250.456 254.115 250.456C252.323 250.072 251.427 249.08 251.427 247.48V246.904L251.043 235.864C250.339 235.864 249.859 234.872 249.603 232.888L250.851 230.488L250.275 208.888V204.664C250.275 199.032 251.267 196.216 253.251 196.216ZM293.464 212.536C296.024 212.6 300.344 217.08 306.424 225.976L306.616 227.608C306.616 229.4 302.232 230.776 293.464 231.736L293.176 232.024V232.408C294.52 238.168 295.928 241.048 297.4 241.048H298.552C300.6 241.048 303.704 238.84 307.864 234.424H308.44C309.72 234.424 310.712 235.352 311.416 237.208C311.416 238.744 308.728 241.4 303.352 245.176C301.944 246.008 300.248 246.616 298.264 247C293.08 247 289.464 242.136 287.416 232.408C284.472 231.96 283 230.744 283 228.76C283 227.352 284.088 226.424 286.264 225.976V226.36L287.224 225.976V223.576C287.224 216.216 289.304 212.536 293.464 212.536ZM294.04 219.448H293.176L292.792 223V225.976H293.176C296.76 225.848 298.552 225.464 298.552 224.824C296.888 222.328 295.384 220.536 294.04 219.448ZM327.777 209.176C331.809 209.176 334.209 211.992 334.977 217.624V218.488C334.977 224.696 331.777 230.392 325.377 235.576C329.089 239.224 335.585 241.048 344.865 241.048C346.273 241.496 346.977 242.488 346.977 244.024C346.977 245.752 345.857 246.616 343.617 246.616C337.345 246.616 330.753 245.016 323.841 241.816V244.6C323.841 251.192 322.433 254.488 319.617 254.488C317.633 254.488 316.641 250.68 316.641 243.064V235.576L316.353 232.888L317.025 229.816L316.353 220.6V220.216C316.353 218.488 317.249 217.304 319.041 216.664C321.537 211.672 324.449 209.176 327.777 209.176ZM322.977 230.2C324.833 230.2 326.913 226.872 329.217 220.216V216.088L328.065 214.84H327.201C324.385 216.76 322.977 221.88 322.977 230.2Z" fill="#192729"/>
<path d="M21.544 93.424L50.344 91.6C51.176 91.6 51.976 92.4 52.744 94C52.744 96.432 49.928 97.648 44.296 97.648L27.496 98.608L27.112 98.8C28.712 109.232 29.512 129.04 29.512 158.224C29.192 161.04 28.168 162.448 26.44 162.448C24.776 162.448 23.816 161.168 23.56 158.608V136.336C23.56 121.488 22.888 109.104 21.544 99.184C10.088 100.272 4.36 101.552 4.36 103.024L3.496 103.408C1.512 102.832 0.52 101.808 0.52 100.336C0.52 96.816 7.528 94.512 21.544 93.424ZM56.2773 116.176C60.3093 116.176 62.7093 118.992 63.4773 124.624V125.488C63.4773 131.696 60.2773 137.392 53.8773 142.576C57.5893 146.224 64.0853 148.048 73.3653 148.048C74.7733 148.496 75.4773 149.488 75.4773 151.024C75.4773 152.752 74.3573 153.616 72.1173 153.616C65.8453 153.616 59.2533 152.016 52.3413 148.816V151.6C52.3413 158.192 50.9333 161.488 48.1172 161.488C46.1332 161.488 45.1413 157.68 45.1413 150.064V142.576L44.8533 139.888L45.5253 136.816L44.8533 127.6V127.216C44.8533 125.488 45.7493 124.304 47.5413 123.664C50.0373 118.672 52.9493 116.176 56.2773 116.176ZM51.4773 137.2C53.3333 137.2 55.4133 133.872 57.7173 127.216V123.088L56.5653 121.84H55.7013C52.8853 123.76 51.4773 128.88 51.4773 137.2ZM116.491 121.456L120.427 120.88C122.027 120.88 122.923 121.872 123.115 123.856C123.115 125.584 121.035 126.704 116.875 127.216C114.251 129.264 112.939 131.888 112.939 135.088V138.256C114.219 145.296 116.395 148.816 119.467 148.816H120.427C122.219 148.816 124.907 147.12 128.491 143.728H129.067C130.347 143.728 131.371 144.624 132.139 146.416C131.243 149.168 128.363 151.664 123.499 153.904C122.603 154.288 121.483 154.48 120.139 154.48C113.547 154.48 109.259 149.296 107.275 138.928V136.816C107.275 129.328 110.347 124.208 116.491 121.456ZM141.876 103.216H142.452C143.284 103.216 144.084 103.92 144.852 105.328L144.468 111.856V115.504L144.852 132.304L145.14 133.264H145.428C148.18 130.704 150.58 126.192 152.628 119.728L154.74 119.056C156.532 119.312 157.428 120.112 157.428 121.456C157.428 125.616 154.452 131.216 148.5 138.256V138.928C156.372 148.08 161.556 152.656 164.052 152.656H164.628L167.028 151.216H167.892C169.236 151.216 170.228 152.112 170.868 153.904C170.868 155.952 168.596 157.36 164.052 158.128C159.508 158.128 153.588 153.52 146.292 144.304H145.428L145.716 149.488V154.48C145.332 156.464 144.34 157.456 142.74 157.456C140.948 157.072 140.052 156.08 140.052 154.48V153.904L139.668 142.864C138.964 142.864 138.484 141.872 138.228 139.888L139.476 137.488L138.9 115.888V111.664C138.9 106.032 139.892 103.216 141.876 103.216Z" fill="#192729"/>
<path d="M96.6198 116.944C99.4358 116.944 100.844 118.064 100.844 120.304L99.9798 122.128L99.4038 139.696C99.4038 147.632 101.004 152.56 104.204 154.48L104.396 155.92C104.204 157.776 103.34 158.704 101.804 158.704H101.228C96.4278 155.44 94.0278 150.448 94.0278 143.728H93.3558C90.7958 150.896 87.6918 154.48 84.0438 154.48C80.6518 153.52 78.9558 150.992 78.9558 146.896C78.9558 137.872 82.5718 128.88 89.8038 119.92C92.2358 117.936 94.5078 116.944 96.6198 116.944ZM85.0038 143.056L84.6198 145.744V147.568H85.5798C90.3798 135.6 92.7798 128.304 92.7798 125.68H92.3958C88.6838 129.84 86.2198 135.632 85.0038 143.056Z" fill="#FADB67"/>
<defs>
<clipPath id="clip0_6_71">
<rect width="139.695" height="148.035" fill="white" transform="matrix(-0.877148 -0.48022 0.411577 -0.911375 244.072 264)"/>
</clipPath>
</defs>
</svg>
