<svg width="38" height="38" viewBox="0 0 38 38" fill="none" xmlns="http://www.w3.org/2000/svg">
<rect x="5" y="19.5" width="17.6777" height="16.5239" rx="3" transform="rotate(-45 5 19.5)" fill="#FADB67"/>
<path d="M10.9481 30.8457C10.2244 30.315 9.30782 30.5562 8.29474 31.5371C6.89573 32.8718 6.84749 33.3864 8.10178 33.4186C9.22743 33.4507 11.5913 31.312 10.9481 30.8457Z" fill="black"/>
<path d="M10.8675 28.128C10.8675 27.7099 9.37197 27.2757 8.77699 27.533C7.77999 27.9511 2.16784 32.3572 1.76582 32.518C0.784896 32.904 2.29648 33.6919 3.42212 33.3864C4.45129 33.0969 10.8675 28.5783 10.8675 28.128Z" fill="black"/>
<path d="M6.23632 11.7097C7.44237 11.7257 7.76398 11.3076 7.00819 10.6805C5.54485 9.44229 4.40312 9.02419 3.50261 9.41013C2.44128 9.84431 4.61217 11.6775 6.23632 11.7097Z" fill="black"/>
<path d="M25.0348 13.4142C25.9031 13.4303 27.5273 12.4172 27.4308 11.9187C27.2539 11.0182 25.4529 11.0182 24.488 11.9187C23.4428 12.8836 23.6197 13.3981 25.0348 13.4142Z" fill="black"/>
<path d="M9.80632 11.2434C11.3822 11.5329 11.2697 10.761 9.3239 7.99511C5.73791 2.89754 4.53187 1.61109 3.67959 1.96486C2.53786 2.41512 8.1661 10.9218 9.80632 11.2434Z" fill="black"/>
<path d="M34.265 8.81509C33.477 9.15279 27.6076 13.0443 26.1443 14.186C25.8226 14.4433 26.9322 14.8936 27.7523 14.8293C28.5724 14.7649 28.878 14.6041 32.1745 12.4332C34.1203 11.1468 35.9213 9.97291 36.1625 9.82817C37.3203 9.10455 35.6479 8.22011 34.265 8.81509Z" fill="black"/>
<path d="M27.8649 29.5431C26.9966 28.7391 25.7905 28.2888 25.4528 28.6426C25.2438 28.8516 25.694 29.3662 26.5142 29.8325C27.8328 30.5883 28.7815 30.3793 27.8649 29.5431Z" fill="black"/>
<path d="M25.6296 20.8435C26.498 20.3933 26.4819 20.2646 25.501 19.2998C22.4939 16.357 19.9853 9.57098 19.4225 2.91358C19.2135 0.517565 16.9782 -1.74981 15.7883 3.95883C14.2767 11.163 10.7068 18.4958 8.34293 19.2515C6.75094 19.7661 6.92782 20.8435 8.60021 20.8435C11.0766 20.8435 12.5882 23.0787 13.5531 28.2246C14.1802 31.5693 15.2415 36.7473 15.338 37.0207C15.5792 37.6639 17.7823 38.7092 18.3612 34.4317C19.1652 28.3854 22.317 22.532 25.6296 20.8435ZM22.8477 20.1038C20.1944 21.9853 17.5732 25.6356 16.8978 28.4175C16.737 29.0608 16.5602 28.9643 16.4315 28.1763C15.8044 24.1562 14.4697 21.7441 12.2184 20.4737L11.35 19.9752C13.6656 17.5148 14.7109 16.6304 17.3963 9.08856C17.5089 8.76695 17.525 8.81519 18.1039 10.761C19.1813 14.4595 20.5321 17.0967 22.2688 18.9139C23.1371 19.8465 23.1532 19.8948 22.8477 20.1038Z" fill="black"/>
<path d="M25.6296 20.8435C26.498 20.3933 26.4819 20.2646 25.501 19.2998C22.4939 16.357 19.9853 9.57098 19.4225 2.91358C19.2135 0.517565 16.9782 -1.74981 15.7883 3.95883C14.2767 11.163 10.7068 18.4958 8.34293 19.2515C6.75094 19.7661 6.92782 20.8435 8.60021 20.8435C11.0766 20.8435 12.5882 23.0787 13.5531 28.2246C14.1802 31.5693 15.2415 36.7473 15.338 37.0207C15.5792 37.6639 17.7823 38.7092 18.3612 34.4317C19.1652 28.3854 22.317 22.532 25.6296 20.8435ZM22.8477 20.1038C20.1944 21.9853 17.5732 25.6356 16.8978 28.4175C16.737 29.0608 16.5602 28.9643 16.4315 28.1763C15.8044 24.1562 14.4697 21.7441 12.2184 20.4737L11.35 19.9752C13.6656 17.5148 14.7109 16.6304 17.3963 9.08856C17.5089 8.76695 17.525 8.81519 18.1039 10.761C19.1813 14.4595 20.5321 17.0967 22.2688 18.9139C23.1371 19.8465 23.1532 19.8948 22.8477 20.1038Z" fill="black" fill-opacity="0.2"/>
<path d="M22.5583 29.8327C22.092 30.106 22.2207 30.3633 23.5875 32.1C25.9835 35.1393 27.2539 36.0398 28.0419 35.2518C28.4117 34.882 28.2187 34.5443 26.466 32.3895C24.2951 29.7201 23.5714 29.2538 22.5583 29.8327Z" fill="black"/>
</svg>
