<svg width="218" height="75" viewBox="0 0 218 75" fill="none" xmlns="http://www.w3.org/2000/svg">
<path d="M66.0405 0.936C67.6192 0.936 68.8138 2.10933 69.6245 4.456L69.7525 5.128C69.7525 7.41067 68.6858 9.74667 66.5525 12.136C65.6992 12.9253 64.8352 13.32 63.9605 13.32C62.6805 13.32 61.7738 12.584 61.2405 11.112C61.0485 10.4293 60.9525 9.832 60.9525 9.32V8.936C60.9525 5.56533 62.1792 3.00533 64.6325 1.256C65.0592 1.04267 65.5285 0.936 66.0405 0.936ZM62.8405 9.256C62.8405 10.7067 63.2138 11.432 63.9605 11.432C65.5178 11.432 66.8085 9.43733 67.8325 5.448V4.84C67.4698 3.51733 66.7978 2.856 65.8165 2.856C65.4325 2.856 65.2405 3.12267 65.2405 3.656C65.2405 4.01867 64.8138 4.30667 63.9605 4.52C63.2138 5.77867 62.8405 7.35733 62.8405 9.256ZM75.3945 0.391999C76.7385 0.391999 77.5385 1.33067 77.7945 3.208V3.496C77.7945 5.56533 76.7278 7.464 74.5945 9.192C75.8318 10.408 77.9972 11.016 81.0905 11.016C81.5598 11.1653 81.7945 11.496 81.7945 12.008C81.7945 12.584 81.4212 12.872 80.6745 12.872C78.5838 12.872 76.3865 12.3387 74.0825 11.272V12.2C74.0825 14.3973 73.6132 15.496 72.6745 15.496C72.0132 15.496 71.6825 14.2267 71.6825 11.688V9.192L71.5865 8.296L71.8105 7.272L71.5865 4.2V4.072C71.5865 3.496 71.8852 3.10133 72.4825 2.888C73.3145 1.224 74.2852 0.391999 75.3945 0.391999ZM73.7945 7.4C74.4132 7.4 75.1065 6.29067 75.8745 4.072V2.696L75.4905 2.28H75.2025C74.2638 2.92 73.7945 4.62667 73.7945 7.4ZM4.384 41.576C4.98133 41.704 5.28 42.0027 5.28 42.472L5.088 43.88V44.296C5.088 45.2347 5.19467 46.2267 5.408 47.272H5.472C7.94667 46.5253 9.48267 46.152 10.08 46.152C10.6987 46.3227 11.008 46.632 11.008 47.08C11.008 47.8053 10.272 48.168 8.8 48.168L5.472 49.352C5.472 52.232 5.78133 56.1467 6.4 61.096C6.272 61.672 5.96267 61.96 5.472 61.96H5.408C4.66133 61.96 4.288 61 4.288 59.08C4.01067 57.6507 3.776 54.5467 3.584 49.768H3.008C1.00267 49.64 0 49.1707 0 48.36C0 48.1253 0.224 47.8373 0.672 47.496H0.992L2.464 47.88H3.488L3.2 43.88C3.2 42.344 3.59467 41.576 4.384 41.576ZM17.103 48.936C18.6817 48.936 19.8763 50.1093 20.687 52.456L20.815 53.128C20.815 55.4107 19.7483 57.7467 17.615 60.136C16.7617 60.9253 15.8977 61.32 15.023 61.32C13.743 61.32 12.8363 60.584 12.303 59.112C12.111 58.4293 12.015 57.832 12.015 57.32V56.936C12.015 53.5653 13.2417 51.0053 15.695 49.256C16.1217 49.0427 16.591 48.936 17.103 48.936ZM13.903 57.256C13.903 58.7067 14.2763 59.432 15.023 59.432C16.5803 59.432 17.871 57.4373 18.895 53.448V52.84C18.5323 51.5173 17.8603 50.856 16.879 50.856C16.495 50.856 16.303 51.1227 16.303 51.656C16.303 52.0187 15.8763 52.3067 15.023 52.52C14.2763 53.7787 13.903 55.3573 13.903 57.256ZM40.7275 48.04C41.3035 48.04 41.6982 49.0107 41.9115 50.952C41.6982 51.4853 41.3462 51.752 40.8555 51.752C40.5142 51.688 40.1728 51.2933 39.8315 50.568L39.2555 50.376C38.2528 50.376 37.3462 51.0373 36.5355 52.36V52.648C36.5355 52.968 38.0395 53.5013 41.0475 54.248C42.3062 54.9947 42.9355 55.9013 42.9355 56.968C42.9355 58.7173 41.5275 60.2107 38.7115 61.448L37.5275 61.64C35.7355 61.448 34.8395 60.552 34.8395 58.952V58.856C34.8395 58.344 35.1702 58.0453 35.8315 57.96C36.3435 57.96 36.6848 58.4933 36.8555 59.56L37.1115 59.752H37.6555C38.8715 59.752 40.0022 58.92 41.0475 57.256V56.84C41.0475 56.2 39.6502 55.6027 36.8555 55.048C35.3835 54.4507 34.6475 53.6187 34.6475 52.552C34.6475 51.1653 35.8102 49.864 38.1355 48.648C39.1595 48.52 40.0235 48.3173 40.7275 48.04ZM50.092 48.648C51.0307 48.648 51.5 49.0213 51.5 49.768L51.212 50.376L51.02 56.232C51.02 58.8773 51.5533 60.52 52.62 61.16L52.684 61.64C52.62 62.2587 52.332 62.568 51.82 62.568H51.628C50.028 61.48 49.228 59.816 49.228 57.576H49.004C48.1507 59.9653 47.116 61.16 45.9 61.16C44.7693 60.84 44.204 59.9973 44.204 58.632C44.204 55.624 45.4093 52.6267 47.82 49.64C48.6307 48.9787 49.388 48.648 50.092 48.648ZM46.22 57.352L46.092 58.248V58.856H46.412C48.012 54.8667 48.812 52.4347 48.812 51.56H48.684C47.4467 52.9467 46.6253 54.8773 46.22 57.352ZM53.9318 50.216C54.4224 50.216 54.9558 51.3893 55.5318 53.736C56.3424 55.6133 56.8011 56.6053 56.9078 56.712C57.0144 56.712 57.4091 55.6453 58.0918 53.512C58.7744 51.3787 59.4251 50.312 60.0438 50.312C60.6198 50.5253 60.9078 50.8667 60.9078 51.336C59.1371 55.9013 58.2518 58.92 58.2518 60.392L57.6438 61H57.0358C56.2678 60.4453 54.9664 57.512 53.1318 52.2L52.8438 51.016C52.9931 50.4827 53.3558 50.216 53.9318 50.216ZM65.1443 49.512C65.9976 49.5333 67.4376 51.0267 69.4643 53.992L69.5283 54.536C69.5283 55.1333 68.0669 55.592 65.1443 55.912L65.0483 56.008V56.136C65.4963 58.056 65.9656 59.016 66.4563 59.016H66.8403C67.5229 59.016 68.5576 58.28 69.9443 56.808H70.1363C70.5629 56.808 70.8936 57.1173 71.1283 57.736C71.1283 58.248 70.2323 59.1333 68.4403 60.392C67.9709 60.6693 67.4056 60.872 66.7443 61C65.0163 61 63.8109 59.3787 63.1283 56.136C62.1469 55.9867 61.6562 55.5813 61.6562 54.92C61.6562 54.4507 62.0189 54.1413 62.7443 53.992V54.12L63.0643 53.992V53.192C63.0643 50.7387 63.7576 49.512 65.1443 49.512ZM65.3363 51.816H65.0483L64.9203 53V53.992H65.0483C66.2429 53.9493 66.8403 53.8213 66.8403 53.608C66.2856 52.776 65.7843 52.1787 65.3363 51.816ZM85.4445 51.4C86.1912 51.4 86.7032 53.0427 86.9805 56.328C87.3432 57.8427 87.6098 58.6 87.7805 58.6H87.9725C88.5058 57.256 88.7725 55.9227 88.7725 54.6L88.5805 52.392C88.8152 51.816 89.1458 51.528 89.5725 51.528C90.3618 51.528 90.7565 52.9253 90.7565 55.72C91.2258 58.6213 91.4605 61.32 91.4605 63.816V65.32C91.4605 69.9067 90.1592 73 87.5565 74.6L86.8525 74.728C85.6365 74.728 84.5058 73.5973 83.4605 71.336L83.1725 69.416V69.32C83.1725 67.912 83.5672 67.208 84.3565 67.208L85.1565 67.72L85.0605 69.736C85.0605 70.7173 85.5618 71.7093 86.5645 72.712H86.9805C88.1538 72.712 89.0178 70.472 89.5725 65.992L89.6365 64.136C89.6152 61.9813 89.5298 60.6053 89.3805 60.008C88.5272 60.7547 87.8552 61.128 87.3645 61.128C86.2765 61.128 85.3058 58.216 84.4525 52.392L84.3565 52.328C84.3565 51.8373 84.7192 51.528 85.4445 51.4ZM98.0093 48.936C99.5879 48.936 100.783 50.1093 101.593 52.456L101.721 53.128C101.721 55.4107 100.655 57.7467 98.5213 60.136C97.6679 60.9253 96.8039 61.32 95.9293 61.32C94.6493 61.32 93.7426 60.584 93.2093 59.112C93.0173 58.4293 92.9213 57.832 92.9213 57.32V56.936C92.9213 53.5653 94.1479 51.0053 96.6013 49.256C97.0279 49.0427 97.4973 48.936 98.0093 48.936ZM94.8093 57.256C94.8093 58.7067 95.1826 59.432 95.9293 59.432C97.4866 59.432 98.7773 57.4373 99.8013 53.448V52.84C99.4386 51.5173 98.7666 50.856 97.7853 50.856C97.4013 50.856 97.2093 51.1227 97.2093 51.656C97.2093 52.0187 96.7826 52.3067 95.9293 52.52C95.1826 53.7787 94.8093 55.3573 94.8093 57.256ZM104.419 51.368L104.995 51.048C105.507 51.048 105.881 51.3573 106.115 51.976C105.774 53.5547 105.603 55.176 105.603 56.84C105.603 57.672 105.849 58.5787 106.339 59.56H106.531C107.15 59.56 107.886 57.1173 108.739 52.232C109.038 51.976 109.326 51.848 109.603 51.848C110.265 51.848 110.595 53.0213 110.595 55.368C110.873 57.9493 111.182 59.24 111.523 59.24L112.003 59.048C112.622 59.2827 112.931 59.6133 112.931 60.04C112.547 60.8507 112.014 61.256 111.331 61.256C110.563 61.256 109.827 60.488 109.123 58.952C108.27 60.744 107.406 61.64 106.531 61.64C105.23 61.64 104.323 60.2853 103.811 57.576L103.715 56.552V56.232C103.715 54.5253 103.95 52.904 104.419 51.368ZM117.832 48.392C119.176 48.392 119.976 49.3307 120.232 51.208V51.496C120.232 53.5653 119.165 55.464 117.032 57.192C118.269 58.408 120.435 59.016 123.528 59.016C123.997 59.1653 124.232 59.496 124.232 60.008C124.232 60.584 123.859 60.872 123.112 60.872C121.021 60.872 118.824 60.3387 116.52 59.272V60.2C116.52 62.3973 116.051 63.496 115.112 63.496C114.451 63.496 114.12 62.2267 114.12 59.688V57.192L114.024 56.296L114.248 55.272L114.024 52.2V52.072C114.024 51.496 114.323 51.1013 114.92 50.888C115.752 49.224 116.723 48.392 117.832 48.392ZM116.232 55.4C116.851 55.4 117.544 54.2907 118.312 52.072V50.696L117.928 50.28H117.64C116.701 50.92 116.232 52.6267 116.232 55.4ZM141.294 51.496C143.555 51.496 144.889 52.9147 145.294 55.752C145.294 58.2693 144.121 60.072 141.774 61.16C141.518 61.288 141.166 61.352 140.718 61.352H140.494L139.79 61.288V61.352L139.918 69.896C139.769 70.5573 139.427 70.888 138.894 70.888C138.297 70.696 137.998 70.3867 137.998 69.96L137.71 52.552C137.71 51.9973 138.041 51.7093 138.702 51.688L139.374 51.976C139.971 51.656 140.611 51.496 141.294 51.496ZM139.694 54.888L139.598 55.88L139.694 59.272L140.59 59.496C142.019 59.496 142.947 58.4507 143.374 56.36V55.88C143.225 54.1947 142.627 53.352 141.582 53.352H141.102C140.163 53.352 139.694 53.864 139.694 54.888ZM151.02 48.392C152.364 48.392 153.164 49.3307 153.42 51.208V51.496C153.42 53.5653 152.353 55.464 150.22 57.192C151.457 58.408 153.622 59.016 156.716 59.016C157.185 59.1653 157.42 59.496 157.42 60.008C157.42 60.584 157.046 60.872 156.3 60.872C154.209 60.872 152.012 60.3387 149.708 59.272V60.2C149.708 62.3973 149.238 63.496 148.299 63.496C147.638 63.496 147.308 62.2267 147.308 59.688V57.192L147.212 56.296L147.436 55.272L147.212 52.2V52.072C147.212 51.496 147.51 51.1013 148.108 50.888C148.94 49.224 149.91 48.392 151.02 48.392ZM149.42 55.4C150.038 55.4 150.732 54.2907 151.5 52.072V50.696L151.116 50.28H150.828C149.889 50.92 149.42 52.6267 149.42 55.4ZM163.603 48.936C165.182 48.936 166.376 50.1093 167.187 52.456L167.315 53.128C167.315 55.4107 166.248 57.7467 164.115 60.136C163.262 60.9253 162.398 61.32 161.523 61.32C160.243 61.32 159.336 60.584 158.803 59.112C158.611 58.4293 158.515 57.832 158.515 57.32V56.936C158.515 53.5653 159.742 51.0053 162.195 49.256C162.622 49.0427 163.091 48.936 163.603 48.936ZM160.403 57.256C160.403 58.7067 160.776 59.432 161.523 59.432C163.08 59.432 164.371 57.4373 165.395 53.448V52.84C165.032 51.5173 164.36 50.856 163.379 50.856C162.995 50.856 162.803 51.1227 162.803 51.656C162.803 52.0187 162.376 52.3067 161.523 52.52C160.776 53.7787 160.403 55.3573 160.403 57.256ZM173.885 48.712C174.866 48.712 175.357 49.1813 175.357 50.12C175.485 50.12 175.549 50.28 175.549 50.6H175.677L175.549 51.528L175.677 57.992L175.485 63.112C177.405 63.112 178.696 64.52 179.357 67.336C179.357 67.912 178.962 68.2427 178.173 68.328C177.81 68.328 177.405 67.528 176.957 65.928C176.53 65.3093 176.04 65 175.485 65H175.357C174.674 69.544 174.077 71.816 173.565 71.816C172.946 72.9467 172.05 73.512 170.877 73.512C169.149 73.1067 168.285 72.2427 168.285 70.92V70.728C168.285 68.7227 169.714 66.5467 172.573 64.2L173.565 63.592L173.693 60.136V59.336H173.565C172.84 60.2533 172.146 60.712 171.485 60.712H171.293C169.821 60.712 168.978 59.5813 168.765 57.32V56.616C168.765 53.8853 169.768 51.5173 171.773 49.512C172.392 48.9787 173.096 48.712 173.885 48.712ZM170.685 56.2V57.736C170.77 58.44 170.93 58.792 171.165 58.792H171.485C172.082 58.792 172.818 56.5947 173.693 52.2V50.6C172.413 50.6 171.41 52.4667 170.685 56.2ZM170.173 70.792C170.258 71.3253 170.557 71.592 171.069 71.592C172.093 71.592 172.829 69.768 173.277 66.12H173.085C171.144 67.8053 170.173 69.3627 170.173 70.792ZM181.582 48.392C182.926 48.392 183.726 49.3307 183.982 51.208V51.496C183.982 53.5653 182.915 55.464 180.782 57.192C182.019 58.408 184.185 59.016 187.278 59.016C187.747 59.1653 187.982 59.496 187.982 60.008C187.982 60.584 187.609 60.872 186.862 60.872C184.771 60.872 182.574 60.3387 180.27 59.272V60.2C180.27 62.3973 179.801 63.496 178.862 63.496C178.201 63.496 177.87 62.2267 177.87 59.688V57.192L177.774 56.296L177.998 55.272L177.774 52.2V52.072C177.774 51.496 178.073 51.1013 178.67 50.888C179.502 49.224 180.473 48.392 181.582 48.392ZM179.982 55.4C180.601 55.4 181.294 54.2907 182.062 52.072V50.696L181.678 50.28H181.39C180.451 50.92 179.982 52.6267 179.982 55.4ZM191.926 49.512C192.779 49.5333 194.219 51.0267 196.246 53.992L196.31 54.536C196.31 55.1333 194.848 55.592 191.926 55.912L191.83 56.008V56.136C192.278 58.056 192.747 59.016 193.238 59.016H193.622C194.304 59.016 195.339 58.28 196.726 56.808H196.918C197.344 56.808 197.675 57.1173 197.91 57.736C197.91 58.248 197.014 59.1333 195.222 60.392C194.752 60.6693 194.187 60.872 193.526 61C191.798 61 190.592 59.3787 189.91 56.136C188.928 55.9867 188.438 55.5813 188.438 54.92C188.438 54.4507 188.8 54.1413 189.526 53.992V54.12L189.846 53.992V53.192C189.846 50.7387 190.539 49.512 191.926 49.512ZM192.118 51.816H191.83L191.702 53V53.992H191.83C193.024 53.9493 193.622 53.8213 193.622 53.608C193.067 52.776 192.566 52.1787 192.118 51.816ZM205.571 48.04C206.147 48.04 206.542 49.0107 206.755 50.952C206.542 51.4853 206.19 51.752 205.699 51.752C205.358 51.688 205.017 51.2933 204.675 50.568L204.099 50.376C203.097 50.376 202.19 51.0373 201.379 52.36V52.648C201.379 52.968 202.883 53.5013 205.891 54.248C207.15 54.9947 207.779 55.9013 207.779 56.968C207.779 58.7173 206.371 60.2107 203.555 61.448L202.371 61.64C200.579 61.448 199.683 60.552 199.683 58.952V58.856C199.683 58.344 200.014 58.0453 200.675 57.96C201.187 57.96 201.529 58.4933 201.699 59.56L201.955 59.752H202.499C203.715 59.752 204.846 58.92 205.891 57.256V56.84C205.891 56.2 204.494 55.6027 201.699 55.048C200.227 54.4507 199.491 53.6187 199.491 52.552C199.491 51.1653 200.654 49.864 202.979 48.648C204.003 48.52 204.867 48.3173 205.571 48.04ZM215.384 48.04C215.96 48.04 216.354 49.0107 216.568 50.952C216.354 51.4853 216.002 51.752 215.512 51.752C215.17 51.688 214.829 51.2933 214.488 50.568L213.912 50.376C212.909 50.376 212.002 51.0373 211.192 52.36V52.648C211.192 52.968 212.696 53.5013 215.704 54.248C216.962 54.9947 217.592 55.9013 217.592 56.968C217.592 58.7173 216.184 60.2107 213.368 61.448L212.184 61.64C210.392 61.448 209.496 60.552 209.496 58.952V58.856C209.496 58.344 209.826 58.0453 210.488 57.96C211 57.96 211.341 58.4933 211.512 59.56L211.768 59.752H212.312C213.528 59.752 214.658 58.92 215.704 57.256V56.84C215.704 56.2 214.306 55.6027 211.512 55.048C210.04 54.4507 209.304 53.6187 209.304 52.552C209.304 51.1653 210.466 49.864 212.792 48.648C213.816 48.52 214.68 48.3173 215.384 48.04Z" fill="#192729"/>
</svg>
